<?xml version="1.0" encoding="UTF-8"?>
<svg id="Layer_1" xmlns="http://www.w3.org/2000/svg" version="1.1" viewBox="0 0 73.13 67.81">
  <!-- Generator: Adobe Illustrator 30.0.0, SVG Export Plug-In . SVG Version: 2.1.1 Build 123)  -->
  <defs>
    <style>
      .st0 {
        stroke: #fff;
        stroke-miterlimit: 10;
        stroke-width: .5px;
      }

      .st0, .st1 {
        fill: #fff;
      }

      .st2 {
        fill: none;
      }

      .st3 {
        fill: #f6e900;
      }
    </style>
  </defs>
  <path class="st2" d="M34.47,22.32s0,0,0,0h0Z"/>
  <path class="st2" d="M62.82,27.48h.01s-.01,0-.01,0Z"/>
  <path class="st2" d="M67.98,20.22h-.01l-.42-.14-.48-.05s-.1-.01-.15-.03h-.01l-.44-.13c-.19,0-.49.01-.59,0h-.01l-.49-.08c-.48-.08-.97-.08-1.45-.13-.32-.04-.64-.04-.95-.05-.23,0-.63,0-.9.02-.13.02-.55.08-.63.09-.29.02-.81.02-1.13.02-.16.03-.51.09-.56.09h-.02l-.43.03-.43.16c-.07.03-.14.04-.21.05h-.02l-.52.06c-.12.02-.54.11-.52.11-.03,0-.07.01-.11.02h-.02l-.4.03-.39.17c-.11.05-.22.07-.33.08h-.02l-.49.02-.39.09c-.18.08-.48.22-.6.25h-.02l-.5.13-.5.18s-.04.01-.06.02h-.02l-.41.12-.38.23c-.07.04-.14.07-.21.1-.5.17-.97.34-1.46.53-.16.12-.39.3-.47.33h-.02s-.5.29-.5.29c-.05.03-.46.18-.63.25l-.33.17-.33.3s-.08.07-.12.1c-.1.07-.49.33-.57.38l-.41.22c-.13.12-.37.33-.4.35-.22.17-.65.49-.91.67-.26.23-.51.47-.77.7-.19.2-.51.56-.7.77-.08.1-.32.42-.32.43-.06.09-.27.26-.43.39l-.13.3h0c-.06.17-.3.42-.47.59-.08.17-.19.41-.21.46-.14.22-.38.65-.51.91l-.2.5-.19.41c.46,0,.92,0,1.37-.02.11,0,.45.05.65.08.18-.02.48-.06.48-.06.11-.01.4,0,.6,0,.18-.05.46-.14.46-.14.2-.07.58-.04.82-.04l.55-.09c.07-.01.14-.01.2-.01l.51.02c.5-.1,1.2-.24,1.7-.3l.52-.15s.1-.02.14-.03l.53-.07c.16-.05.51-.16.51-.16.24-.06.5-.07.72-.1l.48-.14.58-.21.6-.17s.55-.2.56-.2c.31-.09.47-.09.71-.14l.46-.14.49-.24c.3-.12.47-.13.72-.2.32-.14.65-.28.97-.42l.43-.3c.07-.05.15-.09.22-.12l.61-.23.46-.15.37-.28c.09-.07.18-.12.28-.15l.47-.16c.26-.18.68-.48.88-.62.03-.02.06-.04.09-.06l.54-.31s.05-.02.07-.04l.42-.2.34-.32s.11-.09.16-.13l.51-.31.45-.31.42-.36.39-.37c.1-.11.37-.43.37-.43.03-.03.06-.07.09-.1l.42-.38.37-.41.38-.46s.08-.09.12-.12l.39-.33.31-.42.33-.43.06-.13h0,0Z"/>
  <g>
    <path class="st3" d="M69.12,18.11l-.52-.05c-.05,0-.11-.01-.16-.03h-.01l-.47-.13c-.21,0-.52.01-.62,0h-.01l-.52-.08c-.51-.09-1.03-.09-1.56-.14-.34-.04-.68-.04-1.02-.05-.26,0-.68.01-.97.02-.15.02-.59.08-.67.09-.31.02-.86.03-1.2.03-.17.03-.55.1-.6.1h-.02l-.46.04-.46.18c-.08.03-.16.04-.23.06h-.02l-.56.06c-.12.03-.58.12-.56.12-.04,0-.08.01-.12.02h-.02l-.43.03-.42.18c-.12.05-.23.08-.36.09h-.02l-.52.03-.42.1c-.19.08-.52.23-.64.26h-.02s-.53.14-.53.14l-.54.19s-.04.01-.06.02h-.02s-.44.13-.44.13l-.41.25c-.07.04-.14.08-.22.1-.53.18-1.04.37-1.56.57-.17.12-.42.32-.49.36h-.02s-.54.31-.54.31c-.06.03-.49.19-.67.26l-.35.18-.35.32s-.09.07-.13.11c-.1.07-.52.36-.61.41l-.44.23c-.14.13-.39.35-.43.37-.24.18-.7.52-.97.71-.28.26-.55.51-.83.76-.21.22-.55.6-.75.83-.08.11-.34.45-.34.46-.06.1-.29.28-.47.42l-.14.32h0c-.06.18-.32.45-.5.63-.08.18-.2.44-.23.49-.14.23-.41.7-.55.97l-.21.54-.24.52-.29,1.01v.12s.1.01.1.01c.14,0,.28,0,.41,0l.19-.41.2-.5c.13-.26.37-.68.51-.91.03-.05.14-.29.21-.46.16-.18.41-.42.46-.58h0s.14-.31.14-.31c.17-.13.38-.3.43-.39,0,0,.25-.32.32-.43.18-.21.5-.57.7-.77.26-.23.52-.47.77-.7.26-.18.68-.5.91-.67.03-.02.27-.23.4-.35l.41-.22c.08-.04.47-.31.57-.38.04-.03.09-.06.12-.1l.33-.3.33-.17c.17-.06.58-.21.63-.25l.5-.28h.02c.07-.05.31-.23.47-.35.49-.19.96-.37,1.46-.53.07-.02.14-.06.21-.1l.38-.23.41-.11h.02s.04-.02.06-.02l.5-.18.5-.12h.02c.11-.03.42-.17.6-.25l.39-.09.49-.02h.02c.11,0,.22-.03.33-.08l.39-.17.4-.03h.02s.07-.01.11-.02c-.02,0,.41-.09.52-.11l.52-.06h.02c.07-.01.14-.03.21-.06l.43-.16.43-.03h.02s.39-.07.56-.1c.32,0,.84,0,1.13-.02.08,0,.49-.06.63-.09.27-.01.66-.02.9-.02.32,0,.64.01.95.05.49.05.97.05,1.45.13l.49.07h.01c.1.02.39.01.59.01l.44.12h.01s.1.02.15.03l.48.05.42.13h.01l.17-.34c.03-.06.07-.12.11-.17l.33-.42.26-.49.29-.5c.02-.06.04-.11.07-.17l-.08-.02h-.01Z"/>
    <path class="st3" d="M20.56,20.49l.31-.3c.47-.31.96-.67,1.41-1.02l.47-.15s.1-.03.14-.06h.02s.48-.26.48-.26l.54-.16s.04-.01.07-.02h.02s.53-.22.53-.22l.52-.14c.42-.07.84-.14,1.25-.23l.35-.1c.21.03.47.05.76.02.16-.02.3-.04.42-.08.45.03.9.06,1.35.1l-.1-.11c-.26-.29-.49-.6-.75-.9l-.18-.11c-.42-.03-.89-.05-1.3-.07l-.39.11c-.4.09-.81.16-1.22.23l-.5.14-.52.22h-.02s-.04.02-.07.03l-.52.16-.46.25h-.02s-.09.05-.14.07l-.46.15c-.44.35-.91.71-1.36,1.03l-.34.33-.21.29-.12.34c-.03.18-.07.49-.08.51,0,.04-.02.08-.03.12h0s.1-.09.15-.19h0s0,.01,0,.01Z"/>
    <path class="st3" d="M25.78,25.85c.26-.22.72-.59.99-.79l.39-.38.32-.37.22-.43.11-.26-.13-.47c-.04.05-.09.12-.23.28-.08.09-.21.23-.38.39-.19.17-.2.16-.49.41-.26.22-.26.25-.48.42-.14.11-.26.21-.44.33-.22.14-.4.23-.48.27-.21.1-.18.06-.42.17-.27.12-.32.17-.47.18-.08,0-.16-.01-.31-.05-.13-.03-.27-.07-.34-.1-.26-.1-.36-.27-.6-.51-.34-.35-.34-.21-.59-.49-.26-.28-.43-.61-.71-.93-.04-.05-.09-.09-.09-.09-.23-.25-.27-.22-.37-.36,0,0-.1-.15-.28-.44,0-.01-.01-.01-.01-.02-.03-.04-.14-.21-.34-.32-.03-.02-.1-.05-.27-.1-.26-.07-.46-.1-.51-.11-.44-.07-.42-.32-.98-.51-.22-.08-.23-.04-.78-.2-.28-.08-.36-.12-.45-.16-.13-.07-.4-.23-.44-.26,0,0-.02-.01-.04-.03-.02-.01-.03-.02-.04-.02-.02-.01-.03-.01-.04-.02-.16-.06-.51-.2-.58-.22-.02-.01-.03-.01-.05-.02-.01,0-.02,0-.03-.01,0,0-.02,0-.03-.01-.07-.02-.32-.04-.5-.11-.1-.04-.2-.11-.38-.24-.01-.01-.05-.04-.11-.07-.06-.03-.11-.04-.12-.04-.15-.04-.45-.1-.55-.13-.17-.04-.09-.06-.44-.22-.33-.15-.65-.23-.75-.27,0,0,0,0-.01,0-.34-.1-.39-.06-.55-.12-.16-.05-.32-.15-.44-.22-.01,0-.05-.03-.11-.05-.05-.02-.1-.03-.12-.03-.21-.03-.37-.01-.56-.07,0,0-.1-.03-.45-.2,0,0-.02-.01-.06-.03,0,0-.01,0-.02,0-.01,0-.02,0-.02,0-.04-.01-.6-.16-.6-.15h.04s-.28-.04-.58-.18c-.14-.06-.47-.22-.5-.24,0,0-.02-.01-.05-.02h0s-.43-.14-.57-.19c-.07-.02-.16-.06-.23-.09h-.16s-.02-.01-.02-.01c-.03,0-.06-.01-.08-.02l-.47-.2c-.12-.03-.24-.05-.27-.06s-.12-.04-.28-.12l-.14-.04-.58-.11-.61-.02h-.01s-.06,0-.08-.01l-.57-.2-.59-.03s-.03,0-.04,0l-.6-.13h-.18c.65.26,1.34.49,1.81.66l.61.14s.04.01.05.02h.03c.27.15.76.38,1.06.51l.59.15s.02,0,.03.01l.04.02.55.24.57.21h0l.05.03.5.26.58.21-.04-.02.6.17s.03.01.04.01l.06.03.44.21.56.09c.08.01.15.05.22.09l.43.23.55.14s.01,0,.01,0c.12.05.63.22.74.29l.43.23.54.15c.09.02.17.07.23.12l.38.25.49.13s.04.01.07.02l.05.02.57.25s.06.02.08.04l.04.03.43.27.44.17c.22.06.61.13.77.22.25.14.67.38.97.54l.51.13c.26.06.47.23.59.44v.02s.27.45.27.45l.36.37s.06.06.08.1c.17.23.49.66.68.95.35.3.8.71,1.16,1.04l.34.11.31.06c.29-.1.66-.23.9-.32l.49-.25.45-.31h.02Z"/>
    <path class="st3" d="M38.16,24.4l-.02.53.06.46c.05.18.16.56.17.65l.08.51c.06.17.18.48.18.48.02.06.11.42.16.61.07.16.22.47.22.47.01.03.02.06.03.08l.15.39c.12.13.29.31.29.31.1.1.25.4.36.61l.29.25c.1-.38.25-.93.27-.96v-.02s.06-.12.06-.12c-.04-.1-.09-.18-.12-.25-.03-.13-.1-.37-.17-.61-.06-.18-.12-.36-.17-.48-.01-.11-.04-.31-.09-.51-.02-.08-.04-.17-.09-.35-.02-.09-.05-.2-.08-.28-.01-.11-.04-.33-.06-.47,0-.11.02-.32.01-.53v-.11c0-.52-.05-1.26-.05-1.87,0-.48.01-.89.02-1.07.01-.07.05-.38.07-.72,0-.19,0-.35,0-.5.02-.08.05-.19.07-.31.04-.2.06-.29.07-.43,0-.06,0-.04,0-.31v-.22c.01-.08.03-.24.06-.46.03-.03.14-.22.27-1.22.03-.27.06-.56.07-.68.03-.12.09-.41.11-.51.01-.05.04-.12.07-.22.07-.23.07-.22.1-.3s.02-.1.08-.35c.02-.1.04-.17.05-.23.07-.14.18-.39.22-.46h0c.03-.05.04-.09.05-.12.02-.07.03-.12.03-.12.05-.25.1-.45.12-.55.04-.1.1-.28.18-.49h0c.06-.17.07-.3.09-.39.02-.13.04-.23.05-.3.03-.1.1-.26.18-.45.12-.27.16-.29.26-.52.02-.07.06-.17.12-.36.02-.07.04-.13.06-.18.1-.13.22-.3.27-.35,0,0,0,0,0,0,.01-.02.04-.05.07-.1.04-.07.07-.14.07-.14.23-.55.23-.55.25-.6.08-.22.15-.41.19-.52.06-.09.15-.26.21-.37.08-.08.21-.23.34-.42.1-.14.16-.26.22-.38.07-.13.14-.27.17-.35.09-.12.25-.35.47-.63.26-.32.28-.32.58-.7.16-.2.33-.43.38-.5.06-.07.2-.22.37-.42.01-.01.02-.02.03-.03-.01-.06-.02-.12-.03-.18l-.17-.55s-.02-.07-.02-.1v-.02l-.09-.5-.13-.35s-.08.06-.12.09c-.17.12-.46.34-.67.49-.25.27-.49.54-.73.81l-.37.49c-.35.38-.75.93-1.07,1.35-.11.23-.24.56-.37.7l-.34.39-.21.37-.19.53-.25.6c-.04.09-.09.17-.14.25h0s-.28.34-.28.34c-.06.2-.13.46-.18.55l-.26.52-.18.45c-.04.21-.09.55-.14.68h0s-.19.51-.19.51l-.11.53c-.02.08-.04.16-.08.23h0s-.22.46-.22.46c-.04.19-.1.51-.13.58,0,0-.13.4-.17.54l-.11.5c-.02.19-.04.59-.07.68-.06.29-.19.86-.27,1.18l-.06.48c0,.16,0,.55,0,.55.01.13-.09.51-.14.74,0,.18,0,.49,0,.49,0,.06-.04.5-.07.68,0,.36,0,.76-.02,1.11.02.62,0,1.26.05,1.87v.11h.03Z"/>
    <path class="st3" d="M43.83,62.27s-.01-.04-.02-.04c-.03-.09-.19-.47-.23-.57-.03-.13-.11-.42-.14-.5-.01-.11-.04-.33-.08-.56-.03-.21-.11-.57-.11-.64,0,0,0-.02-.01-.05,0-.01,0-.03-.01-.06,0-.03-.02-.05-.02-.06-.05-.12-.2-.47-.25-.56-.03-.12-.1-.36-.16-.54-.06-.21-.13-.45-.17-.55,0-.17-.03-.46-.03-.52v-.03s0-.03,0-.06c0-.03-.01-.05-.01-.06-.02-.07-.17-.56-.18-.6,0,0,0-.01,0-.03,0,0,0-.02-.01-.03,0-.02-.01-.03-.01-.03-.03-.06-.18-.4-.25-.52-.03-.15-.12-.47-.13-.53,0,0,0-.02-.01-.04,0-.02-.01-.04-.02-.04-.1-.26-.2-.5-.23-.56-.04-.13-.17-.54-.17-.56h0s0-.02,0-.03c0,0,0-.01,0-.02,0,0-.21-.54-.22-.58,0,0,0-.02-.01-.03,0-.02-.01-.03-.02-.03-.19-.35-.17-.33-.31-.56-.12-.2-.26-.43-.31-.51-.03-.08-.14-.31-.25-.54,0-.01-.02-.04-.04-.08-.02-.04-.04-.06-.05-.07-.1-.11-.28-.33-.37-.43-.06-.11-.21-.37-.28-.49,0,0-.01-.02-.03-.05-.01-.02-.03-.04-.03-.04,0,0-.01-.01-.01-.01-.03-.04-.29-.33-.38-.43-.03-.05-.15-.21-.34-.49,0-.01-.02-.03-.04-.05,0,0-.02-.02-.04-.04-.01,0-.02-.01-.02-.02-.04-.04-.32-.29-.42-.38-.07-.08-.22-.25-.38-.48,0,0-.23-.35-.42-.52h0l-.02-.02s-.13-.11-.47-.4c0,0,0,0-.01-.01,0,0-.01-.01-.02-.01-.02-.01-.02-.02-.03-.02-.03-.02-.27-.18-.41-.28-.09-.11-.33-.37-.37-.42l-.02-.02s-.01-.01-.02-.02c-.01-.01-.02-.02-.04-.03-.05-.04-.27-.25-.47-.4-.02-.02-.11-.07-.3-.19-.09-.05-.2-.13-.27-.17-.01-.01-.22-.15-.49-.36,0,0-.14-.12-.48-.37,0,0-.01-.01-.03-.02-.01,0-.02-.01-.03-.02-.02-.01-.03-.02-.05-.03-.04-.02-.28-.16-.42-.24-.09-.09-.35-.3-.43-.37,0,0-.02-.02-.04-.03-.02-.01-.03-.02-.04-.03-.02-.01-.04-.03-.04-.03h0s-.25-.16-.55-.32c-.15-.09-.27-.15-.37-.2-.06-.03-.1-.05-.13-.07-.07-.05-.31-.21-.42-.29-.06-.05-.32-.28-.42-.36-.02-.02-.07-.07-.15-.15-.08-.08-.17-.17-.17-.17,0,0-.25-.23-.54-.51-.17-.17-.34-.32-.57-.49-.15-.11-.16-.12-.02-.01-.15-.11-.26-.19-.33-.25-.04-.06-.09-.13-.15-.21-.12-.16-.17-.25-.23-.32-.12-.14-.17-.18-.46-.46-.2-.19-.33-.32-.41-.39-.06-.08-.18-.22-.3-.41-.13-.18-.22-.35-.28-.43-.03-.06-.23-.45-.28-.53-.03-.06-.08-.17-.13-.31-.04-.1-.08-.21-.17-.35,0,0,0,0,0-.01-.12-.18-.2-.32-.26-.41-.02-.06-.03-.13-.05-.21-.02-.08-.04-.2-.11-.37,0,0,0,0,0-.01-.09-.21-.16-.37-.2-.47-.02-.13-.08-.39-.11-.49-.01-.11-.02-.28-.03-.5,0-.18,0-.21-.01-.39,0-.11-.01-.23-.03-.39-.02-.18-.05-.36-.08-.48.01-.11.02-.25.02-.36.04-.11.1-.31.14-.52.03-.16.03-.29.04-.47,0-.1.01-.22.01-.31.03-.12.08-.29.11-.39.07-.12.23-.45.37-.84.16-.43.17-.62.34-.84l-.17.04-.38.18-.35.29-.27.3c-.2.49-.48,1.09-.68,1.55l-.12.41c0,.25.02.62-.04.78l-.16.5-.03.37.1.48c.03.13.03.65.03.78l.03.54.1.44.21.48h0c.03.08.12.4.18.61l.26.39h0c.05.08.24.54.31.69l.26.49.3.46.31.41c.25.23.65.62.86.84.07.06.25.34.37.52l.35.26h.02c.38.32.77.68,1.11,1.01,0,0,.28.28.33.33l.4.35c.11.07.35.25.43.3.29.16.79.45,1.04.6l.04.03s.06.04.08.06l.42.37.44.24.05.03s.04.02.06.04l.48.37.49.36-.04-.03c.07.05.56.35.61.39l.47.4.04.03s.03.03.04.04l.36.42.42.28.03.02s.02.01.03.02l.47.4.03.02c.1.11.19.23.28.35l.71.82s.06.06.12.12h0s.1.1.1.1l.02.02s.06.06.08.09l.34.49.38.43h.01s.05.07.07.11l.28.49.37.42s.07.1.1.15l.25.54.31.51.31.56s.02.04.03.07l.22.58s0,.02.01.03h0s.17.58.17.58l.23.56s.02.06.03.1l.13.54.07.14s.06-.01.09-.01l.08.18.12.47v.04l.12.39s.02.09.02.13v.03l.02.53.18.54.16.55.25.55s.03.08.03.12v.05s.12.64.12.64l.07.56.14.5.23.57s.02.06.03.09v.06s.12.54.12.54l.14.43c.21-.04.54-.11.61-.1h.23c.01-.1.02-.16.02-.2,0,0,.1-.88.03-1.35,0-.05-.02-.11-.02-.11h0v-.04ZM31.93,44.46h.03-.03ZM32.01,44.51h0Z"/>
  </g>
  <polygon class="st1" points="28.27 13.36 28.22 13.29 28.47 13.67 28.27 13.36"/>
  <path class="st0" d="M70.89,16.69l-.57-.26s-.06-.02-.09-.03l-.59-.2c-.06-.02-.14-.04-.21-.04l-.53-.06-.51-.15c-.08-.02-.17-.03-.26-.04h-.55l-.48-.08c-.65-.1-1.3-.12-1.95-.2-.68-.06-1.42-.05-2.09-.02h-.01l-.56.07h-.56s-.6,0-.6,0c-.05,0-.1,0-.15.01h-.02l-.56.09-.58.04c-.09,0-.18.02-.27.06h-.02s-.46.17-.46.17l-.49.04s-.06,0-.08.01h-.02l-.53.11-.56.03c-.11,0-.22.03-.33.08h-.02s-.39.17-.39.17h-.44c-.06.01-.12.02-.17.03h-.02l-.61.13c-.06.01-.12.03-.18.06l-.48.2-.52.12s-.07.02-.1.03h-.02s-.54.19-.54.19l-.57.15c-.09.02-.19.06-.27.11h-.01s-.43.27-.43.27c-.56.18-1.14.38-1.68.6-.09.03-.18.08-.26.14l-.45.32-.41.21-.52.18s-.09.03-.13.06l-.55.28c-.09.04-.18.11-.26.18l-.4.37c-.11.07-.32.21-.4.27-.22.13-.47.22-.7.41l-.44.38c-.25.19-.71.53-.95.69-.37.32-.73.66-1.09.99-.21.23-.64.71-.85.95-.02.02-.03.04-.05.06l-.28.38-.37.31h0c-.21.14-.37.55-.49.83l-.29.32v.02c-.14.11-.32.58-.41.78-.17.28-.45.81-.58,1.08-.02.03-.03.07-.05.11l-.2.54-.18.41-.05.12v.02s-.18.58-.28.96l-.29-.25c-.11-.21-.26-.52-.36-.61,0,0-.16-.18-.29-.31l-.15-.39s-.02-.06-.03-.08c0,0-.15-.31-.22-.47-.04-.18-.13-.54-.16-.61,0,0-.12-.32-.18-.48l-.08-.51c-.01-.09-.12-.46-.17-.65l-.06-.46.02-.53v-.11c-.05-.61-.03-1.26-.05-1.87.01-.35.02-.75.02-1.11.02-.17.07-.61.07-.68,0,0,0-.31,0-.49.06-.22.16-.61.14-.74,0,0,0-.39,0-.55l.06-.48c.08-.32.2-.88.27-1.18.02-.1.05-.49.07-.68l.11-.5c.04-.14.17-.54.17-.54.02-.07.09-.39.13-.58l.22-.45h0c.04-.08.07-.16.08-.23l.11-.53.19-.5h0c.05-.13.11-.48.14-.69l.18-.45.26-.52c.05-.1.12-.36.18-.55l.28-.33h0c.06-.08.11-.16.14-.26l.25-.6.19-.53.21-.37.34-.39c.13-.15.27-.48.37-.7.31-.43.72-.97,1.07-1.35l.37-.49c.24-.27.48-.54.73-.81.21-.15.5-.37.67-.49.03-.03.08-.06.12-.09l.13.35.09.5v.02s.02.07.03.1l.17.55c.01.06.02.12.03.18.06.3.12.59.18.89v.55c0,.06,0,.12.01.18l.27,1.18.07.52.04.52-.06.51c-.01.09-.02.18,0,.27l.12.6.06.5-.04.49-.07.6v.06s-.01.05,0,.08l.03.61v-.06.6s-.04.6-.04.6v.06h0l.02.55-.13.47-.02.06s-.01.05-.01.09l-.02.54-.18.45-.02.06c-.05.14-.02.23-.04.5,0,.14,0,.26,0,.26-.01.68.98.79,1.1.1l.07-.48c.09-.17.34-.61.32-.65,0-.04.05-.39.08-.57l.2-.55s.03-.09.03-.14v-.06l.03-.56.09-.62.06-.63h0v-.58c.07-.37.2-.97.22-1.33,0-.07-.03-.66-.05-.73l-.06-.46.09-.51s.01-.1.01-.14v-.04l-.02-.64-.06-.64c-.07-.39-.14-.78-.22-1.17.01-.21.03-.66.01-.71-.06-.35-.15-.98-.23-1.32l-.15-.52c-.02-.14-.08-.56-.08-.56-.03-.17-.14-.43-.2-.61-.15-.41-.25-.82-.34-1.26-.15-.73-1.1-1.01-1.63-.49h0s-.42.4-.42.4c-.49.33-.99.72-1.46,1.06-.36.32-.66.71-.99,1.06-.02.02-.03.04-.05.06l-.36.47c-.38.41-.85,1.04-1.18,1.48-.03.05-.07.11-.1.17l-.21.43-.32.37s-.09.11-.12.17l-.31.54s-.05.11-.07.16l-.2.56-.17.41-.31.38c-.08.1-.15.22-.19.35,0,0-.11.36-.16.52l-.25.52-.25.61c-.02.06-.04.13-.06.19l-.1.52-.19.49s-.03.1-.04.14c0,0-.07.3-.11.48l-.22.45c-.03.07-.07.16-.09.24,0,0-.09.41-.12.55l-.18.54s-.02.07-.03.1c0,0-.13.61-.13.61,0,.03-.01.07-.02.11,0,0-.04.39-.05.55l-.12.54-.14.59s-.01.07-.02.11l-.08.61s0,.1,0,.14v.49s-.11.48-.11.48h0c-.02.08-.03.17-.03.26v.56c-.01.15-.05.56-.05.56-.01.28,0,.59-.01.87,0,.26-.02.53,0,.79.02.4,0,.79.02,1.19l.02.35-.02.57h0c0,.06,0,.12,0,.18l.09.61s.02.1.03.14l.15.55.09.55h0c.01.07.03.14.05.2l.2.54c.05.2.12.55.2.72l.25.51.2.54c.05.2.36.5.55.7.12.25.27.59.46.73.04.03,1.01.9,1.03.89l.34.23c-.04.27-.08.53-.1.79.05.59.11,1.36.17,1.94l.15.6v-.11s.06.61.06.61c-.01.06.14.64.16.71l.17.6c.06.22.17.42.26.63.07.21.15.42.22.64.11.2.27.37.39.55.08.22.12.46.25.66l.39.48h.01s.35.35.46.44l.36.46c.05.08,1.03.78,1.12.85.38.25.85.48,1.24.7l.39.23s.06.03.09.04l.54.2.52.3s.04.02.06.03h.02s.59.22.59.22c.05.02.43.07.63.1l.51.26c.06.03.12.04.19.05l.56.07c.24.07.48.13.72.21.75.26,1.55.42,2.3.62.11.01.67.11.78.11h.52s.56.15.56.15c.08.01.48.04.67.06l.6.12c.09.01.45.02.65.03l.56.13c.07.02.14.02.22.01h.06s.49-.05.49-.05l.53.09s.06,0,.09,0h.56s.55.13.55.13c.04,0,.08.01.12.01h.05l.85.03v.13l-.13.53v.04s-.08.66-.1.71l-.07.54-.37.09-.39-.08c-.11-.02-.21-.03-.32-.01l-.58.1h-.48l-.52-.09h-.07s-.66-.01-.66-.01l-.58-.03-.52-.11h-.06s-.01-.01-.01-.01l-.64-.07-.59-.03-.5-.15h-.05s-.07-.03-.11-.03l-.58-.02-.5-.15h-.04s-.02-.01-.02-.01l-.92-.17c-.86-.13-1.79-.41-2.62-.67l-.48-.3h-.02s-.06-.04-.1-.05l-.59-.18c-.29-.11-.87-.33-1.16-.42l-.51-.21c-.12-.1-.45-.36-.45-.36-.04-.03-.09-.06-.14-.07l-.55-.17-.45-.31c-.41-.29-.9.27-.54.64.03.02.51.54.54.51l.54.29.98.67.42.43s.03.03.06.05l.51.37s.02.01.03.02l.55.34.53.29.49.36s.04.03.07.04h.01s.45.21.55.26c.1.06.37.23.46.29l.46.4s.03.03.05.04h.02s.54.34.54.34c0,0,.04.02.06.03l.5.22c.15.12.54.47.61.46h.02s.53.17.53.17l.48.3s.02.01.03.02h.02s.51.26.51.26l.5.35.55.34s.02.01.03.02h.02s.84.42.84.42c.28.13.6.32.88.46h.02s.54.2.54.2l.52.28s.07.03.1.04h.02s.49.16.49.16l.44.31s.06.04.1.05h.02s.13.07.13.07c-.07.22-.14.46-.2.64l-.27.44s-.06.11-.07.17l-.13.42-.3.33s-.04.06-.07.09c.01-.01-.25.36-.31.46l-.12.14-.1-.06h0s-.03-.02-.06-.03l-.52-.26-.48-.33-.55-.34h-.01s-.06-.04-.09-.06l-.5-.21c-.3-.24-.6-.48-.91-.71-.04-.03-.09-.06-.14-.09l-.52-.23-.44-.32c-.25-.18-.77-.55-1.03-.72l-.49-.37-.02-.02s-.03-.02-.04-.03l-.53-.3-.45-.32-.42-.39s-.06-.06-.1-.08c-.25-.14-.72-.43-1-.6l-.35-.41h-.01s-.03-.05-.05-.06l-.48-.41s-.04-.04-.07-.06l-.52-.31-.45-.34-.43-.41s-.06-.05-.1-.07l-.48-.29c-.11-.12-.38-.41-.38-.41-.02-.02-.05-.04-.08-.07l-.47-.33-.39-.42c-.36-.31-.75-.59-1.13-.87-.52-.38-1.17.28-.76.8,0,0,.32.38.41.49l.3.49c.05.09.42.45.5.54l.37.4.29.49.32.52s.03.05.06.08c-.02-.03.37.43.39.46.07.09.28.37.33.45l.31.5s.06.09.1.12l.02.02.39.35.29.43.3.51c.07.12.32.33.49.48.1.19.29.58.37.62l.33.33.19.46c.02.05.05.11.09.15.37.47.76.95,1.16,1.4l.3.48s.03.05.05.07h.01s.41.5.41.5l.37.39.26.46c.03.05.07.11.11.15,0,0,.29.31.39.41l.3.42.27.5h0c.07.13.32.4.46.55l.29.47h0s.03.06.06.09c-.09.06-.31.28-.44.4-.32.17-.64.33-.96.49-.03.01-.05.03-.08.04l-.48.32-.42.26-.1.03-.06-.13v-.02c-.03-.06-.07-.12-.12-.17l-.37-.4-.22-.46v-.02s-.02-.03-.03-.04l-.32-.5-.25-.51v-.03s-.04-.05-.06-.07l-.35-.48-.27-.49-.28-.55s-.04-.07-.06-.1l-.38-.47-.32-.45-.22-.51v-.02s-.02-.03-.03-.05l-.32-.53v-.02s-.03-.02-.03-.03l-.36-.46c-.07-.14-.25-.5-.25-.5-.25-.35-.55-.67-.82-1.01l-.21-.51s-.03-.07-.06-.11l-.35-.49-.31-.52-.35-.53s-.02-.02-.03-.04l-.37-.45-.28-.51-.31-.54s-.04-.07-.07-.1c0,0-.27-.27-.39-.39-.16-.33-.42-.84-.59-1.12h0s-.27-.34-.27-.34c-.02-.03-.04-.07-.07-.1l-.02-.02s-.02-.03-.04-.05l-.42-.45h0c-.19-.22-.51-.24-.74-.06-.22.19-.25.52-.06.74v.02s.37.42.37.42l.29.49s.19.36.26.48l.2.55s0,.02.01.03l.02.04.26.5.2.49.13.58s.01.04.02.06l.02.05s.14.35.21.49l.15.57s.02.06.03.09l.03.06.21.4c.02.21.07.63.13.7.01.03.14.26.22.43.01.22.03.61.07.67.01.04.14.36.21.54l.12.57s.01.06.02.09l.02.06.2.5c.14.53.33,1.09.47,1.63.01.18.04.61.06.65v.03s.13.55.13.55l.09.58c.01.06.03.13.05.19h0s.22.55.22.55l.16.49c.08.41.17.87.27,1.31l-.23.03h-.03s-.03.01-.06.01l-.56.14h-.31s-.23.02-.23.02c-.07,0-.39.06-.61.1l-.14-.43-.11-.54v-.06s-.02-.06-.04-.09l-.23-.57-.14-.5-.07-.56-.11-.64v-.05s-.03-.08-.04-.12l-.25-.55-.16-.55-.18-.54-.02-.53v-.03s-.01-.09-.02-.13l-.12-.39-.06-.2v-.03s-.02-.04-.03-.06l-.18-.38-.07-.14-.13-.54s-.02-.06-.03-.1l-.23-.56-.17-.57h0s-.01-.03-.01-.04l-.22-.58s-.02-.04-.03-.07l-.31-.56-.31-.51-.25-.54c-.02-.05-.06-.1-.1-.15l-.37-.42-.28-.49s-.04-.06-.07-.1h-.01s-.38-.45-.38-.45l-.34-.49s-.05-.07-.08-.09l-.02-.02-.1-.09-.31-.28c-.18-.22-.35-.45-.52-.67-.09-.12-.18-.23-.28-.35l-.03-.02-.47-.4s-.02-.02-.03-.02l-.03-.02-.42-.28-.36-.42s-.03-.03-.04-.04l-.04-.03-.47-.4s-.54-.34-.61-.39l.04.03-.49-.36-.48-.37s-.04-.03-.06-.04l-.05-.03-.44-.24-.42-.37s-.05-.04-.08-.06l-.04-.03c-.26-.16-.75-.45-1.04-.6-.08-.05-.32-.22-.43-.3l-.4-.35s-.33-.33-.33-.33c-.35-.33-.74-.69-1.11-1h-.02s-.35-.27-.35-.27c-.12-.19-.29-.47-.37-.52-.21-.21-.61-.6-.86-.84l-.31-.41-.3-.46-.26-.49c-.07-.15-.26-.61-.31-.68h0s-.26-.4-.26-.4c-.05-.2-.14-.53-.17-.6h0s-.21-.49-.21-.49l-.1-.44-.03-.54c0-.14,0-.66-.03-.78l-.1-.48.03-.37.16-.5c.06-.16.04-.52.04-.78l.12-.41c.21-.46.49-1.07.68-1.55l.27-.3.35-.29.38-.18.17-.04.38-.1c.09-.02.17-.06.26-.1l.47-.27c.41-.12.83-.29,1.22-.42.2-.06.49-.13.67-.25l.45-.28.5-.22c.23-.12.68-.3.86-.49h0l.32-.33c.2-.11.48-.28.6-.39h0l.36-.36c.18-.13.5-.35.6-.47.07-.09.45-.49.49-.58.08-.12.38-.57.43-.69l.27-.65c.12-.26.07-.75.07-1.06l.06-.64c.04-.3-.17-.79-.25-1.09-.05-.18-.28-.52-.41-.73-.06-.12-.18-.39-.22-.48l-.2-.54h0c-.03-.08-.07-.15-.11-.22l-.33-.5c-.28-.47-.66-1.1-.92-1.58-.06-.11-.26-.36-.34-.47-.26-.36-.51-.78-.79-1.15-.04-.07-.39-.47-.46-.55h-.01c-.04-.07-.36-.37-.47-.49-.26-.31-.51-.62-.78-.92-.07-.09-.16-.17-.27-.22-.26-.13-.7-.47-1-.46l-.46-.03c-.33-.02-.99-.04-1.34-.04-.12,0-.23,0-.35.04l-.52.17c-.39.09-.78.16-1.17.25l-.6.18h-.02s-.06.03-.09.04l-.55.24-.54.18h-.02c-.1.03-.45.25-.62.35l-.52.19c-.11.03-.2.09-.3.17-.41.33-1.02.86-1.45,1.16-.04.03-.09.07-.13.11l-.43.47-.03.03s-.04.06-.07.09l-.31.48c-.07.1-.14.3-.19.49-.14-.01-.27-.03-.35-.04l-.54-.14-.6-.12-.48-.2-.07-.03c-.13-.06-.52-.06-.73-.08l-.46-.18c-.07-.03-.17-.07-.26-.06h-.56l-.46-.16-.61-.21-.06-.02s-.01,0-.02,0l-.62-.12h-.06s-.02-.01-.02-.01l-.64-.02-.55-.09-.54-.18h-.04s-.04-.02-.07-.03l-.61-.04-.55-.16h-.03s0-.01,0-.01l-.62-.11h-.03s-.03,0-.03,0h-.59s-.54-.2-.54-.2c0,0-.03-.01-.03-.01l-.62-.14h-.02s-.62-.1-.62-.1h-.65s-.56-.17-.56-.17c-.02-.01-.05-.01-.08-.01h-.61c-.12-.04-.6-.14-.6-.13h-.04l-.59-.02-.57-.2s-.06-.01-.09-.01h-.62l-.56-.05c-.11-.01-.22.05-.28.16-.07.14,0,.31.13.37l.5.25s.05.02.07.02l.57.1c.66.38,1.37.71,2.08,1,.26.1.5.22.75.32l.54.17.51.3.55.3s.02.01.03.01h.04s.52.2.52.2l.54.3.51.25.52.33s0,0,.01,0l.05.02.56.27.04.02.49.19.23.14.28.17s.07.04.12.05l.07.02.46.12.45.3s.07.04.1.05l.07.02.51.18.47.23.51.33s.07.04.11.05l.06.02.43.16.42.32c.06.04.13.08.2.11l.06.02.5.17.43.21.47.34s.08.05.12.07l.04.02.56.25s.06.02.08.03h.04s.46.14.46.14l.44.28.55.31s.11.04.16.07c.02,0,.03.02.05.02h.02l.21.06.12.21c.04.06.09.13.14.19h0s.39.41.39.41c.19.26.52.72.67.95.25.3.58.52.85.8l.69.63c.1.09.22.17.36.21l.6.19s.08.02.12.03l.62.12h0c.16.03.33.02.49-.03l.63-.21.62-.23h.01s.64-.34.68-.36c.04-.02.08-.04.11-.07l.54-.39s.05-.03.07-.06l.48-.42.5-.4h.01c.09-.09.49-.5.58-.59l.42-.49v-.02c.12-.12.33-.6.4-.75v-.02s.02-.02.03-.04l.25-.61c.09-.19.1-.42.03-.64l-.39-1.24v-.03c-.03-.08-.07-.15-.12-.22l-.35-.5-.29-.52v-.03c-.3-.4-.69-.73-1.02-1.09-.1-.1-.21-.18-.35-.23l-.62-.2c-.16-.06-.32-.07-.5-.02l-.59.16-.57.09c-.14.02-.28.07-.39.16l-.42.33-.4.13h-.04c-.29.08-.49.49-.66.73l-.34.32-.03.03c-.08.07-.14.17-.17.28l-.35,1.09c-.05.13-.06.28-.02.43l.16.55c.02.09.05.16.11.23l.35.46c.04.05.07.1.13.14l.47.35c.07.05.14.1.22.12l.58.15c.1.03.21.04.32.01l.56-.16h.06s.05-.03.08-.04l.49-.27.05-.03c.14-.06.39-.5.49-.63.37-.58-.41-1.18-.87-.67l-.28.33-.32.14-.34.06-.28-.1-.27-.23-.19-.3-.05-.22.27-.68.31-.26c.06-.05.18-.21.29-.36.19-.05.4-.1.54-.19l.03-.02.33-.24.45-.04s.04,0,.06-.01h.04s.35-.09.35-.09l.16.06c.21.23.42.48.63.71l.25.5s.02.04.03.06l.02.03.27.42.09.32.13.47-.11.26-.22.43-.32.37-.39.38c-.27.2-.74.57-.99.79l-.45.31-.49.25c-.23.09-.61.22-.9.32l-.31-.06-.34-.11c-.36-.33-.81-.75-1.16-1.04-.2-.29-.51-.71-.68-.95-.02-.03-.05-.07-.08-.1l-.36-.37-.26-.45v-.02c-.14-.21-.35-.38-.6-.44l-.51-.13c-.3-.16-.72-.4-.97-.54-.16-.09-.55-.16-.77-.22l-.44-.17-.43-.27-.04-.03s-.05-.03-.08-.04l-.57-.25-.05-.02s-.04-.02-.07-.02l-.49-.13-.38-.25c-.07-.05-.15-.1-.23-.12l-.54-.15-.43-.23c-.11-.07-.62-.24-.74-.29,0,0-.01,0-.01,0l-.55-.14-.43-.23c-.07-.04-.14-.08-.22-.09l-.56-.09-.44-.21-.06-.03s-.02-.01-.04-.01l-.6-.17.04.02-.58-.21-.5-.26-.05-.02h0l-.57-.21-.55-.24-.04-.02s-.02,0-.03-.01l-.59-.15c-.3-.13-.79-.36-1.06-.49h-.03s-.03-.03-.05-.03l-.61-.14c-.47-.17-1.16-.4-1.81-.67h.18s.6.13.6.13c0,0,.03,0,.04,0l.59.03.57.2s.05.01.08.01h.01l.61.02.58.11.14.04.44.13.11.04.47.2s.05.02.08.02h.02l.16.02.44.04.56.15.59.22s.03.01.05.01h.04s.55.1.55.1l.54.25s.02,0,.02.01h.05s.61.18.61.18h.07s.56.08.56.08l.52.16.56.26.56.28s.1.04.16.04h.07s.47.06.47.06l.48.25s.09.04.14.04h.07s.47.1.47.1l.48.26s.06.03.09.03l.07.02.58.17.57.2s.03.01.05.01h.07s.48.11.48.11l.52.25c.07.03.15.06.23.07.43.07.84-.19.97-.6.01-.04.02-.08.03-.12,0-.02.05-.33.08-.51l.12-.34.21-.29.34-.33c.46-.31.93-.68,1.36-1.03l.46-.15s.1-.03.14-.06h.02s.46-.26.46-.26l.52-.16s.04-.01.07-.02h.02s.52-.22.52-.22l.5-.14c.41-.08.81-.14,1.22-.23l.39-.11c.41.02.88.03,1.3.07l.18.11c.25.3.49.6.75.9l.1.11.3.3.33.41c.06.09.23.35.23.35.23.35.51.8.78,1.14.16.29.45.8.6,1.05l.32.56.28.44.17.48s.02.04.03.07h0s.26.58.26.58c.02.04.04.08.06.11l.26.43.1.32-.04.47s0,.08,0,.12v.47s-.13.34-.13.34l-.23.35-.27.3-.39.29c-.08.06-.31.29-.46.44l-.39.23h-.01c-.14.08-.35.32-.51.49-.27.14-.65.31-.86.41-.08.03-.35.2-.51.31-.55.17-1.1.39-1.64.56-.13.03-.44.23-.64.35l-.5.14h-.02c-.14.03-.61.29-.76.35-.19.09-.57.44-.74.58-.09.06-.46.52-.54.6-.08.09-.15.19-.19.31-.1.25-.23.62-.35.86l-.38.87v.02c-.04.07-.19.66-.22.74-.06.16-.04.53-.03.78l-.13.46v.02c-.06.16-.07.68-.08.85-.02.16.09.58.13.8.02.4.03.99.09,1.35l.14.61v.02c.03.12.21.51.3.69l.14.52v.02c.04.18.31.54.44.74l.22.49h0s.02.05.02.07l.3.55h0s.02.06.04.08l.37.55.4.52h.01c.03.05.07.09.1.13l.46.42.38.36.29.43v.02c.11.18.54.42.72.56.47.37.95.78,1.38,1.19l.49.38.04.03c.11.07.54.35.65.4.26.12.76.36,1.03.51l.41.32.04.03s.07.04.11.06l.52.25c.29.2.76.5,1.02.67,0,0,.42.23.52.28l.41.3.38.38.03.03c.06.07.51.31.63.38l.41.31.76.87c.04.06.37.32.51.43l.32.43v.02s.03.02.04.03l.38.41.28.48h0c.03.07.3.36.43.5l.22.49h0c.02.06.32.52.35.59l.27.5.2.52.16.58s.01.03.01.04h0s.21.54.21.54l.12.58s.02.08.04.12l.23.52.12.47v.58c0,.17.14.58.18.77l.13.6s0,.03.01.05v.04s.19.49.19.49l.06.54.03.61s0,.03,0,.05v.06s.13.61.13.61c0,0,0,.02.01.03l.02.05.17.5.07.57s0,.03,0,.04v.06s.14.52.14.52c.02.21.05.52.09.71.08.48.55.8,1.03.69h.05s.57-.14.57-.14l.54-.07h.62c.13,0,.56-.09.76-.13l.55-.05h.63c.59.01,1.06-.55.94-1.13v-.02l-.12-.63-.14-.61-.23-1.2h0s-.02-.08-.03-.12l-.21-.61-.21-.51-.09-.49v-.02s-.01-.03-.01-.04l-.14-.54-.07-.53v-.04c-.12-.49-.33-.98-.49-1.46l-.15-.43-.02-.06s-.01-.03-.02-.04l-.25-.51-.14-.48-.02-.06s-.02-.04-.03-.07l-.23-.47v-.03l.39.5.23.52c.04.08.3.43.4.56l.27.48.21.56s.03.07.06.11l.35.53.34.46c.14.32.39.85.55,1.14v.02s.32.46.32.46l.23.53s.02.04.03.07c-.02-.03.22.38.29.5l.23.54c.02.06.06.11.11.17l.33.39.19.48c.07.19.23.33.44.39.19.06.42.16.62.09l.58-.14c.06-.01.13-.04.18-.08l.52-.3.47-.3c.35-.16.69-.33,1.04-.49.06-.03.12-.07.17-.12l.39-.35.45-.29c.15-.1.27-.24.31-.42h0s.1-.34.1-.34c.07-.25,0-.51-.18-.71h0s-.37-.39-.37-.39l-.28-.46s-.04-.07-.07-.1l-.34-.4-.25-.47s-.03-.06-.05-.09l-.36-.5s-.04-.06-.07-.08l-.36-.38-.26-.46h0c-.03-.06-.07-.11-.11-.16l-.41-.43-.36-.42-.3-.47h-.01c-.4-.48-.81-.93-1.2-1.4l-.21-.47v-.02c-.04-.07-.1-.14-.16-.2l-.39-.36-.26-.43v-.02c-.04-.06-.09-.11-.14-.15l-.41-.35-.28-.44-.37-.51-.02-.02s-.37-.32-.52-.44l-.13-.2c.13.08.3.19.38.24l.4.36.38.47s.08.09.13.12c.25.17.72.48,1,.66l.4.4s.04.03.06.05l.5.38s.03.02.05.03c-.02-.02.38.24.49.31.43.36,1.03.8,1.46,1.14l.48.39s.07.05.11.07h.02s.49.25.49.25c.35.28.7.64,1.07.86l.52.23.47.3.49.36c.08.06.46.24.61.32l.51.32c.2.13.47.16.7.04.17-.09.45-.17.56-.34l.37-.46s.02-.03.03-.04c0,0,.22-.33.3-.45l.38-.41c.07-.08.13-.18.16-.29l.15-.5.26-.43h0c.03-.06.05-.11.07-.17l.16-.57.17-.57h0c.04-.16.04-.31-.01-.47l-.09-.25v-.02c-.07-.17-.2-.31-.38-.39l-.53-.22-.47-.31h-.02c-.05-.05-.11-.07-.17-.09l-.56-.16-.49-.25h-.02s-.04-.03-.07-.04l-.56-.19c-.46-.22-1.23-.57-1.67-.76l-.5-.28-.52-.33-.03-.02s-.04-.02-.06-.03l-.56-.23-.51-.29s-.09-.04-.14-.06l-.53-.13-.41-.31s-.08-.05-.12-.07l-.57-.22-.48-.27-.46-.36h-.02s-.03-.03-.04-.04l-.54-.31h-.02s-.03-.02-.04-.03l-.5-.2.34.12c.85.32,1.82.53,2.7.77l.58.22s.07.02.1.02h.05s.52.06.52.06l.54.21s.1.02.16.03l.6.08.52.11.6.18s.03.01.05.01h.06s.64.1.64.1l.55.05.58.15s.04.01.07.01c0,0,.67.05.69.06.1,0,.38-.03.59-.05l.49.13c.12.04.26.03.39,0l.46-.08.52.07s.05,0,.08,0c.5.02.93-.37.95-.87v-.06l.03-.58.12-.62.1-.59.17-.61c.02-.07.03-.15.03-.23.01-.43.03-.97,0-1.41-.04-.55-.52-.96-1.07-.92l-.58.04c-.38,0-.76,0-1.13.01l-.52-.09h-.05s-.09-.02-.14-.01l-.58.02-.52-.06h-.06c-.06-.01-.12,0-.18,0l-.52.08-.45-.07h-.07s-.07-.02-.11-.02l-.59.02-.52-.07h-.06s-.64,0-.64,0l-.52-.08h-.07s-.06-.02-.1-.01l-.62.03-.55-.03c-.38-.08-1.56-.22-2.21-.41-.28-.07-.58-.13-.87-.18l-.55-.02-.47-.2h-.03s-.09-.04-.13-.04l-.6-.06-.5-.16-.51-.27h-.02s-.03-.03-.06-.03l-.56-.18c-.38-.23-.82-.43-1.2-.64l-.38-.22c-.31-.22-.61-.45-.92-.68l-.33-.43s-.03-.03-.04-.05l-.42-.4-.29-.38c-.06-.21-.09-.43-.17-.63-.1-.16-.19-.31-.28-.47-.07-.35-.17-.84-.26-1.17l.02.08c-.03-.3-.08-.9-.09-1.2v.1s.06-.61.06-.61c-.01-.06-.03-.65-.04-.72v.12c.05-.48.11-1.16.13-1.67.02-.06.03-.13.05-.2.2.02.43.04.54.04.59-.01,1.18-.01,1.78-.03l.54.08h.01c.17.03.56-.04.79-.07h.56s.01.01.01.01c.18.01.52-.11.77-.18h.48c.1,0,.46-.06.66-.1.22.01.64.04.76,0,.5-.1,1.28-.27,1.78-.33.1-.01.47-.13.66-.18l.54-.07h.01c.11-.01.46-.13.66-.2l.52-.06h.01c.13-.01.62-.17.78-.21l.58-.21.6-.17.54-.19.53-.09h.01c.1-.02.59-.18.7-.21.11-.03.42-.19.6-.28l.51-.12c.44-.15.86-.37,1.29-.54.14-.06.41-.26.6-.4l.45-.17.57-.18c.1-.03.2-.09.3-.16l.37-.29.44-.15c.21-.07.56-.35.77-.48l.48-.35c.11-.07.38-.21.46-.27.13-.06.52-.25.52-.25.19-.09.44-.35.63-.54l.47-.29.53-.37c.09-.06.47-.4.57-.48l.47-.44s.05-.05.08-.08l.36-.43.41-.37s.05-.04.07-.07c.2-.22.57-.64.78-.9.13-.11.42-.35.42-.35.15-.13.37-.48.51-.66l.37-.48c.09-.11.25-.45.34-.64l.32-.41s.07-.09.09-.14c.14-.28.43-.8.59-1.07.01-.01.52-1.23.53-1.26.2-.49-.02-1.06-.51-1.27h-.05s0,0,0,0h.02ZM69.13,18.31l-.29.5-.26.49-.33.42s-.08.11-.11.17l-.17.34-.06.13-.33.43-.31.42-.39.33s-.08.08-.12.12l-.38.46-.37.41-.42.38s-.06.06-.09.1c0,0-.27.32-.37.43l-.39.37-.42.36-.45.31-.51.31c-.06.03-.11.08-.16.13l-.34.32-.42.2s-.05.02-.07.04l-.54.31s-.06.03-.09.06c-.19.14-.62.45-.88.62l-.47.16c-.1.03-.2.09-.28.15l-.37.28-.46.15-.61.23c-.07.03-.15.07-.22.12l-.43.3c-.32.13-.65.28-.97.42-.26.06-.42.08-.72.2l-.49.24-.46.14c-.25.04-.4.05-.71.14l-.56.2-.6.17-.58.21-.48.14c-.22.03-.48.03-.72.1,0,0-.35.11-.51.16l-.53.07s-.1.02-.14.03l-.52.15c-.49.06-1.19.2-1.7.3l-.51-.02c-.06,0-.14,0-.2.01l-.55.09c-.25,0-.62-.02-.82.04,0,0-.28.09-.46.14-.2,0-.5-.02-.6,0,0,0-.3.04-.48.06-.21-.03-.54-.09-.65-.08-.46.01-.91.01-1.37.02-.14,0-.28,0-.41,0h-.11s.01-.13.01-.13l.29-1.01.24-.52.21-.54c.14-.27.4-.74.55-.97.03-.05.15-.31.23-.49.18-.19.43-.46.49-.62h0s.15-.33.15-.33c.18-.14.4-.32.47-.42,0,0,.26-.35.34-.46.2-.22.54-.6.75-.83.28-.25.55-.5.83-.76.28-.19.74-.53.97-.71.03-.02.28-.25.43-.37l.44-.23c.09-.05.5-.33.61-.41.04-.03.09-.07.13-.11l.35-.32.35-.18c.18-.07.61-.22.67-.26l.54-.3h.02c.08-.05.33-.24.49-.37.52-.2,1.03-.39,1.56-.57.08-.02.15-.06.22-.1l.41-.25.44-.12h.02s.04-.02.06-.02l.54-.19.53-.13h.02c.12-.03.45-.19.64-.27l.42-.1.52-.02h.02c.12,0,.24-.03.36-.09l.42-.18.43-.03h.02s.08-.01.12-.02c-.02,0,.44-.09.56-.12l.56-.06h.02c.08-.01.16-.03.23-.06l.46-.18.46-.04h.02s.42-.07.6-.1c.35,0,.9,0,1.2-.03.08,0,.52-.07.67-.09.29-.01.71-.02.97-.02.34,0,.68.01,1.02.05.52.05,1.04.05,1.56.14l.52.08h.01c.1.02.42.01.62.01l.47.13h.01c.05.02.11.03.16.03l.52.05.08.02c-.02.06-.04.11-.07.17h.01Z"/>
</svg>