<?xml version="1.0" encoding="UTF-8"?>
<svg id="Layer_1" xmlns="http://www.w3.org/2000/svg" version="1.1" viewBox="0 0 597.96 500.78">
  <!-- Generator: Adobe Illustrator 30.0.0, SVG Export Plug-In . SVG Version: 2.1.1 Build 123)  -->
  <defs>
    <style>
      .st0 {
        opacity: .3;
      }

      .st1 {
        fill: #0d73bb;
      }

      .st2 {
        fill: #358fc9;
      }
    </style>
  </defs>
  <rect class="st1" x="41.55" y="-65.09" width="514.86" height="630.96" transform="translate(549.37 -48.59) rotate(90)"/>
  <g class="st0">
    <path class="st2" d="M239.63-1.2c-1.37,1.58-1.83,3.29-2.45,4.97-.6,1.63-.48,3.25.12,4.87.28.74.16,1.43-.22,2.16-.52,1-1.09,1.97-1.92,2.91-.87.98-1.39,2.01-1.5,3.1-.13,1.25-.73,2.45-1.56,3.63-.57.8-1.01,1.63-1.37,2.46-.44,1.01-.98,2-1.84,2.92-1.15,1.25-1.88,2.55-2,3.95-.12,1.33-.51,2.65-1.08,3.95-.31.71-.44,1.44-.59,2.17-.21,1-.65,1.94-1.76,2.77-.46.35-.78.75-1.13,1.14-.95,1.08-1.33,2.2-.9,3.39.59,1.66.23,3.24-1.34,4.74-.74.71-1.35,1.47-1.86,2.23-.46.68-.81,1.4-1.02,2.11-.3,1.06-.48,2.14-.62,3.21-.18,1.43-.66,2.81-1.64,4.14-.47.63-.81,1.31-1.03,1.98-.33,1.02-.33,2.05.35,3.06.64.95.45,1.85-.58,2.71-.51.43-.83.92-1.25,1.39-.84.93-1.04,1.88-.37,2.88.51.76.44,1.53-.11,2.27-.68.93-.94,1.91-1.08,2.9-.05.38-.18.77-.28,1.15-.24.98-.54,1.96-.72,2.94-.15.82-.37,1.62-.88,2.39-.34.52-.58,1.08-.74,1.63-.33,1.15-.62,2.3-.86,3.45-.08.38-.01.77.07,1.15.31,1.42.21,2.82-.43,4.23-.49,1.08-.6,2.21-.8,3.32-.22,1.24-.43,2.48-.29,3.74.07.64-.1,1.29-.2,1.93-.1.69-.16,1.36.17,2.05.15.31.06.68-.11,1-1.1,2.1-1.51,4.22-.82,6.38.24.75-.03,1.47-.34,2.17-.4.94-.47,1.87-.4,2.82.07.95.13,1.89.13,2.84,0,.99-.07,1.98-.53,2.95-.48,1.01-.49,2.04-.37,3.08.08.73.11,1.46,0,2.19-.25,1.73-.11,3.44.59,5.14.32.78.3,1.49-.34,2.25-.92,1.09-.85,2.28-.26,3.42.49.93.69,1.83.28,2.79-.49,1.15-.02,2.32.1,3.47.24,2.32.6,4.64.77,6.96.16,2.24.47,4.47,1.19,6.68.31.94.32,1.87,0,2.82-.51,1.5-.37,3,.11,4.5.43,1.32.66,2.64.73,3.98.07,1.37.35,2.75.54,4.12.13.94.28,1.89.42,2.83.06.39.06.78.19,1.16.39,1.15.59,2.29.47,3.47-.07.64.17,1.28.32,1.92.19.81.54,1.61.61,2.42.15,1.64.81,3.24,1.36,4.85.34.98.46,1.96.43,2.95-.02.47-.04.95.1,1.42.5,1.74,1.08,3.48,1.61,5.22.33,1.07.91,2.09,1.86,3.05.76.78,1.04,1.62,1.07,2.49.02.99.11,1.98.04,2.97-.2,2.73.43,5.41,1.59,8.06.79,1.81,1.16,3.64,1.28,5.5.14,2.16.78,4.28,1.8,6.37.55,1.12,1.12,2.24,1.28,3.41.21,1.52,1.21,2.94,1.95,4.38.81,1.59,1.33,3.19,1.07,4.84-.18,1.14.21,2.23,1.24,3.24.83.82,1.02,1.71,1.16,2.61.29,1.85.85,3.67,1.71,5.47.34.7.53,1.43.72,2.15.36,1.36.58,2.74,1.02,4.09.61,1.87,1.17,3.73,1.39,5.62.19,1.64.76,3.24,2.03,4.75.97,1.16,1.27,2.35.88,3.64-.56,1.86.18,3.69,1.36,5.44.73,1.09,1.43,2.19,1.84,3.33.01.04.02.09.04.13,1.17,2.21,1.63,4.46,1.45,6.76-.08,1.01.42,1.94,1.34,2.84.57.55.92,1.19,1.12,1.82.34,1.06.74,2.11,1.37,3.14.56.91.83,1.84.82,2.79-.01,1,.29,1.96.69,2.94.38.92.64,1.86.77,2.8.12.83.34,1.62.97,2.38.72.88,1.11,1.79,1.08,2.76-.03.74.36,1.44.81,2.14.4.61.76,1.22,1.13,1.84.46.76.48,1.5.06,2.28-.62,1.15-.48,2.32.66,3.38,1.12,1.04,1.41,2.17,1.63,3.34.47,2.57.88,5.15,1.9,7.67.56,1.39,1.27,2.76,2.01,4.12.57,1.05.81,2.1.53,3.19-.06.21-.06.43-.12.64-.41,1.36-.09,2.65,1.08,3.89.99,1.05,1.33,2.19,1.4,3.37.03.55.13,1.14.5,1.64.73.97,1.09,1.97,1.49,2.98.34.84.66,1.68,1.08,2.51.66,1.3,1.02,2.61.99,3.95-.04,1.68-.06,3.36.46,5.02.58,1.87,1.05,3.74,1.7,5.6.3.88.76,1.76,1.38,2.6,1.12,1.52,1.51,3.05.99,4.68-.23.71-.15,1.46-.19,2.19-.05.9.45,1.75,1.55,2.38,1.68.98,1.91,2.14,1.88,3.36,0,.47-.07.95-.23,1.41-.39,1.12-.15,2.23.13,3.34.17.68.25,1.37.41,2.05.21.9.41,1.79.71,2.68.34.99.39,1.96-.02,2.95-.45,1.07-.31,2.12.18,3.19.86,1.88,1.63,3.77,2.36,5.66.34.89.3,1.81-.08,2.7-.57,1.32-.56,2.65-.23,3.98.43,1.71.38,3.43.55,5.15.1.99.2,1.97.29,2.96.09.99.27,1.98.21,2.96-.07,1.21.2,2.41.41,3.6.13.77.12,1.54.23,2.32.07.55.06,1.14.39,1.65.62.96.76,1.94.6,2.93-.15.91-.02,1.81.26,2.7.44,1.37.46,2.75.13,4.12-.23.96-.07,1.87.62,2.78.96,1.28.92,2.6.17,3.92-.19.33-.43.65-.61.98-.49.89-.62,1.79-.04,2.67.65,1,.7,2.02.67,3.06-.06,1.85-.1,3.7-.21,5.55-.07,1.07-.28,2.15-.39,3.22-.05.51-.01,1.03.02,1.55.05.75.4,1.45,1.25,2.05.9.62,1.12,1.32.85,2.07-.2.55-.36,1.11-.74,1.62-1.1,1.47-1.49,2.99-1.31,4.55.14,1.26-.12,2.48-.63,3.71-.77,1.83-.85,3.67.26,5.48.29.47.28.92.18,1.4-.2.98-.5,1.97-.39,2.95.27,2.35-.26,4.64-1.05,6.93-.13.38-.33.77-.31,1.15.07,1.3-.32,2.57-.48,3.86-.28,2.19-.41,4.38-.61,6.58-.07.76-.16,1.51-.24,2.27h63.6c.51-1.81,1.02-3.61,1.5-5.42.76-2.86.95-5.74.63-8.63-.17-1.48.16-2.92.99-4.33.51-.87.86-1.75.79-2.66-.03-.42-.09-.88-.41-1.26-.97-1.17-.83-2.35-.35-3.54.32-.8.79-1.58,1.22-2.36.71-1.27.77-2.53-.11-3.8-.54-.77-.7-1.58-.59-2.41.22-1.67.48-3.35.53-5.02.03-1.11-.2-2.24-.47-3.34-.19-.78-.25-1.54-.02-2.31.39-1.32.54-2.65.19-3.99-.16-.59-.14-1.2-.1-1.8.04-.73.09-1.46-.33-2.17-.29-.5-.21-1.02.09-1.53.58-.97.45-1.94.16-2.93-.23-.76-.32-1.54-.31-2.31.02-1.12.26-2.23.28-3.35,0-.64-.08-1.3-.42-1.91-.49-.88-.73-1.77-.75-2.67-.03-1.73-.56-3.43-1.22-5.11-.49-1.24-.68-2.46-.45-3.71.27-1.41.5-2.83.15-4.25-.21-.85-.47-1.7-.83-2.54-.43-1-1.01-1.99-1.46-2.99-.39-.88-.68-1.78-.49-2.69.33-1.55,0-3.09-.17-4.64-.17-1.55-.27-3.09-.32-4.64-.03-.95-.16-1.89-.56-2.82-.55-1.3-.89-2.62-.99-3.96-.04-.51-.2-1.03-.41-1.53-.43-1.05-.92-2.09-1.41-3.13-.57-1.21-.95-2.43-1.1-3.69-.08-.72-.5-1.43-.8-2.14-.24-.58-.63-1.16-.77-1.75-.27-1.11-.4-2.23-.61-3.34-.09-.51-.14-1.03-.34-1.54-.87-2.15-1.09-4.35-1.61-6.52-.17-.73-.23-1.46-.48-2.18-.19-.54-.5-1.09-.94-1.59-1.29-1.44-2.1-2.97-2.74-4.53-.27-.66-.36-1.37-.28-2.05.14-1.22-.05-2.4-.9-3.55-.71-.95-.79-1.92-.05-2.89.61-.8.43-1.61-.01-2.4-.44-.78-.9-1.56-1.37-2.34-1.05-1.72-1.41-3.53-2.19-5.28-.84-1.88-1.74-3.75-2.75-5.61-.62-1.14-.83-2.27-.47-3.44.56-1.83.29-3.6-1.24-5.29-.6-.66-.96-1.36-1.11-2.1-.08-.38-.16-.78-.36-1.14-1.67-3.1-2.4-6.32-3.66-9.47-.64-1.6-1.39-3.18-2.11-4.76-.38-.83-.78-1.67-1.22-2.49-.6-1.12-.99-2.26-.95-3.43.04-1-.33-1.97-.99-2.9-.51-.73-.82-1.47-.97-2.25-.23-1.24-.74-2.45-1.66-3.61-.58-.74-.88-1.56-1.18-2.36-.4-1.05-.85-2.09-1.54-3.11-.6-.88-.93-1.82-1.26-2.75-.4-1.14-.78-2.27-1.56-3.37-.47-.67-.7-1.42-.77-2.14-.16-1.66-.8-3.23-2.05-4.74-.75-.9-1.36-1.84-2-2.76-.55-.78-.76-1.6-.3-2.41.82-1.41.17-2.73-.8-4.02-.72-.95-1.57-1.88-2.49-2.78-.82-.81-1.31-1.66-1.53-2.56-.26-1.07-.67-2.12-1.35-3.14-.3-.44-.42-.92-.65-1.37-.33-.65-.28-1.29.19-1.9.98-1.29.61-2.54-.44-3.75-.72-.83-1.19-1.68-1.54-2.57-.59-1.51-1.11-3.04-1.74-4.54-.53-1.26-1.07-2.52-1.78-3.74-1.08-1.85-1.85-3.74-2.55-5.63-.29-.8-.41-1.62-.46-2.44-.06-1.08-.37-2.14-.74-3.2-.29-.81-.94-1.55-1.63-2.28-.89-.93-1.44-1.91-1.56-2.95-.12-1.04-.46-2.05-1.15-3.02-.64-.9-.85-1.83-.81-2.79.06-1.21-.25-2.4-.76-3.58-.24-.54-.36-1.1-.53-1.65-.18-.59-.22-1.21-.52-1.78-.94-1.83-1.25-3.72-1.94-5.58-.34-.92-.93-1.82-1.47-2.72-.64-1.06-1.39-2.1-2.02-3.17-.63-1.08-.83-2.19-.66-3.32.3-1.98-.3-3.87-1.96-5.63-.53-.57-.68-1.13-.57-1.75.26-1.47,0-2.92-.82-4.34-.65-1.13-.83-2.27-.54-3.44.19-.77.15-1.56-.38-2.29-1.42-2-1.6-4.11-1.97-6.21-.41-2.27-.88-4.53-1.3-6.8-.17-.9-.33-1.8-.39-2.7-.16-2.28-.45-4.55-1.18-6.81-.25-.76-.28-1.54-.36-2.31-.22-1.93-.4-3.87-.62-5.8-.03-.3-.12-.6-.25-.89-.41-.89-.5-1.79-.37-2.69.14-.99.09-1.97-.29-2.95-.34-.88-.24-1.81-.64-2.69-.68-1.5-.59-2.96.03-4.45.25-.61.04-1.28-.09-1.92-.16-.77-.54-1.52-.67-2.29-.15-.87-.43-1.7-1.15-2.48-.24-.26-.28-.58-.31-.87-.06-.56-.08-1.12-.06-1.68.02-.34.08-.69.26-1.01,1.04-1.89,1.33-3.8.54-5.73-.4-.98-.42-1.96-.17-2.95.08-.3.18-.6.16-.9-.12-1.68-.25-3.35-.44-5.03-.04-.38-.27-.76-.53-1.12-.54-.72-.54-1.39.22-2.09,1-.92.78-1.93.08-2.86-.5-.66-.69-1.31-.67-2,.05-2.15.06-4.3.09-6.45.01-.78.1-1.55.55-2.29.33-.54.31-1.08.08-1.65-.47-1.14-.46-2.3.15-3.44.34-.63.44-1.27.27-1.92-.43-1.6-.31-3.17.47-4.74.36-.72.41-1.43-.06-2.16-.21-.31-.26-.68-.23-1.01.18-1.59.23-3.19.69-4.76.5-1.74,1.3-3.44,1.09-5.23-.06-.5.3-1.02.49-1.52.39-1.07.59-2.12-.08-3.19-.17-.28-.21-.6-.17-.89.17-1.29.29-2.57.95-3.83.24-.45.44-.94.36-1.4-.21-1.08.03-2.15.19-3.22.38-2.49.85-4.97,1.96-7.4.29-.63.65-1.24.99-1.86.48-.88.69-1.76.5-2.68-.23-1.16-.18-2.32.18-3.47.39-1.27.61-2.56,1.01-3.83.27-.89.67-1.77,1.08-2.64.91-1.92,1.9-3.82,2.8-5.74.27-.58.34-1.19.52-1.78.36-1.19.78-2.37,1.1-3.56.24-.9.47-1.79,1.24-2.61.07-.08.12-.16.14-.25.33-1.56,1.48-2.99,2.46-4.43.64-.95.68-1.85-.21-2.74-1.19-1.2-1.35-2.45-.78-3.76.27-.63.43-1.27.58-1.91.35-1.46,1.04-2.87,2.08-4.22,1.22-1.58,1.67-3.22,1.11-4.93-.27-.85-.43-1.7-.7-2.55-.17-.53-.11-1.02.28-1.51,1.34-1.72,1.96-3.53,2.12-5.4.04-.47.28-.93.47-1.39.46-1.13.99-2.26,1.4-3.4.03-.09.06-.18.09-.27h-29.52c-.44,1.37-.87,2.74-1.34,4.11-.2.59-.41,1.2-.87,1.73ZM326.84,447.47c-.03.08-.29.17-.45.17-.11,0-.31-.15-.31-.23,0-.08.22-.15.41-.28.17.16.37.26.34.34ZM329.24,432.83c-.12.08-.25.15-.37.23-.06-.07-.18-.14-.17-.2.01-.06.16-.11.25-.17,0,0,0,0,0,0h0c.1.04.19.09.29.13ZM222.91,87.16c.21.27.06.5-.29.69-.07.04-.34.04-.4,0-.39-.25-.07-.47.15-.69.04-.04.11-.06.26-.15.18.09.26.12.29.15Z"/>
    <path class="st2" d="M162.78,505.61c.71-1.32,1.2-2.68,1.25-4.07.03-.77.02-1.57-.35-2.3-.71-1.42-.31-2.72.81-4,.14-.16.3-.3.46-.45,1.04-.96,1.41-2,1.31-3.1-.04-.47-.14-.94-.21-1.42-.11-.7.12-1.37.76-1.99.35-.34.64-.69.91-1.05.78-1.08.96-2.16.15-3.27-.32-.43-.47-.91-.57-1.38-.17-.77-.27-1.54-.73-2.28-.48-.77.07-1.53.23-2.3.09-.43.32-.84.39-1.27.12-.74,0-1.46-.76-2.11-.77-.66-.83-1.37-.41-2.11.25-.45.43-.92.65-1.38.32-.67.37-1.34.23-2.04-.18-.89-.12-1.81,0-2.7.1-.7.06-1.38-.4-2.03-.43-.6-.32-1.18.13-1.76.28-.36.52-.72.73-1.09.53-.93.52-1.86-.15-2.78-.8-1.1-1.15-2.22-.79-3.41.25-.81.22-1.63-.12-2.44-.88-2.1-1.01-4.26-1.51-6.4-.29-1.21-.15-2.4.71-3.56.76-1.03.83-2.1.2-3.17-.57-.96-.75-1.93-.5-2.93.13-.51.15-1.03.15-1.55,0-.74-.24-1.44-1-2.09-.91-.78-1.25-1.66-1.38-2.58-.18-1.25-.1-2.5.23-3.74.39-1.45.59-2.91.16-4.37-.31-1.03-.15-2.07.14-3.09.27-.93.03-1.79-.66-2.64-.86-1.07-1.4-2.17-1.47-3.36-.07-1.29-.46-2.57-1.18-3.81-.65-1.12-.99-2.27-.98-3.43.02-2.12-.61-4.2-.8-6.31-.15-1.64-.69-3.24-1.32-4.84-.46-1.17-.65-2.38-.87-3.58-.15-.82-.47-1.61-1-2.38-.41-.6-.7-1.23-.97-1.85-.44-1-.83-2.01-1.24-3.02-.4-.97-.6-1.95-.53-2.95.2-2.79-.76-5.48-2.16-8.14-.41-.79-.76-1.58-.69-2.41.1-1.35-.29-2.66-1.04-3.94-.48-.82-.8-1.66-.8-2.53,0-.42-.15-.87-.47-1.25-.95-1.12-1.27-2.31-1.37-3.51-.11-1.26-.54-2.47-1.09-3.69-.4-.87-.7-1.77-.97-2.66-.31-1.02-.75-2.02-1.52-2.97-1.37-1.72-1.87-3.55-2.27-5.39-.08-.38-.08-.77-.13-1.16-.11-.92-.54-1.79-1.67-2.51-.93-.59-1.09-1.22-.67-1.93.1-.16.16-.33.27-.49.59-.85.52-1.7-.19-2.51-1.74-1.97-2.32-4.1-2.85-6.23-.2-.81-.5-1.61-.74-2.42-.26-.9-.66-1.77-1.5-2.57-.47-.45-.55-.97-.59-1.5-.07-.81-.21-1.63-.51-2.43-.49-1.31-1.03-2.61-1.72-3.89-1.13-2.08-1.63-4.2-2-6.35-.37-2.18-.82-4.37-2.37-6.43-.98-1.29-1.17-2.68-1.43-4.04-.18-.95-.53-1.87-.98-2.78-.43-.87-.76-1.76-.94-2.66-.17-.83-.56-1.61-1.14-2.36-.73-.96-1.21-1.95-1.46-2.98-.47-1.88-1.22-3.73-1.49-5.62-.11-.81-.57-1.6-.94-2.39-.51-1.08-1.14-2.15-1.63-3.23-.39-.88-.82-1.75-1.61-2.56-1.25-1.29-1.66-2.68-1.68-4.12-.01-.73-.02-1.46.02-2.2.06-1.05-.27-2.07-1.16-3-1.15-1.2-1.54-2.42-.98-3.75.18-.42.18-.85.23-1.28.14-1.17-.06-2.32-.85-3.43-.6-.84-1.13-1.7-1.68-2.55-.51-.79-.68-1.59-.48-2.42.24-1.05.04-2.07-.6-3.06-.77-1.19-1.05-2.43-1.14-3.68-.14-1.91-.78-3.76-1.72-5.59-.42-.83-.75-1.66-.89-2.53-.2-1.25-.77-2.46-1.79-3.59-.84-.93-1.1-1.87-.66-2.88.62-1.42.52-2.82-.77-4.15-.45-.47-.52-.98-.51-1.51.05-1.59.1-3.18.04-4.77-.06-1.69-.44-3.35-1.81-4.9-.48-.54-1.09-1.04-1.65-1.56-.61-.55-1.46-1.02-1.85-1.64.46-.35,1.04-.66,1.28-1.04.25-.39.21-.85.23-1.28.08-1.46.06-2.91-.81-4.34-.49-.81-.63-1.69-.35-2.55.36-1.13.14-2.23-.8-3.27-.86-.96-1.06-1.97-.85-3.02.09-.47.02-.94-.03-1.41-.06-.57-.39-1.11-1.13-1.53-1.49-.84-1.73-1.85-1.21-2.89.55-1.09.4-2.12-.15-3.17-.39-.74-.62-1.51-1.04-2.25-.25-.45-.62-.89-1.1-1.27-.79-.63-.85-1.28-.55-1.97.02-.04.04-.08.08-.12,1.1-1.32,1.28-2.73,1.49-4.15.14-.92.13-1.81-.43-2.68-.67-1.04-.91-2.09-.75-3.18.16-1.07-.27-2.05-1.25-2.97-1.04-.97-1.39-1.99-.86-3.1.27-.58.38-1.19.47-1.79.22-1.46.32-2.91-.66-4.34-.38-.55-.55-1.18-.58-1.77-.04-.96-.39-1.88-.68-2.81-.21-.67-.3-1.36-.39-2.05-.1-.73-.15-1.46-.21-2.19-.07-.86-.21-1.72-.17-2.58.05-1.22.09-2.4-1.18-3.49-.66-.57-.48-1.25-.09-1.88.28-.45.59-.89.86-1.34.84-1.4.85-2.79-.34-4.14-.66-.75-1.01-1.53-1.21-2.35-.46-1.88-1.06-3.74-.95-5.65.02-.38-.07-.77-.18-1.16-.36-1.3-.13-2.58.66-3.82.68-1.08.89-2.18.7-3.31-.26-1.5-.43-3.01-.85-4.49-.26-.93-.16-1.81.44-2.66.95-1.34.91-2.69.51-4.07-.29-.98-.56-1.96-.88-2.93-.47-1.42-.36-2.83.26-4.23.37-.85.47-1.7.44-2.56-.04-.9-.11-1.81-.08-2.71.04-1.43-.26-2.83-.59-4.24-.53-2.23-.48-4.46.73-6.65.16-.29.26-.58.38-.88.29-.71.57-1.43.86-2.14.22-.54.54-1.08.67-1.63.28-1.19.58-2.38,1.01-3.57.23-.62.12-1.29.13-1.93,0-.44.04-.86.48-1.24,1.16-.99,1.35-2.1,1.21-3.23-.33-2.63-.15-5.25.3-7.87.13-.76.41-1.55.97-2.24.85-1.05,1.3-2.12,1.4-3.25.1-1.08.46-2.14,1.13-3.16.73-1.11.9-2.26,1.19-3.42.23-.94.53-1.87.88-2.79.3-.81.48-1.61.33-2.43-.23-1.2-.18-2.41.16-3.61.28-.98.75-1.91,1.73-2.79,1.28-1.15,2-2.42,2.29-3.77.28-1.32.72-2.64,1.17-3.95.26-.75.18-1.46-.37-2.15-1.05-1.32-1.38-2.74-1.76-4.14-.08-.29-.06-.61.11-.89,1.02-1.62,1.61-3.32,2.98-4.88.53-.61.82-1.32.91-1.99.27-1.99,1.21-3.9,1.99-5.83.35-.88.66-1.76.95-2.65.29-.9.3-1.8-.1-2.69-.18-.39-.11-.75.1-1.14.32-.58.61-1.16.79-1.75.17-.55.32-1.11.23-1.66-.09-.58,0-1.11.43-1.64.41-.52.62-1.05.6-1.63,0-.42.2-.85.39-1.27.49-1.08,1.14-2.13,1.34-3.26.15-.88.86-1.74,1.35-2.6.13-.23.28-.45.42-.67h-53.68c-.38,1.06-.98,2.08-1.82,3.06-.23.27-.41.59-.36.87.3,1.63-.69,3.15-1.38,4.69-.32.71-.79,1.4-1.19,2.09-.38.66-.81,1.31-1.12,1.97-.5,1.05-1.12,2.06-2.34,2.94-1.35.97-1.97,2.04-1.82,3.26.07.56.03,1.12,0,1.68-.03.47-.03.96-.22,1.41-.53,1.26-1.1,2.51-1.75,3.75-.63,1.2-1.39,2.37-2.07,3.57-.37.66-.8,1.3-1.55,1.87-1.08.81-1.31,1.74-1.1,2.71.06.3.21.59.28.89.19.78.08,1.54-.67,2.25-1.12,1.06-1.34,2.18-.9,3.37.4,1.08.17,2.1-.66,3.14-1.15,1.43-1.48,2.98-1.55,4.54-.01.25.06.53.24.76.65.86.37,1.68-.22,2.51-.68.96-1.24,1.95-1.92,2.92-1.03,1.46-.58,2.79,1.21,3.98.8.53.91,1.08.5,1.69-.3.44-.63.88-.99,1.31-.44.52-1.1.91-2.09,1.17-1.78.48-2.06,1.02-1.27,2,.5.63,1.01,1.26,1.42,1.91.4.64.27,1.27-.28,1.88-1.68,1.85-2.01,3.8-1.23,5.79.5,1.25.27,2.4-.85,3.49-1.04,1.01-1.35,2.11-1.44,3.23-.08,1.03-.09,2.07-.11,3.1-.02.9.04,1.81-.04,2.71-.11,1.26.15,2.48.85,3.69.31.53.46,1.09.55,1.64.1.54-.24,1.03-1.09,1.36-1.08.41-1.92.92-2.18,1.63-.29.82-.28,1.65.42,2.41,1.35,1.45,1.13,3.01,1.14,4.55,0,.51-.17,1.03-.31,1.54-.17.62-.08,1.21.68,1.71.95.63.93,1.34.71,2.08-.27.89-.46,1.79-.74,2.68-.17.55-.34,1.11-.66,1.64-.58.93-.51,1.85-.16,2.8.3.8.52,1.61.65,2.42.07.42-.02.87-.2,1.28-1.16,2.65-.29,5.21,1.03,7.76.15.29.35.57.55.85.58.79.65,1.56.18,2.39-.89,1.6-.9,3.23-.25,4.85.37.92.85,1.83,1.41,2.73.61.96.9,1.93.56,2.92-.66,1.93-.52,3.87-.22,5.79.22,1.43.18,2.83-.27,4.24-.54,1.68,0,3.25,1.44,4.75.22.22.51.48.5.71-.05,1.01.58,1.95.78,2.93.09.46.09.94-.03,1.41-.18.69-.27,1.37.09,2.05.32.6.28,1.19-.14,1.77-.79,1.11-.73,2.18.36,3.23.48.46.55.99.53,1.51-.07,1.61.34,3.17,1.26,4.7.34.56.49,1.18.49,1.78,0,1.4.47,2.74,1.28,4.05.7,1.12.94,2.27.82,3.44-.25,2.45.47,4.79,2.29,7.05,1.21,1.5,1.35,3.08.58,4.67-.61,1.26-.52,2.48,1.02,3.56.72.5,1.01,1.06.85,1.69-.47,1.85.24,3.6,1.53,5.29.65.86.87,1.71.5,2.64-.39.98-.25,2.01.76,2.88,1.29,1.11,1.62,2.32,1.66,3.58.03,1.25.23,2.49.76,3.71.39.89.89,1.74,1.85,2.5,1.48,1.18,1.92,2.45,1.03,3.81-1.14,1.72-.73,3.38.52,5.03.75.99,1.44,2,2.19,3,.5.66.68,1.32.28,2.01-.07.12-.1.25-.18.37-.76,1.16-.66,2.26.64,3.32.79.65,1.06,1.43,1.22,2.21.12.6.24,1.2.5,1.78.42.93.6,1.87.49,2.82-.2,1.75.62,3.32,2.74,4.67,1.3.83,1.85,1.8,1.46,2.88-.75,2.08.13,4.11.56,6.15.22,1.03.99,2.01,2.05,2.87,1.28,1.04,1.8,2.19,2.13,3.38.12.42.21.86.19,1.29-.1,1.79.82,3.49,1.51,5.21.38.94,1.08,1.81,2.1,2.58,1.07.82,1.38,1.72,1.35,2.69-.02.6-.02,1.2,0,1.81,0,.75.35,1.44,1.03,2.1,1.31,1.26,1.99,2.6,2.09,4.06.06.85.46,1.7.74,2.54.26.8.65,1.6.79,2.41.23,1.29.73,2.55,1.3,3.8.74,1.63,1.38,3.27,2.07,4.9.29.68.32,1.37.07,2.05-.32.86-.28,1.71.11,2.56.45.96.96,1.91,1.4,2.86.36.79.77,1.58.98,2.38.31,1.2.76,2.37,1.68,3.48.65.79,1.09,1.61,1.23,2.48.14.86.57,1.69,1.32,2.46.72.73,1.1,1.51,1.07,2.35-.02.51.16,1.03.36,1.53.58,1.39.96,2.79,1.12,4.21.18,1.55.68,3.08,1.92,4.5.76.87,1.08,1.82.96,2.77-.25,2.06.44,4.01,1.75,5.94.7,1.04.93,2.17,1.31,3.27.52,1.48,1.29,2.92,2.29,4.33,1.15,1.63,1.63,3.32.9,5.07-.37.89-.31,1.8-.08,2.7.39,1.53.82,3.07,1.22,4.6.27,1.03.82,2,1.65,2.95,1.41,1.61,2.2,3.3,2.43,5.09.14,1.11.55,2.22.78,3.33.4,1.97.78,3.94,1.09,5.91.21,1.29.52,2.56,1.32,3.79.42.64.62,1.33.82,2.01.28.94.62,1.86,1.32,2.74.53.68.72,1.39.85,2.13.28,1.58.63,3.17,1.12,4.73.68,2.17,1.14,4.34,1.17,6.54.01.81.15,1.64.41,2.44.21.63.68,1.23,1.09,1.83.27.4.61.79.95,1.18.53.6.65,1.23.49,1.89-.06.26-.07.52-.17.77-.38,1-.21,1.97.47,2.92.66.93.64,1.84.01,2.77-.99,1.48-.9,2.94.24,4.4.46.59.67,1.23.97,1.86.32.67.51,1.35.91,2,.87,1.38,1,2.79.57,4.21-.51,1.65-.09,3.26.61,4.86.39.88.69,1.76.67,2.67-.02.99.16,1.98.25,2.96.11,1.26.47,2.48,1.46,3.64.29.34.44.74.51,1.12.19,1.07.3,2.14.44,3.22.22,1.63.37,3.26.17,4.9-.12.94.05,1.89.22,2.83.18.99.29,1.97,0,2.96-.26.9-.19,1.79-.06,2.7.16,1.07.17,2.15.12,3.22-.06,1.3.08,2.56.92,3.81,1.1,1.63,1.43,3.35,1.26,5.08-.1.99-.21,1.98-.24,2.97-.05,1.43-.27,2.83-1.07,4.2-.71,1.23-.61,2.46.43,3.65.7.8.81,1.65.37,2.52-.23.46-.38.93-.66,1.37-.55.88-.56,1.77-.28,2.68.29.93.54,1.87.88,2.8.56,1.51.33,3.01-.32,4.48-.58,1.32-.77,2.63-.06,3.95.29.55.23,1.1.09,1.66-.4,1.63-.53,3.25-.01,4.88.36,1.14.38,2.32-.16,3.46-.06.12-.06.26-.12.38-.56,1.27-.35,2.47,1.11,3.56.54.4.57.88.54,1.36-.05.88-.46,1.71-1.26,2.47-.82.78-1.17,1.58-1.12,2.42h41.44c-.05-.74.21-1.47.61-2.21ZM47,86.55c.47.26.46.52-.02.86-.44-.32-.51-.58.02-.86ZM65.04,93.73s-.04-.01-.04-.02c0-.03.03-.06.05-.09.04.01.11.02.11.03,0,.01,0,.03-.02.04s-.02.03-.03.04c-.02,0-.05-.01-.07-.02ZM43.12,163.98c.89.26,1.06.71,1.05,1.18,0,.17-.33.33-.53.52-1.32-.77-1.35-.91-.52-1.69ZM59.54,165.49c.31.03.51.01.57.06.41.3.52.6-.42,1.13-.07-.54-.11-.85-.15-1.19ZM63.52,195.43c-.6-.15-.94-.57-.75-.94.07-.13.36-.23.56-.35.29.08.55.11.67.2.48.32.54.77.12,1.03-.11.07-.45.1-.61.06ZM113.95,309.6c1.09-.5,3.41-.64,4.69-.25.31.09.64.3.69.48.08.29-.41.43-.84.55-.07.02-.15.04-.22.04-1.52.03-2.86.42-4.37.73-.78-.78-.73-1.2.05-1.56ZM103.07,338.08c-.37-.27-.65-.58-.48-.95.11-.25.73-.43,1.08-.3.95.35,1.45.89,1.84,1.44.4.57,1.19,1.12.6,1.91-1.14-.78-2.12-1.43-3.04-2.1Z"/>
    <path class="st2" d="M368.63-3.34c-.99.72-1.41,1.53-1.51,2.41-.04.34-.06.69-.02,1.03.13.98-.25,1.88-1.27,2.7-1.06.85-1.38,1.82-1.36,2.83,0,.39.05.77.1,1.16.1.88-.26,1.7-.98,2.49-.56.61-.96,1.27-1.42,1.91-.66.92-1.32,1.84-1.97,2.77-.62.88-1.16,1.78-1.83,2.66-.45.59-.95,1.19-1.61,1.71-1.03.81-1.5,1.7-1.55,2.66-.02.34-.02.69.01,1.03.07.84-.25,1.63-1.13,2.33-1.26,1.01-1.67,2.13-1.46,3.32.2,1.15-.24,2.19-1.22,3.23-1.35,1.43-1.85,3.01-2.27,4.59-.07.25,0,.52.13.76.47.88.1,1.69-.59,2.5-.87,1.01-1.65,2.05-2.49,3.07-1.16,1.41-1,2.76.64,4.03.54.42.7.87.33,1.34-.5.63-.98,1.27-1.56,1.88-.4.42-1.05.72-1.86.96-1.96.57-2.22,1.06-1.42,2.22.28.4.6.8.77,1.22.37.86.31,1.69-.49,2.5-1.85,1.87-2.55,3.88-1.99,5.99.23.88.22,1.77-.59,2.52-1.97,1.81-2.49,3.78-2.75,5.81-.22,1.72-.5,3.43-.75,5.15-.13.87-.04,1.72.37,2.56.14.29.21.59.31.89.35,1.04.04,1.91-1.68,2.62-2.28.94-2.38,2.37-1.6,3.66,1.22,2.01.9,3.99.22,5.98-.27.8-.39,1.52.5,2.22.62.49.6,1.06.41,1.62-.35,1.06-.71,2.11-1.1,3.17-.19.51-.38,1.02-.72,1.5-.68.96-.8,1.94-.41,2.92.59,1.51.43,2.98-.3,4.47-.87,1.79-.54,3.59-.04,5.39.25.89.69,1.76,1.12,2.63.36.72.48,1.44.04,2.16-1.55,2.55-1.15,5.1.19,7.62.56,1.05.85,2.1.45,3.18-.73,1.96-.67,3.94-.56,5.92.08,1.43,0,2.84-.57,4.23-.68,1.7-.33,3.33,1.06,4.9.2.23.35.48.41.73.2.85.37,1.71.52,2.56.07.38.18.78.09,1.16-.26,1.11-.36,2.22-.03,3.34.12.4-.17.85-.42,1.25-.66,1.06-.76,2.09.2,3.13.54.59.6,1.25.55,1.9-.11,1.52.14,3,.9,4.47.36.69.37,1.45.4,2.18.06,1.21.25,2.41.93,3.57.76,1.3.8,2.62.71,3.96-.07,1.07-.05,2.15.12,3.22.18,1.11.74,2.19,1.51,3.24,1.24,1.69,1.48,3.41.56,5.18-.63,1.2-.58,2.4.84,3.46.75.56.95,1.17.8,1.83-.39,1.84.13,3.6,1.36,5.32.59.82.72,1.66.43,2.54-.41,1.27-.14,2.47,1.08,3.61.85.8.95,1.72.95,2.63,0,1.16.01,2.32.42,3.47.42,1.19.97,2.34,2.15,3.39,1.15,1.03,1.54,2.16.87,3.35-.16.29-.23.59-.4.88-.71,1.19-.58,2.38.09,3.56.68,1.19,1.34,2.39,2.22,3.54.81,1.05,1.01,2.06.38,3.14-.1.16-.09.34-.19.5-.46.74-.24,1.45.41,2.12,1.05,1.09,1.63,2.24,1.65,3.46,0,.21.07.43.16.64.58,1.31.85,2.63.71,3.97-.16,1.48.65,2.81,2.32,3.97,1.29.9,1.86,1.89,1.5,3.02-.68,2.12.18,4.2.59,6.29.2,1.03.93,2.02,1.93,2.9,1.03.91,1.49,1.89,1.79,2.91.19.64.37,1.29.34,1.93-.08,1.7.77,3.32,1.37,4.96.37,1.03,1.07,1.99,2.12,2.86.77.64,1.09,1.33,1.09,2.08,0,.65,0,1.29.01,1.94.01.96.38,1.87,1.2,2.73.94,1,1.54,2.06,1.68,3.2.16,1.33.52,2.65,1.13,3.95.35.75.42,1.53.61,2.3.11.43.16.86.32,1.28.81,2.06,1.63,4.12,2.47,6.18.36.89.77,1.78.5,2.68-.56,1.89.3,3.67,1.26,5.46.11.21.27.41.36.61.28.67.61,1.34.77,2.01.32,1.28.73,2.55,1.7,3.75.64.79.97,1.64,1.1,2.5.13.87.52,1.7,1.24,2.48.69.75,1.01,1.53,1.04,2.36.02.47.11.95.33,1.4.67,1.38.97,2.79,1.18,4.21.26,1.73.77,3.41,2.06,5.01.67.83.92,1.75.84,2.65-.18,2.05.47,4.01,1.73,5.95.62.96.8,2.01,1.11,3.03.48,1.57,1.18,3.11,2.16,4.62,1.06,1.64,1.52,3.33.96,5.08-.32,1.02-.22,2.05.1,3.08.45,1.44.75,2.9,1.1,4.35.25,1.03.7,2.02,1.48,2.98,1.43,1.75,2.14,3.58,2.4,5.49.18,1.33.69,2.64,1,3.96.21.9.34,1.8.49,2.7.27,1.58.54,3.17.81,4.75.02.13.04.26.11.38.94,1.52,1.28,3.1,1.84,4.66.09.25.16.52.35.75,1.08,1.33,1.24,2.74,1.51,4.16.24,1.28.56,2.56.92,3.84.6,2.17,1.03,4.35,1.03,6.55,0,1.61.38,3.17,1.73,4.64,1.06,1.15,1.38,2.36.85,3.64-.37.9-.08,1.81.43,2.67.6,1.02.62,2.01.06,3.04-.84,1.53-.7,3.05.36,4.56.39.56.57,1.16.8,1.75.27.67.37,1.37.74,2.02.84,1.47.97,2.97.58,4.47-.4,1.56-.03,3.09.54,4.61.4,1.06.71,2.11.66,3.19-.04,1.12.14,2.24.21,3.35.06,1.09.53,2.12,1.23,3.14.22.32.4.66.45.99.26,1.97.5,3.95.69,5.93.06.56,0,1.12-.08,1.68-.2,1.42-.22,2.83.09,4.25.16.72.08,1.46-.06,2.18-.22,1.08-.2,2.14-.09,3.22.11,1.03.2,2.06.12,3.09-.1,1.3,0,2.58.67,3.83,1.33,2.49,1.19,5.02.86,7.56-.07.52-.2,1.03-.19,1.55.02,1.26-.31,2.48-.89,3.7-.61,1.27-.62,2.56.27,3.81.59.83.57,1.68.28,2.54-.07.21-.14.43-.27.63-1.21,1.81-.83,3.64-.29,5.48.54,1.84.68,3.69-.14,5.52-.64,1.44-.8,2.88-.24,4.35.17.45.12.95,0,1.41-.39,1.67-.63,3.33-.32,5.02.32,1.68-.01,3.36-.62,5.01-.28.76-.21,1.48.46,2.13,1.47,1.43.94,2.82.02,4.24-.06.09-.11.17-.16.26h36.27c.46-1.33,1.01-2.66,1.39-4,.33-1.15.3-2.3-.29-3.45-.57-1.11-.04-2.22.61-3.29.2-.32.53-.63.82-.93,1.12-1.18,1.59-2.44,1.32-3.75-.25-1.24.06-2.37,1.07-3.51,1.17-1.31,1.54-2.69.63-4.14-.31-.48-.29-1.02-.43-1.53-.18-.64-.32-1.27-.56-1.9-.29-.78-.11-1.54.13-2.31.15-.47.33-.93.47-1.4.23-.78.14-1.55-.5-2.27-.62-.69-.69-1.4-.29-2.14.25-.45.37-.93.59-1.38.39-.8.44-1.6.3-2.43-.14-.81-.01-1.63.06-2.45.07-.78.16-1.55-.38-2.29-.4-.55-.25-1.1.06-1.65.21-.37.48-.73.69-1.1.57-1.01.67-2.03.04-3.05-.69-1.12-.89-2.26-.54-3.44.27-.94.18-1.88-.07-2.83-.45-1.7-.73-3.42-1.08-5.13-.02-.09,0-.17-.03-.26-.63-1.69-.34-3.32.71-4.95.64-.99.52-2.05.06-3.06-.38-.85-.48-1.7-.32-2.56.09-.51.16-1.03.18-1.55.03-.87-.21-1.69-.95-2.5-.58-.64-.93-1.38-1.09-2.09-.4-1.72-.13-3.43.28-5.14.26-1.1.28-2.24.16-3.35-.13-1.21-.14-2.41.18-3.61.24-.88.02-1.7-.59-2.53-.83-1.12-1.4-2.28-1.44-3.51-.04-1.38-.54-2.74-1.12-4.08-.53-1.22-.64-2.46-.76-3.71-.28-2.88-.62-5.76-1.06-8.63-.14-.94-.73-1.85-.97-2.79-.32-1.28-.47-2.57-.75-3.85-.11-.51-.28-1.03-.59-1.51-.74-1.14-1-2.34-1.52-3.51-.91-2.07-1.07-4.16-1.12-6.27-.05-2.19-.87-4.36-1.8-6.5-.44-1.01-.79-2.01-.72-3.06.09-1.26-.21-2.49-.81-3.7-.41-.83-.75-1.67-.63-2.55.08-.57-.15-1.12-.58-1.63-.67-.8-.94-1.64-1.02-2.51-.14-1.68-.58-3.34-1.41-4.97-.17-.33-.27-.67-.37-1.01-.49-1.66-1.03-3.29-2.2-4.87-1.04-1.4-1.3-2.92-1.71-4.41-.12-.43-.22-.86-.24-1.28-.05-1.15-.56-2.21-1.92-3.12-.52-.35-.62-.79-.47-1.23.07-.21.14-.43.28-.63.86-1.15.65-2.27-.23-3.39-1.17-1.48-1.62-3.05-1.99-4.64-.33-1.41-.73-2.81-1.2-4.21-.2-.59-.56-1.17-1-1.71-.52-.64-.76-1.28-.81-1.99-.07-.98-.32-1.97-.67-2.94-.5-1.39-1.14-2.77-1.76-4.15-.76-1.68-1.22-3.37-1.43-5.1-.1-.86-.31-1.71-.49-2.57-.11-.51-.24-1.02-.42-1.53-.25-.72-.39-1.46-.86-2.14-1.23-1.76-1.61-3.59-1.94-5.43-.1-.55-.29-1.11-.48-1.65-.41-1.18-.9-2.36-1.24-3.55-.22-.77-.54-1.52-1.07-2.24-.84-1.17-1.33-2.39-1.52-3.64-.08-.51-.28-1.02-.4-1.53-.3-1.32-.53-2.65-.88-3.97-.2-.76-.55-1.52-.88-2.27-.4-.92-.86-1.83-1.24-2.76-.42-1.01-.86-2.01-1.71-2.94-1.07-1.18-1.49-2.44-1.48-3.75,0-.78-.04-1.55.05-2.32.14-1.23-.23-2.41-1.21-3.52-.86-.97-1.13-1.96-.84-3.01.09-.34.08-.69.2-1.03.59-1.66.21-3.25-.92-4.81-.35-.48-.63-.97-.94-1.46-.67-1.07-.96-2.17-.69-3.31.22-.91.06-1.8-.43-2.68-.77-1.37-1.01-2.78-1.09-4.2-.1-1.77-.66-3.51-1.47-5.22-.44-.92-.75-1.84-.86-2.8-.13-1.21-.64-2.39-1.61-3.49-.88-.99-1.01-1.99-.56-3.02.63-1.43.58-2.81-.63-4.16-.59-.65-.49-1.34-.36-2.03.41-2.24.36-4.47-.14-6.7-.35-1.56-1.21-3.01-2.98-4.29-.69-.5-1.47-1.02-1.71-1.65,1.37-.62,1.45-.62,1.59-1.37.29-1.59.55-3.18-.28-4.74-.56-1.05-.72-2.12-.42-3.2.33-1.18.15-2.31-.78-3.41-.72-.85-.74-1.75-.59-2.66.08-.47.13-.94.11-1.41-.04-.7-.38-1.35-1.29-1.9-1.22-.74-1.38-1.61-1.01-2.54.1-.25.19-.51.35-.75.38-.59.38-1.18.15-1.78-.43-1.14-.83-2.28-1.34-3.41-.16-.37-.52-.72-.92-1.04-.79-.63-.89-1.27-.44-1.97.16-.24.28-.49.46-.73.66-.88.94-1.79,1.15-2.74.35-1.56.37-3.06-.44-4.6-.36-.68-.22-1.46-.11-2.18.16-1.11-.11-2.15-1.13-3.12-1-.96-1-1.96-.66-3.01.36-1.1.59-2.21.87-3.32.2-.82.06-1.63-.38-2.43-.52-.96-.69-1.93-.73-2.93-.04-.9-.38-1.79-.57-2.69-.1-.47-.27-.95-.17-1.41.2-.87.03-1.71-.05-2.57-.09-.94-.07-1.89.04-2.84.12-1.05.12-2.05-.87-3.01-.66-.64-.48-1.33,0-2,.37-.52.79-1.03,1.12-1.56.83-1.35.9-2.69-.14-4.03-.42-.55-.73-1.15-.85-1.73-.38-1.79-.92-3.58-.75-5.4.08-.86.01-1.72-.05-2.58-.07-1.09.18-2.17.93-3.17,1.12-1.48,1.24-3.01,1.05-4.57-.15-1.2-.23-2.41-.45-3.61-.16-.89.07-1.73.72-2.52,1.28-1.56,1.23-3.17.8-4.82-.21-.81-.38-1.62-.53-2.44-.23-1.3-.05-2.58.62-3.84.57-1.09.8-2.19.83-3.32.02-1.08.22-2.15.22-3.23,0-.99-.15-1.97-.21-2.96-.04-.73-.12-1.46-.06-2.19.08-.9.27-1.8.44-2.7.06-.3.12-.6.28-.89.86-1.61,1.75-3.21,2.63-4.82.11-.21.25-.41.32-.62.49-1.39.89-2.79,1.64-4.16.29-.52.27-1.11.27-1.67,0-.62.23-1.18.87-1.71,1.14-.93,1.47-2,1.41-3.09-.15-2.64.51-5.24,1.12-7.84.18-.76.54-1.55,1.19-2.22,1.15-1.17,1.67-2.41,1.98-3.69.23-.95.64-1.86,1.3-2.74.85-1.12,1.23-2.31,1.61-3.5.27-.85.58-1.69,1.04-2.51.58-1.04.98-2.08.89-3.17-.11-1.3.41-2.57.98-3.82.34-.75.89-1.45,1.71-2.11,1.29-1.04,2.21-2.19,2.61-3.44.67-2.13,1.83-4.18,3-6.24.9-1.59,1.73-3.22,1.81-4.92.03-.57.22-1.11.81-1.59,1.14-.93,1.51-1.98,1.47-3.08,0-.22,0-.43-.03-.65-.13-.89.25-1.71,1.25-2.43,2.03-1.47,2.65-3.14,2.79-4.97.19-2.4.79-4.8,1.33-7.19.16-.71.54-1.46,1.15-2.09,1.06-1.09,1.65-2.23,1.92-3.44.22-.96.6-1.9,1.23-2.81h-54.28c-.75.94-1.49,1.89-2.26,2.83-.26.31-.63.6-1.01.87ZM399.9,335.13c.82.37,1.3.87,1.62,1.41.35.59,1.15,1.15.56,1.96-1.07-.82-2-1.5-2.88-2.2-.37-.29-.45-.64-.24-.99.12-.2.66-.31.95-.18ZM413.6,306.65c.67.25.71.71,0,.94-.2.07-.41.17-.63.17-1.39.04-2.51.47-3.84.83-.84-.67-.86-1.02-.3-1.45.79-.61,3.51-.96,4.76-.49ZM363,190.42c.45.27.63.59.34.94-.08.1-.31.22-.5.23-.18.01-.46-.06-.59-.15-.37-.24-.58-.53-.35-.83.1-.13.38-.23.54-.32.27.06.46.07.55.13ZM360.73,162.31c-.85-.47-.73-.78-.2-1.18.6.39.46.72.2,1.18ZM345.28,161.45c-.12.16-.6.23-.78.11-.77-.47-.76-.95.06-1.6.84.42,1.18.89.73,1.49ZM354.57,82.31q-.3-.37-.05-.98c.68.46.56.73.05.98Z"/>
    <path class="st2" d="M296.58-4.77c-.29.98-.55,1.95-.83,2.93-.22.76-.48,1.53-.69,2.29-.22.81-.42,1.62-1.09,2.37-1.56,1.73-2.05,3.61-2.56,5.48-.33,1.2-.58,2.39-1.63,3.48-.39.4-.37.83-.18,1.26.46,1.05.14,2.06-.59,3.03-.78,1.03-1.6,2.06-2.52,3.06-.68.73-.86,1.44-.62,2.24.25.84.3,1.71.31,2.57.01,1.2-.18,2.41-.11,3.61.06,1.04-.39,1.98-1.53,2.78-1.11.79-1.66,1.64-1.67,2.63,0,.43-.21.85-.34,1.27-.39,1.27-.75,2.55-1.2,3.81-.21.59-.48,1.18-.94,1.72-1.67,1.99-2.23,4.12-2.73,6.25-.24,1.02-.22,2.06-.19,3.09.05,1.57-.43,3.07-1.58,4.53-1.1,1.39-1.85,2.83-1.61,4.38.08.55-.08,1.12-.31,1.66-.75,1.73-1.18,3.46-1.1,5.24.07,1.68-.1,3.35-.23,5.03-.04.55-.24,1.11-.48,1.65-.42.97-.76,1.94-.75,2.93,0,.87-.33,1.72-1,2.51-1.11,1.32-1.31,2.65-.4,4.01.31.46.28.92.2,1.4-.14.94-.21,1.89-.19,2.83.02,1.04-.05,2.06-.36,3.09-.23.76-.23,1.54-.33,2.31-.18,1.42-.3,2.84-.58,4.25-.18.89-.57,1.78-.95,2.65-.33.77-.59,1.57-.04,2.29,1.53,2.05,1.1,4.15.82,6.25-.11.79-.09,1.53.41,2.28.73,1.1.54,2.23-.17,3.3-.73,1.1-.94,2.15-.16,3.27.54.78.52,1.62-.14,2.4-.59.69-.57,1.34.35,1.93.68.44.75.92.58,1.45-.25.76-.44,1.53-.65,2.3-.26.9-.2,1.79.02,2.7.22.93.22,1.89.19,2.83-.05,1.16-.21,2.32.29,3.47.16.37.07.77,0,1.15-.18.95-.18,1.88.1,2.83.21.72.37,1.46.3,2.19-.23,2.17.48,4.29,1.01,6.42.07.3.15.6.18.9.31,3.53.64,7.05.9,10.58.06.79.36,1.53.73,2.28.63,1.3,1.02,2.62.81,3.96-.12.77-.32,1.54-.63,2.29-.51,1.22-.39,2.39.69,3.51,1.08,1.12,1.13,2.33.74,3.53-.35,1.05-.18,2.06.53,3.04,1,1.38.99,2.78.41,4.19-.39.95-.32,1.87.1,2.81.68,1.55,1.19,3.12,2.21,4.62.45.66.51,1.35.35,2.04-.33,1.45.08,2.82,1.03,4.18.79,1.12,1.47,2.27,2.1,3.42.31.57.43,1.18.53,1.77.09.51.06,1.03.02,1.55-.07,1,.22,1.97.62,2.94.33.8.65,1.6.83,2.41.17.74.57,1.42,1.2,2.08.55.57,1,1.17,1.47,1.76.65.81.82,1.66.48,2.53-.54,1.36-.24,2.65.88,3.89.78.87,1.01,1.81,1.15,2.75.23,1.6.74,3.15,1.92,4.63.88,1.11,1.23,2.31,1.47,3.51.1.47.19.94.27,1.41.26,1.58,1.29,3.01,2.85,4.33.87.74,1.36,1.55,1.6,2.41.58,2.04,1.28,4.07,1.11,6.16-.06.78.28,1.54.99,2.23.75.73,1.06,1.53,1.1,2.35.05,1.17.52,2.3.94,3.44.6,1.65,1.39,3.26,2.69,4.8,1.17,1.38,1.72,2.86,2.14,4.35.39,1.4,1.35,2.65,2.87,3.78.73.55,1.07,1.13,1.22,1.78.39,1.63.59,3.25.05,4.88-.32.98-.27,1.97.06,2.95.64,1.9,1.3,3.8,2.76,5.59.93,1.14,1.39,2.37,1.71,3.61.32,1.21,1,2.34,2.53,3.28.74.46,1.24.99,1.49,1.59.49,1.22,1.03,2.43,1.54,3.64.19.46.49.93.51,1.39.11,2.76,1.52,5.44,1.63,8.21.05,1.42.71,2.79,1.9,4.1,1.19,1.31,1.9,2.74,1.88,4.23-.02,1.27.37,2.47,1.39,3.63.74.85,1.3,1.75,1.84,2.65.64,1.07,1.01,2.17.94,3.3-.13,2.06.61,4.01,2.19,5.89.72.86,1.01,1.79,1.2,2.75.28,1.41.79,2.8,1.25,4.2.51,1.57,1.12,3.12,1.61,4.69.28.89.59,1.77,1.25,2.61.36.46.48.99.61,1.5.34,1.36.53,2.74.95,4.1.28.93.87,1.83,1.28,2.74.43.96,1.03,1.91,1.16,2.89.31,2.28.89,4.53,1.8,6.76.85,2.1,1.6,4.21,2.35,6.32.19.52.46.99,1.22,1.36,1.01.5,1.36,1.15,1.27,1.87-.12.95.07,1.89.33,2.83.19.68.21,1.37.21,2.06,0,1,.29,1.97.83,2.92.56.99.9,1.99,1.03,3.03.14,1.16.45,2.3.54,3.47.04.55.38,1.1.71,1.63.71,1.12,1.02,2.27.69,3.43-.41,1.46.03,2.82,1.1,4.15.55.68.71,1.39.83,2.13.32,2.1.78,4.19,1.18,6.29.08.43.21.86.18,1.29-.13,2.09.91,4.1,1.36,6.14.05.21.17.42.33.62.95,1.13,1.13,2.32,1.08,3.53-.05,1.17.14,2.31.8,3.44.4.68.51,1.44.53,2.16.06,1.68-.03,3.36-.02,5.04,0,.64.08,1.29.17,1.93.38,2.7.74,5.41.55,8.12-.03.38.11.77.19,1.15.17.77.34,1.54.53,2.3.12.47.21.94.42,1.4.56,1.18.75,2.37.6,3.58-.05.39-.03.78-.1,1.16-.16.9.24,1.72,1.29,2.41.7.46.91.98.99,1.55.18,1.21,0,2.41-.3,3.6-.33,1.25-.4,2.48-.01,3.73.31,1,.17,1.97-.57,2.91-.4.51-.74,1.04-1.07,1.57-.6.97-.63,1.92.26,2.88.53.57.88,1.2,1.21,1.81.52.97.56,1.95.05,2.93-.21.41-.36.84-.5,1.26-.26.77-.34,1.55.22,2.29.68.9.41,1.77-.07,2.65-.4.74-.83,1.49-1.04,2.25-.17.58-.11,1.2,0,1.79.14.81.52,1.61.62,2.42.09.72.08,1.47-.13,2.18-.38,1.33-.5,2.64-.22,3.98.18.89.09,1.8.09,2.7,0,.77-.13,1.55,0,2.32.26,1.51-.04,3.01-.34,4.51-.19.98-.29,1.97-.33,2.96-.07,1.85.04,3.7-.11,5.55-.07.85-.55,1.69-.93,2.52-.26.58-.69,1.14-.99,1.72-.6,1.17-.9,2.35-.35,3.57.24.53.18,1.11.18,1.67,0,.2-.02.4-.04.6h32.92c.4-2.34.86-4.68,1.53-7,.61-2.12.97-4.27,1.37-6.41.13-.68.04-1.38.09-2.06.06-.9.13-1.8.24-2.7.09-.81.24-1.63.34-2.44.05-.39-.01-.78.09-1.16.76-2.78.33-5.59.59-8.38.08-.83-.1-1.63-.71-2.4-.81-1.04-.52-2.12-.24-3.18.14-.55.45-1.1.53-1.65.11-.73.22-1.47.04-2.18-.28-1.07-.35-2.14-.21-3.22.2-1.55.19-3.09-.38-4.63-.25-.67-.21-1.37-.16-2.06.06-.91-.06-1.79-.48-2.68-.25-.53-.42-1.13-.21-1.65.73-1.8.45-3.6.29-5.4-.09-1.03-.3-2.06-.62-3.07-.27-.86-.43-1.71-.3-2.57.28-1.86.2-3.7-.61-5.52-.47-1.06-.38-2.14-.47-3.21-.06-.81-.08-1.65-.4-2.44-.57-1.4-.72-2.81-.65-4.23.08-1.51-.13-3-.71-4.49-.35-.88-.43-1.79-.5-2.69-.1-1.29-.2-2.58-.79-3.84-.33-.72-.24-1.45-.04-2.18.17-.64.34-1.28.44-1.92.1-.65-.02-1.29-.48-1.9-1.59-2.11-1.92-4.35-2.06-6.58-.09-1.48-.47-2.89-1.51-4.27-.89-1.19-1.52-2.44-2.17-3.68-.39-.75-.52-1.51-.24-2.3.42-1.19.46-2.39.12-3.6-.16-.55-.14-1.11-.09-1.67.13-1.48-.08-2.91-1.28-4.28-.5-.57-.82-1.24-.88-1.87-.14-1.53-1.01-2.96-1.68-4.41-.41-.89-.52-1.78-.59-2.68-.06-.68-.05-1.39-.36-2.05-.95-1.98-1.16-3.99-1.38-6.01-.11-.99-.22-1.98-.47-2.96-.15-.59-.49-1.17-.93-1.72-.7-.88-1.14-1.77-1.34-2.73-.16-.76-.46-1.53-.85-2.27-.63-1.21-1.08-2.43-1.1-3.68-.01-1.38-.37-2.74-.83-4.1-.56-1.65-1.08-3.31-1.06-5,0-.87-.25-1.72-.97-2.51-1-1.09-1.2-2.23-.82-3.4.25-.75.08-1.44-.39-2.15-.94-1.42-1.64-2.87-1.81-4.39-.13-1.13-.63-2.21-1.89-3.15-.73-.54-1-1.18-.73-1.84.34-.87.09-1.71-.37-2.54-.52-.95-.83-1.92-.84-2.92,0-.73-.3-1.45-.49-2.18-.21-.81-.53-1.61-.66-2.42-.23-1.44-1.02-2.78-2.09-4.08-.42-.51-.97-1-1.3-1.52-.56-.89-1.2-1.79-1.44-2.71-.56-2.13-.85-4.28-1.35-6.41-.21-.89-.66-1.77-.99-2.65-.34-.93-.76-1.85-.98-2.78-.31-1.29-.76-2.54-2.11-3.66-1.19-.98-1.51-2.06-1.07-3.21.59-1.56.34-3.08-.62-4.58-.7-1.1-1.33-2.21-2.03-3.3-.63-1-.7-2.02-.6-3.06.03-.3.12-.6.19-.9.32-1.44-.3-2.74-2.11-3.83-.72-.43-1.07-.93-1.23-1.5-.25-.89-.56-1.78-1.01-2.65-.44-.85-.54-1.71-.19-2.55.47-1.13.23-2.2-.44-3.29-.98-1.59-1.8-3.21-2.64-4.82-.24-.45-.37-.92-.44-1.39-.22-1.42-.64-2.81-1.25-4.2-.56-1.25-.84-2.54-1.17-3.81-.42-1.66-.9-3.33-1.11-5-.18-1.41-.75-2.69-2.21-3.88-.6-.49-.9-1.1-1.23-1.67-.51-.9-.9-1.83-1.37-2.74-.44-.84-.61-1.67-.3-2.55.38-1.05.78-2.12.13-3.19-.34-.57-.57-1.18-1.1-1.7-1.39-1.35-1.85-2.83-2.16-4.33-.58-2.74-1.16-5.47-1.7-8.21-.29-1.45-.43-2.92-.75-4.37-.4-1.79-.9-3.58-1.14-5.38-.12-.89-.67-1.76-1.1-2.63-.67-1.37-1.38-2.74-2.12-4.1-.39-.72-.48-1.44-.39-2.17.19-1.47-.02-2.92-.76-4.35-.36-.7-.58-1.44-.62-2.16-.12-1.82-.65-3.59-1.36-5.36-.68-1.68-1.18-3.38-1.05-5.12.08-1.04-.16-2.07-.7-3.06-.57-1.04-.96-2.08-1.01-3.17-.04-.95-.35-1.88-.96-2.78-.5-.74-.67-1.51-.58-2.29.21-1.81-.18-3.61-.26-5.42-.05-.99-.15-1.98-.17-2.97-.02-1.13-.26-2.24-1.21-3.26-.57-.61-.68-1.22-.41-1.88.43-1.06.46-2.13.22-3.21-.22-.99-.15-1.98.17-2.96.4-1.22.23-2.4-.76-3.53-.1-.12-.14-.25-.24-.37-.76-.98-.73-1.95.29-2.85,1.15-1.01.97-1.95-.15-2.91-.3-.25-.52-.54-.85-.78-1.13-.84-1.58-1.79-1.49-2.8.2-2.02.38-4.04.8-6.05.35-1.65.38-3.24-.54-4.85-1.12-1.96-1.3-3.98-.86-6.01.28-1.29.37-2.58.24-3.87-.3-2.85.17-5.68.58-8.51.07-.51.15-1.03.09-1.55-.09-.77-.21-1.54.02-2.32.1-.33-.03-.68-.08-1.03-.12-.86-.25-1.71-.37-2.57-.1-.77-.17-1.54-.27-2.31-.26-2.03-.12-4.04.74-6.03.32-.75.56-1.52.65-2.29.19-1.59.23-3.18.39-4.77.11-1.07.28-2.14.47-3.21.17-.91.13-1.79-.28-2.69-.51-1.1-.43-2.23-.11-3.34.65-2.25,1.27-4.5,2.28-6.72.7-1.54,1.03-3.13,1.43-4.71.12-.46,0-.95-.18-1.41-.23-.61-.22-1.19.06-1.79.32-.67.58-1.34.88-2.01.41-.92.68-1.85.76-2.8.14-1.78.92-3.47,2.44-5.08.82-.87,1.3-1.84,1.83-2.79.45-.8.41-1.63-.19-2.41-.57-.74-.41-1.44.26-2.11.83-.84,1.45-1.71,1.96-2.62.29-.52.89-1,1.4-1.48.27-.26.65-.49.99-.73.82-.59,1.07-1.25.75-1.96-.49-1.1-.39-2.22-.55-3.34-.14-.98.26-1.9,1.23-2.71,1.34-1.12,1.87-2.37,2.15-3.66.36-1.69,1.13-3.29,2.79-4.75,1.54-1.37,1.72-2.88.9-4.36-.73-1.33-.17-2.34,1.57-3.28,1.2-.65,2-1.44,2.4-2.34.19-.42.41-.83.7-1.23.51-.7.69-1.4.43-2.15-.35-1.02,0-1.98,1.03-2.84,1.3-1.08,1.8-2.29,2.07-3.54.37-1.73,1.18-3.37,2.85-4.88.6-.54.99-1.18,1.22-1.8.43-1.14,1.03-2.25,1.8-3.33h-47.1c-.56.47-1.12.93-1.65,1.41-.27.24-.32.57-.41.86ZM386.13,433.42c-.79-.61-.7-1.17.04-1.92q.97,1.08-.04,1.92ZM375.27,394.03c-.61-.79-.16-1.45.25-2.4.72,1.25.66,1.58-.25,2.4ZM342.25,287.63c.64.43.73.95.49,1.47-.21.46-.49.91-1.48,1.35-1.15-.84-1.29-1.7-1.14-2.6,0-.04.04-.09.1-.11.36-.15.7-.37,1.1-.42.26-.03.7.16.92.31ZM322.3,252.63c1.23.44,1.71,1.09,1.78,1.85.03.28-.35.47-.85.54-.87.13-2.11-.21-2.28-.66-.21-.56-.06-1.11.53-1.6.11-.09.37-.13.52-.17.15.02.24.02.3.04ZM325.43,237.61c.38.7.18,1.02-1,1.52-1.73-.7-1.67-1.7-1.7-2.72,1.58.09,2.26.41,2.7,1.2ZM297.57,179.17c.93.66,1.33,1.39.92,2.38-1.14-.43-1.65-.9-1.91-1.43-.13-.27-.04-.58.04-.86.05-.2.72-.26.95-.09ZM303.34,153.81c.07.1-.04.23-.1.48-2.46-.93-2.79-1.23-2.25-1.93,1.33.6,2.02,1.01,2.35,1.46ZM290.7,139.39c.11.2.17.41.28.7-.16.22-.31.51-.59.76-.13.11-.54.21-.79.19-.25-.02-.58-.16-.67-.3-.37-.51,0-1.13.79-1.5.29-.13.87-.05.98.16ZM304.3,78.37c.46.26.59.6.45.94-.07.18-.33.37-.61.48-.28.11-.76-.15-.85-.46-.11-.37-.25-.75.27-1.15.24.06.55.09.74.19ZM302.25,71.84c-.27.71-.76,1.35-2.05,1.75-.92-.42-.72-.93-.52-1.41.16-.39.61-.67,1.32-.82.63-.14,1.38.12,1.25.48Z"/>
    <path class="st2" d="M547.72-4.98c.94,2.48,2.25,4.94,1.28,7.51-.22.59-.38,1.22-.9,1.73-1.18,1.14-1.26,2.38-1.45,3.62-.13.86-.32,1.71-.46,2.56-.07.43-.17.86-.1,1.28.17,1.08.04,2.14-.47,3.2-.18.37-.35.75-.45,1.14-.25.99-.84,1.93-1.68,2.81-1.34,1.4-1.97,2.89-2.16,4.46-.11.94-.46,1.87-.72,2.81-.26.94-.57,1.87-.8,2.8-.23.95-.59,1.86-1.65,2.66-.55.41-.97.89-1.37,1.36-.84,1-1.25,2.04-.76,3.14.44.99.36,1.97-.09,2.94-.17.37-.42.74-.73,1.09-.69.77-1.38,1.55-2.18,2.29-1.12,1.03-1.55,2.16-1.77,3.32-.21,1.07-.38,2.14-.57,3.21-.21,1.16-.8,2.27-1.54,3.37-.57.84-.96,1.72-1.35,2.6-.33.77-.18,1.55.29,2.29.69,1.09.51,2.08-.77,3.05-.73.55-1.19,1.21-1.69,1.84-.52.65-.61,1.34-.08,2.01.73.94.51,1.83-.16,2.76-.4.55-.61,1.15-.81,1.74-.36,1.01-.67,2.03-.97,3.05-.24.81-.41,1.62-.68,2.42-.17.5-.44,1-.68,1.49-.41.83-.91,1.65-1.24,2.48-.37.97-.62,1.95-.86,2.93-.09.38-.09.77,0,1.15.34,1.43.25,2.81-.62,4.2-.5.8-.6,1.68-.85,2.53-.45,1.53-.85,3.06-.78,4.62.02.51-.08,1.03-.2,1.54-.2.81-.39,1.61.02,2.43.15.3-.02.68-.22,1-1.2,1.9-1.78,3.83-1.42,5.84.17.96.05,1.89-.51,2.8-.53.87-.6,1.77-.57,2.68.05,1.46.19,2.93-.27,4.38-.14.42-.24.85-.46,1.26-.55,1-.66,2.02-.65,3.06,0,.9-.13,1.8-.29,2.7-.29,1.59-.39,3.18.24,4.76.33.83.23,1.57-.56,2.35-1.06,1.05-1.18,2.25-.51,3.39.58.99.57,1.92.08,2.91-.28.57-.35,1.2-.28,1.79.41,3.74.18,7.49.38,11.23.07,1.33.4,2.66.7,3.98.2.91.25,1.8-.19,2.69-.87,1.74-.69,3.49-.32,5.26.19.9.33,1.8.34,2.7,0,1.64-.08,3.27.34,4.9.14.55.11,1.12.13,1.68.05,1.2-.02,2.4.37,3.6.19.58.04,1.2-.09,1.8-.19.87-.16,1.71.15,2.57.17.46.41.94.39,1.4-.1,2.08.62,4.11,1.17,6.15.23.86.3,1.71.08,2.57-.2.77-.09,1.54.15,2.31.3.93.46,1.87.65,2.81.33,1.63.69,3.25,2.24,4.71.73.69.83,1.48.8,2.26-.06,1.25-.06,2.5-.27,3.74-.38,2.25-.13,4.47.67,6.68.81,2.2,1.18,4.42,1.14,6.67-.04,2.29.48,4.55,1.5,6.78.36.79.6,1.61.67,2.42.14,1.74,1.13,3.38,1.89,5.05.7,1.52,1.08,3.03.53,4.6-.36,1.04-.16,2.09.77,3.02.95.95,1.12,1.96,1.28,2.99.19,1.24.4,2.49.61,3.73.02.13.03.26.1.38.95,1.79,1.08,3.64,1.32,5.49.15,1.16.56,2.3.77,3.46.25,1.37.52,2.74.62,4.11.13,1.86.43,3.69,1.85,5.42.89,1.1.98,2.24.43,3.41-.23.49-.31,1.02-.3,1.53.05,1.6.44,3.17,1.57,4.67.48.63.73,1.31.99,1.99.42,1.09.83,2.19,1.12,3.3.18.68.19,1.37.18,2.06,0,.86-.13,1.72-.17,2.58-.04.96.19,1.88,1.18,2.72.79.67.99,1.45,1.12,2.22.15.91.48,1.79.99,2.65.54.91.77,1.84.67,2.8-.12,1.12.03,2.23.43,3.34.34.92.45,1.88.5,2.82.04.83.26,1.63.85,2.39.66.85.97,1.73.87,2.65-.09.79.19,1.54.66,2.28.28.45.59.89.83,1.35.55,1.01.72,1.98-.04,3.02-.78,1.07-.64,2.22.41,3.25.91.9,1.27,1.84,1.35,2.84.13,1.59.35,3.18.52,4.77.27,2.46,1.08,4.87,2.29,7.24.83,1.63.77,3.23.15,4.85-.44,1.14-.25,2.22.65,3.27,1.12,1.31,1.66,2.68,1.5,4.14-.04.38.03.79.3,1.14.83,1.09,1.07,2.24,1.43,3.39.25.81.42,1.62.78,2.41.69,1.52.89,3.06.64,4.61-.34,2.07-.11,4.12.56,6.17.29.89.41,1.79.53,2.69.21,1.47.61,2.91,1.53,4.3.94,1.41,1.1,2.83.59,4.32-.31.92-.3,1.88-.39,2.83-.07.76.35,1.49,1.26,2.04,2.03,1.22,2.03,2.65,1.69,4.13-.13.6-.38,1.19-.53,1.78-.09.38-.18.77-.12,1.16.31,2.14.63,4.29,1.02,6.43.16.87.21,1.73-.24,2.56-.72,1.33-.46,2.62.09,3.95.72,1.76,1.25,3.54,1.79,5.32.28.94.21,1.9-.23,2.82-.76,1.56-.77,3.13-.49,4.73.28,1.58.14,3.18.17,4.77,0,.39-.14.78-.08,1.16.48,3.05-.23,6.11.33,9.16.09.51-.08,1.03-.05,1.55.03.6-.03,1.22.28,1.79.58,1.06.64,2.12.43,3.2-.16.82-.13,1.63.05,2.44.36,1.63.29,3.27-.13,4.89-.2.79-.11,1.55.43,2.28,1.05,1.44.9,2.86-.03,4.29-.18.28-.44.56-.59.84-.52.96-.81,1.93-.24,2.92.69,1.22.62,2.46.46,3.71-.18,1.37-.26,2.75-.44,4.12-.14,1.12-.37,2.23-.53,3.34-.12.81-.23,1.63-.27,2.45-.04.84.31,1.64,1.26,2.31.78.56.99,1.18.77,1.83-.25.71-.55,1.44-1.02,2.11-.97,1.39-1.5,2.82-1.42,4.29.07,1.43-.19,2.82-.89,4.21-.91,1.81-1.04,3.66.02,5.48.3.51.37,1.01.15,1.52-.59,1.35-.68,2.72-.57,4.1.15,1.82-.36,3.61-1.06,5.38-.42,1.06-.72,2.11-.68,3.2.02.38-.13.77-.22,1.15-.2.85-.49,1.7-.6,2.56-.34,2.66-.62,5.33-.92,7.99-.01.12-.02.23-.03.35h57.93v-101.26c-.02-.2-.03-.4-.03-.6,0-.82-.11-1.63-.24-2.45-.31-2.01-.59-4.03-1.01-6.04-.22-1.02-.79-2.02-1.09-3.03-.33-1.1-.58-2.22-.76-3.33-.12-.7-.46-1.34-.88-2-.46-.73-.81-1.48-1.14-2.23-.37-.84-.61-1.69-1.01-2.52-.51-1.06-.61-2.13-.56-3.2.12-2.65-.76-5.23-2.06-7.76-.47-.92-.82-1.83-.8-2.79.03-1.3-.33-2.57-1.07-3.81-.49-.82-.77-1.66-.78-2.53,0-.5-.28-1.02-.64-1.49-.75-.97-1.14-1.97-1.19-3.01-.06-1.17-.43-2.31-.89-3.44-.5-1.22-.93-2.44-1.36-3.67-.3-.85-.7-1.67-1.34-2.47-1.26-1.55-1.73-3.21-2.18-4.87-.17-.64-.27-1.28-.32-1.93-.07-.85-.54-1.62-1.55-2.26-.94-.59-1.26-1.25-.73-1.91,1.08-1.35.66-2.6-.46-3.85-1.16-1.3-1.56-2.7-1.95-4.11-.34-1.23-.73-2.46-1.08-3.7-.25-.9-.64-1.77-1.47-2.57-.44-.42-.53-.89-.58-1.37-.09-.81-.17-1.64-.48-2.43-.59-1.51-1.26-3.02-2.03-4.51-.97-1.87-1.56-3.77-1.71-5.72-.04-.47-.13-.94-.25-1.41-.23-.85-.43-1.71-.76-2.55-.3-.75-.67-1.51-1.17-2.23-.89-1.3-1.35-2.64-1.63-4.02-.22-1.06-.66-2.12-1.03-3.17-.26-.76-.64-1.51-.83-2.27-.27-1.03-.64-2.03-1.4-2.99-.75-.95-1.16-1.96-1.41-2.99-.51-2.05-.99-4.09-1.56-6.14-.18-.63-.59-1.25-.9-1.87-.48-.95-.98-1.9-1.43-2.86-.44-.96-.91-1.91-1.75-2.8-1.06-1.12-1.62-2.33-1.58-3.61.03-.77-.05-1.55.02-2.32.11-1.23-.3-2.41-1.34-3.5-1.04-1.08-1.26-2.2-.91-3.38.1-.34.17-.68.25-1.02.31-1.35.07-2.66-.83-3.93-.57-.8-1.09-1.62-1.6-2.43-.57-.91-.85-1.83-.47-2.79.32-.83-.04-1.64-.5-2.42-.85-1.45-1.21-2.93-1.33-4.44-.12-1.59-.66-3.17-1.47-4.7-.57-1.08-1.01-2.17-1.2-3.29-.19-1.13-.71-2.22-1.65-3.22-.92-.98-1.14-1.98-.7-3.01.61-1.45.41-2.81-.81-4.14-.48-.52-.49-1.07-.42-1.64.28-2.11.18-4.21-.27-6.32-.39-1.83-1.37-3.52-3.52-4.99-.64-.43-1.11-.93-1.67-1.42.49-.31,1.07-.55,1.32-.87.28-.34.32-.75.35-1.14.14-1.46.17-2.92-.71-4.34-.64-1.03-.78-2.12-.43-3.19.3-.93.09-1.81-.65-2.64-.97-1.09-1.17-2.21-.97-3.4.2-1.14-.1-2.22-1.61-3.13-1.08-.65-1.42-1.51-.9-2.31.95-1.45.26-2.8-.41-4.18-.18-.37-.37-.75-.52-1.13-.22-.6-.52-1.17-1.22-1.66-.91-.64-.99-1.34-.55-2.08.07-.12.1-.26.2-.37,1.36-1.53,1.21-3.18,1.31-4.81.03-.55-.13-1.13-.45-1.65-.63-1.05-.82-2.11-.68-3.19.13-1.02-.21-1.98-1.18-2.85-1.18-1.06-1.34-2.17-1.01-3.36.31-1.1.42-2.22.63-3.34.13-.7-.11-1.37-.49-2.03-.62-1.08-.92-2.17-1.04-3.3-.08-.77-.47-1.52-.68-2.29-.15-.55-.25-1.11-.31-1.66-.11-.94-.17-1.89-.24-2.83-.05-.69-.18-1.38-.1-2.06.14-1.18.06-2.31-1.15-3.36-.62-.54-.6-1.15-.21-1.75.37-.57.77-1.13,1.1-1.7.74-1.28.72-2.55-.35-3.78-.93-1.07-1.2-2.21-1.56-3.36-.66-2.05-.6-4.12-.92-6.17-.21-1.35.02-2.66.86-3.94.85-1.29.67-2.63.41-3.96-.15-.77-.53-1.54-.53-2.3,0-1.16.06-2.33.42-3.47.82-2.6.89-5.22,1.28-7.84.67-4.43.42-8.86.56-13.3.11-3.44.2-6.89.42-10.33.09-1.37.53-2.74.75-4.11.12-.73.16-1.46.19-2.19.02-.52.07-1.04.58-1.5,1.2-1.09,1.35-2.27,1.15-3.5-.5-3.11-.01-6.19.99-9.25.07-.21.14-.43.31-.62.93-.98,1.21-2.03,1.33-3.12.13-1.12.59-2.2,1.18-3.28.54-.98.74-2.02,1.08-3.03.29-.89.45-1.79.88-2.66.68-1.37,1.48-2.72,2.31-4.07,2.77-4.49,4.99-9.06,6.71-13.71,1.39-3.75,3.02-7.48,4.49-11.22.91-2.31,1.72-4.64,2.59-6.96.26-.69.26-1.36-.06-2.05-.21-.46-.34-.93-.49-1.39-.21-.64-.25-1.24.09-1.9.38-.73.37-1.53.49-2.3.11-.74.33-1.45.94-2.12.75-.83.9-1.74.99-2.64.15-1.43.79-2.8,1.48-4.17.5-1,.9-2.01,1.32-3.01.09-.21.12-.43.09-.64-.08-.54-.16-1.08-.25-1.62h-21.41c.17.66.47,1.31.98,1.94.03.04.08.08.09.12ZM573.97,309.39c.28.08.49.32.53.51.03.12-.28.28-.5.39-.16.08-.42.15-.63.16-1.29.03-2.44.3-3.58.59-.65.16-1.26-.08-1.31-.47-.07-.47.25-.88,1.02-1.07.84-.21,1.77-.31,2.65-.45.68.12,1.31.19,1.84.34ZM537.09,79.61c-.13.22-.29.44-.48.65-.03.03-.36.03-.38,0-.09-.11-.2-.24-.13-.34.11-.17.34-.33.52-.49.25.09.49.15.47.17Z"/>
    <path class="st2" d="M97.82,494.4c.31-1.42.49-2.83.35-4.25-.11-1.16-.12-2.32.3-3.47.16-.46.05-.94.1-1.42.11-1.16.3-2.32.34-3.48.07-2.28.1-4.56.06-6.84,0-.45-.35-.93-.73-1.35-.97-1.05-1.14-2.13-.68-3.27.15-.38.28-.76.41-1.14.36-1.03.42-2.06.04-3.08-.37-.99-.43-1.97-.16-2.95.38-1.39.13-2.74-.41-4.1-.29-.71-.42-1.45-.39-2.17.04-.88-.06-1.72-.67-2.53-.45-.62-.57-1.25-.31-1.9,1.09-2.71.47-5.4-.35-8.07-.29-.94-.47-1.88-.33-2.82.24-1.65-.04-3.25-.76-4.86-.46-1.03-.55-2.13-.62-3.2-.07-1.12-.18-2.23-.66-3.33-.31-.7-.37-1.44-.45-2.17-.06-.6,0-1.21.03-1.81.07-1.17-.28-2.31-.73-3.45-.38-.96-.6-1.95-.7-2.94-.12-1.25-.21-2.49-.83-3.71-.39-.76-.27-1.54,0-2.31.1-.3.24-.59.36-.88.49-1.18.26-2.29-.74-3.39-1.11-1.22-1.27-2.57-1.62-3.89-.24-.89-.32-1.8-.36-2.7-.05-1.09-.4-2.11-1.33-3.11-1.26-1.34-2.08-2.79-2.79-4.24-.29-.6-.37-1.19-.07-1.78.62-1.26.82-2.53.3-3.83-.21-.53-.09-1.11-.03-1.67.14-1.39-.08-2.72-1.32-4.01-.64-.67-.79-1.48-1.11-2.23-.37-.88-.59-1.78-1.04-2.64-.75-1.41-1.44-2.81-1.19-4.31.09-.54-.04-1.13-.34-1.66-1.15-2-1.26-4.07-1.53-6.12-.08-.6-.07-1.21-.17-1.81-.16-.99-.46-1.95-1.44-2.83-.65-.59-.93-1.27-1.04-1.97-.16-1.03-.47-2.03-1.14-3.02-.75-1.09-1-2.26-1.01-3.43,0-1.43-.32-2.82-.85-4.22-.53-1.39-.87-2.8-.83-4.23.03-1.04-.19-2.06-1.11-3.01-.85-.87-1.04-1.82-.69-2.77.39-1.06.08-2.02-.65-3.01-.94-1.28-1.48-2.63-1.63-4.02-.11-1.01-.64-1.94-1.81-2.75-.93-.65-1.35-1.35-.86-2.17.35-.59.23-1.19-.08-1.78-.28-.54-.54-1.08-.76-1.63-.15-.38-.32-.76-.3-1.14.05-1-.16-1.97-.49-2.95-.27-.8-.4-1.62-.59-2.43-.32-1.38-1.1-2.68-2.25-3.92-.71-.77-1.38-1.55-1.97-2.34-.96-1.29-1.1-2.68-1.37-4.05-.2-1.03-.28-2.06-.46-3.09-.12-.68-.19-1.38-.52-2.04-.92-1.83-1.7-3.66-2.11-5.55-.12-.58-.72-1.13-1.18-1.68-.29-.35-.71-.67-1.08-1-.86-.78-1.12-1.6-.69-2.48.82-1.68.66-3.32-.54-4.94-.74-1-1.38-2.01-1.98-3.04-.31-.53-.56-1.08-.59-1.63-.05-.77.02-1.55.22-2.32.35-1.32-.09-2.51-1.76-3.49-1.14-.67-1.72-1.4-1.9-2.29-.14-.72-.51-1.44-.9-2.14-.45-.81-.55-1.61-.15-2.42.57-1.17.29-2.27-.4-3.41-.94-1.55-1.74-3.13-2.79-4.66-.41-.59-.47-1.26-.54-1.9-.13-1.21-.52-2.39-1.18-3.55-.78-1.36-1.09-2.78-1.36-4.19-.37-1.93-.72-3.85-1.19-5.77-.13-.54-.48-1.11-1.01-1.56-1.33-1.14-2.32-2.34-2.79-3.67-.19-.54-.61-1.07-.97-1.59-.62-.91-.84-1.83-.38-2.79.04-.08.03-.17.07-.25.93-1.64.2-3.17-1.25-4.6-1.18-1.16-1.72-2.39-2.02-3.68-.6-2.6-1.23-5.21-1.82-7.81-.18-.81-.21-1.63-.4-2.44-.39-1.66-.85-3.32-1.27-4.99-.17-.68-.33-1.37-.4-2.05-.12-1.13-.57-2.21-1.25-3.27-.8-1.26-1.5-2.54-2.26-3.8-.58-.95-.81-1.92-.6-2.92.22-1.03,0-2.06-.54-3.07-.67-1.24-.98-2.51-1.18-3.8-.23-1.45-.79-2.89-1.41-4.31-.77-1.77-1.37-3.54-1.29-5.36.05-1.09-.4-2.14-1.03-3.16-.56-.9-.96-1.81-.96-2.78,0-.87-.39-1.71-1.01-2.51-.55-.73-.91-1.47-.84-2.26.19-2.16-.44-4.3-.63-6.44-.06-.64-.17-1.29-.19-1.93-.02-1.18-.39-2.32-1.5-3.35-.65-.6-.73-1.22-.45-1.87.4-.94.37-1.87.14-2.82-.3-1.2-.35-2.4.07-3.6.29-.83.11-1.62-.53-2.39-.36-.43-.69-.87-1.01-1.31-.59-.8-.66-1.63.24-2.36,1.37-1.1,1.09-2.09-.33-3.08-.34-.24-.57-.52-.92-.75-1.29-.84-1.76-1.84-1.67-2.89.17-2.15-.07-4.3.52-6.44.33-1.21.15-2.41-.69-3.56-1.32-1.79-1.75-3.66-1.9-5.56-.02-.21-.03-.43.04-.64.42-1.28.4-2.58.14-3.86-.54-2.71-.34-5.42-.29-8.13.02-.94-.12-1.89-.19-2.84-.02-.3-.12-.61-.06-.9.14-.66-.07-1.29-.33-1.92-.1-.25-.33-.5-.33-.75.01-2.5-1.36-4.94-1.05-7.45.1-.77.21-1.54.49-2.3.24-.67.43-1.36.43-2.04-.02-1.64-.19-3.27-.24-4.9-.03-.86.01-1.72.13-2.58.15-1.09.04-2.13-.65-3.17-.87-1.32-.69-2.72-.49-4.1.15-1.03.44-2.05.61-3.08.15-.94.57-1.87.82-2.8.4-1.53.59-3.08.79-4.62.05-.37-.15-.77-.34-1.14-.38-.72-.48-1.43-.18-2.17.15-.38.25-.76.37-1.14.36-1.19.63-2.37.51-3.59-.16-1.6.36-3.16,1.64-4.64.7-.81,1.04-1.71,1.48-2.58.44-.86.25-1.73-.5-2.51-.77-.8-.73-1.56.02-2.34.67-.69,1.14-1.41,1.36-2.19.17-.6.63-1.15,1.29-1.65.28-.21.56-.42.82-.63.8-.65.98-1.34.47-2.09-.74-1.1-.91-2.26-1.27-3.41-.28-.89,0-1.72.82-2.49,1.16-1.08,1.52-2.25,1.61-3.46.05-.73.16-1.46.3-2.19.15-.82.6-1.61,1.34-2.33,1.56-1.52,1.45-3.04.3-4.6-.06-.08-.12-.16-.19-.24-1.02-1.06-.59-1.99.88-2.83,1.24-.7,2.02-1.51,2.33-2.49.4-1.27,1.19-2.49,2.17-3.68.58-.7.96-1.46,1.42-2.19.51-.81.92-1.65,1.55-2.44.55-.69.58-1.32-.06-1.98-.22-.23-.34-.49-.56-.71-.72-.74-.56-1.49.47-2.03,2.11-1.13,2.82-2.54,3.4-4.03.31-.79.89-1.56,1.53-2.3.7-.79,1.13-1.62,1.22-2.48.13-1.22.23-2.45.8-3.63H-16.5s0,149.68,0,149.68c.11-.04.22-.09.35-.13,1.08.6,1.04,1.17.41,1.72-.13.11-.47.21-.76.24v78.33c.26.41.56.82.91,1.22,1.26,1.42,1.6,2.98,1.76,4.52.17,1.7,1.32,3.17,3.04,4.54.87.69,1.49,1.42,1.72,2.24.6,2.13,1.41,4.24,1.06,6.41-.11.7.19,1.37.85,1.98.83.76,1.14,1.59,1.17,2.47.03.68.19,1.37.43,2.05.37,1.06.82,2.11,1.31,3.15.26.54.59,1.08,1.04,1.58,1.59,1.75,2.79,3.57,3.23,5.51.33,1.46,1.43,2.73,3.08,3.85.83.57,1.27,1.17,1.32,1.89.04.56.19,1.11.27,1.67.12.82.08,1.62-.31,2.43-.68,1.4-.62,2.81-.05,4.22.62,1.56,1.19,3.11,2.47,4.57,1.03,1.17,1.52,2.44,1.84,3.72.3,1.22,1.05,2.33,2.67,3.24,1.01.56,1.63,1.23,1.79,2.05.14.76.57,1.52.96,2.26.68,1.29,1.03,2.6,1.14,3.94.07.9.33,1.79.5,2.69.19,1.03.47,2.05.53,3.08.1,1.66.63,3.22,2.13,4.71,1.26,1.25,1.94,2.63,1.89,4.09-.01.43-.02.86.07,1.29.08.42.19.86.46,1.26.69,1.01,1.46,2,2.24,2.99.85,1.08,1.36,2.2,1.36,3.38,0,.43,0,.86-.03,1.29-.13,1.63.53,3.17,1.85,4.62,1,1.1,1.48,2.24,1.62,3.47.15,1.32.67,2.64,1.1,3.95.53,1.65,1.09,3.3,1.72,4.94.25.67.62,1.33,1.08,1.97.42.57.67,1.13.77,1.74.26,1.59.58,3.17,1,4.74.17.63.61,1.25,1.04,1.85.85,1.18,1.34,2.39,1.33,3.65,0,1.47.42,2.92.94,4.35.73,2.03,1.5,4.05,2.26,6.07.19.51.43,1,.6,1.51.21.65.59,1.22,1.64,1.65,1,.41,1.36,1.05,1.22,1.74-.19.95.03,1.89.25,2.83.17.72.15,1.46.14,2.19-.02.92.23,1.8.79,2.66.64.98,1.05,1.97,1.09,3.02.04,1.03.44,2.04.36,3.08-.05.62.36,1.28.77,1.87.86,1.25,1.11,2.51.53,3.8-.41.92-.19,1.79.46,2.65.18.24.37.48.57.71.71.83,1.02,1.7,1.12,2.62.21,1.89.62,3.77.93,5.66.09.51.25,1.03.2,1.54-.17,2.05.85,4.01,1.31,6.02.08.37.44.73.74,1.08.55.64.79,1.3.76,2-.02.52-.01,1.03.01,1.55.04.82.2,1.63.77,2.4.57.77.76,1.58.72,2.41-.09,1.64-.18,3.27-.25,4.91-.02.39-.01.78.03,1.16.21,1.76.46,3.52.64,5.28.1.99.04,1.98.08,2.96.03.6.1,1.2.21,1.79.14.77.31,1.54.52,2.3.12.42.29.85.52,1.26.59,1.04.75,2.11.6,3.19-.07.47-.03.95-.15,1.42-.22.89.35,1.64,1.45,2.23,1.13.6,1.41,1.3,1.44,2.1.03.95,0,1.89-.32,2.83-.46,1.36-.57,2.74-.02,4.11.32.8.16,1.54-.49,2.26-.45.5-.87,1.02-1.33,1.51-1,1.08-1.11,2.14.2,3.18.91.72,1.43,1.53,1.78,2.38.25.6.28,1.19,0,1.79-.22.46-.47.91-.64,1.38-.34.9-.43,1.8.32,2.66.66.76.53,1.5-.01,2.25-.23.32-.48.64-.69.96-.72,1.16-.98,2.32-.43,3.55.73,1.64,1.07,3.3.33,4.98-.37.84-.24,1.71.12,2.56.43,1.01.51,2.04.39,3.08-.06.56-.03,1.12.08,1.67.29,1.46.3,2.91-.14,4.37-.4,1.36-.52,2.72-.25,4.11.33,1.71.26,3.44.2,5.16-.02.63-.49,1.25-.81,1.87-.43.83-.96,1.64-1.38,2.47-.39.76-.39,1.53.05,2.29.58,1.01.58,2.04.26,3.07-.18.59-.44,1.18-.58,1.78-.12.5-.21.99-.29,1.49h39.59c.29-1.09.61-2.18.71-3.28.3-3.4,1.3-6.76,2.04-10.14ZM-9.43,13.64c.2-.12.32-.26.48-.28.17-.02.45.05.55.13.16.13-.15.38-.44.35-.19-.01-.35-.12-.59-.21ZM-12.61,77.04c.12-.44.52-.79,1.35-.95.77-.15,1.5.11,1.41.54-.15.7-.7,1.26-1.98,1.68-.75-.43-.9-.84-.78-1.27ZM-7.04,84.35c-.69-.29-.98-1-.59-1.39.06-.06.25-.09.38-.14.65.03.91.3,1.11.58.23.33.32.68-.25.94-.13.06-.51.06-.65,0ZM-6.39,149.18l.12.02-.09.07-.03-.09ZM-3.74,155.73c1.2.44,2.35,1.05,2.75,1.47.06.07.06.17.01.25-.04.07-.18.12-.28.17-2.5-.81-2.93-1.14-2.48-1.89ZM-7.86,182.54c-.06-.15.1-.33.21-.48.16-.21.72-.27.99-.11,1.04.63,1.64,1.33,1.21,2.2-.01.03-.13.04-.35.1-1.14-.38-1.78-.98-2.06-1.71ZM22.12,240.91c-.93-.72-1.31-1.52-.95-2.43,1.12-.01,1.83.3,2.34.75.5.44.82.92.52,1.46-.15.26-.41.51-.93.5-.34,0-.79-.13-.98-.28ZM20.54,256.76c-1.65-.08-2.35-.6-1.99-1.48.07-.17.14-.33.25-.49.35-.49,1.13-.57,1.85-.2.7.36,1.18.79,1.35,1.32.18.58-.38.91-1.45.85ZM38.43,289.43c0-.37.53-.64,1.16-.7.63-.07,1.04.11,1.38.37.55.4.75.86.47,1.33-.31.52-.7,1.04-1.84,1.38-1.15-.76-1.18-1.57-1.17-2.37ZM73.58,392.73c.21-.4.06-.93,1.14-1.18.2.81.32,1.53-.59,2.22-.86-.29-.74-.69-.56-1.04ZM85.38,432.16c-.13-.2-.21-.41-.29-.58.13-.36-.05-.76.7-.93.47-.1.94.38.84.91-.04.21-.18.42-.36.6-.08.08-.36.13-.57.14-.1,0-.28-.08-.32-.15Z"/>
    <path class="st2" d="M491.07-3.19c-.77.72-.97,1.55-1.08,2.37-.16,1.13-.66,2.19-1.69,3.2-.48.47-.65,1.06-.77,1.6-.12.55-.1,1.12.03,1.67.32,1.36-.21,2.66-.74,3.96-.41,1.01-.92,2-1.43,2.99-.23.45-.49.92-.89,1.33-.73.75-1.07,1.53-.97,2.36.08.71-.19,1.37-.79,1.99-.15.15-.23.32-.39.47-1.79,1.63-1.97,3.41-1.64,5.24.16.86.16,1.72-.18,2.57-.1.25-.15.51-.18.77-.15,1.48-.84,2.87-1.98,4.23-.62.74-.95,1.55-1.29,2.34-.41.97-.85,1.92-1.61,2.83-1.08,1.27-1.48,2.62-1.81,3.99-.25,1.02-.59,2.04-.86,3.06-.22.85-.46,1.71-.54,2.56-.11,1.12-.37,2.22-.84,3.32-.94,2.22-1.67,4.47-3.06,6.63-.84,1.32-1.03,2.69-.89,4.08.16,1.6-.02,3.18-.96,4.72-.18.29-.31.59-.6.84-1.04.9-1.47,1.9-1.63,2.94-.16,1.04-.57,2.03-1.47,2.97-.91.96-.98,2.01-.42,3.02.61,1.09.85,2.17.42,3.3-.28.75-.26,1.54-.35,2.31-.08.65-.34,1.28-.96,1.85-.97.89-1.23,1.86-.94,2.86.35,1.19.09,2.31-1.23,3.32-.7.54-.96,1.18-.97,1.84,0,.52.04,1.03,0,1.55-.06.9-.17,1.8-.26,2.7-.07.69-.26,1.38-.22,2.06.11,1.59.09,3.19.65,4.76.3.85.17,1.61-.86,2.31-.97.66-1.26,1.46-1.29,2.3-.04,1.16-.21,2.32-.21,3.48,0,.64.13,1.29.37,1.91.25.65.28,1.26.05,1.91-.38,1.05-.62,2.12-.95,3.18-.15.47-.32.93-.59,1.38-.73,1.21-1.01,2.44-.65,3.69.29,1.02.07,1.95-1.03,2.83-.97.78-.72,1.65-.28,2.5.37.7.8,1.4,1.25,2.08.52.81.49,1.6-.02,2.4-.26.41-.49.82-.69,1.23-.54,1.12-.44,2.22.55,3.27.29.31.55.62.81.93.68.81.86,1.67.4,2.52-.66,1.21-.81,2.45-.85,3.7-.07,2.02-.18,4.04-.29,6.07-.11,2.12.12,4.22,1.42,6.24.49.75.45,1.52.26,2.3-.33,1.32-.7,2.64-1.02,3.96-.08.33-.12.7.04,1.02.69,1.42,1.1,2.86,1.38,4.32.17.92.67,1.78,1.43,2.58,1.09,1.15,1.41,2.35,1.23,3.63-.15,1.12-.33,2.22-.94,3.3-.52.92-.27,1.88.11,2.81.21.5.48,1,.75,1.5.46.84.58,1.7.29,2.56-.38,1.12-.12,2.23.02,3.35.08.61.43,1.19,1.11,1.68,1.07.77,1.35,1.65,1.19,2.57-.27,1.58.12,3.07,1.42,4.52.47.52.54,1.16.69,1.75.1.38.02.77-.01,1.16-.1,1.08-.07,2.15.4,3.21.28.62.43,1.27.52,1.91.12.88.56,1.69,1.27,2.47.83.92,1.07,1.89.87,2.89-.5,2.61-.02,5.16,1.4,7.66.45.8.57,1.61.44,2.43-.2,1.35.19,2.65,1,3.93.56.89.79,1.84,1.2,2.76.32.71.55,1.44,1.05,2.11.99,1.32,1.2,2.68.82,4.06-.43,1.57-.22,3.08.92,4.55.66.85.81,1.76.68,2.66-.13.97.27,1.88.94,2.76.33.44.69.87,1,1.31.84,1.18,1.3,2.39,1.07,3.66-.24,1.34.04,2.66.48,3.98.32.97.45,1.96.53,2.95.1,1.31.59,2.56,1.61,3.74,1.2,1.39,1.81,2.86,1.81,4.38,0,3.12.96,6.17,2.19,9.2.43,1.07.55,2.13.3,3.21-.09.38-.18.77-.21,1.16-.07.83.13,1.63.9,2.37,1.06,1.01,1.58,2.15,2.71,3.15.71.63.7,1.4.57,2.14-.06.34-.17.68-.31,1.02-.25.6-.29,1.21.06,1.79.67,1.12.66,2.29.92,3.44.12.51.26,1.03.54,1.51.56.95.86,1.93.91,2.92.06,1.28.64,2.44,1.88,3.55,1.33,1.18,1.79,2.47.93,3.84-.77,1.22-.36,2.38.72,3.49.34.34.75.66,1.08,1,.69.73,1.11,1.49,1.2,2.34.17,1.63.34,3.26.36,4.9.01,1.07.35,2.14.56,3.21.38,1.93.7,3.86,1.82,5.71.15.24.14.51.19.77.22,1.12.57,2.21,1.34,3.26.57.76.87,1.56.97,2.38.08.73.35,1.45.44,2.18.17,1.29.27,2.58.39,3.86.07.74.42,1.45,1.07,2.1.96.96,1.41,2.01,1.72,3.07.43,1.49.77,2.98,1.05,4.48.14.74.36,1.46.91,2.13,1.14,1.37,1.34,2.83,1.42,4.29.1,1.68.14,3.36-.3,5.03-.45,1.71.16,3.37,1.29,4.93,1.22,1.68,1.65,3.39,1.63,5.17,0,.99.18,1.98.34,2.96.07.43.18.87.45,1.26.89,1.31,1.15,2.67,1.25,4.05.14,2.07.81,4.1,1.64,6.12.38.92.7,1.86.8,2.8.15,1.41.5,2.83.26,4.25-.22,1.25.07,2.48,1.03,3.66.65.8.78,1.67.61,2.54-.24,1.25-.11,2.49.09,3.73.15.98.04,1.98-.17,2.96-.27,1.29-.35,2.57.16,3.85.93,2.32,1.31,4.68,1.84,7.02.04.17.04.35.12.51.65,1.32.61,2.63.12,3.96-.36.98-.25,1.97.43,2.93.59.82.63,1.68.5,2.54-.15.94-.31,1.89-.45,2.83-.12.83.04,1.64.57,2.42.77,1.11.89,2.27.83,3.43-.03.65-.11,1.29-.17,1.94-.14,1.47.07,2.93.75,4.36.72,1.52,1.02,3.03.39,4.59-.3.75-.28,1.54-.23,2.32.07,1.17-.12,2.32-.55,3.47-.42,1.12-.38,2.22.25,3.32.51.87.58,1.77.54,2.68-.04.94.03,1.89.2,2.83.25,1.42.3,2.82-.42,4.23-.59,1.14-.5,2.28.25,3.43.71,1.09.56,2.2-.37,3.27-.14.16-.27.31-.41.47-.42.47-.47.96.18,1.34,1.37.78,1.01,1.54.18,2.36-.53.52-.92,1.1-1.33,1.66-.47.66-.37,1.29.63,1.78.86.42,1.04.94,1.03,1.51-.04,3.31.23,6.62-.3,9.93-.25,1.58-.13,3.18-.19,4.77-.09,2.2-.6,4.37-1.87,6.47-.32.52-.49,1.09-.49,1.64,0,.9.18,1.8.28,2.7.07.64.22,1.29.2,1.93-.03,1.12.05,2.22.38,3.34.21.73-.03,1.5-.14,2.26h14.27c.63-1.14.76-2.33.99-3.5.18-.94.33-1.89.64-2.82.57-1.66.63-3.34.6-5.02-.01-1.04.08-2.06.52-3.07.56-1.27.73-2.54.45-3.84-.39-1.81-.2-3.61.81-5.37.62-1.09.89-2.18.51-3.31-.1-.29-.13-.6-.09-.9.13-1.08-.09-2.15-.48-3.21-.38-1.04-.36-2.06.16-3.07,1.06-2.06,1.11-4.15.81-6.27-.2-1.41-.03-2.84.24-4.25.65-3.3,1.03-6.6.69-9.93-.06-.6.03-1.2.08-1.81.15-1.77.12-3.53-.72-5.26-.48-.98-.35-1.97-.06-2.95.34-1.15.78-2.29,1.05-3.44.16-.68.25-1.39.05-2.05-.28-.9-.39-1.79-.4-2.7-.01-.77-.1-1.55,0-2.32.5-3.66.02-7.31-.28-10.97-.08-1.03-.39-2.06-.74-3.07-.38-1.12-.44-2.23-.15-3.34.49-1.9.34-3.78-.31-5.65-.38-1.08-.41-2.13-.09-3.21.33-1.11.35-2.23-.18-3.33-.5-1.05-.63-2.12-.61-3.2.02-1.08-.23-2.14-.72-3.19-.59-1.26-.77-2.54-.62-3.84.17-1.51-.04-3.01-.26-4.51-.23-1.63-.25-3.27-.2-4.9.06-2.16-.33-4.3-.81-6.43-.12-.56-.17-1.11-.29-1.67-.28-1.37-.4-2.74-1.09-4.08-.21-.41-.2-.85-.24-1.28-.14-1.59-.26-3.18-.4-4.77-.05-.52-.09-1.04-.25-1.54-.47-1.45-.76-2.9-.67-4.37.05-.78-.1-1.54-.93-2.23-.53-.44-.7-.96-.62-1.49.15-1.04-.16-2.06-.61-3.07-.54-1.22-.78-2.46-.75-3.71.01-.69-.01-1.38-.04-2.07-.03-.7-.26-1.37-.86-1.99-.84-.87-1.08-1.8-.81-2.76.3-1.09.13-2.15-.44-3.19-.71-1.31-.91-2.62-.46-3.96.29-.87.07-1.71-.49-2.54-.25-.36-.5-.73-.77-1.08-.61-.81-.84-1.65-.62-2.53.14-.55.21-1.11.23-1.67.05-1.31-.47-2.56-1.43-3.76-2.5-3.12-2.1-2.54-1.16-5.72.41-1.38.5-2.74,0-4.1-.36-.98-.48-1.96-.4-2.95.04-.47.03-.95.01-1.42-.02-.7-.33-1.36-1-1.97-1.36-1.24-1.99-2.58-2.42-4.01-.65-2.17-.9-4.36-1.29-6.54-.42-2.36-1.03-4.71-2.22-6.99-.48-.92-.51-1.77.22-2.63.2-.23.36-.48.47-.73.37-.87.3-1.71-.52-2.5-.19-.19-.43-.36-.62-.55-1.15-1.15-1.91-2.36-1.67-3.7.26-1.43-.08-2.83-.72-4.22-.36-.79-.53-1.61-.56-2.43-.04-1.04-.24-2.06-.67-3.07-.31-.72-.49-1.44-.4-2.17.1-.93-.26-1.8-1.09-2.61-1.03-1.01-1.47-2.08-1.28-3.23.04-.26,0-.52.07-.77.5-1.96-.02-3.86-.93-5.75-.67-1.38-.92-2.79-1.01-4.22-.06-.9-.22-1.8-.49-2.69-.15-.5-.46-1.02-.96-1.44-1.52-1.28-1.82-2.67-1.24-4.1.44-1.08.24-2.05-.75-2.98-1.14-1.07-1.52-2.25-1.75-3.46-.19-.98-.51-1.96-.7-2.94-.13-.68-.34-1.39-.12-2.05.53-1.61.11-3.16-.38-4.74-.66-2.12-1.56-4.22-1.65-6.38-.03-.66-.4-1.27-1.15-1.8-1.54-1.09-1.79-2.25-.81-3.52.66-.86.62-1.77.21-2.67-.15-.33-.32-.67-.52-.99-.56-.95-.82-1.93-.7-2.93.13-1.09-.15-2.15-.66-3.19-.59-1.21-.82-2.45-.92-3.7-.07-.86-.25-1.72-.54-2.56-.74-2.17-1.3-4.33-.86-6.54.15-.79-.08-1.55-.54-2.29-.56-.91-.82-1.84-.68-2.8.12-.79-.14-1.55-.57-2.29-.79-1.37-1.13-2.76-.86-4.2.19-1.03,0-2.07-.64-3.06-.39-.59-.43-1.17-.13-1.77.58-1.19.52-2.39.14-3.59-.51-1.59-.6-3.15.32-4.72.6-1.02.34-2.03-.49-3.02-.76-.9-1.4-1.82-2.11-2.73-.32-.42-.42-.83-.03-1.25.61-.64.59-1.32.62-2.01.04-.77.05-1.56.32-2.31.54-1.51.53-3-.01-4.49-.34-.94-.39-1.88-.27-2.83.04-.3.09-.6.05-.9-.52-3.53-.15-7.06.16-10.58.08-.9.1-1.81.06-2.71-.05-1.29-.04-2.58.35-3.86.05-.17.07-.34.08-.51.11-2.15.15-4.3.33-6.45.12-1.47.14-2.92-.14-4.38-.08-.4.18-.86.52-1.23.91-1.01,1.02-2.06.96-3.15-.06-1.07-.09-2.15-.07-3.23,0-.44.05-.82-.63-1.18-.63-.33-.43-.81-.13-1.22.61-.84,1.26-1.67,1.91-2.5.22-.28.5-.54.76-.8.7-.71.96-1.43.32-2.22-.59-.73-.56-1.51-.44-2.29.11-.66.46-1.26,1.31-1.76,1.29-.76,1.62-1.65,1.19-2.64-.27-.63-.52-1.26-.93-1.86-.59-.88-.71-1.73-.31-2.66.38-.87.51-1.78.72-2.67.11-.47.1-.95.24-1.41.39-1.27.73-2.55.78-3.84.02-.55.25-1.12.66-1.63,1.04-1.29,1.39-2.65,1.45-4.03.07-1.43.34-2.83.84-4.23.15-.41.22-.87.08-1.28-.24-.71.03-1.37.46-2.02.24-.37.51-.72.71-1.09.29-.55.39-1.11-.12-1.64-.72-.74-.43-1.44.44-2.05.89-.63,1.45-1.34,1.94-2.06.38-.56.67-1.16.69-1.75.06-1.82.63-3.6,1.52-5.34.6-1.17.93-2.36.79-3.57-.13-1.11.26-2.14,1.44-3.07.69-.55.93-1.17,1.01-1.83.28-2.45.99-4.86,2.17-7.24.93-1.87,2.29-3.66,3.22-5.53,1.25-2.49,2.6-4.97,3.15-7.54.12-.59.5-1.17.83-1.74.78-1.36,1.57-2.71,2.41-4.05.32-.52.28-1,.03-1.52-.29-.62-.5-1.26-.77-1.89-.38-.89-.16-1.73.75-2.48,1.1-.9,1.43-1.87,1.51-2.93.1-1.46.45-2.91,1.36-4.31.93-1.42,1.83-2.84,2.72-4.26.25-.41.47-.83.56-1.25.4-1.88,1.1-3.74.97-5.65-.03-.45.28-.93.58-1.37.52-.77,1.15-1.51,1.74-2.26.45-.57.63-1.15.31-1.76-.1-.18-.17-.37-.25-.56h-34.73s0,.02-.01.04c-.32,1.33-.79,2.62-2.06,3.81ZM469.67,158.51c-.88-.23-1.04-.55-.86-1.06,1.01.22,1.16.55.86,1.06ZM476.2,85.85c.53.35.73.76.66,1.2-.07.39-.28.76-1.25.91-1.15-.78-1.31-1.38-.61-2.02.26-.24.89-.28,1.19-.08Z"/>
    <path class="st2" d="M187.44-2.52c-.76.81-1.29,1.65-1.39,2.58-.06.6-.32,1.19-.49,1.79-.13.48-.43.92-.99,1.3-.93.62-1.29,1.37-1.67,2.12-.33.66-.71,1.32-1.22,1.95-.86,1.07-1.58,2.13-1.78,3.32-.16.97-.78,1.93-1.26,2.88-.12.24-.39.47-.68.67-1.29.88-1.86,1.9-2.02,2.99-.18,1.23-.85,2.35-1.96,3.42-.98.95-1.44,1.99-1.58,3.08-.08.6-.22,1.2-.52,1.78-.9,1.7-1.53,3.43-1.68,5.2-.1,1.14-.57,2.2-1.56,3.22-.55.57-.88,1.2-1.29,1.8-.39.56-.67,1.15-1.15,1.69-.79.9-1.32,1.84-1.64,2.82-.39,1.19-.93,2.36-1.74,3.48-.89,1.22-.99,2.52-1.22,3.8-.19,1.07-.39,2.14-.57,3.21-.12.73-.28,1.46-.31,2.19-.07,1.51-.5,2.99-1.01,4.48-.67,1.95-1.33,3.89-2.27,5.8-.53,1.09-.62,2.21-.43,3.33.24,1.42.31,2.84-.2,4.25-.23.63-.48,1.28-.99,1.85-.8.91-1.23,1.86-1.35,2.86-.12,1.08-.44,2.12-1.23,3.13-.74.95-.69,1.95-.04,2.91.7,1.04.89,2.08.69,3.17-.14.77-.14,1.55-.17,2.32-.03.7-.27,1.37-.88,1.99-.82.83-.94,1.72-.75,2.64.08.38.16.77.23,1.15.13.7-.07,1.38-.75,1.99-.99.89-1.26,1.86-1.06,2.86.31,1.51.21,3,.02,4.51-.1.76.13,1.54.23,2.31.03.21.16.43.14.64-.07,1.09.29,2.15.68,3.2.24.67.18,1.28-.57,1.84-1.13.85-1.29,1.83-1.21,2.83.07.95.13,1.89.15,2.84.02.78.06,1.55.53,2.29.36.58.29,1.18.13,1.79-.27.98-.39,1.97-.59,2.95-.08.38-.14.78-.34,1.14-.88,1.56-.9,3.14-.37,4.73.21.62.1,1.22-.5,1.75-1.21,1.07-.89,2.14-.23,3.23.35.57.72,1.14,1.13,1.7.62.84.58,1.68.17,2.53-.06.12-.12.25-.19.37-.96,1.56-.74,3.06.77,4.48,1.21,1.14,1.37,2.33.89,3.62-.31.83-.35,1.71-.34,2.57.05,2.37.18,4.73.29,7.1.02.47.05.95.11,1.42.18,1.29.49,2.57,1.37,3.79.47.65.76,1.32.68,2.02-.14,1.25-.25,2.49-.51,3.73-.19.91-.17,1.78.31,2.68.47.86.74,1.76.98,2.65.36,1.28.89,2.53,2.01,3.69.95.97,1.36,2,1.32,3.11-.05,1.21-.05,2.4-.68,3.58-.27.51-.15,1.11,0,1.66.18.68.49,1.35.89,2,.64,1.04.88,2.09.76,3.18-.08.69.01,1.38.04,2.06.04,1.14.53,2.21,1.8,3.15.72.54.92,1.18.97,1.84.03.43.01.86.01,1.29,0,1.14.41,2.22,1.38,3.24.75.78,1.15,1.62,1.05,2.49-.2,1.79.51,3.51,1.08,5.24.39,1.19.92,2.35,1.93,3.44.8.87.85,1.82.76,2.78-.12,1.42-.09,2.84.47,4.24.35.88.71,1.77,1.2,2.63.54.96.9,1.92.81,2.92-.11,1.22.36,2.38,1.1,3.54.68,1.05,1.09,2.15,1.63,3.23.29.58.51,1.18.95,1.72,1.06,1.3,1.31,2.65,1.14,4.04-.04.34-.07.69-.1,1.03-.08,1.09.23,2.15,1.04,3.15.85,1.04,1.23,2.13,1.18,3.27-.04.83.26,1.62.9,2.38.13.16.22.32.36.48,1.58,1.73,2.25,3.56,2.12,5.5-.06.85.29,1.71.5,2.56.28,1.15.69,2.29.9,3.45.21,1.21.67,2.38,1.64,3.48,1.43,1.62,2.07,3.33,2.28,5.11.24,2.15.74,4.28,1.82,6.37.41.79.67,1.59,1.04,2.39.48,1.02.62,2.04.32,3.07-.36,1.24.04,2.38,1.17,3.48.96.94,1.83,1.9,2.69,2.87.71.8.86,1.67.57,2.53-.37,1.09-.14,2.13.47,3.18.3.53.38,1.1.47,1.65.14.9.46,1.78.93,2.66.46.86.77,1.76.94,2.65.22,1.23.81,2.35,2.04,3.4,1.43,1.22,1.92,2.53,1.15,3.95-.6,1.1-.07,2.13.79,3.12.3.35.72.67,1.08,1,.76.72,1.31,1.46,1.41,2.3.19,1.5.4,3,.64,4.51.13.81.28,1.63.49,2.44.28,1.11.62,2.21.95,3.32.14.47.28.94.51,1.39.69,1.37,1.44,2.73,1.72,4.15.07.38.25.77.54,1.12,1.2,1.43,1.58,2.97,2.01,4.5.31,1.11.59,2.21.6,3.34,0,1.26.49,2.47,1.67,3.59.88.83,1.26,1.77,1.56,2.7.43,1.31.76,2.64,1.1,3.96.25.98.57,1.96,1.36,2.86.9,1.03,1.27,2.13,1.38,3.25.2,1.93.48,3.87.08,5.8-.32,1.54.58,2.98,1.35,4.43.2.37.45.74.75,1.09.79.91,1.08,1.88,1.21,2.88.14,1.07.2,2.15.47,3.22.23.93.55,1.88,1.1,2.76.62.99,1.03,1.99,1.14,3.02.24,2.2.87,4.35,1.94,6.48.54,1.07.69,2.2,1.03,3.3.44,1.45.52,2.91.46,4.37-.03.83.29,1.63.97,2.37.77.83,1.03,1.71.96,2.63-.12,1.46-.12,2.92.32,4.38.2.67.09,1.38-.1,2.06-.4,1.47-.31,2.92.37,4.35,1.05,2.21,1.7,4.46,2.2,6.73,0,.04,0,.09.02.13.77,1.48.68,2.97.18,4.48-.26.78.05,1.55.58,2.28.66.9.83,1.83.7,2.79-.09.64-.15,1.29-.19,1.93-.07,1.13.05,2.23.9,3.29.55.68.73,1.4.72,2.15-.01.47.04.95-.03,1.42-.3,2.13.05,4.21,1.18,6.26.65,1.17.77,2.35.41,3.57-.26.88-.18,1.8-.15,2.7.04.95.04,1.89-.39,2.82-.57,1.24-.39,2.46.36,3.68.37.6.64,1.27.58,1.9-.15,1.43.2,2.84.54,4.25.23.96.13,1.88-.23,2.82-.18.46-.3.93-.38,1.4-.12.69.05,1.37.51,2.03.82,1.18.81,2.37-.36,3.49-.72.69-.74,1.31.29,1.88,1.02.57.82,1.15.22,1.77-.47.5-.92,1-1.34,1.51-.68.82-.69,1.58.77,2.2.6.25.82.62.86,1.02.02.21.07.43.07.64,0,1.25.22,2.49.36,3.73.15,1.33.03,2.67-.16,4-.3,2.06-.31,4.13-.22,6.19.09,2.12-.36,4.2-1.61,6.23-.25.4-.41.84-.41,1.26,0,.9.14,1.81.23,2.71.1,1.03.19,2.06.31,3.09.06.51.05,1.04.26,1.54.49,1.14.48,2.26,0,3.39h14.91c.71-1.31.98-2.65,1.04-4.01.04-.81.29-1.63.56-2.43.55-1.66.66-3.33.47-5.01-.09-.82-.08-1.63.3-2.44.68-1.48.74-2.98.31-4.49-.4-1.42-.24-2.84.52-4.22.71-1.3.86-2.59.64-3.95-.22-1.37-.38-2.74-.89-4.09-.35-.94-.22-1.88.24-2.81.63-1.3.87-2.62.75-3.97-.03-.3.01-.61-.11-.9-.67-1.54-.4-3.08-.17-4.63.19-1.24.38-2.49.54-3.73.23-1.81.02-3.61-.19-5.42-.1-.86-.11-1.72-.08-2.58.06-1.51.07-3.04-.71-4.49-.81-1.51-.6-2.97-.18-4.47.28-.98.51-1.96.7-2.94.07-.38.06-.78-.08-1.16-.82-2.13-.92-4.28-.72-6.43.25-2.68-.43-5.33-.71-7.99-.16-1.55-.55-3.08-1.2-4.59-.44-1.02-.49-2.05-.27-3.08.39-1.82.16-3.61-.55-5.39-.44-1.1-.6-2.2-.28-3.33.3-1.08.06-2.15-.47-3.2-.53-1.05-.68-2.11-.84-3.19-.14-.94-.37-1.88-.79-2.8-.64-1.39-.89-2.78-.82-4.22.06-1.07-.18-2.15-.33-3.22-.22-1.63-.64-3.26-.68-4.89-.06-2.46-.72-4.89-1.35-7.31-.11-.43-.22-.85-.31-1.28-.27-1.24-.56-2.47-1.13-3.69-.41-.87-.51-1.78-.7-2.68-.12-.56-.15-1.12-.23-1.67-.22-1.59-.62-3.16-1.19-4.73-.35-.96-.39-1.96-.48-2.95-.07-.74-.19-1.45-.97-2.09-.62-.51-.87-1.11-.84-1.72.05-.96-.26-1.89-.73-2.8-.57-1.13-.89-2.27-.95-3.44-.03-.6-.17-1.2-.23-1.8-.09-.91-.41-1.79-1.28-2.59-.7-.65-.86-1.39-.76-2.13.2-1.44-.05-2.83-.91-4.2-.57-.91-.6-1.87-.42-2.81.25-1.28-.13-2.48-1.21-3.63-.97-1.02-1.26-2.1-1.02-3.26.34-1.62-.24-3.17-1.43-4.66-.41-.51-.82-1.03-1.27-1.53-.79-.88-1.02-1.8-.79-2.76.16-.64.21-1.29.42-1.92.39-1.13.19-2.23-.3-3.33-.53-1.18-.83-2.36-.76-3.58.07-1.18-.32-2.3-1.58-3.32-.94-.76-1.46-1.63-1.8-2.51-.54-1.43-1.14-2.87-1.42-4.32-.7-3.56-1.82-7.07-3.64-10.51-.29-.55-.27-1.11.04-1.66.16-.29.3-.58.48-.87.61-.96.29-1.87-.56-2.74-.19-.19-.42-.36-.62-.55-1.22-1.18-2.05-2.42-1.89-3.81.13-1.13-.21-2.23-.77-3.32-.62-1.21-1-2.43-1.11-3.69-.06-.72-.4-1.44-.7-2.16-.38-.88-.75-1.76-.69-2.67.05-.75-.35-1.45-1.02-2.1-1.34-1.27-1.91-2.63-1.71-4.09.27-1.96-.29-3.86-1.36-5.73-.96-1.66-1.14-3.38-1.43-5.09-.22-1.3-.73-2.53-2.07-3.66-1.06-.89-1.24-1.94-1.14-2.99.03-.3.11-.6.19-.9.22-.84,0-1.64-.78-2.37-1.33-1.26-1.92-2.62-2.18-4.06-.12-.68-.4-1.36-.68-2.03-.44-1.06-.68-2.12-.37-3.2.27-.96-.03-1.89-.38-2.82-.93-2.49-2.14-4.94-2.57-7.48-.12-.7-.58-1.33-1.35-1.9-1.35-1-1.72-2.09-.97-3.3.6-.97.5-1.97-.11-2.92-.97-1.52-1.45-3.07-1.5-4.68-.02-.72-.38-1.45-.73-2.15-.66-1.34-1.11-2.68-1.25-4.07-.08-.73-.29-1.46-.61-2.16-.97-2.1-1.49-4.22-1.36-6.39.05-.83-.19-1.63-.72-2.41-.58-.86-.76-1.75-.87-2.66-.09-.81-.34-1.63-.75-2.41-.72-1.38-1.14-2.75-1.09-4.19.03-.93-.33-1.88-.76-2.79-.36-.77-.58-1.5-.27-2.28.32-.81.26-1.63-.02-2.44-.16-.47-.36-.93-.49-1.4-.34-1.28-.6-2.56.03-3.84.55-1.12.25-2.21-.65-3.27-.76-.9-1.41-1.82-2.13-2.73-.33-.41-.44-.84-.12-1.25.47-.62.45-1.26.4-1.91-.07-1.03-.05-2.06.25-3.09.36-1.25-.13-2.49-.49-3.72-.17-.59-.4-1.2-.37-1.79.08-1.86-.47-3.69-.65-5.54-.08-.77-.15-1.55-.18-2.32-.13-2.84-.23-5.68-.35-8.52,0-.17-.05-.35-.02-.52.36-1.89.11-3.79.19-5.68.09-2.11-.14-4.22-.32-6.32-.01-.13,0-.26-.05-.39-.44-1-.2-1.95.56-2.88.63-.77.47-1.61.34-2.42-.2-1.2-.44-2.4-.31-3.61.03-.23-.15-.52-.42-.7-.7-.46-.68-.95-.37-1.46.49-.82,1-1.63,1.53-2.44.21-.32.49-.63.74-.95.5-.62.54-1.24.06-1.88-.58-.77-.8-1.57-.68-2.4.09-.66.39-1.26,1.17-1.79,1.1-.75,1.39-1.62.95-2.56-.34-.71-.67-1.41-1.1-2.1-.49-.79-.65-1.57-.37-2.41.29-.84.38-1.71.52-2.56.18-1.11.43-2.23.46-3.34.06-1.86.42-3.67,1.49-5.46.45-.75.31-1.62.3-2.44-.01-1.3.27-2.58.55-3.86.11-.51.17-1.04.01-1.53-.22-.71-.08-1.37.29-2.04.19-.33.36-.66.56-.99.36-.6.39-1.18-.14-1.76-.68-.74-.35-1.4.35-2.08.69-.67,1.35-1.37,1.83-2.09.37-.56.61-1.18.58-1.76-.07-1.87.47-3.69,1.22-5.5.45-1.1.67-2.21.5-3.33-.16-1.1.12-2.14,1.22-3.1.73-.64.95-1.35,1-2.1.15-2.24.82-4.44,1.66-6.64.97-2.53,2.68-4.95,3.68-7.47.82-2.06,1.96-4.08,2.32-6.19.08-.47.32-.93.59-1.38,1.16-1.97,2.5-3.9,3.48-5.89.88-1.78,1.46-3.61,2.01-5.43.25-.81.5-1.61,1.13-2.36,1-1.19,1.62-2.42,1.82-3.72.14-.91.59-1.78,1.4-2.58,1.04-1.03,1.64-2.16,2.04-3.29.46-1.3.64-2.64.69-3.96.04-.97.32-1.85,1.19-2.71,1.04-1.02,1.64-2.15,1.93-3.31.57-2.29,2.03-4.41,3.94-6.46.47-.51.78-1.07,1.06-1.62h-33.12c-.03.11-.05.21-.06.32-.17,1.48-.91,2.88-2.13,4.2ZM166.24,164.89c-.65-.23-.87-.54-.79-.95,1.1.26,1.16.34.79.95ZM167.04,92.62c.29.34.5.69.66.91-.05.28-.05.41-.1.53-.09.26-.28.51-.79.56-.54.05-.85-.18-1.02-.43-.34-.49-.45-.99,0-1.48.12-.13.44-.24.7-.28.15-.02.48.09.56.18Z"/>
    <path class="st2" d="M212.7,506.08c.17-.73.15-1.46-.28-2.17-.7-1.14-.6-2.28-.12-3.44.66-1.59,1.24-3.2,1.93-4.79.25-.58.64-1.16,1.15-1.68,1.27-1.32,1.06-2.6-.35-3.8-.7-.59-.95-1.15-.82-1.82.32-1.63.58-3.25.37-4.89-.08-.59.13-1.21.38-1.79.4-.94.49-1.85-.07-2.79-.46-.78-.59-1.58-.29-2.42.32-.88.28-1.79-.1-2.69-.37-.88-.53-1.77-.42-2.69.09-.72-.09-1.47-.38-2.17-.35-.86-.46-1.69-.07-2.55.57-1.28.26-2.57.05-3.85-.32-2.01-.61-4.03-.83-6.05-.05-.5.12-1.04.4-1.52.68-1.16.59-2.31-.23-3.41-.99-1.32-1.15-2.66-.88-4.05.25-1.29.12-2.59-.44-3.85-.83-1.9-.99-3.83-.71-5.77.12-.81.17-1.63.11-2.45-.04-.51-.28-1.02-.58-1.51-.62-1-.8-2.02-.47-3.06.38-1.2.47-2.39.05-3.6-.04-.13-.07-.26-.06-.39.11-2.38-.71-4.71-1.24-7.06-.12-.51-.16-1.03-.23-1.54-.22-1.59-.6-3.17-.62-4.76-.03-2.05-.98-4-1.91-5.95-.5-1.05-.71-2.11-.53-3.2.16-.96-.15-1.89-.46-2.82-.2-.59-.49-1.19-.49-1.78,0-1.9-.6-3.77-1.09-5.64-.18-.67-.58-1.34-.96-1.99-.54-.91-.88-1.84-.73-2.79.31-1.96-.2-3.87-.96-5.77-1.09-2.7-1.86-5.41-2.07-8.17-.18-2.2-1.16-4.34-2.16-6.47-.57-1.22-.99-2.44-.97-3.69.01-1.09-.27-2.15-.85-3.18-.76-1.33-1.13-2.68-1.05-4.07.04-.69.03-1.38-.03-2.07-.13-1.42-.41-2.83-1.16-4.2-.45-.82-.72-1.68-.97-2.52-.35-1.19-.86-2.36-1.64-3.5-.92-1.35-1.43-2.72-1.24-4.17.14-1.03.02-2.06-.41-3.08-.18-.42-.27-.86-.24-1.28.08-1.01-.36-1.96-.99-2.9-.19-.28-.4-.56-.6-.84-.5-.7-.76-1.4-.32-2.14.14-.24.12-.52.26-.76.35-.62.14-1.2-.32-1.76-.39-.47-.86-.92-1.26-1.39-1.18-1.37-2.07-2.77-1.96-4.34.05-.79-.34-1.63-.81-2.39-.63-1.04-.98-2.09-.96-3.17.02-.93-.44-1.77-1.14-2.61-.62-.74-1.16-1.51-1.63-2.28-.55-.91-.74-1.85-.58-2.8.16-.9-.02-1.79-.29-2.69-.25-.84-.3-1.73-.02-2.56.36-1.07-.1-1.95-1.19-2.8-.32-.25-.71-.48-.94-.74-.36-.43-.86-.88-.87-1.32-.02-1.18-.71-2.29-1.04-3.43-.34-1.19-.54-2.39-.91-3.58-.51-1.66-.84-3.32-.91-5.01-.05-1.09-.56-2.15-1.61-3.07-.92-.81-1.3-1.66-1.31-2.57-.01-.83-.31-1.62-.67-2.42-.74-1.63-1.17-3.29-2.16-4.89-.25-.4-.18-.85-.26-1.28-.19-.94-.22-1.9-.61-2.81-.8-1.84-1.75-3.66-2.72-5.48-.66-1.24-1.1-2.49-1.28-3.79-.27-2.01-.84-4.02-1.32-6.02-.18-.73-.61-1.42-1.35-2.05-1.24-1.07-1.62-2.21-1.22-3.46.48-1.48.23-2.91-1.27-4.24-.71-.63-1.01-1.36-1.02-2.1-.02-1.3-.53-2.56-1.17-3.81-.36-.7-.57-1.43-.62-2.16-.07-1.05-.4-2.05-1.01-3.04-.59-.95-.86-1.91-.8-2.92.09-1.48-.4-2.9-1.3-4.31-.55-.85-.95-1.73-1.23-2.62-.51-1.61-.91-3.23-1.29-4.85-.19-.82-.55-1.62-1.24-2.35-.83-.88-1.1-1.78-.83-2.75.32-1.16.13-2.31-.29-3.46-.43-1.18-.66-2.38-1.06-3.57-.22-.67-.42-1.37-.94-1.99-1.08-1.28-1.59-2.61-1.79-3.99-.19-1.3-.73-2.54-1.67-3.75-1.05-1.34-1.23-2.73-.7-4.17.55-1.49.61-3,0-4.49-1-2.44-1.56-4.91-2.1-7.39-.38-1.75-.98-3.49-2.05-5.16-.69-1.07-1-2.16-1.07-3.29-.11-1.68-.38-3.35-.23-5.03.06-.72-.29-1.45-.53-2.17-.34-1.03-.34-2.04-.03-3.08.48-1.58.53-3.18-.33-4.74-.49-.88-.63-1.77-.47-2.68.28-1.58-.12-3.08-1.33-4.53-.85-1.01-.93-2.09-.47-3.16.35-.81.45-1.61.42-2.43-.08-1.93-.06-3.87-.88-5.78-.31-.73-.17-1.55,0-2.31.24-1.09.14-2.15-.25-3.21-.52-1.41-.52-2.82-.04-4.23.43-1.28.36-2.58-.09-3.85-.34-.98-.44-1.96-.26-2.96.12-.64.31-1.3.18-1.93-.34-1.68-.19-3.34-.04-5.02.1-1.16-.07-2.32-.21-3.48-.15-1.21.02-2.41.21-3.61.19-1.24.38-2.49.42-3.73.08-2.84-.13-5.68.38-8.52.11-.64.27-1.28.55-1.9.49-1.1.72-2.19.23-3.32-.19-.44-.09-.94.07-1.4.39-1.15.6-2.29.6-3.46,0-.94.26-1.88.39-2.83.11-.86.26-1.72.28-2.57.02-.91.16-1.8.63-2.68.46-.87.78-1.76,1.22-2.63.65-1.3.3-2.58-.25-3.83-.51-1.16-.56-2.29-.25-3.46.1-.38.1-.77.12-1.16.04-.83.31-1.62,1.12-2.34,1.19-1.06,1.69-2.22,1.78-3.44.08-1.08.42-2.13.84-3.19.25-.63.39-1.28.41-1.92.04-1.52.39-3,1.15-4.46.34-.66.59-1.35.68-2.03.13-1,.52-1.96,1.23-2.88.93-1.22,1.35-2.47,1.2-3.78-.1-.83.19-1.63.72-2.4.9-1.3,1.34-2.65,1.65-4.02.17-.76.55-1.53,1.11-2.23.9-1.13,1.4-2.29,1.3-3.51-.05-.65.14-1.27.41-1.91.42-1,.73-2.02.98-3.05.31-1.29.73-2.55,1.65-3.75.63-.82.85-1.62.45-2.51-.32-.7-.36-1.45-.44-2.18-.03-.29.03-.63.29-.87,1.22-1.1,1.59-2.32,2.08-3.54.48-1.21,1.12-2.41,1.8-3.6.45-.79.7-1.59.63-2.41-.07-.86.34-1.62,1.41-2.26.16-.09.25-.23.42-.31,1.84-.89,2.43-2.1,2.86-3.33.54-1.53,1.6-2.97,2.78-4.37.68-.81,1.01-1.55.16-2.32-.84-.76-.94-1.46-.5-2.13h-26.32c-.3.4-.6.79-.88,1.19-.77,1.1-.83,2.27-1.16,3.42-.31,1.1-.54,2.22-.88,3.32-.76,2.5-1.58,5-2.35,7.5-.24.77-.65,1.5-1.31,2.2-1.32,1.4-2.08,2.85-1.88,4.46.18,1.47-.31,2.89-1.61,4.24-1.51,1.56-2.8,3.18-4.24,4.76-.36.39-.37.73-.04,1.1.58.66,1.11,1.34,1.8,1.96.58.52.75,1.04.48,1.6-.34.7-.7,1.41-1.2,2.09-.78,1.04-1.39,2.1-1.67,3.22-.26,1.03-.7,2.02-1.56,2.96-.89.98-1,2.08-1.22,3.14-.36,1.71-.86,3.41-1.45,5.1-.75,2.15-1.33,4.33-1.95,6.49-.32,1.11-.69,2.21-1.58,3.23-.77.89-1,1.83-.69,2.77.59,1.77.43,3.51-.07,5.27-.34,1.19-.61,2.39-1.02,3.57-.36,1.06-.8,2.1-1.78,3.06-.87.85-1.14,1.79-1.09,2.75.06,1.18-.14,2.32-1.23,3.37-.6.58-.58,1.24-.57,1.89,0,1.29.05,2.58-.07,3.87-.08.9-.21,1.82-.64,2.68-.89,1.81-1.14,3.64-1.16,5.5-.03,2.32-.32,4.64-1.29,6.91-.31.72-.32,1.46-.02,2.18.48,1.17.19,2.31-.33,3.45-.19.42-.47.82-.67,1.24-.43.93-.57,1.85-.3,2.81.51,1.79.89,3.58,1.33,5.37.37,1.52.08,3.01-.61,4.48-.39.84-.61,1.68-.58,2.55.09,2.19.06,4.39.85,6.56.2.54.13,1.12.13,1.67,0,1.08.23,2.15.78,3.19.4.76.53,1.51.28,2.3-.42,1.33-.28,2.66,0,3.99.24,1.13.11,2.23-.32,3.34-.47,1.2-.38,2.39-.01,3.59.54,1.74,1.02,3.48,1.46,5.23.12.46.08.95-.07,1.41-.55,1.59-.39,3.17-.11,4.76.22,1.2.54,2.39.74,3.59.12.69.36,1.36.87,2,.82,1.02.99,2.08.75,3.16-.33,1.51-.11,3,.19,4.51.3,1.54.37,3.09.57,4.64.13,1.03.33,2.06.43,3.09.08.82.11,1.63.1,2.45-.01.86.05,1.71.37,2.57.31.84.44,1.71.51,2.56.08,1.04.31,2.06.77,3.06.97,2.09,1.62,4.21,2.02,6.35.43,2.32,1.15,4.6,2.54,6.82.52.83.72,1.69.4,2.55-.71,1.9-.35,3.77.23,5.65.12.38.25.76.37,1.14.38,1.19.84,2.36,2.14,3.39.48.38.73.86.98,1.31.42.76.49,1.51-.13,2.27-.6.73-.61,1.48-.32,2.27.33.93.49,1.88.6,2.82.1.78.32,1.54.84,2.27,1.46,2.04,1.88,4.17,2.03,6.33.04.6.07,1.21.16,1.81.13.86.43,1.7,1.09,2.5.29.35.48.73.73,1.09.46.67.56,1.35.09,2.02-.81,1.15-.55,2.29.1,3.42.55.95.84,1.92.73,2.92-.1.92.35,1.79.87,2.65.49.82.94,1.63,1.08,2.5.13.82.67,1.6,1.51,2.29,1.28,1.04,1.76,2.17,1.8,3.42.03.85.28,1.72.68,2.54.76,1.59,1.23,3.2,1.59,4.82.38,1.71.9,3.4,2.11,5.02.48.63.74,1.32,1.14,1.97.35.57.66,1.16,1.17,1.68.86.88,1.1,1.81.71,2.75-.44,1.04,0,1.96,1.06,2.82,1.07.87,1.81,1.81,2.18,2.84.18.5.44,1.01.79,1.49.59.81.9,1.64,1.15,2.49.28.93.64,1.86.96,2.79.09.25.18.51.16.77-.12,1.85.77,3.58,2.09,5.26.79,1,1.3,2.03,1.53,3.1.1.47.32.93.51,1.39.24.6.7,1.12,1.63,1.53,1.26.55,1.71,1.27,1.7,2.16-.02.94.19,1.89.47,2.82.36,1.19.73,2.36.27,3.58-.44,1.16-.07,2.32.56,3.44.46.82,1.07,1.62,1.61,2.43.62.93,1.3,1.85,1.83,2.79.54.95,1.15,1.89,2.22,2.7,1.02.77,1.12,1.57.81,2.45-.28.8-.48,1.62-.58,2.43-.22,1.81.38,3.52,2.25,5.05,1.19.97,1.64,2.04,1.61,3.18-.02,1,.22,1.97.79,2.92.81,1.36,1.17,2.77,1.21,4.19.03.91.35,1.79.9,2.65.33.52.47,1.08.64,1.63.14.47.14.95.29,1.41.58,1.82,1.15,3.64,1.23,5.49.02.49.41,1.02.86,1.46,1.69,1.7,2.54,3.5,2.78,5.42.14,1.15.55,2.3.92,3.44.57,1.78,1.19,3.55,1.81,5.33.16.46.36.93.59,1.38.55,1.09.79,2.2.6,3.32-.23,1.31.09,2.57.81,3.82.4.7.68,1.41,1.05,2.12.44.84.53,1.7.45,2.56-.13,1.39.28,2.74.73,4.1.45,1.35.72,2.72,1.13,4.08.33,1.1.64,2.21,1.16,3.29.73,1.53.98,3.02.36,4.59-.5,1.27-.39,2.57.38,3.83.5.82.86,1.64,1,2.51.1.68.56,1.34.8,2.01.28.8.53,1.6.74,2.41.15.6.13,1.21.33,1.8.48,1.41.48,2.82.54,4.24.04.82.19,1.63.22,2.45.07,1.94.15,3.87.13,5.81-.01,1.3.02,2.57.75,3.83.67,1.16.74,2.37.66,3.58-.09,1.55-.13,3.1-.16,4.65-.02.95.17,1.89.71,2.8.57.96.61,1.95.27,2.94-.5,1.46-.51,2.91,0,4.36.26.73.22,1.46-.1,2.18-.13.29-.2.59-.35.88-.52.98-.53,1.95,0,2.93.65,1.18.75,2.37.38,3.58-.24.77-.14,1.53.07,2.31.57,2.14.79,4.27-.05,6.42-.74,1.91-.85,3.84-.03,5.76.4.93.38,1.89-.11,2.81-.72,1.35-.72,2.72-.67,4.1.08,2.32.15,4.65.13,6.97,0,.81-.12,1.64-.47,2.43-1.16,2.58-1.25,5.2-1.15,7.83.04,1.07.25,2.15.43,3.22.2,1.12.15,2.23-.4,3.33-.89,1.79-1.4,3.61-1.66,5.47-.12.85-.53,1.69-.82,2.53-.15.42-.32.84-.5,1.26-.33.78-.16,1.54.27,2.29.12.22.23.44.35.67h30s0-.05,0-.07c.08-.56.24-1.11.37-1.67ZM140.07,248.8c-.59-.48-.67-.7-.28-.89.09-.04.35-.06.41-.02.21.11.48.25.53.39.07.18-.05.38-.12.71-.43-.14-.51-.15-.55-.18Z"/>
    <path class="st2" d="M447.47-2.75c-.45,1.18-.9,2.36-1.43,3.53-.5,1.13-1.1,2.24-2.2,3.26-.9.83-1.25,1.76-1.33,2.72-.1,1.22-.39,2.4-1.63,3.46-.57.49-.65,1.06-.62,1.62.06,1.35-.44,2.65-1.04,3.95-.73,1.59-1.42,3.18-1.98,4.78-.5,1.42-1.48,2.71-2.8,3.95-.98.93-1.86,1.9-2.8,2.84-.66.66-.86,1.37-.81,2.12.06.82.04,1.63.02,2.45-.01.3-.09.6-.24.89-1.06,2.12-1.52,4.3-2.63,6.42-1.08,2.07-1.89,4.18-2.68,6.28-.48,1.27-1.06,2.51-2.11,3.68-.74.83-1.05,1.74-.79,2.64.39,1.34.24,2.66-.23,3.98-.61,1.69-1.25,3.38-2,5.05-.45,1-1.04,1.98-2.02,2.89-.95.87-1.29,1.84-1.37,2.85-.09,1.17-.4,2.31-1.6,3.33-.62.53-.65,1.14-.65,1.75,0,1.73-.37,3.44-.9,5.14-.16.51-.29,1.03-.61,1.51-1.27,1.93-1.54,3.95-1.75,5.97-.07.73-.27,1.45-.43,2.18-.14.64-.27,1.28-.49,1.92-.23.68-.49,1.35-.85,2.01-.46.84-.74,1.68-.53,2.55.34,1.44-.06,2.84-1.01,4.18-.99,1.41-1.13,2.83-.76,4.32.36,1.45.54,2.91.69,4.37.17,1.65-.19,3.26-1.17,4.84-.51.82-.75,1.67-.74,2.54.02,2.19-.27,4.39.37,6.58.14.46.04.95,0,1.42-.1,1.21-.04,2.41.53,3.59.3.64.32,1.29.04,1.92-.58,1.32-.6,2.64-.41,3.98.17,1.21.06,2.41-.56,3.58-.67,1.27-.55,2.55-.27,3.84.33,1.54.67,3.08.9,4.62.1.68.11,1.39-.15,2.06-.65,1.67-.5,3.34-.31,5.02.11.94.3,1.89.38,2.83.07.82.24,1.63.81,2.4.81,1.07.93,2.2.53,3.3-.49,1.37-.37,2.74-.24,4.12.13,1.42.22,2.84.31,4.25.07,1.16.12,2.32.15,3.49.02.95.02,1.89-.05,2.84-.07.91-.09,1.8.18,2.7.22.72.29,1.46.27,2.19-.02,1.21.25,2.4.72,3.59.87,2.24,1.35,4.5,1.67,6.78.28,2.01.75,4.03,1.91,5.97.68,1.14.8,2.28.35,3.44-.57,1.45-.49,2.91-.19,4.37.21,1.03.54,2.04.81,3.07.19.69.6,1.33,1.23,1.94.53.52.97,1.08,1.31,1.65.49.8.55,1.61-.16,2.39-.7.77-.66,1.58-.49,2.4.2.94.27,1.89.47,2.83.15.72.21,1.48.65,2.16,1.37,2.11,1.74,4.28,1.77,6.48,0,.47.01.95.06,1.42.12,1.12.38,2.22,1.22,3.27.88,1.1,1.06,2.22.25,3.38-.6.87-.41,1.8.04,2.67.58,1.13.86,2.27.72,3.44-.1.87.3,1.71.8,2.53.5.82.86,1.65,1,2.52.13.82.59,1.61,1.43,2.3,1.18.97,1.59,2.03,1.6,3.18.01.85.11,1.73.49,2.56.91,1.97,1.29,3.98,1.74,5.99.32,1.41.75,2.81,1.71,4.14.31.44.43.92.69,1.37.5.86.98,1.72,1.59,2.56.54.74.84,1.47.51,2.26-.14.33-.19.68-.25,1.02-.13.66.06,1.3.75,1.86,1.4,1.13,2.03,2.4,2.72,3.69.9,1.66,1.46,3.34,1.88,5.04.26,1.06.58,2.12.66,3.19.12,1.56.94,3.05,2.01,4.5.63.85.96,1.72,1.14,2.63.11.55.29,1.11.51,1.65.24.59.68,1.13,1.62,1.53,1.19.52,1.64,1.23,1.54,2.06-.14,1.12.07,2.23.45,3.34.35,1.02.52,2.05.09,3.08-.55,1.3-.15,2.57.53,3.82.45.82.98,1.64,1.57,2.43.69.92,1.37,1.83,1.74,2.81.38.98,1.1,1.89,2.09,2.73.83.7.92,1.43.66,2.23-.33,1.01-.61,2.04-.75,3.06-.23,1.67.42,3.27,2.04,4.7,1.17,1.03,1.59,2.14,1.56,3.33-.03.95.08,1.89.6,2.81.77,1.37,1.07,2.78,1.07,4.21,0,1,.34,1.96.86,2.92.37.69.45,1.43.64,2.15.08.3.1.6.2.9.61,1.86,1.21,3.72,1.21,5.63,0,.49.39,1.02.79,1.47,1.47,1.65,2.19,3.39,2.41,5.22.16,1.24.53,2.48.87,3.71.45,1.66.95,3.32,1.44,4.97.15.51.31,1.02.53,1.52.61,1.35.86,2.71.57,4.1-.25,1.17,0,2.31.62,3.45.67,1.24,1.24,2.49,1.34,3.79.03.34.1.69.04,1.03-.23,1.34.19,2.66.52,3.98.42,1.66.77,3.33,1.22,4.99.29,1.06.6,2.13,1.07,3.17.61,1.37.63,2.72.1,4.09-.56,1.46-.53,2.91.31,4.34.46.78.7,1.58.84,2.4.12.68.41,1.36.72,2.02.43.92.59,1.85.76,2.8.47,2.58.28,5.16.6,7.74.31,2.46.31,4.9.17,7.35-.06.95.05,1.89.5,2.82.66,1.39.65,2.81.53,4.23-.14,1.63-.25,3.27-.21,4.9.02.81.32,1.62.61,2.42.38,1.02.61,2.02.28,3.07-.44,1.4-.62,2.82-.23,4.24.31,1.12.1,2.24-.47,3.33-.62,1.19-.61,2.37.01,3.56.5.96.6,1.94.29,2.94-.31,1.02-.19,2.05.03,3.08.4,1.84.58,3.69-.14,5.53-.38.97-.7,1.95-.85,2.93-.13.85,0,1.71.06,2.57.02.34.12.69.27,1.02.52,1.16.31,2.32-.2,3.45-.53,1.19-.61,2.38-.63,3.59-.05,2.71-.1,5.42-.25,8.13-.05.85-.35,1.71-.64,2.56-1.04,2.98-1.25,5.99-.92,9,.22,1.99.33,3.95-.72,5.89-.92,1.7-1.03,3.48-1.38,5.23-.15.77-.36,1.54-.74,2.28-.5,1-.8,1.99-.65,3h28.7s.01-.05.02-.08c.24-1.16.47-2.31-.18-3.46-.47-.84-.34-1.72-.06-2.56.58-1.78,1.23-3.55,1.96-5.31.29-.71.76-1.41,1.37-2.05,1.24-1.31,1.11-2.61-.2-3.82-.75-.7-.9-1.36-.68-2.09.42-1.45.47-2.91.45-4.38-.01-.81.17-1.63.45-2.43.33-.95.47-1.86-.03-2.8-.44-.83-.46-1.68-.15-2.55.34-.97.24-1.97-.01-2.96-.2-.76-.25-1.54-.25-2.31,0-.95,0-1.88-.34-2.82-.23-.62-.27-1.31-.01-1.92.63-1.5.47-3,.12-4.49-.51-2.19-.35-4.38-.32-6.58,0-.38.2-.77.42-1.13.68-1.15.65-2.32-.15-3.42-.84-1.16-.97-2.35-.81-3.55.26-2.03,0-4.04-.61-6.04-.39-1.28-.35-2.58-.07-3.86.39-1.77.54-3.51-.51-5.24-.47-.78-.42-1.62-.19-2.43.36-1.33.43-2.65.14-3.99-.16-.72.05-1.46-.03-2.19-.19-1.63-.46-3.26-.69-4.89-.12-.81-.22-1.63-.32-2.45-.15-1.24-.29-2.49-.43-3.73-.11-.94-.1-1.9-.33-2.83-.33-1.32-.78-2.63-1.28-3.94-.4-1.02-.51-2.04-.41-3.08.11-1.12-.02-2.23-.44-3.34-.28-.75-.31-1.53-.43-2.3-.21-1.28-.4-2.57-.62-3.86-.22-1.24-.6-2.47-1.29-3.67-.45-.78-.63-1.6-.48-2.43.47-2.56-.31-5.07-1.14-7.57-.73-2.2-1.34-4.41-1.27-6.66.02-.85-.17-1.72-.41-2.57-.44-1.53-.94-3.05-1.51-4.57-.43-1.15-.58-2.3-.49-3.47.08-.96-.1-1.9-.61-2.81-.9-1.63-1.04-3.3-1-4.98.02-.95.03-1.9-.14-2.84-.19-1.02-.59-2.04-.91-3.05-.33-1.06-.64-2.12-1.04-3.17-.35-.92-.69-1.86-1.27-2.75-.91-1.4-1.42-2.82-1.18-4.3.19-1.16.1-2.32-.34-3.47-.14-.38-.2-.77-.14-1.16.17-1.1-.3-2.14-.98-3.16-.16-.24-.31-.49-.47-.73-.4-.63-.42-1.24-.14-1.9.83-1.99.8-1.99-.88-3.81-.86-.93-1.52-1.89-1.85-2.92-.12-.38-.21-.77-.15-1.15.17-1.01-.07-1.99-.65-2.93-.64-1.04-.92-2.09-.89-3.17.03-1.05-.39-2.03-1.17-3-1.41-1.75-2.29-3.57-1.8-5.52.16-.63.03-1.29-.16-1.93-.27-.9-.38-1.8,0-2.69.53-1.26.05-2.37-1.41-3.39-.95-.66-1.36-1.42-1.37-2.28,0-.72-.33-1.45-.51-2.17-.24-.94-.51-1.87-.73-2.81-.2-.85-.41-1.71-.53-2.56-.16-1.11-.31-2.23-.34-3.35-.03-1.53-.46-3-1.96-4.33-.52-.46-.66-.96-.68-1.48-.12-2.6-1.33-5.1-2.36-7.62-.26-.63-.39-1.26-.41-1.91-.03-.94-.1-1.9-.45-2.82-.76-1.98-1.66-3.94-2.59-5.9-.5-1.05-.77-2.09-.88-3.18-.21-2.1-.59-4.2-.99-6.3-.15-.77-.59-1.51-1.37-2.18-1.06-.91-1.39-1.91-1.03-2.97.11-.34.13-.69.23-1.03.37-1.23.1-2.4-1.07-3.49-.82-.76-1.14-1.6-1.12-2.48.03-1.13-.23-2.24-.79-3.32-.43-.84-.63-1.69-.61-2.55.02-1-.25-1.97-.81-2.92-.59-1-.82-2-.64-3.05.21-1.25,0-2.51-.78-3.7-1.48-2.26-1.82-4.63-2.23-6.98-.25-1.43-.52-2.82-1.68-4.13-.65-.74-.6-1.52-.29-2.28.42-1.03.32-2.04.04-3.08-.39-1.45-.71-2.9-1.02-4.35-.14-.65-.37-1.27-.88-1.86-.96-1.11-1.36-2.29-1.45-3.5-.11-1.43-.57-2.8-1.54-4.15-.87-1.21-1.13-2.48-.53-3.8.87-1.9.92-3.82.23-5.76-.65-1.82-1.04-3.65-1.22-5.51-.22-2.19-.75-4.37-1.96-6.48-.55-.96-.8-1.92-.77-2.92.05-1.81-.23-3.61.15-5.42.12-.58-.16-1.2-.34-1.79-.34-1.12-.33-2.22.15-3.33.76-1.75.77-3.5-.14-5.24-.38-.73-.4-1.45-.15-2.17.55-1.58.18-3.08-.96-4.55-.83-1.07-.94-2.17-.26-3.28.48-.78.64-1.59.66-2.42.02-.9.17-1.81.12-2.71-.04-.86-.17-1.72-.43-2.56-.26-.86-.35-1.71-.03-2.57.44-1.2.47-2.4.1-3.6-.42-1.34-.39-2.67.22-3.97.66-1.4.74-2.82.35-4.23-.32-1.17-.24-2.32.14-3.47.32-.99.31-1.96.12-2.96-.1-.55-.02-1.12.12-1.66.35-1.37.65-2.73.52-4.12-.16-1.73,0-3.44.59-5.14.7-1.99.81-4.02.88-6.04.08-2.16.5-4.29.96-6.43.1-.46.36-.92.63-1.37.68-1.12,1.09-2.23.54-3.42-.18-.39-.03-.86.17-1.27.59-1.22.77-2.45.94-3.7.13-.98.45-1.96.68-2.94.18-.77.4-1.53.49-2.3.12-.99.39-1.96,1.01-2.9.43-.65.79-1.31,1.18-1.96.74-1.26.87-2.55.39-3.83-.53-1.41-.37-2.79-.05-4.22.33-1.49.95-2.84,2.41-4.12.89-.77,1.15-1.69,1.3-2.6.17-1.03.51-2.04,1.07-3.04.44-.78.67-1.59.69-2.42.04-1.3.52-2.56,1.25-3.8.46-.78.86-1.57,1.06-2.38.23-.95.69-1.86,1.46-2.71,1.2-1.34,1.76-2.75,1.86-4.23.04-.59.37-1.18.66-1.76.23-.45.61-.89.92-1.33.63-.91.82-1.85.27-2.78-.73-1.25-.26-2.4.94-3.46.69-.61,1.05-1.23,1.09-1.94.02-.3.14-.6.27-.89.33-.72.38-1.45.09-2.17-.47-1.18-.2-2.31.74-3.4.54-.63.84-1.28.91-1.99.09-.9.35-1.8.66-2.69.14-.41.49-.81.88-1.18.73-.69,1.2-1.41,1.11-2.21-.11-.98.49-1.87,1.19-2.74,1.36-1.7,2.73-3.39,4.11-5.08.96-1.17,1.3-2.38.82-3.65-.3-.8-.38-1.62-.67-2.42-.26-.71-.08-1.37.39-2.02.44-.6.9-1.19,1.37-1.78.17-.21.36-.42.52-.64h-22.03c.18,1.45-.3,2.87-.85,4.29ZM436.33,243.4c.37.2.42.46.23.7-.06.07-.42.15-.53.12-.58-.17-.71-.61-.29-.86.02-.01.05-.02.09-.03s.07-.02.1-.02c.14.03.32.04.41.09Z"/>
    <path class="st2" d="M589.42-3.4c-.24.89-.2,1.78.25,2.68.65,1.29.73,2.63.54,3.98-.1.7-.32,1.38-1.06,1.96-1.09.85-1.54,1.81-1.38,2.82.2,1.22-.44,2.29-1.42,3.34-.36.38-.69.78-1.02,1.17-.48.55-.75,1.13-.76,1.75,0,.52-.01,1.03.02,1.55.04.69.08,1.38-.3,2.05-.11.2-.16.43-.14.64.1.91-.24,1.79-.53,2.69-.49,1.51-1.69,2.86-3.24,4.11-.65.52-1.08,1.03-1.17,1.65-.19,1.3-.72,2.55-1.74,3.74-1.01,1.18-1.58,2.44-1.9,3.72-.2.82-.65,1.59-1.24,2.35-.37.47-.66.97-.81,1.47-.44,1.49-.74,2.98-1.19,4.47-.94,3.1-1.98,6.19-2.9,9.29-.29.98-.67,1.95-1.42,2.86-.8.97-.97,1.97-.73,3.03.2.89.42,1.81.29,2.7-.25,1.76-.66,3.51-1.16,5.25-.33,1.14-.65,2.31-1.66,3.35-1.14,1.18-1.59,2.41-1.52,3.73.05.91-.11,1.81-1,2.62-.58.53-.72,1.13-.71,1.74,0,.39.06.77.07,1.16.03,2.29-.16,4.55-1.24,6.79-.38.78-.5,1.61-.58,2.43-.18,1.89-.05,3.78-.52,5.67-.26,1.02-.41,2.05-.81,3.06-.24.62-.36,1.29-.2,1.92.44,1.66.24,3.26-.77,4.84-.75,1.17-.72,2.36-.36,3.57.4,1.36.83,2.72,1.1,4.09.36,1.89.38,3.77-.61,5.64-.39.73-.44,1.53-.45,2.3-.01,1.29.13,2.58.23,3.87.03.43.14.86.21,1.29.18,1.03.41,2.05.53,3.08.12,1.08.18,2.16.8,3.19.48.8.5,1.61.23,2.42-.36,1.07-.35,2.14-.07,3.21.32,1.25.38,2.49-.17,3.72-.57,1.28-.51,2.55-.06,3.84.51,1.48.92,2.97,1.32,4.46.23.85.29,1.72-.03,2.57-.47,1.24-.37,2.48-.12,3.73.23,1.15.53,2.31.7,3.46.14,1,.42,1.97,1.13,2.89.82,1.06.97,2.17.61,3.3-.3.94-.25,1.88-.04,2.83.39,1.84.76,3.68.77,5.53,0,.73.2,1.46.26,2.19.11,1.37.17,2.75.28,4.12.04.56.09,1.12.26,1.67.35,1.1.58,2.21.69,3.33.08.85.34,1.71.67,2.55.84,2.1,1.68,4.2,2.05,6.35.4,2.36,1.12,4.69,2.49,6.95.58.96.8,1.92.46,2.92-.41,1.24-.46,2.48-.13,3.73.25.98.55,1.96.81,2.93.32,1.2.87,2.36,2.17,3.38.27.21.42.46.59.7.71.99,1.05,1.98.12,3-.48.52-.45,1.09-.34,1.65.27,1.33.54,2.65.86,3.97.11.47.27.94.58,1.38,1.48,2.08,2.01,4.24,2.11,6.45.08,1.77.4,3.52,1.82,5.16.71.81.73,1.68.22,2.52-.6.98-.45,1.95.02,2.92.14.29.35.58.44.87.19.63.48,1.28.46,1.91-.04,1.18.35,2.31,1.03,3.42.35.57.61,1.16.77,1.75.28,1.08.86,2.1,1.96,3.02.89.74,1.34,1.55,1.38,2.43.06,1.51.64,2.98,1.29,4.45.42.96.64,1.95.91,2.92.43,1.53.66,3.08,1.55,4.56.68,1.15,1.35,2.29,2.05,3.44.25.41.49.82.87,1.2.9.91,1.25,1.85.85,2.87-.44,1.12.04,2.13,1.27,3.05.85.63,1.35,1.36,1.75,2.11.51.95,1.16,1.88,1.52,2.84.66,1.72,1.39,3.46,1.66,5.2.27,1.74.73,3.42,2,5.02.95,1.2,1.52,2.43,1.81,3.72.22,1.01.65,2.02,2.36,2.72,1.04.43,1.46,1.1,1.36,1.84-.16,1.17.21,2.32.65,3.46.4,1.03.5,2.05.1,3.08-.25.64-.2,1.28-.03,1.92.36,1.33,1.16,2.59,2.1,3.82.75.99,1.57,1.97,2.01,3.03.37.89,1.05,1.72,2.01,2.47,1.06.83,1.35,1.66.91,2.68-.7,1.64-.93,3.31-.19,4.99.11.26.26.51.43.75v-71.03c-.3-.54-.71-1.06-1.29-1.56-.87-.75-1.21-1.58-1.06-2.47.09-.51.19-1.03.27-1.54.17-1.05-.07-2.07-1.05-3-1.05-1-1.52-2.07-1.5-3.21.01-.91-.33-1.8-.86-2.66-.55-.91-.82-1.84-.88-2.79-.07-1-.36-1.97-.99-2.91-.57-.86-.78-1.75-.72-2.66.09-1.35-.17-2.68-1.04-3.94-1.57-2.28-2.08-4.68-2.61-7.07-.28-1.25-.64-2.47-1.69-3.61-.78-.85-.85-1.72-.61-2.64.17-.67.24-1.38.07-2.05-.44-1.79-1.01-3.57-1.59-5.35-.18-.54-.45-1.1-.86-1.6-.94-1.16-1.47-2.36-1.64-3.61-.19-1.34-.67-2.63-1.65-3.88-1.04-1.33-1.39-2.7-.81-4.16.68-1.69.59-3.42-.13-5.13-.83-1.97-1.35-3.97-1.73-5.99-.38-2.01-1.03-4.01-2.22-5.93-.71-1.15-1.15-2.32-1.09-3.55.02-.51-.16-1.03-.2-1.54-.07-.82-.19-1.64-.11-2.45.08-.87,0-1.72-.32-2.57-.48-1.24-.56-2.48-.15-3.72.54-1.6.39-3.17-.43-4.73-.47-.88-.63-1.77-.39-2.68.36-1.4-.14-2.73-1.08-4.04-.43-.6-.76-1.22-.95-1.86-.13-.46-.08-.96.12-1.41.54-1.19.61-2.38.51-3.59-.15-1.68-.24-3.35-.91-5-.22-.53-.17-1.12-.06-1.66.25-1.25.31-2.48-.18-3.72-.54-1.36-.64-2.74-.07-4.1.61-1.46.34-2.92-.16-4.36-.33-.95-.37-1.88-.1-2.82.3-1.03.2-2.05-.03-3.09-.15-.68-.19-1.38-.03-2.05.31-1.29.34-2.58.09-3.86-.31-1.59-.34-3.17.08-4.76.56-2.09.45-4.21.47-6.32.02-1.81.1-3.62.17-5.42.03-.86.26-1.71.68-2.55.51-1,.71-2.01.29-3.06-.23-.57-.04-1.19.04-1.79.12-.9.44-1.79.44-2.69,0-1.21.25-2.4.51-3.6.17-.77.31-1.54.3-2.31,0-1.04.13-2.06.77-3.05.13-.2.17-.42.3-.62,1.33-2.02,1.27-4.06.27-6.1-.38-.77-.31-1.53-.17-2.3.11-.6.25-1.2.28-1.8.04-.79.34-1.54,1.08-2.22,1.24-1.14,1.72-2.38,1.85-3.7.08-.81.27-1.63.61-2.42.43-1.01.73-2.03.7-3.07-.03-1.17.32-2.31.86-3.44.43-.91.8-1.85.96-2.78.16-.92.56-1.78,1.2-2.62.9-1.18,1.26-2.4,1.17-3.66-.07-.88.19-1.71.75-2.53.78-1.13,1.28-2.3,1.47-3.51.16-.99.54-1.95,1.38-2.86.87-.94,1.24-1.97,1.18-3-.07-1.34.73-2.53,1.71-3.72.36-.43.73-.86,1.02-1.3.71-1.05,1.55-2.05,2.79-2.98.77-.58,1.33-1.29,1.65-1.98.52-1.12.84-2.28,1.12-3.43.29-1.21.82-2.36,1.88-3.44.75-.76,1.43-1.54,2.07-2.32.09-.1.16-.21.23-.32V-7.04h-25.04c.02.1.05.2.08.3.27,1.12.23,2.23-.07,3.35ZM595.73,247.98c.09.06.15.13.2.2.04.06.08.13.09.2.03.15-.03.3-.19.41-.06.04-.36.06-.39.03-.24-.2-.45-.41-.63-.63-.04-.06.05-.17.14-.23.04-.03.11-.05.17-.07.07-.02.14-.03.21-.05.15.02.28.07.39.14Z"/>
    <path class="st2" d="M30.5,500.1c.36-1.58.77-3.16.91-4.75.11-1.24-.15-2.49-.25-3.74-.06-.77-.15-1.55-.22-2.32-.12-1.22.09-2.4.97-3.55.36-.47.53-.99.75-1.49.38-.91.25-1.79-.69-2.61-1.07-.94-1.1-1.96-.61-2.99.28-.58.68-1.15,1.02-1.72.27-.45.54-.9.77-1.36.45-.9.44-1.8-.33-2.65-1.21-1.33-1.27-2.7-1.01-4.15.29-1.62.55-3.26.21-4.89-.14-.68-.34-1.37-.63-2.04-.28-.65-.26-1.28-.06-1.92.13-.42.27-.85.32-1.28.07-.6.15-1.2.05-1.8-.19-1.11-.46-2.22-.32-3.35.06-.5-.2-1.02-.47-1.51-.27-.48-.27-.92.09-1.38.71-.91.74-1.83.22-2.77-.53-.96-.67-1.92-.4-2.93.27-.98.31-1.97.31-2.96,0-.55-.14-1.13-.52-1.63-.66-.86-.9-1.75-.91-2.65-.02-1.65-.61-3.26-1.4-4.83-.77-1.54-.85-3.06-.35-4.6.67-2.04.3-4.03-.9-5.98-.6-.98-1.2-1.96-1.74-2.95-.6-1.09-.59-2.22-.28-3.33.22-.78.12-1.53.02-2.31-.21-1.54-.32-3.09-.31-4.64,0-1.47-.09-2.91-.73-4.35-.53-1.2-.59-2.47-.9-3.71-.15-.59-.31-1.19-.58-1.77-.6-1.29-1.36-2.56-1.89-3.86-.34-.83-.47-1.7-.55-2.56-.06-.61-.12-1.22-.64-1.76-.91-.95-1.09-1.97-1.24-3-.27-1.89-.66-3.76-1.25-5.63-.61-1.95-.87-3.93-1.15-5.9-.12-.88-.48-1.7-1.29-2.46-1.5-1.39-2.27-2.93-3.05-4.46-.32-.63-.43-1.27-.19-1.92.42-1.18.21-2.31-.74-3.4-.83-.95-.89-1.91.09-2.85.8-.77.7-1.58.24-2.38-.44-.78-.96-1.55-1.46-2.32-1-1.55-1.48-3.17-2.02-4.78-.67-2-1.78-3.93-2.98-5.84-.72-1.14-.92-2.26-.34-3.42.42-.84.52-1.7.44-2.56-.08-.87-.42-1.7-1.21-2.47-.77-.76-1.36-1.55-1.38-2.44,0-.25-.14-.51-.29-.75-1.12-1.76-1.63-3.59-2.25-5.41-.57-1.65-1.06-3.31-1.61-4.96-.2-.59-.45-1.18-.74-1.76-.93-1.82-1.97-3.63-2.82-5.47-.32-.7-.37-1.45-.34-2.17.04-1.14-.24-2.23-1.04-3.28-.52-.68-.75-1.39-.84-2.13-.15-1.25-.63-2.45-1.66-3.61-.61-.68-.9-1.47-1.18-2.22-.39-1.06-.78-2.1-1.63-3.09-1.02-1.19-1.15-2.5-1.59-3.76-.2-.59-.4-1.2-.84-1.74-.8-.97-1.13-1.96-1.08-3.01.04-.79-.14-1.55-.5-2.28v218.28s44.73,0,44.73,0c.15-1.27.59-2.52,1.17-3.77.6-1.29.8-2.63,1.1-3.95ZM-9.75,429.68s.16-.08.24-.12c.08.06.15.11.23.17,0,0,0,0,0,0,0,0,0,0,0,0-.1.04-.2.08-.3.13-.06-.06-.18-.12-.18-.18ZM15.75,430.44c.05-.11.2-.21.3-.31.09.07.17.13.31.23-.11.08-.24.18-.37.27-.09-.07-.27-.14-.25-.2ZM12.1,444.46s.24-.15.46-.28c.25.12.44.21.64.3-.19.1-.38.2-.58.3-.18-.1-.4-.2-.52-.32Z"/>
    <path class="st2" d="M612.26,66.73c.06.34.15.69.15,1.03,0,1.64-.09,3.28-1.4,4.8-.79.92-1.19,1.86-1.29,2.86-.09.95-.32,1.88-1.06,2.76-.93,1.12-.92,2.25-.12,3.39.67.95.82,1.91.64,2.92-.15.9-.15,1.81-.33,2.7-.1.5-.23,1.05-.66,1.49-.87.89-.95,1.8-.84,2.76.06.52.13,1.03.18,1.55.05.53-.08,1.04-.58,1.49-1.21,1.09-1.26,2.27-1.13,3.49.13,1.2.02,2.41,0,3.61,0,.6-.13,1.21-.02,1.8.29,1.58.65,3.16,1.03,4.74.18.75.1,1.43-.78,2.08-.81.6-1.1,1.32-1.05,2.08.09,1.33.09,2.67.19,4,.04.51.18,1.03.45,1.52.4.73.36,1.44.15,2.17-.17.59-.34,1.19-.41,1.79-.11.99-.34,1.96-.83,2.93-.47.92-.59,1.86-.28,2.81.1.3.12.6.2.9.22.79.12,1.54-.72,2.23-.65.54-.72,1.14-.49,1.74.19.5.47,1,.76,1.49.36.61.76,1.22,1.15,1.83.35.55.35,1.1.1,1.65-.17.38-.32.75-.5,1.13-.64,1.34-.59,2.63.64,3.88.3.3.55.62.82.93.68.81.8,1.65.49,2.52-.21.59-.4,1.19-.4,1.79.04,3.1.06,6.19.25,9.29.1,1.54.54,3.08,1.59,4.54.39.55.58,1.18.55,1.76-.08,1.33-.26,2.66-.57,3.98-.16.7-.14,1.35.18,2.04.45.96.83,1.92,1.12,2.9.41,1.41,1.03,2.77,2.27,4.05.44.45.78.96.87,1.46.3,1.5.42,3.01-.25,4.49-.43.95-.36,1.88,0,2.81.23.59.57,1.16.89,1.74.51.92.77,1.84.52,2.8-.3,1.17.1,2.32.41,3.46.05.16.15.33.26.48V58.74c-.36,1.14-.77,2.28-1.39,3.4-.84,1.5-1.1,3.03-.81,4.59Z"/>
  </g>
</svg>