<?xml version="1.0" encoding="UTF-8"?>
<svg id="Layer_1" xmlns="http://www.w3.org/2000/svg" version="1.1" viewBox="0 0 922.15 297.29">
  <!-- Generator: Adobe Illustrator 30.0.0, SVG Export Plug-In . SVG Version: 2.1.1 Build 123)  -->
  <defs>
    <style>
      .st0 {
        fill: #f9eb06;
      }

      .st1 {
        fill: #0d73bb;
      }
    </style>
  </defs>
  <path class="st1" d="M398.03,163.75c-6.12-4.32-13.24-7.5-20.73-9.25-5.03-1.24-10.24-1.76-15.42-1.65-7.04.1-16.07,1.34-19.3,8.07-1.06,2.26-1.23,4.57-1.18,6.79.04,8.96-.06,17.93-.29,26.93-.43,15.86-.93,32.47-1.46,48.36-.25,5.42,5.06,9.89,10.98,9.22,5.41-.56,9.3-5.02,8.68-9.93-.97-7.81-1.48-15.67-1.71-23.57-.12-4.12-.18-8.23-.18-12.35,0-7.11.47-14.23.78-21.34.15-3.57-.16-7.35.28-10.88.26-2.15,1.64-4.97,4.24-5.09,2.76-.12,6.23.96,8.91,1.59,4.97,1.18,9.9,3.13,14.18,5.86,3.56,2.27,8.15,5.49,9.68,8.94.03.06.03.07.05.07,0,.68-.16,1.21-.43,2.04-1.55,4.26-4.84,8.62-8.31,11.88-1.17,1.09-2.7,2.77-4.3,1.39-1.55-1.34-2.41-4.06-3.02-5.92-.37-1.09-1.11-2.69-.05-3.62.55-.47,1.27-.71,1.89-1.09,1.55-.97,2.26-2.85,2.2-4.62-.1-3.53-3.14-6.76-6.77-7.23-2.2-.28-4.41.34-6.42,1.24-4.22,1.89-4.95,6.77-4.8,10.66.07,1.81.25,3.63.55,5.43.53,3.35,1.25,6.67,2.32,9.9,1.64,4.99,5,9.28,10.4,10.82,9.86,2.51,18.92-4.97,24.69-11.08,6.6-7.16,12.9-17.69,8.21-27.1-2.89-6.11-8.18-10.57-13.62-14.45l-.03-.03h-.02Z"/>
  <path class="st1" d="M477.96,233.14c-9.74-.78-18.21-.24-27.2.06-2.97.07-5.58.27-8.16-.24-1.2-.28-1.89-.47-2.35-.91,0-.03.03,0,.03-.06v-.21c-.35-3.71-.37-7.47-.22-11.17.15-2.55.28-5.14.41-7.73.04,0,.09,0,.12,0,8.31-1.87,16.85-3.11,25.52-3.67,9.11-.81,9.34-12.57.21-13.65-8.32-.75-16.75-.94-25.19-.56.09-5.03.09-10.04-.06-14.95-.01-2.3-.06-4.74.64-6.64.32-.04.72-.06.97-.03,3.56.18,7.13.35,10.77.47,6.95.22,13.99.28,21-.1,5.12-.28,9.03-4.27,8.77-8.91-.28-4.68-4.66-8.26-9.81-8.01-6.33.32-12.66.22-19.05-.13-3.44-.18-6.95-.43-10.45-.68-.95-.04-1.93-.12-2.91-.06-6.64.07-13.22,3.39-16.37,8.83-3.79,6.26-3.42,13.3-3.35,19.97.04,6.45-.28,21.09.31,27.35.5,6.3,1.55,12.63,2.73,18.89l.46,2.38.06.3c.62,4.06,3.37,8.01,7.13,10.2,5.24,3.08,10.57,3.56,16.29,3.75,8.44.24,18.11.5,25.56,2.95,5.95,2.02,12.69-1.89,13.13-7.67.46-4.93-3.56-9.27-8.97-9.68v-.03l-.02-.05ZM441.26,173.44s.09-.03.15-.03c-.03,0-.06.03-.07.04-.1.04-.16.03-.07,0h0Z"/>
  <path class="st1" d="M562.32,233.05c-1.5-.93-3.28-1.93-4.78-2.73-10.45-5.73-20.6-11.89-30.49-18.39,1.87-.62,3.76-1.27,5.65-1.98,10.98-4.24,24.25-10.52,26.06-22.7,1.92-14.03-16.56-26.45-29.13-31.3-15.57-6.01-34.96-5.49-37.01,13.24-.29,2.77-.13,5.52,0,8.13.03,1.08.3,7.61.33,8.83.66,18.33,1.58,38.33,2.72,56.58.91,9.9,16.44,9.59,16.91-.33.07-8.07.07-16.34.03-24.66.44.31,1,.69,1,.69,11.3,7.82,22.43,15.97,32.44,25.15.78.75,1.7,1.59,2.33,2.38,3.85,5.31,13,5.28,16.76-.1,3.1-4.24,1.85-9.95-2.82-12.77v-.04h0ZM521.81,172.77c6.27,2.51,12.81,6.52,16.6,11.78.12.18.27.47.34.64-3.82,5.41-18.33,9.9-26.28,12.28-.06-6.92-.15-13.8-.21-20.53,0-1.93-.19-4.35.07-6.21,3.23,0,6.38.89,9.49,2.05h-.01,0ZM512.54,169.65c.03-.09.05-.09,0,0h0Z"/>
  <path class="st1" d="M620.11,165.56c-1.54,13.08.43,24.57,1.43,37.01.89,10.54,1.25,21.04,1,31.58,0,.27-.04.83.03,1.06.03.04.19-.15.33-.19s.12.06-.22.22c-2.49.99-6.82.74-10.1.69-1.56-.06-3.56-.1-5.22-.06-3.42,0-14.4-.03-17.76-.06-.62,0-1.08-.03-1.43-.07-.5-1.77-.33-4.75-.44-6.63-.56-5.51-.38-11.17-.18-16.93.69-14.7,1.28-29.71,2.26-44.39.4-5.28-4.49-9.8-10.3-9.5-5.45.24-9.64,4.43-9.39,9.39.41,7.9.66,15.81.93,23.72.07,2.94.25,8.91.28,11.85.21,9,0,17.63,1.2,26.74.19,2.23.18,4.59.65,6.91.91,5.73,5.08,10.82,11.72,11.84,3.14.5,5.11.26,7.91.25l13.08-.26c2.04-.04,4.07-.04,6.17,0,9.37.53,20.62.86,24.91-8.78,1.06-2.48,1.21-5.18,1.55-7.79,1.58-14.06,1-28.28.38-42.34-.32-7.92-.41-15.35.75-22.34.88-11.9-17.68-13.64-19.57-1.92h.03,0Z"/>
  <path class="st1" d="M603.4,161.53c1.76-.13,4.47-1.56,5.95-2.39,2.38-1.33,4.49-3.1,6.39-4.86,2.97-2.74,5.49-5.81,7.75-8.99.24-.32.46-.66.47-1.03,0-.8-1.23-1.65-1.86-2.2-.88-.77-2.14-1.33-3.26-1.83-2.57-1.15-5.73-2.17-8.37-1.11-2.01.81-3.08,2.6-3.93,4.28-2.49,4.96-4.55,9.43-5.77,14.77-.35,1.55.09,3.57,2.66,3.36h-.03,0Z"/>
  <path class="st0" d="M292.59,230.73c-5.61-6.11-11.81-10.08-18.49-14.74-31.86-22.22-11.51-58-1.74-85.45,3.79-10.67,5.7-20.94,8.68-31.57,3.81-13.52,10.3-26.89,16.28-39.57,6.91-14.67,12.32-43.23-6.23-52.48-11.81-5.89-26.18-4.21-38.87-3.44-26.51,1.58-53.07.37-79.59-.86-13.74-.63-28.5.13-42.59-1-12.04-.97-25.87-5.03-35.51,5.03-8.25,8.62-15.07,25.03-16.82,36.58-2.07,13.56-7.76,26.64-12.06,39.55-4.93,14.88-11.66,29.15-15.41,44.41-6.01,24.47-18.82,43.8-28.19,66.54-4.01,9.76-7.17,19.82-10.4,29.86-3.22,10.02-9.27,20.97-11.19,31.17-2.94,15.57,8.83,33.51,23.35,38.53,10.8,3.72,24.99,0,36.44,0,9.27,0,18.55.07,27.82.35,7.2.22,14.37.99,21.53,1.77.97.09,1.93.19,2.91.31,9.03.97,18.05,1.83,27.11,1.46,12.23-.5,24.44-1.92,36.66-2.29.55-.01,1.08-.04,1.62-.03,10.34.34,20.93,3.35,29.71-3.7,12.26-9.86,11.3-29,26.87-36.17,6.13-2.82,17.55-1.53,24.19-2.1,11.7-.97,21.84-.65,32.79-5.37,1.77-.77,3.59-1.64,4.74-3.19,1.23-1.64,1.45-3.54,1.05-5.48-.59-2.89-2.57-5.88-4.65-8.13h-.01Z"/>
  <path class="st1" d="M219.76,62.29c-2.54-13.3-9.33-24.59-19.13-31.79-3.13-2.29-7.04-3.81-10.49-5.15l-.47-.18c-.85-.34-1.71-.69-2.57-1.05-1.84-.77-3.76-1.56-5.76-2.15l-.44-.13c-1.48-.44-3.01-.9-4.65-.86h-.74c-1.56,0-3.51-.03-4.84,1.74-.89,1.18-1.46,2.52-1.74,4.12-.34,1.95-.21,3.97-.07,5.92.09,1.37.18,2.67.1,3.88l-.15,2.32c-.35,5.83-.72,11.85-1.43,17.72-.71,5.79-1.87,10.86-3.57,15.53-.3.81-.89,1.98-1.49,3.22-1.84,3.7-4.15,8.31-2.95,11.26.99,2.44,4.01,3.75,8.75,3.79,7.39.09,17.53.19,22.45,7.01,2.32,3.2,2.63,7.35,2.48,10.27-.27,5.25-1.99,10.37-3.66,15.32l-.47,1.37c-6.42,19.01-12.71,35.8-24.56,48.78-2.18,2.39-4.87,4.99-8.23,6.15-7.5,2.58-10.76-1.96-14.52-7.23-3.14-4.4-6.7-9.37-13.25-9.14-.56.03-1.28.1-1.92.5-1.27.81-2.05,2.52-2.8,4.19-.38.84-.74,1.62-1.09,2.13-.8,1.14-1.39,2.41-1.95,3.65-.59,1.27-1.14,2.46-1.87,3.44l-8.65,15.44c-2.11,3.75-4.09,7.31-5.84,11.17-.84,1.86-2.41,3.9-4.04,6.05-3.19,4.18-6.49,8.48-6.01,13.1.43,4.03,4.96,5.7,8.26,6.91.66.24,1.27.47,1.8.69,1.61.69,3.28,1.25,4.97,1.71-1.02,1.61-1.93,3.28-2.74,5.02-2.97,6.39-4.52,14.26-4.38,22.14.07,4.44.96,8.55,2.58,12.09-2.23,6.6-2.64,13.92-.94,21.13.22.94.5,1.84.78,2.73,3.26.09,6.52.4,9.75.89,1.7.18,3.39.38,5.09.6-1.43-2.27-2.42-4.62-3.01-7.19-.53-2.27-.74-4.59-.65-6.86,2.88,1.43,6.09,2.35,9.46,2.66,8.35.75,16.63-2.47,21.64-8.41,2.55-3.03,4.06-6.49,4.35-10.01.65-7.62-4.72-15.17-12.5-17.59-6.11-1.9-13.13-.75-19.29,3.14-1.49.94-2.91,2.01-4.22,3.14.31-4.72,1.39-9.33,3.1-13.02,1.46-3.17,3.48-6.07,5.89-8.55,1.46.04,2.91.06,4.35.06,1.74,0,3.47-.03,5.14-.04h1.49c19.21-.25,32.82-15.23,41.4-26.48,24.72-32.47,40.05-67.5,44.33-101.34,1.93-15.32,1.58-30.08-1.05-43.85v.03h-.03ZM126.3,263.27c2.88-1.83,6.05-2.47,8.49-1.71,1.93.61,3.57,2.55,3.44,4.1-.07.81-.56,1.83-1.36,2.77-2.27,2.72-6.42,4.21-10.52,3.84-2.49-.22-4.81-1.09-6.63-2.42,1.73-2.63,3.94-4.89,6.61-6.58h-.03Z"/>
  <path class="st1" d="M150.35,84.36c.27.04.52.07.77.07,4.72,0,6.49-8.69,7.38-12.97.09-.43.16-.8.24-1.11,1.76-7.93,7.45-38.27,5.78-45.68-.62-2.73-1.77-4.15-3.42-4.25-3.48-.22-6.89,6.33-7.73,8.74-2.61,7.47-6.4,33.68-6.69,42.12-.28,8.16.96,12.56,3.69,13.08h-.02Z"/>
  <path class="st1" d="M118.53,164.5c.69-3.5-.28-4.94-1.21-5.55s-2.66-.89-5.55,1.17c-2.6,1.86-4.56,4.53-6.12,6.91-1.83,2.77-3.6,5.93-5.55,9.96-1.39,2.86-2.97,5.95-4.96,9.68-.89,1.67-1.8,3.33-2.72,4.99-1.14,2.07-2.32,4.22-3.42,6.35-.34.65-.71,1.3-1.06,1.96-1.68,3.08-3.42,6.27-4.37,9.68-1.18,4.29-.32,7.58,2.42,9.27l.37.22.43-.06c1.14-.15,4.57-.6,16.66-22.68,4.13-7.54,13.87-25.77,15.08-31.88h0v-.02Z"/>
  <path class="st1" d="M359.67,120.29h-18.92V41.15h18.92v79.13h0Z"/>
  <path class="st1" d="M425.33,120.28h-16.94v-33.1c0-6.33-2.89-9.49-8.69-9.49-4.1,0-7.56,1.86-10.34,5.58v37.01h-16.94v-57.31h16.94v7c4.47-5.61,10.63-8.43,18.48-8.43,5.79,0,10.15,1.64,13.09,4.93,2.94,3.28,4.4,7.69,4.4,13.22v40.58h.01-.01Z"/>
  <path class="st1" d="M458.22,120.28h-16.94v-41.53h-8.8v-15.78h8.8v-1.3c0-6.88,1.8-12.22,5.39-16.01,3.59-3.79,8.13-5.7,13.64-5.7,4.84,0,8.62.75,11.33,2.26l-3.31,13.65c-.96-.8-2.47-1.18-4.52-1.18-1.61,0-2.95.59-4.01,1.79-1.06,1.18-1.59,2.92-1.59,5.22v1.3h10.77v15.78h-10.77v41.53l.02-.03h-.01Z"/>
  <path class="st1" d="M501.44,121.72c-8.72,0-15.72-2.92-20.96-8.78s-7.87-12.97-7.87-21.35,2.63-15.48,7.87-21.3c5.24-5.81,12.22-8.72,20.96-8.72s15.84,2.91,21.12,8.72c5.28,5.81,7.92,12.91,7.92,21.3s-2.64,15.51-7.92,21.35c-5.28,5.86-12.32,8.78-21.12,8.78ZM501.44,105.57c3.59,0,6.43-1.33,8.53-3.97,2.09-2.66,3.13-5.99,3.13-10.02s-1.05-7.26-3.13-9.9c-2.1-2.66-4.93-3.97-8.53-3.97s-6.3,1.33-8.35,3.97c-2.05,2.66-3.08,5.95-3.08,9.9s1.03,7.38,3.08,10.02c2.05,2.66,4.84,3.97,8.35,3.97h0Z"/>
  <path class="st1" d="M617.69,120.29h-21.44l-3.63-11.39h-28.93l-3.63,11.39h-21.44l27.61-79.13h23.86l27.61,79.13h-.01,0ZM587.45,91.09l-9.24-29.78-9.36,29.78h18.6Z"/>
  <path class="st1" d="M655.53,121.72c-11.36,0-20.82-3.82-28.38-11.45s-11.33-17.46-11.33-29.49,3.76-21.94,11.28-29.55c7.51-7.6,17-11.39,28.44-11.39,8.15,0,14.82,2.02,20.01,6.05,5.21,4.03,9.21,9.06,11.98,15.07l-16.28,8.43c-1.25-3.25-3.32-5.98-6.21-8.19s-6.07-3.32-9.52-3.32c-5.93,0-10.83,2.17-14.69,6.52-3.85,4.35-5.77,9.81-5.77,16.37s1.92,11.92,5.77,16.31c3.85,4.38,8.75,6.58,14.69,6.58,3.44,0,6.61-1.11,9.52-3.32,2.89-2.21,4.97-4.94,6.21-8.19l16.28,8.31c-2.79,6.01-6.8,11.05-12.04,15.13-5.24,4.07-11.89,6.11-19.97,6.11v.03h0Z"/>
  <path class="st1" d="M763.86,120.29h-18.26l-31.02-45.79v45.79h-18.92V41.15h19.47l29.69,43.55v-43.55h19.02v79.13h.02Z"/>
  <path class="st1" d="M837.63,112.64c-5.83,6.05-14.43,9.08-25.8,9.08s-20-3.04-25.9-9.14c-5.9-6.09-8.86-14.2-8.86-24.32v-47.11h19.25v46.4c0,4.83,1.34,8.72,4.01,11.69s6.51,4.44,11.5,4.44,8.71-1.48,11.38-4.44c2.67-2.97,4.01-6.86,4.01-11.69v-46.4h19.14v46.99c0,10.29-2.91,18.45-8.74,24.5h0Z"/>
  <path class="st1" d="M922.15,120.29h-21.67l-12.32-26.58h-9.68v26.58h-18.92V41.15h36.73c7.93,0,14.15,2.49,18.7,7.48,4.55,4.99,6.82,11.27,6.82,18.86,0,6.33-1.43,11.5-4.29,15.48-2.86,4-6.3,6.74-10.35,8.25l14.96,29.07h.02ZM893.44,75.91c2.64,0,4.83-.75,6.54-2.26,1.73-1.51,2.58-3.6,2.58-6.29s-.86-4.66-2.58-6.17c-1.73-1.51-3.91-2.26-6.54-2.26h-14.96v16.97h14.96Z"/>
</svg>