<?xml version="1.0" encoding="UTF-8"?>
<svg id="Layer_1" xmlns="http://www.w3.org/2000/svg" version="1.1" viewBox="0 0 574.5 263.7">
  <!-- Generator: Adobe Illustrator 30.0.0, SVG Export Plug-In . SVG Version: 2.1.1 Build 123)  -->
  <defs>
    <style>
      .st0 {
        fill: #0072bc;
      }

      .st1 {
        fill: none;
      }

      .st2 {
        fill: #80bce0;
      }

      .st3 {
        fill: #f7e904;
      }
    </style>
  </defs>
  <path class="st1" d="M.9,138.8v-.3c-.1.2-.2.4-.2.4,0,0,0,0,.2-.1Z"/>
  <path class="st1" d="M.6,144.5h0c0,0,.2.2.3.2v-.2s0,0-.1,0c0,0-.1,0-.1.1h0Z"/>
  <path class="st1" d="M41.2,149.8s0,0,0,0h0c0,0,0,0,0,0Z"/>
  <path class="st1" d="M.8,144.1h0c-.1-.2-.1-.3-.1-.3h0c0,0,0-.1,0-.2h0s0,0,0,0c-.1,0-.1-.1-.1-.3,0,0,0,0,0-.1h0c0,0-.1,0-.1,0v.3c0,.4.2.6.3.6s.1,0,0,0h0Z"/>
  <path class="st1" d="M439.4,225.2c0,2.5,1.6,4.5,5.1,4.5s8.8-5.1,8.8-9.5v-.8h-1.7c-5.7,0-12.3,1.6-12.3,5.8h0Z"/>
  <path class="st1" d="M51.2,105c-.1,0-.5.3-1.1.8-.3.2-.6.5-1,.8-.4.2-2.3,2.3-3,3.2-.9,1.2-2.4,3.4-3.8,5.6-1,1.4-1.8,2.8-3.2,5.3-.2.4-.5,1.1-1,2-1,1.8-2.1,3.9-2.5,4.7l-.7,1.1,1.2-1.1c.4-.5.9-1.1,1.6-1.9.4-.4.8-.8,1.1-1.2,3.2-3.5,6-7,8.1-10.4,1.5-2.3,2.4-4,2.9-5,0-.5.4-.7.4-.7,0,0,0,0,0,0h0,0s0,0,0,0c0-.2,0-.2,0-.2h0c0,0,0,0,0,0,0,0,0,0,0-.1,0,0,0,0,0,0h0c0-.3.1-.5.2-.7.4-1,.6-1.6.6-1.8s0-.1,0,0h0s0,0,0,0Z"/>
  <path class="st1" d="M.5,142.8v-.4h0c0,0,0,0,0,0H.3c0,.3,0,.4,0,.4H.4c0,0,0,0,0,0Z"/>
  <path class="st1" d="M239,202.4c-6.6,0-12.2,5.1-12.2,13.2s5.6,12.9,12.2,12.9,12.2-4.9,12.2-12.9-5.6-13.2-12.2-13.2Z"/>
  <path class="st1" d="M174.1,149.8c6.6,0,12.2-4.9,12.2-12.9s-5.6-13.2-12.2-13.2-12.2,5.1-12.2,13.2,5.6,12.9,12.2,12.9Z"/>
  <path class="st1" d="M311.2,149.9c5.6,0,10.5-4.6,10.5-12.8s-4.3-13.2-10.5-13.2-10.5,3.9-10.5,13.2,3.4,12.8,10.5,12.8Z"/>
  <path class="st1" d="M13.8,201.6h-.1s0,0,.1,0h0Z"/>
  <path class="st1" d="M32.7,210.8c0,0,.3,0,.5-.1.3-.1.8-.3,1.3-.6,2.5-1.4,4.1-3,5-4.6.4-.6.7-1.2.9-1.6v-.3c0,0,0,0,0,0,0,0-.3,0-.6.3-.8.5-1.8,1.3-2.4,1.8-1.2,1-2.9,2.8-3.8,3.9-.2.2-.4.5-.6.9l-.4.4s0,0,0,0h0Z"/>
  <path class="st1" d="M35.2,116h0s0,0,0,0h0Z"/>
  <path class="st1" d="M.6,139.3c-.1.1-.1.4-.1.5v.3-.3c.1,0,.1-.5.1-.5Z"/>
  <path class="st1" d="M8.3,136c0,0,.3,0,.5-.1.3-.1.8-.3,1.3-.6,2.5-1.4,4.1-3,5-4.6.4-.6.7-1.2.9-1.6v-.3c0,0,0,0,0,0,0,0-.3,0-.6.3-.8.5-1.8,1.3-2.4,1.8-1.2,1-2.9,2.8-3.8,3.9-.2.2-.4.5-.6.9l-.4.4s0,0,0,0h0Z"/>
  <path class="st1" d="M.4,140.7c0,0,0-.2,0-.2,0-.1,0-.2,0-.2v.2c0,0-.1.2-.2.4,0,.1,0,.2,0,.4v.5-.5c.1-.2.2-.4.2-.5h0Z"/>
  <path class="st1" d="M469.6,78.3s0,0,0,0h0Z"/>
  <path class="st1" d="M488.7,177.3l-.2-.5c0,0-.2,0-.2,0l.5,1.1c0,0,0,.1,0,.2h0c0,0,.2.7.2.7h0c0-.1-.3-1.5-.3-1.5h0Z"/>
  <path class="st1" d="M499.4,158.5s0,0,0,0c0,0,0,0,0,0Z"/>
  <path class="st1" d="M462.4,141.1h0s0,0,0,0Z"/>
  <path class="st1" d="M550,92.9h0s0,0,0,0Z"/>
  <path class="st1" d="M510.3,152.3h0s0,0,0,0Z"/>
  <polygon class="st1" points="462.7 141.2 462.7 141.2 462.7 141.2 462.7 141.2 462.7 141.2"/>
  <path class="st1" d="M478,158.1l-2-2.3c.5.6,1,1.3,1.5,1.9l.9.8h0c-.2-.2-.3-.3-.4-.4h0Z"/>
  <path class="st1" d="M564.6,72.4h0l-1.2-.4h-1.4c-.1-.2-.3-.2-.4-.2h0l-1.2-.4c-.5,0-1.4,0-1.7,0h0l-1.4-.2c-1.4-.2-2.7-.2-4.1-.4-.9-.1-1.8-.1-2.7-.1-.7,0-1.8,0-2.5,0-.4,0-1.6.2-1.8.2-.8,0-2.3,0-3.2,0-.5,0-1.5.3-1.6.3h-1.3c0,0-1.2.6-1.2.6-.2,0-.4.1-.6.2h0l-1.5.2c-.3,0-1.5.3-1.5.3,0,0-.2,0-.3,0h-1.2c0,0-1.1.6-1.1.6-.3.1-.6.2-.9.2h-1.4c0,0-1.1.3-1.1.3-.5.2-1.4.6-1.7.7h0l-1.4.4-1.4.5s-.1,0-.2,0h0l-1.2.3-1.1.7c-.2.1-.4.2-.6.3-1.4.5-2.8,1-4.1,1.5-.4.3-1.1.8-1.3.9h0s-1.4.8-1.4.8c-.2,0-1.3.5-1.8.7l-.9.5-.9.9c-.1,0-.2.2-.3.3-.3.2-1.4.9-1.6,1.1l-1.2.6c-.4.3-1,.9-1.1,1-.6.5-1.8,1.4-2.6,1.9-.7.7-1.5,1.3-2.2,2-.5.6-1.5,1.6-2,2.2-.2.3-.9,1.2-.9,1.2-.2.2-.8.7-1.2,1.1l-.4.8h0c-.2.5-.8,1.2-1.3,1.7-.2.5-.5,1.2-.6,1.3-.4.6-1.1,1.8-1.4,2.6l-.6,1.4-.5,1.2c1.3,0,2.6,0,3.9,0,.3,0,1.3.1,1.8.2.5,0,1.4-.2,1.4-.2.3,0,1.1,0,1.7,0,.5-.2,1.3-.4,1.3-.4.6-.2,1.6-.1,2.3-.1l1.5-.2c.2,0,.4,0,.6,0h1.4c1.4-.2,3.4-.6,4.8-.8l1.5-.4c.1,0,.3,0,.4,0l1.5-.2c.5-.2,1.5-.5,1.5-.5.7-.2,1.4-.2,2-.3l1.4-.4,1.7-.6,1.7-.5s1.6-.6,1.6-.6c.9-.2,1.3-.3,2-.4l1.3-.4,1.4-.7c.9-.3,1.3-.4,2-.6.9-.4,1.8-.8,2.8-1.2l1.2-.9c.2-.1.4-.2.6-.3l1.7-.7,1.3-.4,1-.8c.2-.2.5-.3.8-.4l1.3-.4c.7-.5,1.9-1.4,2.5-1.8,0,0,.2-.1.2-.2l1.5-.9c0,0,.1,0,.2-.1l1.2-.6,1-.9c.1-.1.3-.3.5-.4l1.4-.9,1.3-.9,1.2-1,1.1-1.1c.3-.3,1-1.2,1-1.2,0,0,.2-.2.3-.3l1.2-1.1,1-1.2,1.1-1.3c0-.1.2-.2.3-.3l1.1-.9.9-1.2,1-1.2.2-.4h0Z"/>
  <path class="st1" d="M394.5,65.2h-.3c0-.1-1.2-.5-1.2-.5.5.2.7.3.8.3,0,0,.4,0,.8.2h0Z"/>
  <g>
    <rect class="st2" x="74.2" y="167.8" width="15.1" height="14.6"/>
    <path class="st2" d="M90.8,224.8v-28.6c0-5.3-2.3-7.6-7.6-7.6h-16.6v15.1h3.9c1.5,0,2.3.8,2.3,2.3v28.6c0,5.3,2.3,7.6,7.6,7.6h16.6v-15.1h-3.9c-1.5,0-2.3-.8-2.3-2.3Z"/>
    <path class="st2" d="M161.1,224.8v-17.4c0-15.1-8.4-20.1-19.2-20.1s-14.5,5.1-16.9,9.3h-.2s.1-.7.1-1.2v-.7c0-3.6-2.6-6-7.5-6h-16v15.1h3.9c1.5,0,2.3.8,2.3,2.3v36.2h18v-23.7c0-2.6.3-5,1-7.1,1.6-4.6,5-7.7,10.6-7.7s5.9,2.1,5.9,7.1v23.8c0,5.3,2.3,7.6,7.6,7.6h16.6v-15.1h-3.9c-1.5,0-2.3-.8-2.3-2.3h0Z"/>
    <path class="st2" d="M177.4,187.4v1.2h-6.6v14h6.6v39.5h18v-39.5h9.9v-14h-9.9v-.7c0-4.6,5.5-5.2,9.1-5.2s2.9.2,2.9.2v-15.2s-2.2-.3-5.4-.3c-8.6,0-24.6,2.4-24.6,20h0Z"/>
    <path class="st2" d="M238.9,187.4c-16.7,0-30.2,11.3-30.2,28.2s13.4,27.9,30.3,27.9,30.3-11.1,30.3-27.9-13.4-28.2-30.4-28.2h0ZM239,228.5c-6.6,0-12.2-4.9-12.2-12.9s5.6-13.2,12.2-13.2,12.2,5.1,12.2,13.2-5.6,12.9-12.2,12.9Z"/>
    <path class="st2" d="M297.4,201h-.2s.2-1,.2-2.7v-2.8c0-4.9-2.7-6.9-7.6-6.9h-15.9v15.1h4c1.5,0,2.3.8,2.3,2.3v36.2h18v-20.3c0-2.9.3-5.3.9-7.3,2.6-8,9.6-9.4,13.8-9.4s3.6.3,3.6.3v-17.7s-1-.2-2.1-.2c-8,0-14.8,6-17.1,13.3h0Z"/>
    <path class="st2" d="M410.4,224.8v-17.4c0-14.8-7.6-20.1-17.4-20.1s-14.4,4.6-17.2,9.1h-.2c-2.8-6-8.2-9.1-15-9.1s-13.2,5.5-15.7,9.3h-.2s.1-.7.1-1.2v-.7c0-3.6-2.6-6-7.5-6h-16.1v15.1h4c1.5,0,2.3.8,2.3,2.3v36.2h18v-22.1c0-2.3.3-4.5.7-6.4,1.2-5.7,4.3-9.9,9.6-9.9s4.2,2.8,4.2,6.8v31.7h18v-22.1c0-2.2.2-4.2.6-6,1.1-5.9,4.3-10.3,9.7-10.3s4.2,2.8,4.2,6.8v24.1c0,5.3,2.3,7.6,7.6,7.6h16.6v-15.1h-4c-1.5,0-2.3-.8-2.3-2.3h0,0Z"/>
    <path class="st2" d="M473.4,227.1c-1.5,0-2.3-.8-2.3-2.3v-15.6c0-12.3-6.1-21.8-24.9-21.8s-21.3.6-21.3,12.6v5.9h16.6v-2.4c0-2.1,2.4-2.6,4.7-2.6,4.5,0,6.9,1.9,6.9,7v.6h-.7c-8.3,0-31.1,1.8-31.1,17.7s8.2,17.3,18.2,17.3,15-7.8,15-7.8h.2v.9c0,2.4,1.9,5.6,7.1,5.6h15.6v-15.1h-4,0ZM453.4,220.3c0,4.4-4.2,9.5-8.8,9.5s-5.1-2-5.1-4.5c0-4.3,6.5-5.8,12.3-5.8h1.7v.8h0Z"/>
    <path class="st2" d="M53.4,214.2c0-.2,0-.4-.3-.6-.1-.1-.3-.3-.3-.4s-.5-.7-.7-.7c-.3,0-.3,0-.3-.3,0-.5-.4-.6-.7-.6-.2,0-.4,0-.4-.2,0-.1-.1-.1-.3-.1-.9,0-1.2.4-1.6,1-.2.3-.5.7-.9,1.1-1.2,1.3-2.8,2.7-4.7,4.3-2,1.6-3.9,3-6,4.1-2,1.1-3.8,1.7-5.4,1.7h-.1c-.3,0-.6,0-.9,0-.5,0-.9,0-1.1-.5l-.3-.7c-.2-.8-.3-1.6-.3-2.6v-1.2c0-.7.2-1.6.7-2.9,0-.2.2-.4.2-.4h0s0,0,0,0h0s0,0,0-.1c0,0,0,0,.1,0s.1,0,.3,0c0,0,.2,0,.4.1.2.1.5.3.6.3h0c.1.3.3.3.4.3s.3,0,.4-.2c0,.2.1.2.3.2,0-.1.3-.2.8-.2h.4c1.1,0,1.6-.1,2.8-.7,1-.4,2.7-1.4,2.7-1.5h0c.1,0,1.6-1,2.7-2.2,1.4-1.3,2.3-2.8,2.9-4.4.3-.9.5-1.7.5-2.4s0-1.1-.3-1.6c-1-1.9-2.2-3.4-3.8-4.3-.4-.1-.9-.2-1.5-.3h-.4c-.4,0-.9,0-1.3.1-2.5.7-5.3,2.7-8.4,6-1.6,1.8-3,3.9-4.1,6.1-.2.1-.5.4-.8.8-.6.9-1.4,2-2.5,3.2-1,1.2-2,2.2-2.7,2.9-1.5,1.5-3,2.9-4.7,4.1s-3,1.9-4,2.2h-.5v-.7c0-.9.3-2.2.8-3.8.4-1.1,1.1-2.9,1.8-4.5.2-.6.5-1.1.6-1.5.6-1.5,3.6-7.2,4.3-8.5.8-1.5,3.5-6.3,4.2-7.4.1-.1.3-.4.5-.7,0,0,.1-.2.3-.4.1-.2.3-.5.5-.9l.7-.9h8.7c1.3,0,1.6,0,1.7,0s0,0,0,0h0s.2,0,.3,0c.3,0,.7,0,1.1,0,.7,0,1.1,0,1.6.1.2,0,.5,0,.7.1.2,0,.4,0,.5,0,.1,0,.2,0,.3,0,0,0,0-.1,0-.1h0c0,0,0-.1,0-.1,0,0,0,0,0,0v-.2h.2c0,0,0-.1,0-.1h0s0-.2.1-.3c0,0,.1-.2.1-.4v-.3c0-.3,0-.5.1-.5v-.4c0-.2.1-.3.3-.3h0c0-.1-.1-.3-.1-.3-.2-.1-.3-.2-.3-.3h0s0-.2.2-.2h0s0-.2-.2-.3c0,0,0-.1,0-.2s0-.2,0-.3c0,0,0-.2,0-.2,0-.6-.6-.9-1.7-1-.2,0-.4-.1-.6-.2-1.2-.3-1.5-.4-5.3-.4h-4.4l.3-.3c0-.2.4-1,1-1.7.5-.9.7-1.3.7-1.6v-.5h0s0,0,0,0c0-.1,0-.3-.3-.4-.1-.1-.3-.3-.3-.4h0c0-.2,0-.4-.2-.6-.1-.1-.3-.4-.3-.5h0s0,0,0,0h0s0,0,0,0c-.2,0-.3,0-.5-.1,0-.3,0-.3-.3-.3s-.3,0-.4-.1c-.1-.3-.3-.4-.5-.6,0,0-.1,0-.2,0-.2,0-.5,0-1.2.9-.3.4-.9,1-1.3,1.4-.1.2-.3.4-.4.5l-.2.3h0c0,0-.1.1-.2.1,0,0,0,0,0,.1h.2c0,.2-.4.9-1,2l-.2.3c-1.1,1.7-1,1.8-1.7,1.9h-9.5c-2.2,0-3.1,0-3.2.1,0,0,0,.1,0,0,0,0,0,0,.2,0,.2,0,.4,0,.4,0,0,0,0,0-.2.2h-.5s0,0,0,0c0,.1,0,.3.3.3.4,0,.7.5.7.5s0,.1,0,.1-.1,0-.2-.1c-.3,0-.3,0-.3,0h0c0,0,0,0,0,0h0c0,0,.1.1.2.1h.3c0,.1,0,.2,0,.2h0c0,0,0,0,0,0,0,0,0,0,0,0h0c0,0,0,.1,0,.1h0s0,0,0,0c-.2,0-.5.2-.5.4,0,.1,0,.1,0,0,0,0,0,0,0,0h0c0,0,0,.1,0,.1h0c0,.2.1.4.3.6.3.1.3.2.3.4,0,0,0,0,0,.1,0,0,.3.8.6.8s.3.1.4.4c0,0,0,.1.1.2.1.1.2.3.3.3h.5c.2.1.4.1,2.4.1h4.7l-.2.4c-.1.2-.3.5-.4.9-2.2,3.9-3.4,5.9-3.4,6h.1c0,0,0,0-.1,0-.1,0-.8,1.4-2.8,5.3-1.6,3-3.3,6.7-4,8.8-.1.5-.3,1-.5,1.7-.2.8-.5,1.4-.5,1.5v.7c-.1.9-.1,1.5-.1,2.1.2.7.8,1.9,1.1,2.2,0,0,0,0,.1,0h0s0,.1,0,.1h0s0,0,0,0c.1,0,.7.5,1.2,1.1.9.9,1.4,1.3,2.7,1.7.4.1.8.3,1,.4,0,.1,0,.2.1.2s.1,0,.2-.2h0c0,0,0,0,0,.1h0c0,0,0,.1.1.1v-.4s0,0,.1,0c.2.2.6.2,1,.2s.3,0,.4,0h0c0,0,0-.1,0-.1,0,0,0,0,0,.1h0c0,0,0,.1.1.1h0c0-.1,0-.1,0-.1,0,0,0,0,0,0h.1s0,0,0,0c0,0,.1,0,.2,0,0,0,.2,0,.2,0,.1,0,.3-.1.3-.1s0,0,0,.1h.1s0,0,0,0h0s0,0,0,0h0c0,0,.3-.1.4-.1.1,0,.2,0,.3-.1h0s1.7-.8,2.1-1.1c.3-.1.9-.5,1.4-.8.6-.4.9-.7,1.4-1.1.3-.2.6-.5,1.1-.9.4-.4,1.4-1.2,2.4-2.2,0,0,0,.1,0,.2,0,.2,0,.4.1.6.2.7.5,1,.9,1.6l.2.2c.4.3.9.9,1.2,1.4.2.1.4.3.6.4.2.2.4.3.5.4.1.2.5.4,1,.5.2,0,.4.1.5.2.2.1.5.2.6.2l1.1.4c.4.1,1,.3,1.2.3.2,0,.5,0,.7,0h.6c.3,0,.7,0,1.4-.2.2,0,.3,0,.5-.1h.3c1.3,0,3-.5,5.2-1.7,2.1-1.1,4.2-2.4,6.3-4.1s3.7-3.1,4.9-4.5c.7-.9,1-1.5,1-2s-.1-.5-.4-.7h0c0,0,0,0,0,0ZM33,210.3c.2-.3.4-.7.6-.9.9-1.1,2.5-2.9,3.8-3.9.6-.5,1.6-1.3,2.4-1.8.3-.2.5-.3.6-.3h0v.3c-.3.4-.6,1-1,1.6-.9,1.6-2.6,3.1-5,4.6-.5.3-1,.5-1.3.6-.2,0-.4.1-.5.1s0,0,0,0l.4-.4h0Z"/>
  </g>
  <g>
    <path class="st3" d="M567.9,66.4l-1.5-.2c-.2,0-.3,0-.5,0h0l-1.3-.4c-.6,0-1.5,0-1.8,0h0l-1.5-.2c-1.5-.2-2.9-.2-4.4-.4-1-.1-1.9-.1-2.9-.2-.7,0-1.9,0-2.7,0-.4,0-1.7.2-1.9.2-.9,0-2.5,0-3.4,0-.5,0-1.6.3-1.7.3h-1.4c0,.1-1.3.6-1.3.6-.2,0-.4.1-.7.2h0l-1.6.2c-.3,0-1.7.3-1.6.3-.1,0-.2,0-.3,0h-1.3c0,0-1.2.6-1.2.6-.3.1-.7.2-1,.2h-1.5c0,0-1.2.4-1.2.4-.5.2-1.5.7-1.8.7h0s-1.5.4-1.5.4l-1.5.6c0,0-.1,0-.2,0h0s-1.2.4-1.2.4l-1.2.7c-.2.1-.4.2-.6.3-1.5.5-3,1-4.4,1.6-.5.3-1.2.9-1.4,1h0s-1.5.9-1.5.9c-.2,0-1.4.6-1.9.7l-1,.5-1,.9c-.1.1-.2.2-.4.3-.3.2-1.5,1-1.7,1.2l-1.2.7c-.4.4-1.1,1-1.2,1.1-.7.5-2,1.5-2.8,2-.8.7-1.6,1.4-2.3,2.2-.6.6-1.6,1.7-2.1,2.3-.2.3-1,1.3-1,1.3-.2.3-.8.8-1.3,1.2l-.4.9h0c-.2.5-.9,1.3-1.4,1.8-.2.5-.6,1.2-.7,1.4-.4.7-1.2,2-1.5,2.8l-.6,1.5-.7,1.5-.8,2.9v.3s.3,0,.3,0c.4,0,.8,0,1.2,0l.5-1.2.6-1.4c.4-.7,1.1-1.9,1.4-2.6,0-.1.4-.8.6-1.3.5-.5,1.2-1.2,1.3-1.6h0s.4-.9.4-.9c.5-.4,1.1-.9,1.2-1.1,0,0,.7-.9.9-1.2.5-.6,1.4-1.6,2-2.2.7-.7,1.5-1.3,2.2-2,.7-.5,1.9-1.4,2.6-1.9,0,0,.8-.7,1.1-1l1.2-.6c.2-.1,1.3-.9,1.6-1.1.1,0,.2-.2.3-.3l.9-.9.9-.5c.5-.2,1.6-.6,1.8-.7l1.4-.8h0c.2-.1.9-.7,1.3-1,1.4-.5,2.7-1,4.1-1.5.2,0,.4-.2.6-.3l1.1-.7,1.2-.3h0s.1,0,.2,0l1.4-.5,1.4-.3h0c.3,0,1.2-.5,1.7-.7l1.1-.3h1.4c0,0,0,0,0,0,.3,0,.6,0,.9-.2l1.1-.5h1.1c0,0,0,0,0,0,0,0,.2,0,.3,0,0,0,1.2-.2,1.5-.3l1.5-.2h0c.2,0,.4,0,.6-.2l1.2-.5h1.2c0,0,0,0,0,0,.1,0,1.1-.2,1.6-.3.9,0,2.4,0,3.2,0,.2,0,1.4-.2,1.8-.2.8,0,1.9,0,2.5,0,.9,0,1.8,0,2.7.1,1.4.1,2.8.1,4.1.4l1.4.2h0c.3,0,1.1,0,1.7,0l1.2.3h0c.1,0,.3,0,.4,0h1.4c0,.1,1.2.5,1.2.5h0l.5-1c0-.2.2-.3.3-.5l.9-1.2.7-1.4.8-1.4c0-.2.1-.3.2-.5h-.2q0,0,0,0Z"/>
    <path class="st3" d="M430.2,73.1l.9-.8c1.3-.9,2.7-1.9,4-2.9l1.3-.4c.1,0,.3,0,.4-.2h0s1.4-.7,1.4-.7l1.5-.5c0,0,.1,0,.2,0h0s1.5-.6,1.5-.6l1.5-.4c1.2-.2,2.4-.4,3.5-.7l1-.3c.6,0,1.3.2,2.1,0,.4,0,.8-.1,1.2-.2,1.3,0,2.5.2,3.8.3l-.3-.3c-.7-.8-1.4-1.7-2.1-2.5l-.5-.3c-1.2,0-2.5-.1-3.7-.2l-1.1.3c-1.1.3-2.3.4-3.4.7l-1.4.4-1.5.6h0c0,0-.1,0-.2,0l-1.5.5-1.3.7h0c-.1,0-.3.2-.4.2l-1.3.4c-1.2,1-2.6,2-3.9,2.9l-1,.9-.6.8-.3,1c0,.5-.2,1.4-.2,1.4,0,.1,0,.2,0,.3h0c.1,0,.3-.3.4-.5h0s0,0,0,0Z"/>
    <path class="st3" d="M445,88.3c.7-.6,2-1.7,2.8-2.2l1.1-1.1.9-1,.6-1.2.3-.7-.4-1.3c-.1.2-.3.3-.6.8-.2.2-.6.7-1.1,1.1-.5.5-.6.5-1.4,1.2-.7.6-.7.7-1.4,1.2-.4.3-.7.6-1.2.9-.6.4-1.1.7-1.4.8-.6.3-.5.2-1.2.5-.8.3-.9.5-1.3.5-.2,0-.5,0-.9-.1-.4,0-.8-.2-1-.3-.7-.3-1-.8-1.7-1.5-1-1-1-.6-1.7-1.4-.7-.8-1.2-1.7-2-2.6-.1-.1-.2-.3-.2-.3-.7-.7-.8-.6-1-1,0,0-.3-.4-.8-1.2,0,0,0,0,0,0,0-.1-.4-.6-1-.9-.1,0-.3-.2-.8-.3-.7-.2-1.3-.3-1.5-.3-1.2-.2-1.2-.9-2.8-1.5-.6-.2-.7-.1-2.2-.6-.8-.2-1-.3-1.3-.4-.4-.2-1.1-.7-1.2-.7,0,0,0,0-.1,0,0,0-.1,0-.1,0,0,0-.1,0-.1,0-.5-.2-1.5-.6-1.6-.6,0,0,0,0-.1,0,0,0,0,0-.1,0,0,0,0,0-.1,0-.2,0-.9-.1-1.4-.3-.3-.1-.6-.3-1.1-.7,0,0-.1-.1-.3-.2-.2,0-.3-.1-.4-.1-.4-.1-1.3-.3-1.5-.4-.5-.1-.2-.2-1.2-.6-1-.4-1.8-.7-2.1-.8,0,0,0,0,0,0-1-.3-1.1-.2-1.6-.3-.4-.2-.9-.4-1.2-.6,0,0-.1,0-.3-.1-.1,0-.3,0-.3,0-.6,0-1.1,0-1.6-.2,0,0-.3,0-1.3-.6,0,0,0,0-.2,0,0,0,0,0,0,0,0,0,0,0,0,0-.1,0-1.7-.4-1.7-.4h.1s-.8-.1-1.6-.5c-.4-.2-1.3-.6-1.4-.7,0,0,0,0-.1,0h0c-.1,0-1.2-.4-1.6-.5-.2,0-.4-.2-.7-.2h-.4s0,0,0,0c0,0-.2,0-.2,0l-1.3-.6c-.4,0-.7-.2-.8-.2,0,0-.3-.1-.8-.3h-.4c0-.1-1.6-.4-1.6-.4h-1.7c0,0,0,0,0,0,0,0-.2,0-.2,0l-1.6-.6h-1.7c0,0,0,0-.1-.1l-1.7-.4h-.5c1.8.7,3.8,1.4,5.1,1.9l1.7.4s.1,0,.1,0h0c.8.4,2.1,1.1,3,1.4l1.7.4s0,0,0,0h.1c0,0,1.6.7,1.6.7l1.6.6h.2c0,0,1.4.8,1.4.8l1.6.6h-.1c0,0,1.7.4,1.7.4,0,0,0,0,.1,0h.2c0,0,1.2.7,1.2.7l1.6.2c.2,0,.4.1.6.2l1.2.7,1.6.4s0,0,0,0c.3.1,1.8.6,2.1.8l1.2.7,1.5.4c.2,0,.5.2.7.3l1.1.7,1.4.4c0,0,.1,0,.2,0h.1c0,0,1.6.8,1.6.8,0,0,.2,0,.2.1h.1c0,0,1.2.8,1.2.8l1.2.5c.6.2,1.7.4,2.2.6.7.4,1.9,1.1,2.7,1.5l1.5.4c.7.2,1.3.7,1.7,1.2h0c0,0,.7,1.3.7,1.3l1,1c0,0,.2.2.2.3.5.7,1.4,1.9,1.9,2.7,1,.8,2.3,2,3.3,3l1,.3.9.2c.8-.3,1.9-.7,2.5-.9l1.4-.7,1.3-.9h0Z"/>
    <path class="st3" d="M480.1,84.2v1.5c0,0,.1,1.3.1,1.3.1.5.5,1.6.5,1.8l.2,1.4c.2.5.5,1.4.5,1.4,0,.2.3,1.2.5,1.7.2.4.6,1.3.6,1.3,0,0,0,.2.1.2l.4,1.1c.4.4.8.9.8.9.3.3.7,1.1,1,1.7l.8.7c.3-1.1.7-2.6.8-2.7h0c0,0,.1-.4.1-.4-.1-.3-.2-.5-.3-.7,0-.4-.3-1.1-.5-1.7-.2-.5-.4-1-.5-1.3,0-.3-.1-.9-.3-1.4,0-.2-.1-.5-.3-1,0-.2-.1-.6-.2-.8,0-.3-.1-.9-.2-1.3,0-.3,0-.9,0-1.5v-.3c0-1.5-.1-3.6-.1-5.3,0-1.3,0-2.5,0-3,0-.2.1-1.1.2-2,0-.5,0-1,0-1.4,0-.2.1-.6.2-.9.1-.6.2-.8.2-1.2,0-.2,0-.1,0-.9v-.6c0-.2,0-.7.2-1.3,0,0,.4-.6.8-3.5.1-.8.2-1.6.2-1.9,0-.3.2-1.2.3-1.5,0-.1.1-.3.2-.6.2-.7.2-.6.3-.8s0-.3.2-1c0-.3.1-.5.1-.7.2-.4.5-1.1.6-1.3h0c0-.2.1-.3.1-.3,0-.2,0-.3,0-.3.1-.7.3-1.3.3-1.5.1-.3.3-.8.5-1.4h0c.2-.5.2-.9.2-1.1,0-.4.1-.7.1-.8.1-.3.3-.7.5-1.3.4-.8.5-.8.7-1.5,0-.2.2-.5.4-1,0-.2.1-.4.2-.5.3-.4.6-.8.8-1,0,0,0,0,0,0,0,0,.1-.2.2-.3.1-.2.2-.4.2-.4.6-1.6.6-1.6.7-1.7.2-.6.4-1.2.5-1.5.2-.3.4-.7.6-1,.2-.2.6-.7,1-1.2.3-.4.5-.7.6-1.1.2-.4.4-.8.5-1,.2-.3.7-1,1.3-1.8.7-.9.8-.9,1.6-2,.4-.6.9-1.2,1.1-1.4.2-.2.6-.6,1-1.2,0,0,0,0,0,0,0-.2,0-.3,0-.5l-.5-1.6c0-.1,0-.2,0-.3h0c0,0-.2-1.5-.2-1.5l-.4-1c-.1,0-.2.2-.3.2-.5.4-1.3,1-1.9,1.4-.7.8-1.4,1.5-2.1,2.3l-1,1.4c-1,1.1-2.1,2.6-3,3.8-.3.7-.7,1.6-1.1,2l-1,1.1-.6,1.1-.5,1.5-.7,1.7c-.1.3-.2.5-.4.7h0s-.8,1-.8,1c-.2.6-.4,1.3-.5,1.6l-.7,1.5-.5,1.3c-.1.6-.3,1.6-.4,1.9h0s-.5,1.5-.5,1.5l-.3,1.5c0,.2-.1.5-.2.7h0s-.6,1.3-.6,1.3c-.1.5-.3,1.5-.4,1.7,0,0-.4,1.1-.5,1.5l-.3,1.4c0,.5-.1,1.7-.2,1.9-.2.8-.5,2.4-.8,3.3l-.2,1.4c0,.5,0,1.6,0,1.6,0,.4-.2,1.4-.4,2.1,0,.5,0,1.4,0,1.4,0,.2-.1,1.4-.2,1.9,0,1,0,2.2,0,3.1,0,1.8,0,3.6.1,5.3v.3h0Z"/>
    <path class="st3" d="M496.2,191.6c0,0,0-.1,0-.1,0-.2-.5-1.3-.7-1.6,0-.4-.3-1.2-.4-1.4,0-.3-.1-.9-.2-1.6,0-.6-.3-1.6-.3-1.8,0,0,0,0,0-.1,0,0,0-.1,0-.2,0,0,0-.1,0-.2-.2-.3-.6-1.3-.7-1.6,0-.3-.3-1-.5-1.5-.2-.6-.4-1.3-.5-1.6,0-.5,0-1.3,0-1.5h0c0-.1,0-.2,0-.3,0,0,0-.1,0-.2,0-.2-.5-1.6-.5-1.7,0,0,0,0,0,0,0,0,0,0,0,0,0,0,0,0,0,0,0-.2-.5-1.1-.7-1.5-.1-.4-.3-1.3-.4-1.5,0,0,0,0,0-.1,0,0,0-.1,0-.1-.3-.7-.6-1.4-.7-1.6-.1-.4-.5-1.5-.5-1.6h0s0,0,0,0c0,0,0,0,0,0,0,0-.6-1.5-.6-1.6,0,0,0,0,0-.1,0,0,0,0,0-.1-.5-1-.5-.9-.9-1.6-.3-.6-.7-1.2-.9-1.5,0-.2-.4-.9-.7-1.5,0,0,0-.1-.1-.2,0-.1-.1-.2-.1-.2-.3-.3-.8-.9-1-1.2-.2-.3-.6-1.1-.8-1.4,0,0,0,0,0-.1,0,0,0-.1-.1-.1,0,0,0,0,0,0-.1-.1-.8-.9-1.1-1.2,0-.1-.4-.6-1-1.4,0,0,0,0-.1-.1,0,0,0,0-.1-.1,0,0,0,0,0,0-.1-.1-.9-.8-1.2-1.1-.2-.2-.6-.7-1.1-1.4,0,0-.7-1-1.2-1.5h0c0,0-.4-.4-1.3-1.2,0,0,0,0,0,0,0,0,0,0,0,0,0,0,0,0-.1,0,0,0-.8-.5-1.2-.8-.3-.3-.9-1-1-1.2h0c0,0,0,0,0-.1,0,0,0,0-.1,0-.1-.1-.8-.7-1.3-1.1,0,0-.3-.2-.8-.6-.2-.1-.6-.4-.8-.5,0,0-.6-.4-1.4-1,0,0-.4-.3-1.4-1.1,0,0,0,0,0,0,0,0,0,0,0,0,0,0,0,0-.1,0-.1,0-.8-.4-1.2-.7-.3-.2-1-.8-1.2-1.1,0,0,0,0-.1,0,0,0,0,0-.1,0,0,0-.1,0-.1,0h0s-.7-.4-1.5-.9c-.4-.2-.8-.4-1-.6-.2,0-.3-.1-.4-.2-.2-.1-.9-.6-1.2-.8-.2-.1-.9-.8-1.2-1,0,0-.2-.2-.4-.4-.2-.2-.5-.5-.5-.5,0,0-.7-.7-1.5-1.4-.5-.5-1-.9-1.6-1.4t0,0c-.4-.3-.7-.5-.9-.7-.1-.2-.2-.4-.4-.6-.3-.5-.5-.7-.7-.9-.3-.4-.5-.5-1.3-1.3-.6-.5-1-.9-1.2-1.1-.2-.2-.5-.6-.9-1.1-.4-.5-.6-1-.8-1.2,0-.2-.7-1.3-.8-1.5,0-.2-.2-.5-.4-.9-.1-.3-.2-.6-.5-1,0,0,0,0,0,0-.3-.5-.6-.9-.7-1.2,0-.2-.1-.4-.1-.6,0-.2-.1-.6-.3-1,0,0,0,0,0,0-.3-.6-.4-1.1-.6-1.3,0-.4-.2-1.1-.3-1.4,0-.3,0-.8,0-1.4,0-.5,0-.6,0-1.1,0-.3,0-.7,0-1.1,0-.5-.1-1-.2-1.4,0-.3,0-.7,0-1,.1-.3.3-.9.4-1.5,0-.5.1-.8.1-1.3,0-.3,0-.6,0-.9.1-.3.2-.8.3-1.1.2-.3.6-1.3,1-2.4.5-1.2.5-1.8,1-2.4h-.5c0,.1-1.1.6-1.1.6l-1,.8-.8.8c-.6,1.4-1.4,3.1-1.9,4.4l-.3,1.2c0,.7,0,1.8-.1,2.2l-.4,1.4v1.1c0,0,.2,1.4.2,1.4,0,.4,0,1.8.1,2.2v1.5c0,0,.4,1.2.4,1.2l.6,1.4h0c.1.2.4,1.2.5,1.7l.7,1.1h0c.1.2.7,1.5.9,2l.7,1.4.8,1.3.9,1.2c.7.7,1.9,1.8,2.5,2.4.2.2.7,1,1,1.5l1,.7h0c1.1.9,2.2,1.9,3.1,2.9,0,0,.8.8.9.9l1.1,1c.3.2,1,.7,1.2.8.8.4,2.2,1.3,3,1.7h.1c0,.1.2.2.2.2l1.2,1,1.2.7h.1c0,.1.1.2.2.2l1.4,1.1,1.4,1h-.1c.2,0,1.6.9,1.7,1l1.3,1.1h.1c0,0,0,.2.1.2l1,1.2,1.2.8h.1c0,0,0,0,0,.1l1.3,1.1h0c.3.4.5.7.8,1.1l2,2.3c0,0,.2.2.4.3h0s.3.3.3.3h0c0,.1.2.2.2.3l1,1.4,1.1,1.2h0c0,.1.1.2.2.3l.8,1.4,1,1.2c.1.1.2.3.3.4l.7,1.5.9,1.5.9,1.6c0,0,0,.1,0,.2l.6,1.6s0,0,0,.1h0s.5,1.6.5,1.6l.7,1.6c0,0,0,.2,0,.3l.4,1.5.2.4c0,0,.2,0,.2,0l.2.5.3,1.3h0c0,.1.3,1.2.3,1.2,0,.1,0,.2,0,.4h0c0,.1,0,1.6,0,1.6l.5,1.5.4,1.6.7,1.6c0,.1,0,.2.1.3h0c0,.1.3,1.9.3,1.9l.2,1.6.4,1.4.7,1.6c0,0,0,.2,0,.3v.2s.3,1.5.3,1.5l.4,1.2c.6-.1,1.5-.3,1.7-.3h.7c0-.3,0-.5,0-.6,0,0,.3-2.5,0-3.8,0-.1,0-.3,0-.3h0ZM462.4,141.1h0,0ZM462.7,141.2h0Z"/>
  </g>
  <g>
    <path class="st0" d="M108.2,147.6c-10.9,0-20-9.9-20-22.1s8.7-20.5,19.5-20.5,11.4,1.7,11.4,5.9v4.1h16.6v-9.8c0-13.9-19.7-17.4-28.5-17.4-22.2,0-38.5,16.3-38.5,37.7s15.5,39.2,39,39.2,31-13.3,31-13.3l-9.5-13.3s-8.2,9.5-21.2,9.5h0Z"/>
    <path class="st0" d="M174,108.8c-16.7,0-30.2,11.3-30.2,28.2s13.4,27.9,30.3,27.9,30.3-11.1,30.3-27.9-13.4-28.2-30.4-28.2h0ZM174.1,149.8c-6.6,0-12.2-4.9-12.2-12.9s5.6-13.2,12.2-13.2,12.2,5.1,12.2,13.2-5.6,12.9-12.2,12.9Z"/>
    <path class="st0" d="M232,146.2v-49.4c0-5.3-2.3-7.6-7.6-7.6h-16.6v15.1h3.9c1.5,0,2.3.8,2.3,2.3v49.4c0,5.3,2.3,7.6,7.6,7.6h16.6v-15.1h-3.9c-1.5,0-2.3-.8-2.3-2.3h0Z"/>
    <path class="st0" d="M266.9,146.2v-28.6c0-5.3-2.3-7.6-7.6-7.6h-16.6v15.1h4c1.5,0,2.3.8,2.3,2.3v28.6c0,5.3,2.3,7.6,7.6,7.6h16.6v-15.1h-4c-1.5,0-2.3-.8-2.3-2.3Z"/>
    <rect class="st0" x="250.2" y="89.2" width="15.1" height="14.6"/>
    <path class="st0" d="M315.6,108.8c-9.5,0-14.5,5.2-14.5,5.2h-.2s.2-1.9.2-4.6v-12.6c0-5.3-2.3-7.6-7.6-7.6h-16.6v15.1h4c1.5,0,2.3.8,2.3,2.3v57h16.9v-1.2c0-1.7-.1-3-.1-3h.2s4.8,5.5,14.7,5.5c14.2,0,25-11,25-28s-9.6-28.1-24.1-28.1h0ZM311.2,149.9c-7.1,0-10.5-6.3-10.5-12.8,0-9.3,5.1-13.2,10.5-13.2s10.5,5.2,10.5,13.2-4.9,12.8-10.5,12.8Z"/>
    <path class="st0" d="M367.8,122.4h-.2s.2-1,.2-2.7v-2.8c0-4.9-2.7-6.9-7.6-6.9h-15.9v15.1h4c1.5,0,2.3.8,2.3,2.3v36.2h18v-20.3c0-2.9.3-5.3.9-7.3,2.6-8,9.6-9.4,13.8-9.4s3.6.3,3.6.3v-17.7s-1-.2-2.1-.2c-8,0-14.8,6-17.1,13.3h0Z"/>
    <polygon class="st0" points="418.3 96.8 407.2 90.6 399.6 104.8 412 104.8 418.3 96.8"/>
    <path class="st0" d="M416,146.2v-28.6c0-5.3-2.3-7.6-7.6-7.6h-16.6v15.1h4c1.5,0,2.3.8,2.3,2.3v28.6c0,5.3,2.3,7.6,7.6,7.6h16.6v-15.1h-4c-1.5,0-2.3-.8-2.3-2.3Z"/>
    <path class="st0" d="M52.4,99.8c-.4-.2-.9-.3-1.5-.3-.9,0-1.9.3-3.1.9-2.5,1.3-5.7,4.5-8.3,8.3-.2.3-.4.6-.5.8v.2c0,0,0,.1,0,.1-.3,0-1.4,1.9-2,3-.1.3-.2.5-.2.6h0c0,0,0,.1,0,.1,0,0,0,0,0,0h0c0,.2-.1.3-.2.4-.1.1-.5.7-.8,1.2-.3.4-.4.9-.4,1h0c0,0,0,0,0,0-.2,0-1.1,1.7-1.6,2.7-.1.3-.2.5-.2.6h0c0,.1,0,.2-.1.2h0c-.1,0-.3.3-.5.7-.1.3-.1.3,0,0h0s0,0,0,0h0c0,0,0,0,0,.1,0,0,0,0,0,.1h0c0,0,0,0,0,0h0c0,0,0,0,0,0h0c0,.2,0,.3,0,.4h0c0,0,0,0,0,0,0,0-.4.2-.4.4v.3s0,0,0,0,0,0,0,0h-.1c0,.1,0,.2,0,.3,0,0,0,.2-.1.3-.2.4-.4.8-.7,1.4-.1.3-.2.5-.3.8v.4c-.1,0-.1.1-.1.1,0,0,0,0-.1,0h0s0,.1,0,.2h0c0,.1,0,0,0,0h0c0,0,0,.2,0,.3h0c0,0,0,.1,0,.2h0c0,0,0,0,0,0,0,0,0,0,0,0,0,0-.1,0-.2.2h0c0,.1,0,.3,0,.4h-.2s-.1,0-.1.2h0c0,0,0,.2,0,.2h-.1s0,0,0,0h0v.2s0,0-.1.2c0,0,0,0,0,.1s0,.1,0,.2h-.1c0,0-.6.9-.8,1.6,0,.1,0,.3,0,.4h0c0,.1,0,.2,0,.2s0,0,0,0c-.1,0-.5,1.1-.8,1.8,0,.1,0,.3,0,.4v.2s0,0-.1,0-.3.8-.3.9c-.1,0-.3.5-.5,1.7,0,.3-.2.6-.3.9-.1.5-.2.8-.3,1-.4.2-.7.5-.9.9-.2.3-.5.7-1,1.1-1.2,1.3-2.8,2.7-4.7,4.3-2,1.6-3.9,3-6,4.1-2,1.1-3.8,1.7-5.4,1.7h-.1c-.3,0-.6,0-.9,0-.5,0-.9,0-1.1-.5l-.3-.7c-.2-.8-.3-1.6-.3-2.6v-1.2c0-.7.2-1.6.7-2.9,0-.2.2-.4.2-.4h0s0,0,0,0h0s0,0,0-.1c0,0,0,0,.1,0s.1,0,.3,0c0,0,.2,0,.4.1.2.1.5.3.6.3h0c.1.3.3.3.4.3s.3,0,.4-.2c0,.2.1.2.3.2,0-.1.3-.2.8-.2h.4c1.1,0,1.6-.1,2.8-.7,1-.4,2.7-1.4,2.7-1.5h0c.1,0,1.6-1,2.7-2.2,1.4-1.3,2.3-2.8,2.9-4.4.3-.9.5-1.7.5-2.4s0-1.1-.3-1.6c-1-1.9-2.2-3.4-3.8-4.3-.4-.1-.9-.2-1.5-.3h-.4c-.4,0-.9,0-1.3.1-2.5.7-5.3,2.7-8.4,6-2.9,3.3-5.3,7.7-5.9,11.2,0,.3,0,.7,0,1.1v.8c0,.4,0,.9.2,1.3v.7s0,0,0,.1c0,0,0,.1.2.1h0c0,0,0,.1,0,.1,0,.1,0,.4.1.7h-.1c0,.2,0,.4.1.6,0,.2,0,.4.1.6.2.7.5,1,.9,1.6l.2.2c.4.3.9.9,1.2,1.4.2.1.4.3.6.4.2.2.4.3.5.4.1.2.5.4,1,.5.2,0,.4.1.5.2.2.1.5.2.6.2l1.1.4c.4.1,1,.3,1.2.3.2,0,.5,0,.7,0h.6c.3,0,.7,0,1.4-.2.2,0,.3,0,.5-.1h.3c1.3,0,3-.5,5.2-1.7,2.1-1.1,4.2-2.4,6.3-4.1.5-.4.9-.7,1.3-1.1h0c.2.6.5,1.7.9,2.3.3.4,1,1.3,1.1,1.3s.2,0,.4.2c0,0,.2.2.4.2.8,1,1.7,1.7,2.8,2.1.1,0,.3,0,.3.2.5.1,1.8.5,2.5.5s2.3-.1,2.6-.3h.7c.1,0,.3,0,.3,0,0,0,0,0,0,0h0s.7,0,.7,0c0,0,.2-.1.4-.2,0,0,.2,0,.3-.1h.1c0-.1.1-.1.3-.1s.4,0,.5-.1c0,0,.1-.2.1-.3s0,0,0-.1h0c0,0,0,0,.1,0s0,0,.1,0,0,0,.1,0h0c0,0,.1-.1.2-.1.3,0,1-.5,1.3-.8,0,0,0-.1,0-.2h0c0,0,0,0,0-.1h0c0,0,.2,0,.2,0,0,0,0,0,0-.1s0,0,.1-.1c.1,0,.2,0,.8-.5.1-.1.4-.3.6-.5.3-.4.5-.6.7-.6,0-.1.2-.4.7-.8,1.3-1.1,2.8-2.6,3.9-3.8.9-1.1,1.7-2,2.5-2.8.4-.4.7-.8,1.1-1.2.6-.5.9-.9,1.1-1.1,0,0,0-.1,0-.2,0-.1,0-.2-.3-.2h0c0,0,0-.1,0-.2s0,0,0,0h0c-.3-.3-.7-.6-.9-.6h-.1c0-.2,0-.3-.1-.3h0s0,0,0,0c0,0,0,0,0-.2,0,0,0,0,0,0h-.1s0,0-.1,0-.1,0-.2,0c0,0-.1,0-.2,0,0-.1,0-.2-.2-.2h0s0,0-.1,0c-.1,0-.3,0-.3-.1h-.4c0,0-.2,0-.3,0h-.1s-.2,0-.3-.2c0,0,0,0,0,0h0s-.2,0-.4.1c-.4.2-1.4,1.2-2.9,3-.4.5-1.2,1.4-2,2.3-.4.4-.8.9-1.2,1.3-.3.3-.5.6-.7.8-.7.9-2,2-3,2.8-.2.1-.4.3-.5.4-.6.4-1.4.8-2.4,1-1,.3-1.7.4-2.2.4-1.1,0-2.3-.6-2.8-2.1-.3-.9-.5-1.6-.5-2.3v-.4c0-1.1.3-2.5,1.2-5.6,0,0,0-.2,0-.2.2-.8.3-.9.6-.9.1,0,.2,0,.3,0s.1,0,.1,0h0c0,0,0,0,0,0h0c0,0,0-.2,0-.2h.3c.5,0,1.9-.4,2.3-.7,0,0,.3-.1.5-.4.1,0,.3-.2.5-.4.6-.4,1.1-.8,1.5-1.2.2-.1.4-.3.6-.5l.6-.5c0,0,4.1-4,5-5.2.2-.2.4-.5.7-.8.2-.3.5-.6.7-.9.2-.3.5-.5.6-.7.2-.2.4-.3.4-.4.5-.6,2.4-2.9,3-4.1.2-.3.4-.5.6-.7.3-.3.4-.5.5-.6.3-.5,2.8-4.4,2.8-4.5h0c0-.1.1-.1.1-.1h.1c0-.3,0-.6.4-1.1.5-.9,1-1.9,1.5-3.3.5-1.3.9-2.3,1.1-3.1,0-.5,0-.9,0-1.3,0-.6,0-1-.2-1.4-.7-1.8-2.3-3.7-3.9-4.6h0,0ZM8.7,135.6c.2-.3.4-.7.6-.9.9-1.1,2.5-2.9,3.8-3.9.6-.5,1.6-1.3,2.4-1.8.3-.2.5-.3.6-.3h0v.3c-.3.4-.6,1-1,1.6-.9,1.6-2.6,3.1-5,4.6-.5.3-1,.5-1.3.6-.2,0-.4.1-.5.1s0,0,0,0l.4-.4h0ZM.5,139.9c0-.1,0-.4.1-.5v.8c-.1,0-.1-.3-.1-.3ZM.2,141.7v-.5c0-.1,0-.2,0-.4,0-.1,0-.3,0-.4v-.2c0,0,.1,0,.1.2s0,.1,0,.2c0,.1,0,.3,0,.5v.5h-.1,0ZM.3,142.5H.3c0-.1,0-.2,0-.2h0v.5s0,0,0,0H.4c0,0,0-.2,0-.4ZM.3,143.5v-.3s0,0,.1,0h0s0,0,0,.1c0,.1,0,.3.1.3h0s0,0,0,.1h0c0,0,0,.2.1.3h0c0,.1,0,.2,0,.2-.1,0-.2-.2-.3-.6h0ZM.9,144.6c0,0-.2-.1-.3-.1h0c0-.1,0-.2.1-.2.1,0,0,0,.1,0v.2h0ZM.9,138.8c0,0-.1.1-.2.1,0,0,0-.2.2-.4v.3ZM50.6,106.8c0,.2-.1.4-.2.6h0c0,.1,0,.2,0,.2,0,0,0,.1,0,.1h-.2c0,0,0,0,0,.1,0,0,0,0,0,0h0s0,0,0,0c0,0,0,0,0,0,0,0-.3.2-.4.7-.5,1-1.4,2.7-2.9,5-2.1,3.4-4.9,6.9-8.1,10.4-.3.4-.7.8-1.1,1.2-.7.8-1.2,1.4-1.6,1.9l-1.2,1.1.7-1.1c.3-.9,1.4-2.9,2.5-4.7.5-.9.8-1.6,1-2,1.5-2.5,2.3-3.9,3.2-5.3,1.4-2.2,2.9-4.4,3.8-5.6.8-.9,2.6-2.9,3-3.2.4-.3.7-.5,1-.8.6-.5,1-.8,1.1-.8s.1,0,0,0c0,.2-.2.7-.6,1.8h0s0,0,0,0Z"/>
    <polygon class="st0" points="452.1 52.9 451.9 52.7 452.6 53.8 452.1 52.9"/>
    <path class="st0" d="M572.9,62.3l-1.6-.7c0,0-.2,0-.3,0l-1.7-.6c-.2,0-.4-.1-.6-.1l-1.5-.2-1.5-.4c-.2,0-.5,0-.7-.1h-1.6l-1.4-.2c-1.8-.3-3.7-.3-5.5-.6-1.9-.2-4-.2-5.9,0h0l-1.6.2h-1.6s-1.7,0-1.7,0c-.1,0-.3,0-.4,0h0l-1.6.2h-1.7c-.2.1-.5.2-.8.3h0s-1.3.5-1.3.5h-1.4c0,.1-.2.2-.2.2h0l-1.5.3h-1.6c-.3.1-.6.2-1,.3h0s-1.1.5-1.1.5h-1.2c-.2,0-.3,0-.5.1h0l-1.7.4c-.2,0-.3,0-.5.2l-1.4.6-1.5.3c0,0-.2,0-.3,0h0s-1.5.5-1.5.5l-1.6.4c-.3,0-.5.2-.8.3h0s-1.2.8-1.2.8c-1.6.5-3.2,1.1-4.8,1.7-.2,0-.5.2-.7.4l-1.3.9-1.2.6-1.5.5c-.1,0-.2,0-.4.2l-1.6.8c-.2.1-.5.3-.7.5l-1.1,1c-.3.2-.9.6-1.1.8-.6.4-1.3.6-2,1.2l-1.2,1.1c-.7.5-2,1.5-2.7,2-1,.9-2.1,1.9-3.1,2.8-.6.7-1.8,2-2.4,2.7,0,0,0,.1-.1.2l-.8,1.1-1.1.9h0c-.6.4-1.1,1.5-1.4,2.3l-.8.9h0c-.4.4-.9,1.7-1.1,2.2-.5.8-1.3,2.3-1.6,3.1,0,0-.1.2-.1.3l-.6,1.5-.5,1.2v.3c-.1,0-.2,0-.2,0,0,0-.5,1.6-.8,2.7l-.8-.7c-.3-.6-.7-1.5-1-1.7,0,0-.5-.5-.8-.9l-.4-1.1c0,0,0-.2-.1-.2,0,0-.4-.9-.6-1.3-.1-.5-.4-1.5-.5-1.7,0,0-.3-.9-.5-1.4l-.2-1.4c0-.2-.4-1.3-.5-1.8l-.2-1.3v-1.5c0,0,0-.3,0-.3-.1-1.7,0-3.6-.1-5.3,0-1,0-2.1,0-3.1,0-.5.2-1.7.2-1.9,0,0,0-.9,0-1.4.2-.6.4-1.7.4-2.1,0,0,0-1.1,0-1.6l.2-1.4c.2-.9.6-2.5.8-3.3,0-.3.1-1.4.2-1.9l.3-1.4c.1-.4.5-1.5.5-1.5,0-.2.2-1.1.4-1.7l.6-1.3h0c.1-.2.2-.4.2-.7l.3-1.5.5-1.4h0c.1-.4.3-1.3.4-1.9l.5-1.3.7-1.5c.1-.3.3-1,.5-1.6l.8-1h0c.2-.2.3-.5.4-.7l.7-1.7.5-1.5.6-1.1,1-1.1c.4-.4.8-1.3,1.1-2,.9-1.2,2-2.8,3-3.8l1-1.4c.7-.8,1.4-1.5,2.1-2.3.6-.4,1.4-1,1.9-1.4,0,0,.2-.2.3-.2l.4,1,.2,1.4h0c0,.2,0,.3,0,.4l.5,1.6c0,.2,0,.3,0,.5.2.8.3,1.7.5,2.5v1.5h0c0,.3,0,.4,0,.6l.8,3.3.2,1.5v1.5c.1,0,0,1.5,0,1.5,0,.2,0,.5,0,.8l.3,1.7.2,1.4v1.4c-.1,0-.3,1.7-.3,1.7v.2c0,0,0,.2,0,.2v1.7c0,0,0-.2,0-.2v1.7s-.1,1.7-.1,1.7v.2h0v1.6s-.3,1.3-.3,1.3v.2c0,0,0,.2,0,.2v1.5s-.6,1.3-.6,1.3v.2c-.2.4-.1.6-.2,1.4,0,.4,0,.7,0,.7,0,1.9,2.8,2.2,3.1.3l.2-1.4c.3-.5,1-1.7.9-1.8,0-.1.1-1.1.2-1.6l.6-1.5c0-.1,0-.3,0-.4v-1.8c0,0,.4-1.8.4-1.8l.2-1.8h0v-1.6c.2-1,.6-2.8.6-3.8,0-.2,0-1.9-.1-2.1l-.2-1.3.2-1.4c0-.1,0-.3,0-.4h0c0-.1,0-1.9,0-1.9l-.2-1.8c-.2-1.1-.4-2.2-.6-3.3,0-.6,0-1.9,0-2-.2-1-.4-2.8-.7-3.8l-.4-1.5c0-.4-.2-1.6-.2-1.6,0-.5-.4-1.2-.6-1.7-.4-1.2-.7-2.3-1-3.6-.4-2.1-3.1-2.9-4.6-1.4h0s-1.2,1.1-1.2,1.1c-1.4.9-2.8,2-4.2,3-1,.9-1.9,2-2.8,3,0,0-.1.1-.1.2l-1,1.3c-1.1,1.2-2.4,2.9-3.4,4.2-.1.1-.2.3-.3.5l-.6,1.2-.9,1c-.1.1-.2.3-.3.5l-.9,1.5c0,.1-.1.3-.2.5l-.6,1.6-.5,1.2-.9,1.1c-.2.3-.4.6-.5,1,0,0-.3,1-.5,1.5l-.7,1.5-.7,1.7c0,.2-.1.4-.2.5l-.3,1.5-.5,1.4c0,.1,0,.3-.1.4,0,0-.2.9-.3,1.4l-.6,1.3c-.1.2-.2.4-.2.7,0,0-.2,1.2-.3,1.6l-.5,1.5c0,0,0,.2,0,.3,0,0-.4,1.7-.4,1.7,0,0,0,.2,0,.3,0,0-.1,1.1-.1,1.6l-.3,1.5-.4,1.7c0,0,0,.2,0,.3l-.2,1.7c0,.1,0,.3,0,.4v1.4s-.3,1.4-.3,1.4h0c0,.2,0,.5,0,.7v1.6c0,.4-.2,1.6-.2,1.6,0,.8,0,1.7,0,2.5,0,.7,0,1.5,0,2.2,0,1.1,0,2.2,0,3.4v1c0,0,0,1.6,0,1.6h0c0,.2,0,.3,0,.5l.2,1.7c0,.1,0,.3,0,.4l.4,1.6.2,1.6h0c0,.2,0,.4.1.6l.6,1.5c.1.6.4,1.6.6,2l.7,1.5.6,1.5c.1.6,1,1.4,1.5,2,.4.7.8,1.7,1.3,2.1.1,0,2.9,2.5,2.9,2.5l1,.7c-.1.8-.2,1.5-.3,2.2.1,1.7.3,3.8.5,5.5l.4,1.7v-.3s.2,1.7.2,1.7c0,.2.4,1.8.5,2l.5,1.7c.2.6.5,1.2.7,1.8.2.6.4,1.2.6,1.8.3.6.8,1,1.1,1.6.2.6.4,1.3.7,1.9l1.1,1.3h0s1,1,1.3,1.2l1,1.3c.1.2,2.9,2.2,3.2,2.4,1.1.7,2.4,1.4,3.5,2l1.1.7c0,0,.2,0,.2.1l1.5.6,1.5.9s.1,0,.2,0h0s1.7.6,1.7.6c.1,0,1.2.2,1.8.3l1.4.7c.2,0,.3.1.5.1l1.6.2c.7.2,1.3.4,2,.6,2.1.7,4.4,1.2,6.5,1.8.3,0,1.9.3,2.2.3h1.5s1.6.4,1.6.4c.2,0,1.4.1,1.9.2l1.7.3c.2,0,1.3,0,1.8,0l1.6.4c.2,0,.4,0,.6,0h.2s1.4-.1,1.4-.1l1.5.3c0,0,.2,0,.3,0h1.6s1.6.4,1.6.4c.1,0,.2,0,.3,0h2.6v.4l-.4,1.5h0c0,.2-.2,2-.2,2.2l-.2,1.5-1,.3-1.1-.2c-.3,0-.6-.1-.9,0l-1.7.3h-1.4l-1.5-.2h-.2s0,0-.2,0h-3.4c0-.1-1.5-.4-1.5-.4h-.2s0,0,0,0l-1.8-.2h-1.7c0,0-1.4-.5-1.4-.5h-.2c0,0-.2,0-.3,0h-1.6c0,0-1.4-.5-1.4-.5h-.1s0,0,0,0l-2.6-.5c-2.4-.4-5.1-1.1-7.4-1.9l-1.4-.9h0c0,0-.2-.1-.3-.1l-1.7-.5c-.8-.3-2.5-.9-3.3-1.2l-1.5-.6c-.3-.3-1.3-1-1.3-1-.1,0-.2-.2-.4-.2l-1.5-.5-1.3-.9c-1.2-.8-2.6.8-1.5,1.8,0,0,1.4,1.5,1.5,1.5l1.5.8,2.8,1.9,1.2,1.2s0,.1.2.1l1.4,1.1s0,0,0,0l1.5,1,1.5.8,1.4,1c0,0,.1,0,.2.1h0c0,0,1.3.6,1.6.7.3.2,1,.7,1.3.8l1.3,1.1s0,0,.2.1h0s1.5,1,1.5,1c0,0,.1,0,.2,0l1.4.6c.4.4,1.5,1.3,1.7,1.3h0s1.5.5,1.5.5l1.4.9s0,0,0,0h0s1.4.7,1.4.7l1.4,1,1.6,1s0,0,0,0h0s2.4,1.2,2.4,1.2c.8.4,1.7.9,2.5,1.3h0s1.5.6,1.5.6l1.5.8c0,0,.2,0,.3.1h0s1.4.5,1.4.5l1.2.9c0,0,.2.1.3.1h0s.4.2.4.2c-.2.6-.4,1.3-.6,1.8l-.8,1.2c0,.1-.2.3-.2.5l-.4,1.2-.9.9c0,0-.1.2-.2.2,0,0-.7,1-.9,1.3l-.3.4-.3-.2h0s0,0-.2-.1l-1.5-.7-1.4-.9-1.6-1h0c0,0-.2-.1-.2-.2l-1.4-.6c-.8-.7-1.7-1.4-2.6-2-.1-.1-.3-.2-.4-.2l-1.5-.6-1.2-.9c-.7-.5-2.2-1.6-2.9-2l-1.4-1.1h0c0,0,0-.1-.1-.1l-1.5-.9-1.3-.9-1.2-1.1c0,0-.2-.2-.3-.2-.7-.4-2-1.2-2.8-1.7l-1-1.2h0c0,0,0-.1-.1-.2l-1.3-1.2c0,0-.1-.1-.2-.2l-1.5-.9-1.3-1-1.2-1.2c0,0-.2-.1-.3-.2l-1.4-.8c-.3-.3-1.1-1.1-1.1-1.2,0,0-.1-.1-.2-.2l-1.3-.9-1.1-1.2c-1-.9-2.1-1.7-3.2-2.5-1.5-1.1-3.3.8-2.1,2.3,0,0,.9,1.1,1.2,1.4l.8,1.4c.1.2,1.2,1.3,1.4,1.5l1,1.1.8,1.4.9,1.5c0,0,0,.1.2.2,0,0,1,1.2,1.1,1.3.2.2.8,1.1.9,1.3l.9,1.4c0,.1.2.2.3.3h0c0,0,1.1,1,1.1,1l.8,1.2.8,1.4c.2.3.9.9,1.4,1.4.3.5.8,1.6,1,1.8l.9.9.5,1.3c0,.1.2.3.2.4,1.1,1.3,2.2,2.7,3.3,4l.8,1.4c0,0,0,.1.2.2h0s1.2,1.4,1.2,1.4l1,1.1.7,1.3c0,.1.2.3.3.4,0,0,.8.9,1.1,1.2l.8,1.2.8,1.4h0c.2.4.9,1.1,1.3,1.6l.8,1.3h0c0,0,0,.2.2.2-.2.2-.9.8-1.2,1.1-.9.5-1.8.9-2.7,1.4,0,0-.2,0-.2.1l-1.3.9-1.2.7h-.3c0,0-.2-.3-.2-.3h0c0-.2-.2-.4-.3-.5l-1.1-1.1-.6-1.3h0c0,0,0-.2,0-.2l-.9-1.4-.7-1.5h0c0-.2,0-.2-.1-.3l-1-1.4-.8-1.4-.8-1.6c0-.1-.1-.2-.2-.3l-1.1-1.3-.9-1.3-.6-1.4h0c0,0,0-.2,0-.2l-.9-1.5h0c0,0,0-.1,0-.2l-1-1.3c-.2-.4-.7-1.4-.7-1.4-.7-1-1.6-1.9-2.3-2.9l-.6-1.4c0-.1,0-.2-.2-.3l-1-1.4-.9-1.5-1-1.5s0,0,0-.1l-1-1.3-.8-1.4-.9-1.5c0-.1-.1-.2-.2-.3,0,0-.8-.8-1.1-1.1-.5-.9-1.2-2.4-1.7-3.2h0s-.8-1-.8-1c0-.1-.1-.2-.2-.3h0c0,0,0-.2-.1-.2l-1.2-1.3h0c-.5-.6-1.5-.7-2.1-.2-.6.5-.7,1.5-.2,2.1h0c0,0,1,1.2,1,1.2l.8,1.4c0,0,.5,1,.7,1.4l.6,1.6s0,0,0,0h0c0,.1.7,1.5.7,1.5l.6,1.4.4,1.6c0,0,0,.1,0,.2h0c0,0,.4,1.1.6,1.5l.4,1.6c0,0,0,.2.1.3v.2c0,0,.7,1.1.7,1.1,0,.6.2,1.8.4,2,0,0,.4.7.6,1.2,0,.6,0,1.7.2,1.9,0,.1.4,1,.6,1.5l.3,1.6c0,0,0,.2,0,.2v.2c0,0,.6,1.4.6,1.4.4,1.5.9,3.1,1.3,4.6,0,.5.1,1.7.2,1.8h0c0,0,.4,1.6.4,1.6l.3,1.6c0,.2,0,.4.2.5h0s.6,1.6.6,1.6l.5,1.4c.2,1.2.5,2.5.8,3.7h-.7c0,0,0,0,0,0,0,0,0,0-.2,0l-1.6.4h-.9s-.7,0-.7,0c-.2,0-1.1.2-1.7.3l-.4-1.2-.3-1.5v-.2c0,0,0-.2-.1-.3l-.7-1.6-.4-1.4-.2-1.6-.3-1.8h0c0-.2,0-.4-.1-.5l-.7-1.6-.4-1.6-.5-1.5v-1.5c0,0,0-.1,0-.1,0-.1,0-.2,0-.4l-.3-1.1-.2-.6h0c0-.1,0-.2,0-.3l-.5-1.1-.2-.4-.4-1.5c0-.1,0-.2,0-.3l-.7-1.6-.5-1.6h0s0-.1,0-.1l-.6-1.6c0,0,0-.1,0-.2l-.9-1.6-.9-1.5-.7-1.5c0-.1-.2-.3-.3-.4l-1-1.2-.8-1.4c0,0-.1-.2-.2-.3h0s-1.1-1.3-1.1-1.3l-1-1.4c0,0-.1-.2-.2-.3h0c0,0-.3-.3-.3-.3l-.9-.8c-.5-.6-1-1.3-1.5-1.9-.3-.3-.5-.7-.8-1h0c0,0-1.3-1.2-1.3-1.2,0,0,0,0,0,0h-.1c0,0-1.2-.8-1.2-.8l-1-1.2s0,0-.1-.1h-.1c0,0-1.3-1.2-1.3-1.2-.1-.1-1.5-1-1.7-1.1h.1c0,0-1.4-.9-1.4-.9l-1.4-1.1s-.1,0-.2-.1h-.1c0,0-1.2-.8-1.2-.8l-1.2-1c0,0-.1-.1-.2-.2h-.1c-.7-.5-2.1-1.3-3-1.8-.2-.1-.9-.6-1.2-.8l-1.1-1c-.1-.1-.9-.9-.9-.9-1-.9-2.1-2-3.1-2.8h0s-1-.8-1-.8c-.3-.5-.8-1.3-1-1.5-.6-.6-1.7-1.7-2.5-2.4l-.9-1.2-.8-1.3-.7-1.4c-.2-.4-.7-1.7-.9-1.9h0s-.7-1.1-.7-1.1c-.1-.6-.4-1.5-.5-1.7h0s-.6-1.4-.6-1.4l-.3-1.2v-1.5c-.1-.4-.1-1.9-.2-2.2l-.3-1.4v-1.1c0,0,.5-1.4.5-1.4.2-.4.1-1.5.1-2.2l.3-1.2c.6-1.3,1.4-3,1.9-4.4l.8-.8,1-.8,1.1-.5h.5c0-.1,1.1-.4,1.1-.4.2,0,.5-.2.7-.3l1.3-.8c1.1-.3,2.4-.8,3.5-1.2.6-.2,1.4-.4,1.9-.7l1.3-.8,1.4-.6c.6-.3,1.9-.8,2.4-1.4h0l.9-.9c.6-.3,1.4-.8,1.7-1.1h0l1-1c.5-.4,1.4-1,1.7-1.3.2-.2,1.3-1.4,1.4-1.6.2-.3,1.1-1.6,1.2-1.9l.8-1.8c.4-.7.2-2.1.2-3l.2-1.8c.1-.9-.5-2.2-.7-3.1-.1-.5-.8-1.5-1.1-2.1-.2-.3-.5-1.1-.6-1.3l-.6-1.5h0c0-.2-.2-.4-.3-.6l-.9-1.4c-.8-1.3-1.9-3.1-2.6-4.5-.2-.3-.7-1-1-1.3-.7-1-1.5-2.2-2.2-3.3-.1-.2-1.1-1.3-1.3-1.6h0c-.1-.2-1-1-1.3-1.4-.7-.9-1.5-1.8-2.2-2.6-.2-.2-.5-.5-.8-.6-.7-.4-2-1.3-2.8-1.3h-1.3c-.9-.1-2.8-.2-3.8-.2-.3,0-.6,0-1,.1l-1.5.5c-1.1.2-2.2.4-3.3.7l-1.7.5h0c0,0-.2,0-.3.1l-1.5.7-1.5.5h0c-.3.1-1.3.7-1.8,1l-1.5.5c-.3,0-.6.3-.8.5-1.2,1-2.9,2.4-4.1,3.3-.1,0-.3.2-.4.3l-1.2,1.3h0c0,.2-.1.3-.2.3l-.9,1.4c-.2.3-.4.8-.5,1.4-.4,0-.8,0-1-.1l-1.5-.4-1.7-.3-1.4-.6h-.2c-.4-.2-1.5-.3-2.1-.3l-1.3-.5c-.2,0-.5-.2-.7-.2h-1.6l-1.3-.5-1.7-.6h-.2c0,0,0,0,0,0l-1.8-.3h-.2s0,0,0,0h-1.8c0,0-1.5-.3-1.5-.3l-1.5-.5h-.1c0,0-.1,0-.2,0h-1.7c0-.1-1.5-.6-1.5-.6h-.1s0,0,0,0l-1.8-.3h0s0,0,0,0h-1.7s-1.5-.6-1.5-.6c0,0,0,0-.1,0l-1.8-.4h0s-1.8-.3-1.8-.3h-1.8s-1.6-.5-1.6-.5c0,0-.1,0-.2,0h-1.7c-.3-.1-1.7-.4-1.7-.4h-1.8s-1.6-.6-1.6-.6c0,0-.2,0-.2,0h-1.8l-1.6-.2c-.3,0-.6.1-.8.4-.2.4,0,.9.4,1l1.4.7c0,0,.1,0,.2,0l1.6.3c1.9,1.1,3.9,2,5.9,2.8.7.3,1.4.6,2.1.9l1.5.5,1.5.8,1.5.9s0,0,.1,0h.1s1.5.6,1.5.6l1.5.8,1.5.7,1.5.9s0,0,0,0h.1c0,0,1.6.8,1.6.8h.1c0,0,1.4.6,1.4.6l.7.4.8.5c.1,0,.2.1.3.1h.2c0,0,1.3.4,1.3.4l1.3.9c0,0,.2.1.3.2h.2c0,0,1.5.6,1.5.6l1.3.7,1.4.9c0,0,.2.1.3.2h.2c0,0,1.2.5,1.2.5l1.2.9c.2.1.4.2.6.3h.2c0,0,1.4.5,1.4.5l1.2.6,1.3,1c.1,0,.2.1.3.2h.1c0,0,1.6.8,1.6.8,0,0,.2,0,.2,0h.1s1.3.4,1.3.4l1.2.8,1.6.9c.1,0,.3.1.5.2,0,0,0,0,.1,0h0l.6.2.3.6c.1.2.2.4.4.5h0s1.1,1.2,1.1,1.2c.5.7,1.5,2,1.9,2.7.7.9,1.6,1.5,2.4,2.3l2,1.8c.3.3.6.5,1,.6l1.7.5c.1,0,.2,0,.3,0l1.8.3h0c.5,0,.9,0,1.4,0l1.8-.6,1.8-.7h0c.1,0,1.8-1,1.9-1,.1,0,.2-.1.3-.2l1.5-1.1c0,0,.1,0,.2-.2l1.4-1.2,1.4-1.1h0c.3-.2,1.4-1.4,1.6-1.7l1.2-1.4h0c.3-.4.9-1.7,1.1-2.2h0c0,0,0-.1,0-.2l.7-1.7c.2-.6.3-1.2,0-1.8l-1.1-3.5h0c0-.3-.2-.5-.3-.7l-1-1.4-.8-1.5h0c-.8-1.2-1.9-2.2-2.9-3.2-.3-.3-.6-.5-1-.7l-1.8-.6c-.4-.2-.9-.2-1.4,0l-1.7.4-1.6.2c-.4,0-.8.2-1.1.5l-1.2.9-1.1.4h-.1c-.8.2-1.4,1.4-1.9,2.1l-1,.9h-.1c-.2.3-.4.6-.5.9l-1,3.1c-.1.4-.2.8,0,1.2l.5,1.6c0,.2.1.5.3.7l1,1.3c.1.2.2.3.4.4l1.3,1c.2.2.4.3.6.3l1.6.4c.3,0,.6.1.9,0l1.6-.4h.2c0,0,.1,0,.2-.1l1.4-.8h.1c.4-.2,1.1-1.5,1.4-1.9,1.1-1.6-1.1-3.4-2.5-1.9l-.8.9-.9.4-1,.2-.8-.3-.8-.7-.5-.8v-.6c-.1,0,.6-1.9.6-1.9l.9-.7c.2-.2.5-.6.8-1,.5-.1,1.1-.3,1.5-.6h.1c0,0,1-.8,1-.8h1.3c0-.1.1-.1.2-.2h.1s1-.2,1-.2l.5.2c.6.7,1.2,1.3,1.8,2l.7,1.4c0,0,0,.1,0,.2h0c0,0,.8,1.3.8,1.3l.3.9.4,1.3-.3.7-.6,1.2-.9,1-1.1,1.1c-.8.6-2.1,1.6-2.8,2.2l-1.3.9-1.4.7c-.7.3-1.7.6-2.5.9l-.9-.2-1-.3c-1-.9-2.3-2.1-3.3-3-.6-.8-1.4-2-1.9-2.7,0,0-.1-.2-.2-.3l-1-1-.7-1.3h0c-.4-.7-1-1.1-1.7-1.3l-1.5-.4c-.8-.4-2-1.1-2.7-1.5-.5-.3-1.5-.5-2.2-.6l-1.2-.5-1.2-.8h-.1c0-.1-.1-.2-.2-.2l-1.6-.7h-.1c0,0-.1-.1-.2-.1l-1.4-.4-1.1-.7c-.2-.1-.4-.3-.7-.3l-1.5-.4-1.2-.7c-.3-.2-1.8-.7-2.1-.8,0,0,0,0,0,0l-1.6-.4-1.2-.7c-.2-.1-.4-.2-.6-.2l-1.6-.2-1.2-.6h-.2c0,0,0-.1-.1-.1l-1.7-.5h.1c0,0-1.6-.5-1.6-.5l-1.4-.7h-.1c0,0,0,0,0,0l-1.6-.6-1.6-.7h-.1c0,0,0,0,0,0l-1.7-.4c-.8-.4-2.2-1-3-1.4h0s-.1,0-.1,0l-1.7-.4c-1.3-.5-3.3-1.1-5.1-1.9h.5s1.7.4,1.7.4c0,0,0,0,.1,0h1.7c0,0,1.6.7,1.6.7,0,0,.1,0,.2,0h1.8c0,0,1.6.4,1.6.4h.4c0,.1,1.2.5,1.2.5h.3c0,.1,1.3.7,1.3.7,0,0,.1,0,.2,0h.5c0,0,1.2.2,1.2.2l1.6.4,1.7.6s0,0,.1,0h.1s1.5.3,1.5.3l1.5.7s0,0,0,0h.1s1.7.5,1.7.5h.2s1.6.2,1.6.2l1.5.4,1.6.7,1.6.8c.1,0,.3.1.4.1h.2s1.3.2,1.3.2l1.4.7c.1,0,.3.1.4.1h.2s1.3.3,1.3.3l1.4.7c0,0,.2,0,.2,0h.2c0,0,1.6.5,1.6.5l1.6.6s.1,0,.1,0h.2s1.4.3,1.4.3l1.5.7c.2,0,.4.2.7.2,1.2.2,2.4-.6,2.8-1.7,0-.1,0-.2,0-.3,0,0,.1-.9.2-1.4l.3-1,.6-.8,1-.9c1.3-.9,2.6-1.9,3.9-2.9l1.3-.4c.1,0,.3,0,.4-.2h0s1.3-.7,1.3-.7l1.5-.5c0,0,.1,0,.2,0h0s1.5-.6,1.5-.6l1.4-.4c1.1-.2,2.3-.4,3.4-.7l1.1-.3c1.1,0,2.5,0,3.7.2l.5.3c.7.8,1.4,1.7,2.1,2.5l.3.3.8.8.9,1.2c.2.2.7,1,.7,1,.6,1,1.5,2.3,2.2,3.2.4.8,1.3,2.3,1.7,3l.9,1.6.8,1.2.5,1.4c0,0,0,.1,0,.2h0s.7,1.6.7,1.6c0,.1.1.2.2.3l.7,1.2.3.9v1.3c-.1.1-.1.2-.1.3v1.3s-.4,1-.4,1l-.7,1-.8.9-1.1.8c-.2.2-.9.8-1.3,1.2l-1.1.7h0c-.4.2-1,.9-1.5,1.4-.8.4-1.8.9-2.5,1.2-.2,0-1,.6-1.5.9-1.5.5-3.1,1.1-4.6,1.6-.4,0-1.2.7-1.8,1l-1.4.4h0c-.4,0-1.7.8-2.1,1-.5.2-1.6,1.2-2.1,1.7-.2.2-1.3,1.5-1.5,1.7-.2.2-.4.6-.5.9-.3.7-.7,1.8-1,2.4l-1.1,2.5h0c-.1.3-.5,1.9-.6,2.1-.2.4-.1,1.5,0,2.2l-.4,1.3h0c-.1.5-.2,2-.2,2.5,0,.5.2,1.7.4,2.3,0,1.1.1,2.8.3,3.8l.4,1.7h0c0,.4.6,1.5.8,2l.4,1.5h0c.1.6.9,1.6,1.2,2.1l.6,1.4h0s0,.1,0,.2l.9,1.6h0c0,0,0,.2.1.2l1,1.6,1.1,1.5h0c0,.1.2.3.3.4l1.3,1.2,1.1,1,.8,1.2h0c.3.6,1.5,1.2,2,1.6,1.3,1.1,2.7,2.2,3.9,3.4l1.4,1.1h.1c.3.3,1.5,1.1,1.9,1.2.7.3,2.1,1,2.9,1.4l1.2.9h.1c0,.2.2.2.3.3l1.5.7c.8.6,2.1,1.4,2.9,1.9,0,0,1.2.6,1.5.8l1.2.9,1.1,1.1h.1c.2.3,1.4,1,1.8,1.2l1.2.9,2.1,2.5c.1.2,1,.9,1.4,1.2l.9,1.2h0c0,0,0,.1,0,.2l1.1,1.2.8,1.4h0c0,.2.9,1,1.2,1.4l.6,1.4h0c0,.2.9,1.5,1,1.7l.8,1.4.6,1.5.5,1.6s0,0,0,.1h0s.6,1.5.6,1.5l.3,1.6c0,.1,0,.2.1.4l.6,1.5.3,1.3v1.6c0,.5.4,1.6.5,2.2l.4,1.7s0,.1,0,.1h0c0,.1.5,1.5.5,1.5l.2,1.5v1.7c.1,0,.1,0,.1.1v.2s.4,1.7.4,1.7c0,0,0,0,0,.1h0c0,.1.5,1.6.5,1.6l.2,1.6s0,0,0,.1v.2s.4,1.5.4,1.5c0,.6.1,1.5.2,2,.2,1.4,1.6,2.3,2.9,1.9h.1s1.6-.4,1.6-.4l1.5-.2h1.8c.4,0,1.6-.2,2.2-.4h1.6c0-.1,1.8-.1,1.8-.1,1.7,0,3-1.6,2.7-3.2h0c0,0-.3-1.9-.3-1.9l-.4-1.7-.7-3.4h0c0-.1,0-.2,0-.4l-.6-1.7-.6-1.4-.2-1.4h0c0,0,0-.2,0-.2l-.4-1.5-.2-1.5h0c-.3-1.5-.9-2.9-1.4-4.2l-.4-1.2v-.2s0,0,0-.1l-.7-1.5-.4-1.4v-.2c0,0,0-.1-.1-.2l-.7-1.3h0c0,0,1.1,1.3,1.1,1.3l.7,1.5c.1.2.8,1.2,1.1,1.6l.8,1.4.6,1.6c0,.1,0,.2.2.3l1,1.5,1,1.3c.4.9,1.1,2.4,1.5,3.2h0c0,0,.9,1.4.9,1.4l.7,1.5c0,0,0,.1,0,.2,0-.1.6,1.1.8,1.4l.7,1.5c0,.2.2.3.3.5l.9,1.1.5,1.4c.2.5.7.9,1.2,1.1.5.2,1.2.4,1.8.2l1.7-.4c.2,0,.4-.1.5-.2l1.5-.9,1.3-.9c1-.5,2-.9,2.9-1.4.2,0,.3-.2.5-.3l1.1-1,1.3-.8c.4-.3.8-.7.9-1.2h0s.3-1,.3-1c.2-.7,0-1.5-.5-2h0s-1-1.1-1-1.1l-.8-1.3c0,0-.1-.2-.2-.3l-1-1.1-.7-1.3c0,0,0-.2-.2-.2l-1-1.4c0,0-.1-.2-.2-.2l-1-1.1-.7-1.3h0c0-.2-.2-.3-.3-.4l-1.2-1.2-1-1.2-.8-1.3h0c-1.1-1.4-2.3-2.6-3.4-4l-.6-1.3h0c0-.3-.2-.5-.4-.6l-1.1-1-.7-1.2h0c0-.2-.2-.4-.4-.5l-1.2-1-.8-1.2-1-1.4h0c0-.2-1-1-1.5-1.3l-.4-.6c.4.2.8.5,1.1.7l1.1,1,1.1,1.3c0,.1.2.2.4.3.7.5,2,1.4,2.8,1.9l1.1,1.1c0,0,.1,0,.2.1l1.4,1.1s0,0,.1,0c0,0,1.1.7,1.4.9,1.2,1,2.9,2.3,4.2,3.2l1.4,1.1c0,0,.2.1.3.2h0s1.4.7,1.4.7c1,.8,2,1.8,3,2.4l1.5.6,1.3.9,1.4,1c.2.2,1.3.7,1.7.9l1.5.9c.6.4,1.3.4,2,.1.5-.3,1.3-.5,1.6-1l1-1.3s0,0,0-.1c0,0,.6-.9.9-1.3l1.1-1.2c.2-.2.4-.5.5-.8l.4-1.4.7-1.2h0c0-.2.2-.3.2-.5l.5-1.6.5-1.6h0c.1-.4.1-.9,0-1.3l-.3-.7h0c-.2-.5-.6-.9-1.1-1.2l-1.5-.6-1.3-.9h0c-.2-.1-.3-.2-.5-.3l-1.6-.4-1.4-.7h0c0,0-.1,0-.2-.1l-1.6-.5c-1.3-.6-3.5-1.6-4.8-2.1l-1.4-.8-1.5-.9h0c0,0-.1-.1-.2-.1l-1.6-.7-1.4-.8c-.1,0-.2-.1-.4-.2l-1.5-.4-1.2-.9c-.1,0-.2-.1-.3-.2l-1.6-.6-1.4-.8-1.3-1h0s0,0-.1-.1l-1.5-.9h0s0,0-.1,0l-1.4-.6,1,.3c2.4.9,5.2,1.5,7.7,2.2l1.6.6c0,0,.2,0,.3,0h.1s1.5.2,1.5.2l1.5.6c.1,0,.3,0,.4,0l1.7.2,1.5.3,1.7.5s0,0,.2,0h.2s1.8.3,1.8.3h1.5c0,.1,1.7.6,1.7.6,0,0,.1,0,.2,0s1.9.1,2,.2c.3,0,1.1,0,1.7-.1l1.4.4c.3.1.7,0,1.1,0l1.3-.2,1.5.2c0,0,.2,0,.2,0,1.4,0,2.6-1,2.7-2.5v-1.8c0,0,.4-1.8.4-1.8l.3-1.7.5-1.7c0-.2,0-.4,0-.6,0-1.2,0-2.8,0-4-.1-1.6-1.5-2.7-3-2.6h-1.6c-1.1.1-2.1.1-3.2.1l-1.5-.2h-.2c-.1,0-.3,0-.4,0h-1.7c0,0-1.5,0-1.5,0h-.2c-.2,0-.3,0-.5,0l-1.5.2-1.3-.2h-.2c0,0-.2,0-.3,0h-1.7c0,0-1.5-.1-1.5-.1h-.2s-1.8,0-1.8,0l-1.5-.2h-.2c0,0-.2,0-.3,0h-1.8c0,0-1.6,0-1.6,0-1.1-.2-4.4-.6-6.3-1.1-.8-.2-1.7-.4-2.5-.5h-1.6c0,0-1.3-.6-1.3-.6h0c-.1,0-.2-.1-.4-.1l-1.7-.2-1.4-.4-1.4-.8h0s0,0-.2-.1l-1.6-.5c-1.1-.6-2.3-1.2-3.4-1.8l-1.1-.6c-.9-.6-1.7-1.3-2.6-1.9l-1-1.2s0-.1-.1-.1l-1.2-1.1-.8-1.1c-.2-.6-.2-1.2-.5-1.8-.3-.4-.5-.9-.8-1.3-.2-1-.5-2.4-.7-3.3v.2c0-.8-.2-2.6-.2-3.4v.3s.2-1.7.2-1.7c0-.2-.1-1.8-.1-2.1v.3c.1-1.4.3-3.3.4-4.8,0-.2,0-.4.1-.6.6,0,1.2.1,1.5.1,1.7,0,3.3,0,5,0l1.5.2h0c.5,0,1.6-.1,2.2-.2h1.6s0,0,0,0c.5,0,1.5-.3,2.2-.5h1.4c.3,0,1.3-.2,1.9-.3.6,0,1.8.1,2.2,0,1.4-.3,3.6-.8,5.1-.9.3,0,1.3-.4,1.9-.5l1.5-.2h0c.3,0,1.3-.4,1.9-.6l1.5-.2h0c.4,0,1.8-.5,2.2-.6l1.7-.6,1.7-.5,1.5-.6,1.5-.3h0c.3,0,1.7-.5,2-.6.3,0,1.2-.5,1.7-.8l1.4-.3c1.2-.4,2.4-1.1,3.7-1.5.4-.2,1.2-.7,1.7-1.1l1.3-.5,1.6-.5c.3,0,.6-.2.8-.4l1-.8,1.2-.4c.6-.2,1.6-1,2.2-1.4l1.3-1c.3-.2,1.1-.6,1.3-.8.4-.2,1.5-.7,1.5-.7.5-.2,1.2-1,1.8-1.5l1.3-.8,1.5-1c.2-.2,1.3-1.1,1.6-1.4l1.3-1.2c0,0,.2-.2.2-.2l1-1.2,1.2-1.1c0,0,.1-.1.2-.2.6-.6,1.6-1.8,2.2-2.6.4-.3,1.2-1,1.2-1,.4-.4,1.1-1.4,1.4-1.9l1-1.3c.2-.3.7-1.3,1-1.8l.9-1.2c0-.1.2-.3.3-.4.4-.8,1.2-2.3,1.7-3,0,0,1.5-3.5,1.5-3.6.6-1.4,0-3-1.5-3.6h-.1s0,0,0,0ZM567.9,66.9l-.8,1.4-.7,1.4-.9,1.2c-.1.1-.2.3-.3.5l-.5,1-.2.4-1,1.2-.9,1.2-1.1.9c-.1,0-.2.2-.3.3l-1.1,1.3-1,1.2-1.2,1.1c0,0-.2.2-.3.3,0,0-.8.9-1,1.2l-1.1,1.1-1.2,1-1.3.9-1.4.9c-.2,0-.3.2-.5.4l-1,.9-1.2.6c0,0-.1,0-.2.1l-1.5.9c0,0-.2,0-.2.2-.5.4-1.8,1.3-2.5,1.8l-1.3.4c-.3,0-.6.2-.8.4l-1,.8-1.3.4-1.7.7c-.2,0-.4.2-.6.3l-1.2.9c-.9.4-1.8.8-2.8,1.2-.7.2-1.2.2-2,.6l-1.4.7-1.3.4c-.7.1-1.1.1-2,.4l-1.6.6-1.7.5-1.7.6-1.4.4c-.6,0-1.4,0-2,.3,0,0-1,.3-1.5.5l-1.5.2c-.1,0-.3,0-.4,0l-1.5.4c-1.4.2-3.4.6-4.8.9h-1.4c-.2,0-.4,0-.6,0l-1.5.2c-.7,0-1.8,0-2.3.1,0,0-.8.2-1.3.4-.6,0-1.4,0-1.7,0,0,0-.9.1-1.4.2-.6,0-1.5-.2-1.8-.2-1.3,0-2.6,0-3.9,0-.4,0-.8,0-1.2,0h-.3s0-.4,0-.4l.8-2.9.7-1.5.6-1.5c.4-.8,1.1-2.1,1.5-2.8,0-.2.4-.9.7-1.4.5-.5,1.2-1.3,1.4-1.8h0s.4-.9.4-.9c.5-.4,1.1-.9,1.3-1.2,0,0,.7-1,1-1.3.6-.6,1.5-1.7,2.1-2.3.8-.7,1.6-1.4,2.3-2.2.8-.6,2.1-1.5,2.8-2,0,0,.8-.7,1.2-1.1l1.2-.7c.2-.1,1.4-.9,1.7-1.2.1,0,.2-.2.4-.3l1-.9,1-.5c.5-.2,1.7-.6,1.9-.7l1.5-.8h0c.2-.2.9-.7,1.4-1,1.5-.6,2.9-1.1,4.4-1.6.2,0,.4-.2.6-.3l1.2-.7,1.2-.3h0c0,0,.1,0,.2,0l1.5-.6,1.5-.4h0c.3,0,1.3-.5,1.8-.8l1.2-.3h1.5c0,0,0,0,0,0,.3,0,.7,0,1-.2l1.2-.5h1.2c0,0,0,0,0,0,.1,0,.2,0,.3,0,0,0,1.2-.3,1.6-.3l1.6-.2h0c.2,0,.4,0,.7-.2l1.3-.5h1.3c0-.1,0-.1,0-.1.1,0,1.2-.2,1.7-.3,1,0,2.6,0,3.4,0,.2,0,1.5-.2,1.9-.2.8,0,2,0,2.7,0,1,0,1.9,0,2.9.2,1.5.2,3,.2,4.4.4l1.5.2h0c.3,0,1.2,0,1.8,0l1.3.4h0c.2,0,.3,0,.5,0l1.5.2h.2c0,.2-.1.4-.2.6h0Z"/>
  </g>
</svg>