<?xml version="1.0" encoding="UTF-8"?>
<svg id="Layer_1" xmlns="http://www.w3.org/2000/svg" version="1.1" viewBox="0 0 939 339.67">
  <!-- Generator: Adobe Illustrator 30.1.0, SVG Export Plug-In . SVG Version: 2.1.1 Build 136)  -->
  <defs>
    <style>
      .st0 {
        fill: #4097ce;
      }

      .st1 {
        fill: #0072bc;
      }

      .st2, .st3 {
        fill: none;
      }

      .st3 {
        stroke: #0072bc;
        stroke-miterlimit: 10;
      }

      .st4 {
        fill: #f7e904;
      }
    </style>
  </defs>
  <path class="st2" d="M346.63,176.75v-.27c-.14.23-.18.36-.18.41.05,0,.09-.05.18-.14Z"/>
  <path class="st2" d="M346.36,182.47v.05c.09,0,.18.14.27.14v-.23s-.09-.09-.14-.09c-.09,0-.14.05-.14.14h.01Z"/>
  <path class="st2" d="M387.85,161.2s0,.04.05.09v-.09h-.05Z"/>
  <path class="st2" d="M346.49,182.06v-.14c-.14-.04-.14-.14-.14-.18v-.09s0-.05.04-.09v-.04h-.04c-.14,0-.14-.14-.14-.27.05-.05.09-.09.09-.14h-.09c-.09,0-.14.04-.14.09v.32c.09.41.18.59.32.59.09,0,.12,0,.09-.04h.01Z"/>
  <path class="st2" d="M794.79,238.27c0,2.55,1.59,4.57,5.21,4.57,4.78,0,9.03-5.21,9.03-9.67v-.85h-1.7c-5.85,0-12.54,1.59-12.54,5.95h-.01,0Z"/>
  <path class="st2" d="M398.06,115.36c-.14,0-.51.28-1.16.79-.33.24-.64.51-1.02.79-.42.24-2.32,2.32-3.11,3.25-.93,1.26-2.41,3.43-3.85,5.7-.97,1.48-1.81,2.83-3.29,5.43-.24.42-.55,1.11-1.06,2.04-1.06,1.86-2.18,3.94-2.5,4.82l-.69,1.15,1.26-1.15c.42-.51.93-1.11,1.62-1.9.42-.42.79-.84,1.11-1.26,3.29-3.62,6.08-7.19,8.26-10.68,1.53-2.37,2.5-4.09,3.01-5.15.09-.51.42-.75.42-.75.04,0,.09,0,.09-.05h.05l-.05-.04s-.05-.04-.09-.04c0-.24.04-.24.04-.24l.09.09h.09s.05-.04.05-.14c-.05,0-.05-.04-.05-.09v-.14c.05-.18.14-.37.18-.6.42-1.06.65-1.62.65-1.81,0-.12-.02-.13-.05-.04v.02h0Z"/>
  <path class="st2" d="M346.22,180.84v-.45l-.09-.05s-.05,0-.05.05v.14c0,.14,0,.23.05.27v.09s.04,0,.09-.05Z"/>
  <path class="st2" d="M589.99,214.89c-6.69,0-12.44,5.21-12.44,13.5s5.74,13.18,12.44,13.18,12.44-5,12.44-13.18-5.74-13.5-12.44-13.5h0Z"/>
  <path class="st2" d="M523.64,161.2c6.69,0,12.44-5,12.44-13.18s-5.74-13.5-12.44-13.5-12.44,5.21-12.44,13.5,5.74,13.18,12.44,13.18h0Z"/>
  <path class="st2" d="M663.71,161.3c5.74,0,10.73-4.68,10.73-13.07s-4.35-13.5-10.73-13.5c-5.53,0-10.73,4.04-10.73,13.5,0,6.59,3.51,13.07,10.73,13.07h0Z"/>
  <path class="st2" d="M359.57,239.65h-.14s.09.05.14.05v-.05Z"/>
  <path class="st2" d="M379.12,223.48c.09,0,.28-.05.51-.14.33-.14.79-.33,1.3-.65,2.5-1.48,4.22-3.07,5.15-4.69.37-.6.69-1.26.88-1.67l.09-.33h-.04s-.28.09-.6.33c-.79.51-1.86,1.3-2.46,1.81-1.26,1.06-2.92,2.83-3.85,3.99-.18.18-.42.55-.6.88l-.42.42s0,.05.05.05h0Z"/>
  <path class="st2" d="M381.73,126.63h-.09s.04.05.09.05v-.05Z"/>
  <path class="st2" d="M346.36,177.34c-.14.14-.14.41-.14.54v.27l.14-.27v-.54Z"/>
  <path class="st2" d="M354.07,174.03c.09,0,.27-.05.5-.14.32-.14.77-.32,1.27-.64,2.45-1.45,4.13-3,5.04-4.59.36-.59.68-1.23.86-1.63l.09-.32h-.04s-.27.09-.59.32c-.77.5-1.82,1.27-2.41,1.77-1.23,1.04-2.86,2.77-3.77,3.91-.18.18-.41.54-.59.86l-.41.41s0,.05.05.05h0Z"/>
  <path class="st2" d="M346.17,178.66c.04-.09.04-.18.04-.23,0-.14,0-.18-.04-.18l-.09.18s-.05.23-.09.36c0,.14-.04.23-.04.36v.54l.14-.54c0-.18.05-.36.09-.5h-.01Z"/>
  <path class="st2" d="M825.66,88.11s0,.02,0,.01h0Z"/>
  <path class="st2" d="M845.17,189.27l-.22-.51c-.08,0-.16.03-.25.04l.53,1.1c.03.06.05.12.07.18l.02.08.17.58v-.12l-.35-1.37h.02v.02h0Z"/>
  <path class="st2" d="M856.07,170.07s.03.03.04.05c-.03-.04-.05-.06-.04-.05Z"/>
  <path class="st2" d="M818.29,152.25l.08.04-.08-.04Z"/>
  <path class="st2" d="M907.78,103.06l.03-.02s-.04.02-.03.02Z"/>
  <path class="st2" d="M867.24,163.71h.01s-.02,0-.01,0Z"/>
  <polygon class="st2" points="818.54 152.39 818.54 152.39 818.54 152.38 818.54 152.39 818.54 152.39"/>
  <path class="st2" d="M834.19,169.62l-2.06-2.37c.51.64,1,1.31,1.52,1.94l.9.81v-.03c-.18-.15-.33-.29-.36-.34h0Z"/>
  <path class="st2" d="M922.72,82.04h-.03l-1.21-.4-1.4-.14c-.14-.01-.29-.04-.43-.08h-.03l-1.28-.37c-.56,0-1.42.03-1.7-.02h-.03l-1.41-.22c-1.39-.24-2.8-.24-4.21-.38-.92-.11-1.84-.12-2.76-.14-.68,0-1.83.02-2.61.06-.39.06-1.6.22-1.82.25-.83.05-2.34.07-3.27.07-.47.08-1.48.27-1.61.27h-.05l-1.26.1-1.26.47c-.2.08-.42.13-.62.15h-.06l-1.5.17c-.34.07-1.57.33-1.52.33-.1.02-.21.04-.32.05h-.06l-1.16.09-1.12.5c-.32.14-.63.21-.96.24h-.06l-1.41.07-1.14.27c-.52.22-1.4.63-1.73.71h-.06l-1.45.37-1.45.52s-.11.04-.16.05h-.05l-1.2.35-1.11.68c-.19.12-.4.21-.6.28-1.44.48-2.81.99-4.22,1.54-.45.34-1.13.86-1.35.97l-.05.03-1.46.81c-.15.1-1.33.52-1.82.71l-.95.49-.95.88c-.11.1-.24.19-.36.29-.28.19-1.41.97-1.65,1.1l-1.19.64c-.39.35-1.07.95-1.15,1-.65.5-1.89,1.42-2.64,1.94-.75.68-1.49,1.37-2.24,2.04-.56.59-1.49,1.62-2.02,2.24-.22.3-.92,1.23-.93,1.24-.17.26-.78.76-1.26,1.14l-.39.86v.03c-.17.45-.87,1.18-1.35,1.68-.22.49-.54,1.19-.62,1.33-.4.63-1.09,1.88-1.47,2.63l-.57,1.46-.54,1.18c1.33-.01,2.66-.02,3.98-.05.32-.02,1.29.14,1.89.24.52-.06,1.4-.17,1.4-.17.31-.04,1.16,0,1.75,0,.52-.15,1.32-.4,1.32-.4.57-.19,1.68-.11,2.38-.11l1.58-.25c.19-.03.4-.04.59-.03l1.47.07c1.46-.29,3.48-.69,4.91-.88l1.52-.44c.13-.04.29-.07.42-.09l1.54-.2c.47-.15,1.48-.47,1.48-.47.69-.18,1.44-.2,2.09-.29l1.4-.4,1.69-.6,1.73-.49s1.6-.57,1.61-.57c.91-.25,1.36-.27,2.07-.4l1.34-.41,1.43-.69c.88-.35,1.36-.39,2.09-.57.93-.41,1.87-.81,2.81-1.21l1.25-.88c.19-.14.43-.26.64-.34l1.76-.66,1.32-.43,1.06-.81c.26-.19.53-.34.82-.44l1.36-.46c.76-.52,1.98-1.39,2.54-1.81.08-.06.17-.11.26-.16l1.55-.9c.06-.04.14-.07.2-.11l1.23-.58.98-.93c.14-.13.31-.27.47-.37l1.47-.91,1.31-.9,1.21-1.03,1.14-1.07c.28-.33,1.06-1.26,1.06-1.26.08-.09.17-.19.27-.28l1.23-1.1,1.06-1.18,1.11-1.34c.1-.12.22-.25.34-.35l1.12-.96.89-1.23.97-1.24.18-.37h-.01v-.02h.01Z"/>
  <path class="st2" d="M748.9,74.67l-.32-.13-1.27-.37c.47.2.74.32.82.34.07.02.41.09.77.17h0Z"/>
  <g>
    <rect class="st0" x="421.54" y="179.6" width="15.41" height="14.88"/>
    <path class="st0" d="M438.56,237.85v-29.23c0-5.42-2.34-7.76-7.76-7.76h-17v15.41h4.04c1.49,0,2.34.85,2.34,2.34v29.23c0,5.42,2.34,7.76,7.76,7.76h17v-15.41h-4.04c-1.49,0-2.34-.85-2.34-2.34h0Z"/>
    <path class="st0" d="M510.4,237.85v-17.75c0-15.41-8.6-20.51-19.66-20.51-9.67,0-14.78,5.21-17.32,9.46h-.21s.1-.75.1-1.28v-.75c0-3.72-2.66-6.16-7.65-6.16h-16.37v15.41h4.04c1.49,0,2.34.85,2.34,2.34v36.98h18.38v-24.23c0-2.66.32-5.1,1.06-7.22,1.59-4.68,5.1-7.87,10.84-7.87,4.04,0,6.06,2.13,6.06,7.22v24.34c0,5.42,2.34,7.76,7.76,7.76h17v-15.41h-4.04c-1.49,0-2.34-.85-2.34-2.34h.01,0Z"/>
    <path class="st0" d="M526.97,199.58v1.28h-6.69v14.35h6.69v40.38h18.38v-40.38h10.1v-14.35h-10.1v-.75c0-4.68,5.63-5.31,9.25-5.31,1.7,0,2.97.21,2.97.21v-15.51s-2.23-.32-5.53-.32c-8.82,0-25.09,2.44-25.09,20.41h.02Z"/>
    <path class="st0" d="M589.89,199.58c-17.11,0-30.82,11.59-30.82,28.8s13.71,28.48,30.92,28.48,30.92-11.37,30.92-28.48-13.71-28.8-31.03-28.8h.01ZM589.99,241.56c-6.69,0-12.44-5-12.44-13.18s5.74-13.5,12.44-13.5,12.44,5.21,12.44,13.5-5.74,13.18-12.44,13.18Z"/>
    <path class="st0" d="M649.62,213.51h-.21s.21-1.06.21-2.76v-2.87c0-5-2.77-7.01-7.76-7.01h-16.26v15.41h4.04c1.49,0,2.34.85,2.34,2.34v36.98h18.38v-20.72c0-2.97.32-5.42.96-7.44,2.66-8.19,9.78-9.56,14.13-9.56,2.23,0,3.72.32,3.72.32v-18.07s-1.06-.21-2.13-.21c-8.19,0-15.09,6.16-17.43,13.6h.01Z"/>
    <path class="st0" d="M765.13,237.85v-17.75c0-15.09-7.76-20.51-17.75-20.51-8.19,0-14.66,4.68-17.54,9.25h-.21c-2.87-6.16-8.4-9.25-15.31-9.25-8.6,0-13.5,5.63-16.05,9.46h-.21s.1-.75.1-1.28v-.75c0-3.72-2.66-6.16-7.65-6.16h-16.47v15.41h4.04c1.49,0,2.34.85,2.34,2.34v36.98h18.38v-22.63c0-2.34.32-4.57.75-6.59,1.28-5.85,4.35-10.1,9.78-10.1,3.51,0,4.25,2.87,4.25,6.91v32.41h18.38v-22.63c0-2.23.21-4.25.63-6.16,1.16-6.06,4.35-10.53,9.88-10.53,3.51,0,4.25,2.87,4.25,6.91v24.66c0,5.42,2.34,7.76,7.76,7.76h17v-15.41h-4.04c-1.49,0-2.34-.85-2.34-2.34h.03,0Z"/>
    <path class="st0" d="M829.54,240.18c-1.49,0-2.34-.85-2.34-2.34v-15.94c0-12.54-6.27-22.32-25.4-22.32-6.27,0-21.79.63-21.79,12.86v6.06h17v-2.44c0-2.13,2.44-2.66,4.78-2.66,4.57,0,7.01,1.91,7.01,7.12v.63h-.75c-8.5,0-31.78,1.81-31.78,18.07,0,10.84,8.4,17.64,18.6,17.64,11.48,0,15.31-7.97,15.31-7.97h.21v.96c0,2.44,1.91,5.74,7.22,5.74h15.94v-15.41h-4.04.03ZM809.02,233.17c0,4.47-4.25,9.67-9.03,9.67-3.62,0-5.21-2.02-5.21-4.57,0-4.35,6.69-5.95,12.54-5.95h1.7v.85h.01,0Z"/>
    <path class="st0" d="M400.34,227.01c0-.18-.09-.42-.28-.6-.14-.13-.28-.28-.28-.42s-.55-.69-.69-.69c-.33,0-.28-.04-.28-.28,0-.51-.37-.6-.75-.65-.18-.04-.37-.09-.42-.24,0-.14-.14-.14-.28-.14-.88,0-1.21.42-1.62,1.02-.24.33-.55.69-.97,1.11-1.26,1.3-2.88,2.74-4.82,4.36-1.99,1.62-4,3.07-6.08,4.22-2.04,1.15-3.85,1.72-5.48,1.72h-.14c-.33.05-.65.05-.88.05-.51,0-.93-.09-1.15-.47l-.28-.75c-.18-.79-.28-1.67-.28-2.69v-1.26c0-.69.24-1.67.75-2.92.04-.18.18-.37.24-.42l.04-.04v.04h.05l.05-.04s.04-.05.04-.09c.04-.04.09-.04.14-.04s.14,0,.28.04c.09.04.24.09.42.14.18.14.46.28.65.33l.09.09c.14.18.28.18.42.18s.28,0,.42-.18c0,.18.14.18.28.18,0-.14.28-.18.79-.18h.37c1.11,0,1.67-.14,2.83-.69,1.06-.46,2.74-1.39,2.74-1.57h.04c.14,0,1.62-1.02,2.78-2.27,1.39-1.35,2.37-2.83,2.97-4.46.33-.88.51-1.72.51-2.46,0-.6-.09-1.15-.33-1.67-.97-1.95-2.27-3.43-3.85-4.4-.37-.14-.88-.24-1.48-.28h-.37c-.42,0-.88.04-1.3.14-2.55.69-5.43,2.74-8.54,6.12-1.62,1.85-3.07,4.04-4.15,6.2-.25.12-.51.38-.77.8-.6.93-1.44,2.04-2.5,3.29-1.06,1.26-1.99,2.28-2.78,2.97-1.53,1.57-3.11,2.97-4.82,4.22s-3.07,1.99-4.04,2.23h-.55v-.75c0-.97.28-2.27.84-3.85.37-1.15,1.11-2.97,1.81-4.59.24-.6.46-1.11.65-1.53.65-1.57,3.67-7.38,4.4-8.73.84-1.53,3.62-6.41,4.27-7.56.14-.14.33-.37.46-.69.05-.04.14-.18.28-.42.14-.24.33-.55.55-.88l.69-.97h8.86c1.35,0,1.62.09,1.72.09.06,0,.09,0,.09.04h.04s.18,0,.33.05c.33,0,.75.09,1.11.09.69,0,1.15.09,1.67.14.24.04.46.09.75.14.24.04.37.09.46.09.14,0,.24-.04.28-.09,0-.05.04-.14.04-.14v-.09l.05-.04s0-.04.05-.09v-.18h.14l.09-.09s-.04-.04-.09-.04v-.04s0-.14.14-.28c.05,0,.14-.18.14-.42v-.28c0-.33,0-.55.14-.55v-.42c0-.18.14-.33.28-.33v-.13l-.14-.14c-.24-.14-.33-.24-.33-.33v-.04s.04-.14.18-.18h.04v-.04s0-.14-.18-.24c-.04-.04-.09-.13-.09-.24s.05-.18.09-.33c.04-.09.04-.18.04-.24,0-.6-.6-.93-1.76-1.06-.24-.04-.42-.13-.6-.18-1.21-.33-1.48-.37-5.39-.37h-4.46l.33-.33c0-.24.42-.98.97-1.72.55-.93.69-1.3.69-1.67v-.55h-.09s-.05,0-.05-.04c0-.14-.09-.28-.28-.42-.14-.14-.28-.28-.28-.42l-.05-.09c-.04-.14-.09-.28-.24-.51-.14-.13-.28-.42-.28-.55v-.04l-.09-.04h-.09v-.04h-.09c-.18,0-.28,0-.46-.14,0-.33-.09-.28-.28-.28-.14,0-.28,0-.42-.13-.14-.33-.33-.42-.55-.6-.05-.04-.14-.04-.24-.04-.24,0-.51.04-1.21.93-.33.42-.88,1.02-1.3,1.44-.14.24-.28.42-.37.55l-.18.28h.04v.05s-.14.09-.18.09c-.04.04-.09.09-.09.14h.18c0,.18-.37.88-1.06,2.04l-.18.28c-1.15,1.77-1.06,1.86-1.72,1.99h-9.75c-2.27,0-3.2,0-3.25.14-.03.09-.05.12-.05.09,0-.05.05.05.18.05.24,0,.37.04.42.09,0,.04-.09.09-.24.18h-.46s-.04.04-.04.09c0,.13.09.33.33.33.37,0,.75.47.75.55s-.05.14-.09.14-.14-.04-.18-.14c-.33,0-.28.09-.28.09v.09h.05l.04.05s.14.09.18.09h.14l.14.14s0,.09-.05.09l-.09-.09h-.09s-.04.04-.04.09v.05l-.09.09h-.09s-.04.04-.09.04c-.24,0-.46.18-.51.37-.03.12-.05.15-.05.09,0-.09.05.04.09.09l.09.09-.05.04h-.04c0,.18.14.42.28.6.33.14.33.24.33.42-.04.04-.09.09-.09.13,0,.09.28.84.64.84.14,0,.28.14.42.42.05.04.09.14.14.18.14.14.24.28.28.28h.46c.24.13.42.13,2.46.13h4.82l-.18.37c-.14.24-.28.55-.42.88-2.27,3.94-3.43,6.03-3.43,6.17h.14v.05s-.09,0-.14-.05c-.14,0-.84,1.48-2.83,5.43-1.67,3.11-3.39,6.82-4.13,9-.14.51-.33,1.06-.55,1.72-.24.79-.46,1.48-.46,1.53v.75c-.14.97-.14,1.57-.14,2.14.18.75.79,1.9,1.15,2.27.09,0,.05.09.14.09v.04l-.09.09.05.04h.04c.14,0,.69.55,1.26,1.15.93.93,1.39,1.3,2.74,1.72.42.14.84.28.97.42.04.13.09.24.14.24s.14-.09.18-.24l.09-.09s.04.09.04.24v.09s.05.04.14.04v-.37s.09.04.14.09c.18.18.64.24,1.06.24.18,0,.33-.04.37-.09v-.09l.05-.04s.09.09.09.13v.09s.05.04.14.04v-.14h-.04s.04-.04.09-.04h.14s.04,0,.09.04c.05,0,.14,0,.18-.04.09-.04.18-.09.24-.09.14-.09.28-.14.33-.14s.09.04.09.14h.14s0-.05.04-.09l.04-.04h.05l.05-.04c.09,0,.33-.09.42-.09.14-.04.24-.09.33-.14h.09s1.72-.84,2.14-1.15c.33-.14.93-.51,1.44-.84.6-.42.93-.75,1.44-1.11.28-.24.65-.51,1.11-.88.4-.36,1.4-1.28,2.46-2.3,0,.07.03.13.04.2.04.24.09.42.14.64.24.75.51,1.06.93,1.62l.24.24c.42.33.93.93,1.26,1.44.24.14.42.28.6.42.24.18.42.33.55.42.14.18.55.42.97.55.18.05.37.14.51.24.24.13.46.24.65.24l1.16.42c.42.14,1.02.28,1.26.28.24.04.46.04.75.04h.6c.28,0,.75-.04,1.39-.18.18,0,.33-.09.47-.14h.33c1.35,0,3.11-.55,5.29-1.72,2.14-1.11,4.27-2.5,6.41-4.18s3.8-3.2,4.97-4.64c.69-.88,1.06-1.53,1.06-2.04,0-.33-.14-.55-.42-.69l-.09-.05h0l.07.02h0ZM379.5,223.02c.18-.33.42-.69.6-.88.93-1.15,2.6-2.92,3.85-3.99.6-.51,1.67-1.3,2.46-1.81.33-.24.55-.33.6-.33h.04l-.09.33c-.18.42-.51,1.06-.88,1.67-.93,1.62-2.65,3.2-5.15,4.69-.51.33-.97.51-1.3.65-.24.09-.42.14-.51.14-.06,0-.08-.02-.05-.05l.42-.42h0Z"/>
  </g>
  <g>
    <path class="st4" d="M926.04,75.92l-1.5-.15c-.15-.02-.31-.04-.46-.08h-.03l-1.36-.39c-.6,0-1.52.03-1.81-.02h-.03l-1.5-.24c-1.49-.25-2.99-.25-4.51-.4-.98-.11-1.97-.13-2.95-.15-.75,0-1.97.03-2.8.07-.43.06-1.71.24-1.94.26-.89.05-2.5.08-3.49.08-.5.08-1.59.29-1.73.29h-.06l-1.34.11-1.34.51c-.22.08-.45.13-.67.16h-.06l-1.61.18c-.36.08-1.69.35-1.63.35-.11.02-.22.04-.35.05h-.07l-1.25.09-1.21.53c-.34.14-.68.22-1.03.25h-.06l-1.51.08-1.23.29c-.55.24-1.5.68-1.85.76l-.07.02-1.54.38-1.55.56c-.06.02-.11.04-.17.05l-.06.02-1.28.36-1.19.73c-.2.13-.42.22-.64.3-1.54.51-3.01,1.06-4.52,1.66-.48.36-1.21.92-1.43,1.03l-.05.03-1.56.86c-.16.1-1.42.56-1.95.76l-1.02.52-1.01.94c-.12.11-.25.21-.38.31-.3.2-1.51,1.04-1.77,1.19l-1.27.68c-.42.37-1.14,1.01-1.24,1.07-.69.53-2.02,1.52-2.82,2.07-.8.74-1.59,1.47-2.4,2.2-.6.63-1.59,1.75-2.17,2.39-.24.32-.99,1.31-.99,1.32-.18.28-.83.81-1.35,1.23l-.41.92v.03c-.18.48-.93,1.26-1.44,1.8-.24.53-.57,1.28-.66,1.42-.42.68-1.18,2.02-1.58,2.81l-.61,1.56-.69,1.5-.85,2.93-.04.35.32.03c.4,0,.8-.01,1.2-.02l.54-1.18.57-1.46c.38-.74,1.08-1.98,1.47-2.63.09-.14.4-.84.62-1.33.47-.51,1.18-1.23,1.33-1.68v-.03l.4-.86c.49-.39,1.09-.88,1.26-1.14,0,0,.71-.93.93-1.24.53-.6,1.46-1.64,2.02-2.24.76-.67,1.5-1.36,2.24-2.04.75-.52,1.98-1.44,2.64-1.94.08-.05.77-.66,1.15-1l1.19-.64c.24-.13,1.37-.91,1.65-1.1.12-.08.25-.17.36-.29l.95-.88.95-.49c.49-.18,1.67-.6,1.82-.71l1.46-.81.05-.03c.21-.11.9-.64,1.35-.97,1.41-.55,2.77-1.06,4.22-1.54.21-.07.41-.16.6-.28l1.11-.68,1.2-.33h.05s.11-.05.16-.07l1.45-.52,1.45-.35h.06c.33-.09,1.21-.5,1.73-.73l1.14-.27,1.41-.07h.06c.33-.02.64-.09.96-.24l1.12-.5,1.16-.08h.06c.1-.01.21-.03.32-.05-.05,0,1.19-.25,1.52-.33l1.5-.17h.06c.21-.03.42-.08.62-.16l1.26-.47,1.26-.1h.05c.13,0,1.14-.19,1.61-.28.93,0,2.44-.02,3.27-.07.22-.01,1.43-.18,1.82-.25.78-.04,1.92-.06,2.61-.06.92.01,1.84.03,2.76.14,1.41.14,2.82.14,4.21.38l1.41.21h.03c.28.06,1.13.03,1.7.03l1.28.36h.03c.14.05.29.07.43.09l1.4.14,1.21.39h.03l.5-.98c.08-.17.19-.34.31-.48l.96-1.23.75-1.41.83-1.44c.07-.16.13-.33.2-.49l-.22-.07h-.04Z"/>
    <path class="st4" d="M785.35,82.81l.9-.86c1.36-.91,2.77-1.95,4.07-2.96l1.36-.44c.13-.04.28-.1.41-.17l.05-.03,1.38-.72,1.55-.47c.07-.02.13-.04.2-.07l.05-.02,1.54-.62,1.5-.41c1.21-.21,2.43-.4,3.63-.66l1.02-.29c.6.1,1.35.15,2.2.06.45-.05.86-.13,1.21-.24,1.3.09,2.61.18,3.9.28l-.3-.31c-.74-.85-1.43-1.74-2.16-2.6l-.52-.32c-1.21-.1-2.59-.14-3.76-.2l-1.12.33c-1.16.27-2.35.45-3.52.67l-1.45.41-1.5.63-.05.02c-.06.03-.13.05-.19.07l-1.51.47-1.34.73-.05.03c-.12.07-.27.12-.4.17l-1.32.44c-1.27,1.01-2.63,2.05-3.95,2.97l-.98.97-.61.84-.35.98c-.08.52-.21,1.42-.22,1.47-.02.12-.06.24-.09.36h0c.12-.09.3-.27.43-.54v.02h-.01Z"/>
    <path class="st4" d="M800.49,98.35c.74-.64,2.08-1.72,2.86-2.3l1.14-1.11.94-1.06.64-1.24.33-.76-.39-1.37c-.11.15-.27.36-.66.82-.22.25-.6.66-1.11,1.14-.54.5-.58.47-1.41,1.18-.76.64-.76.71-1.38,1.22-.4.32-.76.61-1.28.95-.63.41-1.16.66-1.39.77-.6.28-.53.17-1.23.49-.78.35-.93.49-1.35.51-.24,0-.46-.04-.9-.14-.38-.08-.77-.2-.99-.29-.74-.29-1.04-.79-1.74-1.49-.98-1-.99-.62-1.72-1.43-.74-.82-1.24-1.76-2.05-2.69-.13-.14-.25-.27-.25-.27-.68-.73-.77-.64-1.07-1.03-.02-.02-.28-.44-.8-1.27-.02-.04-.03-.04-.03-.05-.08-.13-.4-.6-.98-.93-.1-.05-.28-.15-.78-.3-.75-.21-1.32-.3-1.49-.32-1.27-.19-1.23-.92-2.85-1.49-.64-.22-.68-.12-2.25-.57-.82-.24-1.05-.34-1.29-.46-.37-.19-1.15-.68-1.27-.76,0,0-.06-.04-.13-.08-.06-.04-.1-.05-.11-.06-.06-.03-.1-.04-.12-.05-.46-.18-1.49-.58-1.67-.65-.06-.03-.09-.04-.15-.06-.03-.01-.06-.02-.1-.03,0,0-.05-.01-.1-.03-.21-.05-.94-.13-1.44-.33-.3-.12-.57-.31-1.11-.69-.04-.03-.15-.11-.33-.19-.16-.08-.31-.11-.36-.13-.44-.11-1.29-.3-1.58-.38-.49-.13-.26-.18-1.28-.63-.97-.43-1.87-.68-2.17-.77-.01,0-.02,0-.04-.01-.99-.28-1.12-.18-1.6-.35-.45-.15-.94-.44-1.28-.64-.03-.02-.14-.09-.31-.14-.15-.05-.28-.08-.34-.08-.6-.1-1.08-.04-1.63-.2,0,0-.3-.09-1.3-.57-.02,0-.07-.03-.18-.08,0,0-.03-.01-.06-.02-.03-.01-.05-.02-.06-.02-.12-.03-1.75-.45-1.75-.43l.12.04s-.8-.16-1.68-.55c-.41-.18-1.37-.64-1.46-.69,0,0-.07-.04-.14-.07h-.02c-.1-.04-1.25-.41-1.66-.55-.21-.07-.45-.16-.67-.26l-.45-.04h-.07c-.08-.01-.16-.04-.24-.07l-1.36-.57c-.36-.08-.69-.15-.77-.17s-.35-.13-.82-.34l-.4-.11-1.69-.33-1.76-.05h-.03c-.08,0-.16-.02-.24-.04l-1.65-.58-1.71-.08s-.09,0-.13-.02l-1.73-.37-.51-.02c1.88.78,3.88,1.45,5.25,1.94l1.76.4s.11.03.15.05l.08.04c.77.39,2.2,1.05,3.06,1.43l1.7.43s.06.02.08.03l.13.06,1.6.69,1.65.6h.02l.14.08,1.44.74,1.67.6-.12-.05,1.74.48s.08.03.12.04l.17.08,1.28.6,1.62.26c.24.03.44.14.64.26l1.26.67,1.59.4s.03,0,.04.01c.35.14,1.83.64,2.14.84l1.26.67,1.57.43c.25.06.48.2.68.34l1.09.73,1.43.37c.07.02.13.04.2.07l.15.07,1.65.71c.08.03.16.07.24.12l.13.08,1.24.79,1.27.49c.64.16,1.77.37,2.23.63.71.42,1.94,1.11,2.8,1.57l1.48.37c.75.18,1.36.66,1.72,1.28l.03.05.76,1.29,1.04,1.06c.08.09.16.18.24.28.5.67,1.41,1.92,1.97,2.75,1.02.87,2.32,2.07,3.36,3.02l.98.32.9.16c.85-.29,1.92-.66,2.61-.92l1.41-.73,1.31-.91h.02l.04-.03h0Z"/>
    <path class="st4" d="M836.35,94.14l-.07,1.54.17,1.33c.14.52.47,1.62.5,1.87l.24,1.47c.18.48.52,1.39.52,1.4.07.18.33,1.22.47,1.76.21.46.64,1.35.64,1.36.04.08.07.16.1.24l.43,1.14c.36.39.84.9.84.9.3.28.73,1.15,1.04,1.78l.84.73c.3-1.11.72-2.68.79-2.78l.03-.06.15-.36c-.13-.29-.25-.53-.34-.72-.08-.38-.28-1.07-.49-1.76-.16-.51-.36-1.05-.49-1.38-.04-.33-.13-.91-.27-1.48-.05-.22-.12-.49-.27-1.02-.07-.26-.15-.59-.22-.82-.03-.31-.11-.97-.17-1.35.02-.33.05-.94.04-1.54v-.31c-.02-1.5-.14-3.64-.15-5.42-.01-1.38.03-2.58.05-3.09.04-.21.15-1.09.19-2.08.02-.55.01-1.02,0-1.44.06-.24.14-.56.2-.89.12-.57.18-.85.19-1.24,0-.17,0-.12-.01-.91v-.64c.03-.24.09-.69.16-1.32.09-.09.42-.63.79-3.54.1-.78.18-1.62.21-1.98.08-.35.26-1.2.31-1.49.04-.14.11-.36.2-.65.21-.66.21-.64.28-.86s.07-.29.22-1.01c.06-.3.11-.5.14-.66.2-.42.53-1.13.63-1.33v-.02c.08-.13.12-.25.14-.33.06-.19.09-.35.09-.35.15-.71.3-1.3.35-1.58.11-.3.3-.82.53-1.42v-.03c.18-.47.21-.85.26-1.09.05-.38.11-.67.15-.87.1-.28.28-.75.53-1.3.36-.78.47-.84.74-1.52.07-.19.17-.48.36-1.05.07-.2.12-.38.17-.53.29-.37.65-.86.79-1,0,0,.01,0,.02-.02.04-.05.12-.15.2-.3.13-.21.21-.42.21-.42.66-1.6.66-1.59.72-1.74.24-.65.44-1.2.54-1.5.16-.27.43-.74.6-1.06.24-.24.62-.68.99-1.21.29-.42.47-.76.64-1.09.2-.38.4-.79.5-1.02.26-.36.73-1.02,1.35-1.82.74-.94.82-.93,1.68-2.03.45-.57.95-1.25,1.09-1.44.17-.2.57-.65,1.07-1.22.03-.03.05-.06.08-.09-.03-.17-.06-.34-.1-.51l-.5-1.6c-.03-.1-.05-.19-.07-.3v-.07l-.26-1.45-.39-1c-.11.08-.22.17-.34.26-.49.36-1.33.99-1.93,1.43-.71.78-1.41,1.56-2.11,2.36l-1.06,1.41c-1,1.1-2.18,2.68-3.09,3.92-.31.66-.69,1.61-1.08,2.04l-.99,1.14-.6,1.08-.54,1.54-.72,1.74c-.11.27-.26.5-.42.72l-.02.02-.8.97c-.16.58-.38,1.33-.52,1.6l-.74,1.52-.53,1.31c-.11.61-.27,1.6-.41,1.96v.03l-.56,1.46-.33,1.54c-.05.24-.12.46-.22.66v.02l-.65,1.3c-.11.56-.3,1.48-.37,1.69,0,0-.37,1.15-.5,1.56l-.31,1.45c-.05.54-.13,1.7-.2,1.97-.18.85-.54,2.48-.78,3.41l-.18,1.4c0,.47.02,1.59.02,1.59.03.37-.26,1.48-.42,2.14,0,.52.02,1.43.02,1.43.02.18-.13,1.46-.19,1.96,0,1.03-.01,2.21-.05,3.21.06,1.79.02,3.64.15,5.42v.31h.05l.05.02h0Z"/>
    <path class="st4" d="M852.78,203.85c-.02-.06-.04-.11-.05-.13-.1-.26-.54-1.37-.66-1.64-.1-.39-.33-1.22-.41-1.46-.03-.33-.11-.96-.24-1.62-.1-.62-.31-1.65-.33-1.84,0,0,0-.07-.03-.14,0-.04-.02-.1-.04-.17-.02-.08-.05-.14-.06-.16-.15-.35-.57-1.37-.71-1.62-.09-.34-.3-1.03-.46-1.57-.18-.62-.39-1.29-.5-1.58-.02-.49-.08-1.34-.08-1.51v-.1s0-.1-.02-.18c-.01-.09-.03-.15-.04-.18-.06-.21-.5-1.62-.53-1.74,0,0-.01-.04-.02-.08,0-.02-.02-.05-.03-.09-.02-.05-.03-.08-.04-.09-.08-.16-.53-1.16-.72-1.52-.1-.44-.35-1.35-.39-1.53,0,0-.01-.07-.04-.13-.02-.07-.04-.11-.05-.13-.3-.74-.58-1.44-.67-1.62-.11-.37-.48-1.55-.49-1.62v-.03s0-.03-.02-.05c0-.02-.02-.04-.02-.05,0-.02-.6-1.55-.65-1.69,0,0-.02-.05-.04-.1-.02-.05-.04-.09-.05-.1-.54-1-.49-.95-.89-1.62-.34-.58-.75-1.26-.9-1.49-.09-.22-.41-.9-.72-1.56-.02-.04-.06-.12-.12-.22-.07-.11-.13-.18-.15-.2-.28-.32-.81-.95-1.06-1.24-.16-.33-.62-1.08-.81-1.42-.01-.02-.04-.07-.09-.14-.04-.06-.09-.12-.1-.13-.01-.02-.03-.03-.03-.03-.1-.11-.84-.97-1.09-1.26-.09-.15-.43-.61-.99-1.42-.02-.03-.05-.08-.11-.14-.01,0-.06-.06-.13-.13-.03-.02-.05-.04-.05-.05-.13-.11-.92-.84-1.23-1.1-.19-.22-.63-.72-1.09-1.4,0,0-.67-1.02-1.22-1.51h0l-.07-.06s-.38-.33-1.37-1.15c0,0-.02-.02-.04-.03-.02-.02-.04-.03-.05-.03-.05-.03-.07-.05-.1-.06-.09-.05-.77-.53-1.19-.81-.27-.33-.95-1.06-1.07-1.22l-.06-.06s-.04-.04-.07-.06c-.04-.04-.06-.06-.11-.09-.14-.11-.79-.73-1.37-1.16-.06-.05-.33-.21-.86-.56-.25-.15-.59-.38-.77-.49-.03-.03-.65-.44-1.41-1.04,0,0-.42-.34-1.39-1.08-.01,0-.04-.03-.08-.06-.03-.02-.06-.04-.09-.05-.06-.03-.09-.05-.15-.08-.13-.07-.81-.46-1.23-.69-.27-.26-1-.86-1.25-1.07-.02,0-.05-.05-.11-.09-.05-.04-.09-.06-.12-.08-.06-.04-.13-.08-.13-.08h0s-.73-.45-1.58-.94c-.43-.25-.79-.44-1.06-.59-.17-.09-.29-.15-.37-.2-.2-.14-.89-.62-1.22-.85-.16-.15-.93-.81-1.22-1.04-.06-.07-.2-.2-.43-.43-.24-.24-.49-.49-.49-.49,0,0-.73-.67-1.57-1.48-.5-.48-.98-.93-1.65-1.41-.45-.32-.47-.33-.06-.04-.43-.32-.75-.54-.96-.71-.11-.16-.26-.38-.43-.61-.34-.47-.5-.71-.68-.94-.34-.41-.49-.52-1.34-1.32-.58-.55-.97-.94-1.19-1.13-.18-.24-.51-.64-.88-1.18-.37-.52-.65-1-.81-1.26-.08-.17-.67-1.31-.81-1.54-.08-.17-.24-.5-.39-.91-.11-.29-.22-.6-.48-1l-.02-.03c-.34-.52-.59-.93-.76-1.2-.05-.16-.1-.37-.15-.61-.05-.24-.12-.59-.32-1.06v-.03c-.28-.62-.46-1.07-.58-1.35-.06-.38-.24-1.13-.32-1.43-.03-.31-.07-.82-.09-1.45-.02-.51,0-.6-.03-1.14-.01-.31-.03-.68-.08-1.12-.06-.52-.15-1.05-.22-1.4.03-.31.06-.73.07-1.04.12-.32.3-.89.41-1.51.08-.47.1-.84.13-1.35.02-.29.03-.64.03-.91.1-.34.24-.84.31-1.14.19-.36.66-1.29,1.07-2.42.46-1.26.5-1.81.98-2.44l-.49.13-1.11.52-1,.84-.78.86c-.57,1.41-1.38,3.17-1.98,4.5l-.34,1.18c0,.73.07,1.79-.11,2.25l-.45,1.46-.08,1.08.28,1.39c.09.37.08,1.87.1,2.27l.09,1.56.28,1.28.61,1.39v.03c.1.19.36,1.14.51,1.74l.74,1.12.02.03c.15.19.69,1.53.89,1.96l.75,1.43.86,1.33.89,1.2c.73.68,1.89,1.81,2.5,2.44.21.17.72.99,1.06,1.52l1.01.74.06.04c1.09.88,2.22,1.92,3.22,2.89,0,0,.81.81.95.95l1.16,1c.31.21,1.01.71,1.24.86.85.46,2.29,1.29,3.02,1.75l.13.08c.08.05.16.11.24.17l1.22,1.06,1.27.69.15.08c.06.03.12.07.17.11l1.39,1.08,1.41,1.05-.13-.08c.19.14,1.61,1,1.76,1.13l1.37,1.16.11.09s.09.08.13.13l1.04,1.22,1.22.81.1.06s.06.04.09.07l1.37,1.15.08.07c.29.33.55.67.82,1.01l2.06,2.37c.04.05.18.18.36.34v.03l.29.26.05.05c.09.08.17.17.24.27l.98,1.41,1.1,1.26.03.03c.07.08.14.18.19.28l.8,1.43,1.07,1.23c.11.13.21.28.28.43l.71,1.56.91,1.49.89,1.62c.04.07.07.13.09.2l.65,1.69s.02.07.03.1v.03l.5,1.64.67,1.61c.04.09.06.17.08.28l.38,1.55.19.4c.08,0,.16-.03.25-.04l.22.51.35,1.37v.12l.35,1.14c.04.12.06.25.06.37v.1l.07,1.54.52,1.55.45,1.58.71,1.6c.05.11.08.22.1.34l.03.14.33,1.84.21,1.62.41,1.46.67,1.64c.04.08.06.17.08.27l.03.17.32,1.55.42,1.25c.6-.11,1.56-.31,1.76-.29l.66-.03c.03-.25.05-.44.06-.56,0,0,.28-2.56.08-3.91-.02-.15-.07-.31-.07-.31h0v-.13h0ZM818.29,152.25l.08.04c-.07-.04-.08-.04-.08-.04ZM818.54,152.38h0Z"/>
  </g>
  <g>
    <path class="st1" d="M456.27,158.97c-11.16,0-20.41-10.1-20.41-22.53,0-13.82,8.93-20.94,19.98-20.94,4.88,0,11.69,1.7,11.69,6.06v4.15h17v-9.99c0-14.25-20.09-17.75-29.12-17.75-22.63,0-39.32,16.69-39.32,38.47s15.84,40.07,39.85,40.07c20.19,0,31.67-13.6,31.67-13.6l-9.67-13.6s-8.4,9.67-21.68,9.67h.01,0Z"/>
    <path class="st1" d="M523.54,119.22c-17.11,0-30.82,11.59-30.82,28.81s13.71,28.48,30.92,28.48,30.92-11.37,30.92-28.48-13.71-28.81-31.03-28.81h.01ZM523.64,161.2c-6.69,0-12.44-5-12.44-13.18s5.74-13.5,12.44-13.5,12.44,5.21,12.44,13.5-5.74,13.18-12.44,13.18h0Z"/>
    <path class="st1" d="M582.84,157.48v-50.48c0-5.42-2.34-7.76-7.76-7.76h-17v15.41h4.04c1.49,0,2.34.85,2.34,2.34v50.48c0,5.42,2.34,7.76,7.76,7.76h17v-15.41h-4.04c-1.49,0-2.34-.85-2.34-2.34h0Z"/>
    <path class="st1" d="M618.44,157.48v-29.23c0-5.42-2.34-7.76-7.76-7.76h-17v15.41h4.04c1.49,0,2.34.85,2.34,2.34v29.23c0,5.42,2.34,7.76,7.76,7.76h17v-15.41h-4.04c-1.49,0-2.34-.85-2.34-2.34h0Z"/>
    <rect class="st1" x="601.44" y="99.23" width="15.41" height="14.88"/>
    <path class="st1" d="M668.29,119.22c-9.67,0-14.78,5.31-14.78,5.31h-.21s.21-1.91.21-4.68v-12.86c0-5.42-2.34-7.76-7.76-7.76h-17v15.41h4.04c1.49,0,2.34.85,2.34,2.34v58.24h17.22v-1.28c0-1.7-.1-3.09-.1-3.09h.21s4.88,5.63,14.99,5.63c14.56,0,25.51-11.26,25.51-28.59s-9.78-28.69-24.66-28.69h-.01s0,.02,0,.02ZM663.71,161.3c-7.22,0-10.73-6.48-10.73-13.07,0-9.46,5.21-13.5,10.73-13.5,6.38,0,10.73,5.31,10.73,13.5s-5,13.07-10.73,13.07h0Z"/>
    <path class="st1" d="M721.63,133.14h-.21s.21-1.06.21-2.76v-2.87c0-5-2.77-7.02-7.76-7.02h-16.26v15.41h4.04c1.49,0,2.34.85,2.34,2.34v36.98h18.38v-20.72c0-2.97.32-5.42.96-7.44,2.66-8.19,9.78-9.56,14.13-9.56,2.23,0,3.72.32,3.72.32v-18.07s-1.06-.21-2.13-.21c-8.19,0-15.09,6.16-17.43,13.6h.01Z"/>
    <polygon class="st1" points="773.2 107.03 761.86 100.71 754.04 115.18 766.8 115.18 773.2 107.03"/>
    <path class="st1" d="M770.83,157.48v-29.23c0-5.42-2.34-7.76-7.76-7.76h-17v15.41h4.04c1.49,0,2.34.85,2.34,2.34v29.23c0,5.42,2.34,7.76,7.76,7.76h17v-15.41h-4.04c-1.49,0-2.34-.85-2.34-2.34h0Z"/>
    <path class="st1" d="M399.32,110.06c-.46-.24-.97-.33-1.53-.33-.93,0-1.99.28-3.16.88-2.55,1.35-5.8,4.6-8.44,8.45-.18.33-.42.6-.46.79l-.09.18v.14c-.33,0-1.39,1.9-2.04,3.07-.14.33-.24.55-.24.6v.09l-.04.04s-.09-.04-.09-.09l-.09.09c-.04.09-.14.24-.24.37-.14.14-.51.69-.84,1.26-.33.42-.42.88-.42,1.02h.09v.05s-.05,0-.09-.05c-.24,0-1.11,1.72-1.67,2.78-.14.33-.18.51-.18.6v.04c0,.09-.05.14-.14.14h-.04c-.14,0-.28.28-.46.69-.12.28-.14.3-.05.05v.04h-.04v.09s-.04,0-.04.05c-.05.04-.05.09-.09.14v.09h-.04v.09h-.04v.05c-.05.14-.05.24-.05.33v.09l-.05-.04s-.37.18-.37.42v.33s-.04-.05-.09-.05-.05,0-.09.05l-.14.14s-.05.09-.09.14c-.04.09-.09.18-.14.33-.18.37-.42.84-.75,1.39-.14.33-.24.55-.28.79l-.14.37v.14s-.09-.09-.14-.09h-.04v.04s0,.09.04.18v.14l-.09-.04-.05.09s-.05.09-.05.18v.05s0,.09.05.14v.05h-.09s-.04,0-.04-.05c-.09,0-.14.05-.18.18v.14s0,.14.04.24h-.18s-.14.09-.14.24v.09s0,.09.05.14h-.14s-.09,0-.09.04l.05.09v.14s-.09.05-.14.18c-.05.05-.05.09-.05.14s0,.14.05.24h-.14c-.09,0-.6.93-.79,1.67-.05.14-.05.28-.05.37v.14s0,.04-.05.04-.09-.04-.09-.09c-.14,0-.55,1.11-.84,1.86-.04.14-.04.28-.04.37v.18s-.04.04-.14.04-.28.84-.28.97c-.14,0-.33.55-.55,1.72-.09.33-.18.6-.33.93-.11.49-.22.82-.34,1.05-.42.16-.67.48-.96.9-.24.33-.55.69-.97,1.11-1.26,1.3-2.88,2.74-4.82,4.36-1.99,1.62-4,3.07-6.08,4.22-2.04,1.16-3.85,1.72-5.48,1.72h-.14c-.33.05-.65.05-.88.05-.51,0-.93-.09-1.15-.47l-.28-.75c-.18-.79-.28-1.67-.28-2.69v-1.26c0-.69.24-1.67.75-2.92.04-.18.18-.37.24-.42l.04-.04v.04h.05l.05-.04s.04-.05.04-.09c.04-.04.09-.04.14-.04s.14,0,.28.04c.09.05.24.09.42.14.18.14.46.28.65.33l.09.09c.14.18.28.18.42.18s.28,0,.42-.18c0,.18.14.18.28.18,0-.14.28-.18.79-.18h.37c1.11,0,1.67-.14,2.83-.69,1.06-.46,2.74-1.39,2.74-1.57h.04c.14,0,1.62-1.02,2.78-2.27,1.39-1.35,2.37-2.83,2.97-4.46.33-.88.51-1.72.51-2.46,0-.6-.09-1.16-.33-1.67-.97-1.95-2.27-3.43-3.85-4.4-.37-.14-.88-.24-1.48-.28h-.37c-.42,0-.88.05-1.3.14-2.55.69-5.43,2.74-8.54,6.12-2.97,3.38-5.39,7.89-5.99,11.41-.04.33-.09.69-.09,1.16v.79c0,.42.09.88.24,1.35v.75s.04.09.09.14c.05.04.05.14.18.14l.05.04v.04s0,.05-.05.05c0,.14,0,.37.14.69h-.14c.05.24.09.42.14.65.04.24.09.42.14.64.24.75.51,1.06.93,1.62l.24.24c.42.33.93.93,1.26,1.44.24.14.42.28.6.42.24.18.42.33.55.42.14.18.55.42.97.55.18.05.37.14.51.24.24.14.46.24.65.24l1.16.42c.42.14,1.02.28,1.26.28.24.04.46.04.75.04h.6c.28,0,.75-.04,1.39-.18.18,0,.33-.09.47-.14h.33c1.35,0,3.11-.55,5.29-1.72,2.14-1.11,4.27-2.5,6.41-4.18.47-.37.91-.73,1.34-1.08v.11c.18.51.55,1.67.88,2.28.28.46.97,1.3,1.11,1.3.09,0,.24.05.37.18.09.09.24.18.37.24.79,1.02,1.77,1.72,2.83,2.14.14,0,.28,0,.28.18.51.14,1.86.55,2.6.55.97,0,2.32-.14,2.69-.28h.69c.14,0,.28,0,.33-.05.03-.03.05-.05.05-.05l-.05-.04h.69c.09-.09.24-.14.37-.18.09-.04.18-.09.33-.14h.14c0-.14.14-.14.33-.14.24,0,.37-.05.47-.14.09-.09.14-.18.14-.28,0-.04,0-.09-.05-.14v-.09s.09.04.14.09.09.09.14.09.09-.04.14-.09l.09-.09s.14-.04.18-.04c.33-.09,1.06-.51,1.35-.79.05-.05.09-.14.09-.18v-.05s-.05-.04-.05-.09h.05v.09h.18s.09-.04.09-.14.05-.05.14-.14c.14,0,.18-.09.79-.47.14-.14.37-.33.65-.51.33-.42.55-.6.69-.6,0-.14.24-.42.75-.84,1.3-1.16,2.83-2.69,4-3.85.93-1.11,1.77-2.08,2.55-2.88.37-.42.75-.84,1.15-1.26.6-.55.97-.93,1.11-1.16.04-.05.04-.14.04-.18,0-.14-.09-.18-.33-.24l-.09-.09s-.09-.05-.09-.09,0-.04.05-.09l-.09-.09c-.28-.18-.69-.51-.88-.51l-.14-.14c0-.09-.05-.14-.14-.14v.04h-.04s-.09-.04-.09-.18c-.04,0-.09,0-.09-.04h-.05l-.05-.04s0-.05-.14-.05c-.05,0-.14,0-.18-.05-.05-.04-.14-.09-.24-.09,0-.14-.09-.18-.24-.18h-.04s-.09,0-.14.04c-.14,0-.28,0-.28-.14h-.42c-.09.05-.18.05-.28.05h-.14s-.18-.05-.33-.18c-.04-.05-.04-.09-.09-.09l-.05-.04s-.18,0-.42.14c-.42.18-1.44,1.21-3.01,3.11-.42.51-1.26,1.39-1.99,2.32-.42.42-.84.88-1.26,1.3-.33.33-.55.6-.75.84-.75.97-2.08,2.08-3.07,2.88-.18.14-.37.28-.51.42-.6.42-1.44.79-2.41,1.06-1.02.33-1.76.46-2.27.46-1.15-.04-2.37-.6-2.88-2.14-.28-.88-.46-1.62-.51-2.32v-.46c0-1.11.28-2.55,1.26-5.75,0-.09,0-.18.05-.24.18-.79.28-.93.64-.93.14-.05.24-.09.28-.09s.14.04.14.09h.09v-.05s.04,0,.04-.04v-.09l.09-.09h.28c.51,0,1.95-.37,2.37-.69.09,0,.28-.14.51-.37.14-.09.28-.24.46-.37.6-.37,1.11-.79,1.53-1.21.18-.14.37-.33.6-.51l.6-.55c.09,0,4.18-4.13,5.11-5.29.18-.24.42-.51.75-.84.24-.33.46-.6.69-.88.24-.28.47-.51.65-.75.24-.18.37-.33.37-.37.51-.6,2.41-3.01,3.11-4.18.24-.28.46-.51.6-.75.28-.33.46-.55.55-.65.28-.51,2.87-4.46,2.87-4.6v-.14h.14l.14-.14c0-.14.09-.51.42-1.02.51-.88,1.06-1.99,1.57-3.34.51-1.3.88-2.37,1.11-3.2.05-.51.09-.93.09-1.3,0-.6-.09-1.06-.24-1.44-.75-1.86-2.37-3.76-4-4.69h-.02.02ZM354.63,146.63c.18-.33.42-.69.6-.88.93-1.16,2.6-2.92,3.85-4,.6-.51,1.67-1.3,2.46-1.81.33-.24.55-.33.6-.33h.04l-.09.33c-.18.42-.51,1.06-.88,1.67-.93,1.62-2.65,3.2-5.15,4.69-.51.33-.97.51-1.3.65-.24.09-.42.14-.51.14-.06,0-.08-.02-.05-.05l.42-.42h0ZM346.23,151.04c0-.14,0-.42.14-.55v.55l-.14.28v-.28ZM345.95,152.89v-.55c0-.14.04-.24.04-.37.04-.14.09-.33.09-.37l.09-.18s.04.04.04.18c0,.04,0,.14-.04.24-.04.14-.09.33-.09.51l-.14.55h.01ZM346.09,153.73v-.14s0-.05.05-.05l.09.05v.46s-.04.05-.09.05v-.09s-.05-.14-.05-.28h0ZM346.09,154.75v-.33s.05-.09.14-.09h.09s-.05.09-.09.14c0,.14,0,.28.14.28h.04v.04s-.04.05-.04.09v.09s0,.14.14.18v.14s-.05.04-.09.04c-.14,0-.24-.18-.33-.6h-.01v.02h0ZM346.65,155.91c-.09,0-.18-.14-.28-.14v-.05c0-.09.05-.14.14-.14.14,0,.09.05.14.09v.24h-.01,0ZM346.65,149.88c-.09.09-.14.14-.18.14,0-.05.05-.18.18-.42v.28ZM397.46,117.21c-.04.24-.14.42-.18.6v.14s0,.09.05.09c0,.09,0,.14-.05.14h-.09l-.09-.09s-.04,0-.04.24c.04,0,.09,0,.09.04l.05.04h-.05s-.05.05-.09.05c0,0-.33.24-.42.75-.51,1.06-1.48,2.78-3.01,5.15-2.18,3.48-4.97,7.05-8.26,10.68-.33.42-.69.84-1.11,1.26-.69.79-1.21,1.39-1.62,1.9l-1.26,1.15.69-1.15c.33-.88,1.44-2.97,2.5-4.82.51-.93.84-1.62,1.06-2.04,1.48-2.6,2.32-3.94,3.29-5.43,1.44-2.28,2.92-4.46,3.85-5.7.79-.93,2.69-3.01,3.11-3.25.37-.28.69-.55,1.02-.79.65-.51,1.02-.79,1.16-.79.09,0,.11.01.05.04,0,.18-.24.75-.65,1.81v-.02h0Z"/>
    <polygon class="st1" points="807.7 62.17 807.55 61.96 808.29 63.06 807.7 62.17"/>
    <path class="st1" d="M931.16,71.81l-1.66-.74c-.08-.04-.17-.07-.27-.1l-1.71-.57c-.18-.06-.4-.11-.6-.13l-1.54-.16-1.49-.43c-.24-.07-.5-.1-.76-.11h-1.6l-1.39-.22c-1.87-.3-3.78-.34-5.65-.57-1.96-.16-4.1-.15-6.06-.06h-.04l-1.62.2-1.61.04-1.74-.02c-.14,0-.3,0-.44.03h-.05l-1.62.26-1.69.11c-.26.02-.52.07-.78.16l-.05.02-1.34.48-1.43.13c-.08,0-.16.02-.24.03h-.05l-1.53.31-1.62.09c-.32.02-.65.09-.97.22l-.05.02-1.13.47-1.28.04c-.16,0-.34.03-.5.06h-.05l-1.76.39c-.17.04-.36.09-.52.16l-1.4.57-1.52.34c-.09.02-.19.05-.29.08l-.05.02-1.55.53-1.66.43c-.27.07-.54.18-.79.33l-.04.02-1.26.75c-1.63.52-3.3,1.11-4.88,1.73-.26.09-.52.24-.75.41l-1.29.92-1.18.62-1.5.53c-.12.04-.26.1-.37.16l-1.6.81c-.26.13-.51.31-.74.51l-1.16,1.06c-.32.21-.92.61-1.15.78-.65.37-1.37.64-2.02,1.18l-1.27,1.09c-.72.54-2.07,1.53-2.75,2-1.07.93-2.11,1.92-3.15,2.88-.62.66-1.86,2.05-2.46,2.74-.05.06-.1.12-.14.18l-.82,1.1-1.08.89-.02.02c-.6.4-1.08,1.56-1.42,2.38l-.84.94-.04.05c-.37.33-.88,1.67-1.14,2.25-.48.82-1.3,2.34-1.68,3.13-.05.1-.1.21-.15.33l-.58,1.57-.52,1.19-.15.36-.03.06c-.07.1-.49,1.67-.79,2.78l-.84-.73c-.32-.62-.75-1.5-1.04-1.78,0,0-.47-.51-.84-.9l-.43-1.14c-.03-.08-.06-.16-.1-.24,0,0-.43-.9-.64-1.36-.13-.53-.39-1.57-.47-1.76,0,0-.35-.92-.52-1.4l-.24-1.47c-.03-.25-.36-1.34-.5-1.87l-.17-1.33.07-1.54v-.31c-.14-1.78-.09-3.64-.15-5.42.04-1,.06-2.18.05-3.21.05-.5.2-1.77.19-1.96,0,0,0-.91-.02-1.43.16-.65.45-1.77.42-2.14,0,0-.02-1.12-.02-1.59l.18-1.4c.22-.92.59-2.55.78-3.41.07-.28.15-1.43.2-1.97l.31-1.45c.13-.41.5-1.56.5-1.56.07-.2.26-1.12.37-1.69l.63-1.3v-.02c.11-.2.19-.43.24-.66l.33-1.54.55-1.46v-.03c.14-.35.31-1.35.42-1.96l.53-1.31.74-1.52c.14-.28.35-1.03.52-1.6l.8-.97.02-.02c.17-.21.32-.45.42-.72l.72-1.74.54-1.54.6-1.08.99-1.14c.39-.43.78-1.38,1.08-2.04.91-1.25,2.08-2.81,3.09-3.92l1.06-1.41c.69-.79,1.4-1.57,2.11-2.36.61-.44,1.44-1.07,1.93-1.43.1-.08.22-.17.34-.26l.39,1,.25,1.45v.07c.03.1.05.19.08.3l.5,1.6c.03.17.06.34.1.51.17.86.35,1.72.51,2.58v1.49l-.02.1c0,.17.02.35.06.52l.78,3.41.21,1.52.12,1.51-.18,1.48c-.04.26-.05.51,0,.78l.35,1.75.17,1.44-.12,1.42-.21,1.75-.02.16c0,.07-.01.15,0,.24l.1,1.78v-.16l-.02,1.73-.1,1.73v.18h-.01l.05,1.6-.37,1.37-.05.18c-.02.08-.03.15-.03.25l-.05,1.56-.53,1.3-.07.18c-.14.4-.07.66-.11,1.45-.01.4-.02.75-.02.75-.03,1.97,2.84,2.3,3.2.3l.21-1.39c.27-.49.98-1.76.92-1.87.02-.11.14-1.12.22-1.66l.59-1.58c.05-.12.08-.27.08-.41v-.17l.09-1.61.27-1.81.16-1.83h0v-.16l.02-1.51c.19-1.07.57-2.82.62-3.85-.02-.21-.1-1.91-.14-2.12l-.18-1.33.26-1.47c.02-.13.03-.28.03-.41v-.12l-.07-1.86-.17-1.85c-.19-1.13-.42-2.27-.63-3.39.03-.6.1-1.92.03-2.07-.16-1.01-.43-2.84-.67-3.83l-.43-1.51c-.06-.42-.24-1.61-.24-1.61-.08-.49-.41-1.26-.59-1.77-.43-1.2-.72-2.38-.98-3.65-.43-2.12-3.18-2.93-4.71-1.43l-.02.02-1.22,1.15c-1.41.96-2.86,2.08-4.24,3.06-1.05.93-1.92,2.05-2.88,3.08-.05.06-.1.11-.14.18l-1.03,1.36c-1.09,1.2-2.46,3-3.42,4.3-.1.14-.2.31-.29.48l-.6,1.26-.94,1.07c-.12.14-.25.32-.35.49l-.89,1.56c-.08.14-.15.31-.21.47l-.58,1.62-.5,1.18-.9,1.09c-.24.29-.43.63-.54,1.01,0,0-.32,1.03-.46,1.5l-.73,1.5-.72,1.76c-.07.17-.13.37-.16.56l-.29,1.52-.54,1.43c-.05.13-.09.28-.12.42,0,0-.19.88-.31,1.4l-.64,1.31c-.1.21-.19.45-.25.69,0,0-.25,1.18-.34,1.6l-.51,1.57c-.03.09-.06.19-.08.3,0,0-.37,1.76-.38,1.77-.02.1-.04.21-.05.33,0,0-.11,1.14-.15,1.6l-.35,1.56-.41,1.72c-.02.1-.04.21-.06.32l-.22,1.78c-.02.14-.02.28-.02.42l.02,1.43-.33,1.39v.02c-.06.22-.08.47-.08.72l.02,1.62c-.05.44-.17,1.61-.17,1.61-.03.81,0,1.7-.03,2.51-.02.75-.06,1.54,0,2.3.07,1.16-.02,2.29.07,3.45l.06,1.02-.07,1.65v.02c0,.16,0,.33.02.5l.25,1.78c.02.13.05.28.08.41l.44,1.58.26,1.59v.02c.03.18.08.38.15.56l.59,1.56c.15.59.36,1.6.59,2.08l.72,1.49.58,1.56c.15.59,1.03,1.45,1.58,2.02.36.71.79,1.7,1.32,2.12.11.08,2.94,2.6,2.98,2.58l.98.67c-.11.77-.24,1.53-.3,2.3.14,1.71.33,3.93.5,5.63l.43,1.73-.02-.32.19,1.77c-.04.16.42,1.85.46,2.05l.49,1.75c.18.63.5,1.22.74,1.83.21.6.43,1.23.63,1.84.31.57.77,1.06,1.14,1.59.22.64.36,1.33.73,1.91l1.14,1.38.03.04s1.02.96,1.32,1.24l1.03,1.32c.14.24,2.98,2.27,3.24,2.47,1.11.71,2.45,1.39,3.58,2.03l1.14.68c.07.05.16.08.25.11l1.56.58,1.5.88s.12.06.18.08l.07.02,1.71.62c.14.06,1.26.21,1.82.3l1.47.74c.17.09.36.12.56.14l1.62.19c.69.2,1.38.39,2.08.62,2.17.75,4.48,1.22,6.67,1.8.33.04,1.95.32,2.27.32l1.5.04,1.63.4c.24.04,1.39.12,1.95.16l1.74.35c.25.04,1.3.07,1.89.08l1.63.38c.2.05.42.06.64.04l.17-.02,1.41-.12,1.53.27c.08,0,.17.02.27.02h.15l1.47.02,1.6.35c.11.02.24.04.36.04h.14l2.47.08v.37l-.37,1.53-.03.13c-.05.12-.2,1.92-.25,2.07l-.21,1.56-1.07.27-1.14-.22c-.31-.07-.6-.1-.93-.04l-1.69.3h-1.4l-1.5-.26-.2-.03h-1.91l-1.69-.1-1.52-.33-.17-.04h-.03l-1.86-.21-1.72-.08-1.45-.43-.15-.04c-.1-.03-.2-.05-.32-.05l-1.68-.05-1.46-.43-.13-.04h-.05l-2.67-.48c-2.49-.38-5.18-1.18-7.6-1.93l-1.39-.88-.05-.03c-.08-.05-.17-.09-.28-.12l-1.7-.52c-.83-.31-2.53-.95-3.37-1.23l-1.49-.61c-.36-.29-1.3-1.04-1.31-1.05-.11-.09-.26-.16-.4-.21l-1.58-.48-1.29-.91c-1.2-.84-2.62.79-1.57,1.86.09.07,1.47,1.55,1.56,1.49l1.56.83,2.85,1.93,1.21,1.24s.1.1.16.14l1.47,1.07s.05.04.08.05l1.58.99,1.54.84,1.42,1.03c.06.04.13.09.2.12l.04.02c-.08-.04,1.3.59,1.59.72.28.17,1.06.67,1.34.84l1.32,1.15s.1.08.15.11l.06.03,1.55.95s.11.06.17.08l1.45.65c.43.36,1.56,1.35,1.78,1.33l.07.02,1.53.46,1.39.87s.06.04.1.05l.07.03,1.47.71,1.45,1.02,1.59.99s.06.03.09.05l.07.04,2.43,1.19c.81.37,1.74.93,2.54,1.32l.07.02,1.55.57,1.5.82c.09.05.19.09.3.12l.06.02,1.42.45,1.28.9c.08.06.17.11.28.15l.05.02.37.17c-.2.64-.41,1.34-.57,1.85l-.78,1.28c-.08.14-.16.31-.21.48l-.38,1.21-.88.95c-.06.07-.13.16-.19.25.03-.04-.72,1.04-.9,1.33l-.34.42-.28-.17h-.02s-.1-.07-.16-.1l-1.5-.75-1.39-.97-1.59-.99-.04-.03c-.08-.05-.16-.09-.26-.13l-1.46-.6c-.87-.69-1.75-1.39-2.63-2.07-.12-.1-.27-.18-.42-.26l-1.51-.66-1.27-.94c-.73-.51-2.24-1.58-2.97-2.08l-1.41-1.07-.06-.05s-.08-.06-.13-.08l-1.53-.88-1.31-.94-1.23-1.14c-.09-.09-.18-.16-.3-.24-.71-.4-2.09-1.26-2.89-1.75l-1.02-1.2-.03-.04c-.04-.05-.09-.1-.14-.14l-1.38-1.19c-.07-.06-.13-.11-.21-.16l-1.5-.91-1.3-.99-1.24-1.2c-.08-.08-.17-.15-.28-.21l-1.39-.84c-.33-.35-1.1-1.18-1.11-1.19-.07-.07-.14-.13-.22-.19l-1.36-.96-1.14-1.23c-1.05-.89-2.17-1.7-3.26-2.52-1.5-1.1-3.39.82-2.19,2.31,0,0,.92,1.09,1.2,1.43l.86,1.43c.14.26,1.22,1.3,1.46,1.55l1.06,1.15.85,1.41.94,1.52c.05.08.1.14.17.22-.07-.09,1.06,1.25,1.14,1.32.19.26.81,1.08.95,1.29l.9,1.44c.08.12.17.25.3.35l.06.05,1.14,1.01.84,1.26.87,1.48c.2.35.94.97,1.42,1.4.29.54.85,1.67,1.07,1.8l.96.95.56,1.34c.06.15.15.31.26.44,1.08,1.36,2.2,2.74,3.35,4.05l.86,1.39c.04.07.1.14.15.21l.03.03,1.18,1.43,1.07,1.13.74,1.33c.08.15.19.31.32.43,0,0,.83.89,1.12,1.2l.86,1.21.77,1.45v.02c.2.37.93,1.13,1.32,1.58l.85,1.37.02.03c.04.06.1.13.17.22-.26.17-.9.82-1.27,1.16-.92.48-1.85.95-2.77,1.41-.08.03-.15.09-.24.13l-1.38.94-1.21.75-.29.08-.17-.39-.03-.07c-.07-.17-.18-.34-.32-.48l-1.08-1.16-.64-1.32-.03-.07s-.04-.08-.06-.11l-.93-1.46-.72-1.49-.04-.08c-.03-.07-.08-.14-.12-.21l-1.02-1.39-.78-1.42-.81-1.58c-.05-.11-.11-.19-.18-.3l-1.1-1.36-.94-1.31-.63-1.48-.02-.05s-.05-.1-.07-.14l-.93-1.53-.03-.05s-.05-.07-.07-.1l-1.03-1.32c-.19-.41-.72-1.46-.72-1.46-.71-1.02-1.59-1.93-2.37-2.92l-.6-1.48c-.04-.11-.1-.21-.16-.31l-1.02-1.41-.9-1.51-1-1.53s-.05-.07-.08-.11l-1.06-1.31-.81-1.48-.9-1.57c-.06-.1-.13-.2-.21-.29,0,0-.78-.79-1.12-1.14-.46-.95-1.21-2.43-1.72-3.24l-.02-.03-.77-.96c-.07-.1-.13-.2-.19-.29l-.05-.07s-.07-.1-.11-.14l-1.21-1.3h0l-.02-.02c-.55-.61-1.49-.68-2.13-.15-.64.54-.73,1.5-.18,2.15l.04.05,1.03,1.22.84,1.43c-.03-.07.56,1.04.76,1.4l.59,1.59s.02.05.03.08l.06.11.75,1.45.58,1.43.39,1.68c.01.05.03.11.05.16l.06.15c-.02-.06.42,1,.6,1.43l.44,1.66c.02.09.06.18.1.27l.08.16.61,1.16c.07.61.2,1.83.37,2.04.04.08.4.76.65,1.26.04.63.09,1.76.21,1.94.04.12.42,1.05.61,1.55l.35,1.64c.02.08.04.17.07.25l.07.16.58,1.44c.42,1.54.95,3.16,1.37,4.71.04.51.13,1.78.17,1.87l.02.08.37,1.59.27,1.69c.03.18.08.38.15.55l.02.04.63,1.56.47,1.42c.22,1.2.49,2.52.78,3.79l-.66.09h-.1s-.1.03-.16.04l-1.63.4-.89.03-.66.03c-.19-.02-1.14.17-1.76.29l-.42-1.25-.32-1.55-.03-.17c-.02-.09-.04-.17-.08-.27l-.67-1.64-.41-1.46-.21-1.62-.33-1.84-.03-.14c-.02-.11-.05-.22-.1-.34l-.71-1.6-.45-1.58-.52-1.55-.06-1.54v-.1c0-.12-.03-.25-.07-.37l-.35-1.14-.17-.58-.02-.08c-.02-.06-.04-.12-.07-.18l-.53-1.1-.19-.4-.38-1.55c-.02-.1-.05-.17-.08-.28l-.67-1.61-.49-1.64v-.03s-.03-.07-.04-.1l-.65-1.69c-.03-.07-.06-.13-.09-.2l-.89-1.62-.91-1.49-.71-1.56c-.07-.15-.16-.3-.28-.43l-1.07-1.23-.8-1.43c-.05-.09-.12-.18-.19-.28l-.03-.03-1.1-1.26-.98-1.41c-.07-.09-.15-.19-.24-.27l-.05-.05-.29-.26-.9-.81c-.52-.63-1.02-1.29-1.52-1.94-.27-.35-.53-.68-.82-1.01l-.08-.07-1.37-1.15s-.06-.05-.09-.07l-.1-.06-1.22-.81-1.04-1.22s-.08-.09-.13-.13l-.11-.09-1.37-1.16c-.14-.13-1.56-.98-1.76-1.13l.13.08-1.41-1.05-1.39-1.08s-.11-.08-.17-.11l-.15-.08-1.27-.69-1.22-1.06c-.07-.06-.15-.12-.24-.17l-.13-.08c-.74-.46-2.17-1.29-3.02-1.75-.22-.15-.93-.64-1.24-.86l-1.16-1c-.14-.14-.95-.95-.95-.95-1-.97-2.14-2.01-3.22-2.89l-.06-.04-1.01-.74c-.34-.54-.84-1.35-1.06-1.52-.61-.62-1.78-1.75-2.5-2.44l-.89-1.2-.86-1.33-.75-1.43c-.19-.43-.74-1.77-.89-1.96l-.02-.03-.74-1.12c-.15-.59-.4-1.54-.49-1.74v-.03l-.62-1.39-.28-1.28-.09-1.56c-.02-.4-.01-1.9-.1-2.27l-.28-1.39.08-1.08.45-1.46c.18-.46.12-1.51.11-2.25l.34-1.18c.6-1.33,1.41-3.09,1.98-4.5l.78-.86,1-.84,1.11-.52.49-.13,1.09-.29c.25-.06.5-.17.74-.3l1.37-.78c1.18-.36,2.4-.85,3.53-1.22.57-.18,1.41-.37,1.94-.71l1.29-.8,1.46-.64c.66-.36,1.96-.86,2.48-1.43h.01l.92-.97c.57-.33,1.4-.81,1.73-1.13h.01l1.05-1.05c.51-.37,1.44-1.02,1.73-1.35.19-.25,1.29-1.41,1.42-1.67.22-.35,1.1-1.64,1.25-1.99l.78-1.87c.36-.76.21-2.16.21-3.08l.18-1.85c.13-.88-.49-2.29-.72-3.16-.14-.53-.82-1.51-1.18-2.11-.16-.35-.52-1.14-.63-1.38l-.58-1.57v-.04c-.09-.2-.19-.4-.32-.59l-.95-1.45c-.8-1.36-1.9-3.18-2.66-4.57-.17-.32-.74-1.03-.98-1.36-.76-1.05-1.49-2.27-2.28-3.34-.13-.2-1.12-1.36-1.32-1.6l-.03-.04c-.13-.17-1.03-1.03-1.37-1.37-.75-.9-1.49-1.79-2.26-2.67-.21-.26-.47-.48-.78-.65-.74-.39-2.03-1.35-2.89-1.33l-1.32-.09c-.95-.05-2.87-.11-3.87-.13-.34-.02-.66.02-1,.13l-1.51.48c-1.13.25-2.27.45-3.4.71l-1.75.53-.07.02c-.09.03-.17.06-.27.1l-1.58.69-1.57.53-.07.02c-.3.08-1.31.69-1.81.98l-1.52.54c-.31.1-.59.27-.86.48-1.19.97-2.95,2.48-4.19,3.35-.12.1-.27.19-.37.32l-1.25,1.35-.09.1c-.07.08-.13.16-.19.26l-.9,1.39c-.21.28-.41.87-.56,1.41-.4-.04-.78-.08-1.01-.11l-1.57-.42-1.73-.35-1.38-.59-.2-.09c-.37-.16-1.5-.18-2.12-.22l-1.33-.52c-.21-.09-.49-.19-.74-.17h-1.63l-1.33-.47-1.76-.6-.17-.06s-.04-.01-.06-.02l-1.8-.34-.17-.03h-.07l-1.84-.06-1.58-.27-1.57-.53-.13-.04c-.06-.02-.13-.03-.2-.04l-1.76-.12-1.58-.46-.1-.03h-.02l-1.8-.33-.09-.02h-.09l-1.72-.03-1.56-.54s-.08-.03-.1-.03l-1.79-.41h-.05l-.02-.02-1.81-.27h-.14l-1.73.02-1.61-.52c-.07-.03-.15-.04-.24-.04l-1.78-.04c-.34-.07-1.73-.36-1.73-.35h-.12l-1.72-.05-1.66-.57c-.08-.03-.17-.04-.26-.04h-1.8l-1.62-.15c-.33-.03-.65.14-.8.45-.19.4-.02.89.39,1.07l1.46.71c.06.03.14.05.2.06l1.65.3c1.92,1.11,3.98,2.07,6.03,2.9.74.3,1.44.64,2.17.93l1.55.48,1.48.87,1.58.88s.06.03.1.04l.11.04,1.52.53,1.55.87,1.49.73,1.5.97s.02.01.03.02l.15.07,1.61.78.12.05,1.43.56.67.41.81.49c.1.06.21.11.34.14l.19.05,1.33.35,1.29.88c.09.06.19.11.3.15l.19.07,1.48.52,1.36.66,1.47.96c.09.06.19.11.31.15l.18.07,1.24.45,1.22.94c.16.12.37.24.57.31l.17.06,1.45.49,1.26.62,1.36.98c.1.07.22.14.35.2l.12.05,1.63.73c.07.03.16.06.24.08l.11.03,1.32.38,1.28.8,1.59.91c.14.08.31.13.47.19.05.02.09.05.14.06h.06l.62.18.35.6c.11.18.25.38.41.54l.02.02,1.12,1.16c.54.75,1.5,2.08,1.93,2.75.71.88,1.67,1.5,2.46,2.31l2.01,1.83c.3.27.65.48,1.05.6l1.75.55c.11.04.22.06.35.09l1.81.34h.02c.46.09.95.06,1.42-.1l1.83-.62,1.81-.68h.04c.12-.04,1.86-.99,1.98-1.03.11-.06.22-.12.33-.2l1.57-1.12c.07-.05.14-.1.2-.16l1.4-1.21,1.44-1.15.04-.03c.27-.22,1.43-1.41,1.68-1.68l1.21-1.42.04-.05c.32-.34.91-1.73,1.13-2.16l.03-.06s.03-.07.05-.11l.71-1.76c.25-.56.3-1.21.09-1.84l-1.13-3.6-.03-.09c-.07-.22-.17-.44-.32-.63l-1.02-1.46-.83-1.5-.04-.08c-.84-1.15-1.95-2.12-2.91-3.17-.28-.3-.6-.53-1-.66l-1.79-.59c-.45-.17-.94-.2-1.44-.07l-1.71.46-1.66.26c-.41.05-.81.19-1.14.47l-1.21.96-1.16.39-.12.04c-.84.19-1.43,1.37-1.91,2.07l-.98.94-.1.1c-.22.21-.4.48-.5.8l-1.02,3.16c-.14.39-.18.81-.06,1.24l.47,1.6c.06.25.14.47.32.67l1.02,1.32c.12.15.2.28.37.4l1.36,1.01c.19.15.4.28.65.35l1.67.43c.3.09.61.12.93.03l1.63-.45.16-.04c.08-.02.15-.05.22-.09l1.42-.79.15-.08c.4-.16,1.13-1.46,1.41-1.82,1.08-1.67-1.18-3.43-2.52-1.94l-.81.95-.94.41-.99.17-.82-.28-.78-.68-.55-.86-.14-.64.79-1.97.9-.76c.18-.15.53-.62.85-1.04.55-.14,1.16-.3,1.57-.56l.1-.07.97-.69,1.29-.13s.12-.02.17-.03l.11-.02,1.02-.24.47.18c.61.68,1.22,1.38,1.83,2.06l.73,1.44c.03.05.06.11.09.16l.05.08.78,1.21.27.93.39,1.37-.33.76-.64,1.24-.94,1.06-1.14,1.11c-.78.58-2.13,1.66-2.86,2.3l-1.31.91-1.41.73c-.68.27-1.76.63-2.61.92l-.9-.16-.98-.32c-1.04-.95-2.35-2.16-3.36-3.02-.57-.83-1.47-2.07-1.97-2.75-.07-.09-.15-.19-.24-.28l-1.04-1.06-.76-1.29-.03-.05c-.37-.61-.97-1.09-1.72-1.28l-1.48-.37c-.86-.46-2.09-1.15-2.8-1.57-.46-.27-1.58-.47-2.23-.63l-1.27-.49-1.24-.79-.13-.08c-.07-.04-.15-.09-.24-.12l-1.65-.71-.15-.07c-.06-.03-.13-.05-.2-.07l-1.43-.37-1.09-.73c-.19-.14-.44-.29-.68-.34l-1.57-.43-1.26-.67c-.32-.19-1.79-.69-2.14-.84-.01,0-.03,0-.04-.01l-1.59-.4-1.26-.67c-.19-.11-.41-.22-.64-.26l-1.62-.26-1.28-.6-.17-.08s-.07-.03-.12-.04l-1.74-.48.12.05-1.67-.6-1.44-.74-.14-.07h-.02l-1.65-.61-1.6-.69-.13-.06s-.05-.02-.08-.03l-1.7-.43c-.86-.38-2.29-1.04-3.06-1.43l-.08-.04s-.1-.04-.15-.05l-1.76-.4c-1.37-.49-3.37-1.16-5.25-1.94l.51.02,1.73.37s.09,0,.13.02l1.71.08,1.65.58c.07.02.15.04.24.04h.03l1.76.05,1.69.33.4.11,1.27.37.32.13,1.36.57c.07.03.15.05.24.06h.07l.45.05,1.27.12,1.61.43,1.7.65s.09.03.14.04l.11.02,1.58.27,1.57.72s.05.02.07.03l.14.04,1.76.49h.04l.16.02,1.63.22,1.51.45,1.62.76,1.63.81c.13.07.3.11.45.13l.2.02,1.37.14,1.4.72c.12.06.27.11.41.13l.21.04,1.35.24,1.4.76c.07.04.16.08.25.1l.2.06,1.69.5,1.66.59s.1.03.15.04l.19.04,1.4.28,1.51.71c.2.09.44.17.67.2,1.26.2,2.43-.56,2.81-1.75.04-.11.07-.24.09-.36.02-.05.15-.96.22-1.47l.35-.98.61-.84.98-.97c1.33-.91,2.69-1.96,3.95-2.97l1.32-.44c.13-.04.28-.1.4-.17l.05-.03,1.34-.73,1.51-.47c.06-.02.13-.04.19-.07l.05-.02,1.5-.63,1.45-.41c1.18-.22,2.36-.4,3.52-.67l1.12-.33c1.18.06,2.55.1,3.76.2l.52.32c.73.86,1.42,1.75,2.16,2.6l.3.31.86.87.96,1.19c.17.26.67,1,.68,1,.66,1.02,1.49,2.31,2.25,3.31.45.83,1.31,2.33,1.74,3.05l.94,1.61.82,1.28.5,1.39c.02.06.05.13.08.19v.02l.75,1.65c.05.11.11.22.17.33l.75,1.24.29.93-.13,1.37c-.01.11-.02.24-.01.35l.02,1.37-.41.99-.67,1.02-.78.88-1.13.83c-.22.16-.91.85-1.32,1.27l-1.12.67-.03.02c-.4.21-1.02.91-1.48,1.41-.79.4-1.88.9-2.5,1.18-.24.08-1,.59-1.49.91-1.58.48-3.2,1.14-4.74,1.62-.39.1-1.28.66-1.86,1.01l-1.46.4h-.05c-.41.1-1.77.85-2.2,1.01-.56.25-1.65,1.28-2.14,1.69-.25.17-1.34,1.5-1.57,1.73-.24.26-.43.56-.56.9-.3.73-.68,1.8-1.02,2.48l-1.1,2.51-.02.05c-.11.21-.54,1.9-.61,2.14-.16.46-.11,1.53-.09,2.25l-.39,1.33-.02.05c-.14.46-.17,1.97-.22,2.47-.05.47.26,1.69.39,2.33.05,1.15.1,2.86.27,3.91l.41,1.78v.05c.09.35.61,1.47.86,2l.42,1.51v.05c.12.51.89,1.55,1.28,2.13l.64,1.43.02.04s.05.1.07.15l.87,1.6.02.04c.03.06.07.12.11.18l1.06,1.59,1.16,1.52.03.04c.09.11.19.22.3.33l1.32,1.22,1.09,1.05.84,1.24.04.06c.29.53,1.51,1.22,2.06,1.61,1.36,1.07,2.75,2.27,4,3.45l1.41,1.1.11.08c.31.19,1.56,1,1.89,1.16.75.34,2.2,1.04,2.99,1.47l1.2.92.13.1c.09.07.2.13.32.18l1.52.71c.85.57,2.19,1.45,2.96,1.93,0,0,1.23.66,1.51.82l1.2.88,1.1,1.11.1.1c.17.21,1.47.9,1.83,1.11l1.19.89,2.2,2.51c.11.16,1.07.92,1.47,1.25l.93,1.25.03.05s.06.07.09.1l1.11,1.2.8,1.38.02.03c.08.18.87,1,1.25,1.41l.65,1.42v.02c.06.14.93,1.5,1.02,1.68l.78,1.45.57,1.52.47,1.69s.03.08.04.12v.03l.61,1.53.34,1.67c.02.12.07.24.12.36l.66,1.51.35,1.37-.02,1.67c0,.49.42,1.68.53,2.23l.38,1.73s.02.1.04.14l.04.12.52,1.42.17,1.57.1,1.77s0,.09.02.14l.03.16.36,1.78s.02.07.03.1l.05.15.48,1.44.21,1.66s.01.08.02.11l.04.16.38,1.51c.07.6.15,1.51.26,2.07.22,1.39,1.6,2.31,2.97,1.99l.15-.04,1.65-.38,1.56-.19,1.79.02c.38,0,1.62-.27,2.21-.39l1.59-.15h1.82c1.72.03,3.07-1.59,2.73-3.28v-.07l-.36-1.82-.4-1.77-.68-3.47v-.03c-.03-.11-.06-.21-.09-.33l-.6-1.78-.61-1.47-.26-1.42v-.07s-.03-.08-.04-.12l-.41-1.57-.19-1.54v-.12c-.34-1.41-.95-2.85-1.42-4.22l-.43-1.24-.05-.16s-.03-.08-.05-.12l-.73-1.49-.41-1.4-.05-.18c-.02-.07-.05-.13-.08-.2l-.66-1.36v-.09l1.14,1.45.67,1.5c.11.24.87,1.24,1.15,1.62l.79,1.4.62,1.61c.04.11.1.2.16.31l1.02,1.54.98,1.32c.42.92,1.13,2.46,1.58,3.29l.04.06.89,1.33.66,1.54c.03.07.06.12.1.19-.05-.1.63,1.1.84,1.45l.67,1.56c.07.17.18.33.32.48l.96,1.12.55,1.4c.21.54.67.97,1.27,1.14.54.17,1.22.45,1.8.25l1.69-.41c.18-.04.37-.13.53-.22l1.52-.88,1.35-.87c1-.47,2.01-.95,3-1.43.17-.08.35-.2.49-.34l1.13-1.01,1.31-.83c.43-.28.77-.69.91-1.23v-.03l.28-.96c.19-.71.02-1.49-.52-2.06l-.02-.02-1.06-1.1-.81-1.32c-.06-.09-.13-.19-.2-.29l-.99-1.15-.72-1.37c-.04-.08-.1-.17-.15-.26l-1.03-1.44c-.06-.08-.12-.16-.19-.24l-1.04-1.1-.74-1.32v-.02c-.1-.15-.2-.3-.33-.43l-1.19-1.24-1.03-1.21-.87-1.35-.03-.04c-1.15-1.35-2.34-2.64-3.48-4.01l-.62-1.36-.03-.07c-.1-.21-.25-.42-.43-.58l-1.12-1.03-.74-1.25-.04-.07c-.09-.16-.22-.31-.37-.44l-1.19-1-.81-1.27-1.07-1.48-.05-.07c0-.09-1.07-.93-1.5-1.28l-.39-.57c.37.24.86.55,1.09.69l1.15,1.04,1.1,1.35c.1.13.24.25.38.34.72.48,2.08,1.39,2.91,1.9l1.16,1.16c.05.06.11.09.17.15l1.44,1.11s.09.06.14.09c-.07-.06,1.09.69,1.43.91,1.24,1.05,2.97,2.33,4.24,3.31l1.39,1.12c.09.07.2.14.32.2l.06.03,1.41.68c1.02.81,2.02,1.86,3.11,2.5l1.5.66,1.35.88,1.42,1.04c.22.16,1.32.69,1.76.93l1.48.94c.59.37,1.37.45,2.04.13.49-.27,1.29-.48,1.62-.99l1.07-1.33s.07-.09.1-.13c0,0,.65-.95.88-1.29l1.09-1.2c.21-.22.38-.51.47-.83l.43-1.44.75-1.26.02-.03c.08-.14.15-.3.19-.46l.47-1.66.5-1.65v-.04c.13-.41.13-.87-.03-1.31l-.27-.72-.02-.05c-.18-.49-.57-.91-1.09-1.13l-1.53-.65-1.36-.9-.06-.04c-.15-.1-.32-.17-.5-.22l-1.61-.45-1.43-.73-.06-.03c-.06-.03-.13-.06-.2-.08l-1.63-.54c-1.32-.65-3.56-1.65-4.85-2.19l-1.44-.81-1.5-.95-.08-.05s-.11-.06-.17-.09l-1.62-.68-1.47-.83c-.12-.08-.26-.13-.41-.17l-1.53-.38-1.19-.89c-.11-.09-.22-.15-.36-.21l-1.65-.65-1.4-.77-1.32-1.05-.05-.04s-.08-.06-.13-.09l-1.57-.91-.05-.03s-.08-.04-.12-.06l-1.46-.59.98.35c2.46.92,5.26,1.54,7.83,2.22l1.68.63c.09.03.19.06.3.07l.14.02,1.5.16,1.55.6c.14.06.3.07.45.09l1.74.24,1.52.31,1.73.53s.1.03.15.03l.17.02,1.85.27,1.58.14,1.69.43c.06.02.13.03.2.03.02,0,1.93.15,1.99.16.28,0,1.1-.08,1.72-.15l1.42.39c.36.11.76.09,1.14,0l1.32-.24,1.51.2c.07,0,.15.02.24.02,1.45.06,2.69-1.06,2.75-2.51v-.16l.08-1.69.36-1.8.28-1.71.5-1.77c.06-.2.09-.44.09-.66.04-1.26.1-2.81,0-4.07-.12-1.58-1.5-2.77-3.1-2.66l-1.67.12c-1.09,0-2.19,0-3.28.03l-1.5-.25-.15-.02c-.13-.02-.27-.03-.4-.02l-1.69.07-1.52-.16-.17-.02c-.17-.02-.35,0-.52,0l-1.5.24-1.31-.2-.19-.03c-.1,0-.2-.02-.31-.02l-1.72.06-1.52-.19-.18-.02h-1.85l-1.52-.22-.19-.03c-.09,0-.18-.02-.28,0l-1.8.09-1.6-.1c-1.1-.22-4.51-.63-6.41-1.18-.82-.19-1.69-.39-2.52-.53l-1.6-.07-1.37-.57-.1-.04c-.11-.05-.25-.08-.38-.09l-1.73-.16-1.45-.45-1.47-.78-.06-.03s-.1-.05-.16-.07l-1.61-.53c-1.1-.66-2.38-1.25-3.48-1.86l-1.09-.63c-.89-.64-1.78-1.3-2.67-1.97l-.97-1.25s-.09-.1-.13-.15l-1.21-1.15-.85-1.11c-.16-.6-.26-1.24-.5-1.82-.28-.45-.55-.91-.82-1.36-.2-1.02-.5-2.42-.75-3.39l.06.22c-.09-.86-.22-2.61-.25-3.47l.02.3.15-1.78c-.03-.17-.1-1.87-.11-2.09l.03.34c.11-1.39.29-3.36.36-4.85.05-.17.09-.37.15-.58.58.06,1.26.11,1.55.12,1.7-.03,3.42-.04,5.15-.09l1.56.22h.03c.49.09,1.63-.11,2.3-.19l1.61.03h.03c.53.04,1.51-.32,2.22-.53h1.4c.29,0,1.34-.18,1.91-.28.65.03,1.84.13,2.21.02,1.46-.3,3.72-.77,5.17-.95.28-.03,1.37-.38,1.9-.53l1.57-.21h.03c.33-.04,1.33-.39,1.9-.57l1.52-.17h.03c.39-.04,1.81-.5,2.26-.61l1.69-.61,1.73-.5,1.55-.56,1.53-.27h.03c.3-.05,1.7-.52,2.04-.62.32-.09,1.21-.55,1.74-.82l1.47-.36c1.27-.44,2.48-1.07,3.74-1.56.41-.16,1.2-.76,1.74-1.15l1.29-.49,1.66-.53c.3-.1.59-.25.86-.45l1.07-.83,1.28-.44c.62-.19,1.62-1.02,2.22-1.4l1.38-1.01c.33-.19,1.09-.62,1.33-.77.39-.18,1.52-.73,1.52-.72.56-.26,1.28-1.02,1.82-1.55l1.36-.84,1.54-1.06c.26-.17,1.36-1.15,1.65-1.39l1.36-1.28c.08-.07.15-.15.22-.24l1.04-1.24,1.19-1.07c.07-.06.14-.13.21-.21.59-.63,1.65-1.86,2.27-2.62.39-.33,1.21-1.02,1.21-1.02.43-.37,1.08-1.4,1.47-1.9l1.07-1.38c.26-.32.72-1.29.99-1.85l.93-1.2c.1-.13.19-.27.27-.42.41-.8,1.26-2.32,1.71-3.1.04-.03,1.51-3.56,1.54-3.65.59-1.42-.06-3.07-1.48-3.69l-.14.03v-.03l.05-.04h0ZM926.06,76.49l-.83,1.44-.75,1.41-.96,1.23c-.11.14-.22.32-.31.48l-.5.99-.18.37-.97,1.24-.89,1.23-1.12.96c-.11.1-.24.22-.34.35l-1.11,1.34-1.06,1.18-1.23,1.1c-.09.08-.18.18-.27.28,0,0-.79.93-1.06,1.26l-1.14,1.07-1.21,1.03-1.31.9-1.47.91c-.16.1-.33.22-.47.37l-.98.93-1.23.58c-.07.03-.14.07-.2.11l-1.55.9c-.08.05-.17.1-.26.16-.55.42-1.79,1.29-2.54,1.81l-1.36.46c-.29.1-.57.25-.82.44l-1.06.81-1.32.43-1.76.66c-.21.08-.44.2-.64.34l-1.25.88c-.94.39-1.88.8-2.81,1.21-.74.18-1.22.22-2.09.57l-1.43.69-1.34.41c-.72.13-1.16.14-2.07.4l-1.61.57-1.73.49-1.69.6-1.4.4c-.65.08-1.4.1-2.09.29,0,0-1.01.32-1.48.47l-1.54.2c-.13.02-.29.05-.42.09l-1.52.44c-1.42.18-3.44.59-4.91.88l-1.47-.07c-.18,0-.4,0-.59.03l-1.58.25c-.71,0-1.8-.07-2.38.11,0,0-.8.25-1.32.4-.58-.02-1.44-.05-1.75,0,0,0-.88.11-1.4.17-.6-.09-1.57-.26-1.89-.24-1.32.03-2.65.04-3.98.05-.4,0-.8.01-1.2.02l-.32-.03.04-.35.85-2.93.69-1.5.61-1.56c.41-.79,1.15-2.13,1.58-2.81.09-.15.43-.9.66-1.42.51-.54,1.26-1.32,1.43-1.8v-.03l.43-.92c.52-.42,1.16-.94,1.35-1.23,0,0,.76-1,.99-1.32.57-.64,1.56-1.75,2.17-2.39.81-.73,1.6-1.45,2.4-2.2.8-.56,2.13-1.54,2.82-2.07.09-.06.82-.71,1.24-1.07l1.27-.68c.26-.14,1.46-.97,1.77-1.19.13-.09.26-.19.38-.31l1.01-.94,1.02-.52c.52-.19,1.78-.64,1.95-.76l1.56-.86.05-.03c.22-.12.96-.67,1.43-1.03,1.5-.59,2.97-1.14,4.52-1.66.22-.07.44-.17.64-.3l1.19-.73,1.28-.36.06-.02c.06-.02.11-.03.17-.05l1.55-.56,1.54-.38.07-.02c.35-.08,1.3-.52,1.85-.76l1.23-.29,1.51-.07h.06c.35-.02.69-.1,1.03-.25l1.21-.53,1.25-.09h.07c.11-.01.22-.03.35-.05-.05,0,1.28-.27,1.63-.35l1.61-.18h.06c.22-.03.45-.09.67-.17l1.34-.51,1.34-.11h.06c.14,0,1.23-.2,1.73-.29,1,0,2.62-.02,3.49-.08.24-.02,1.51-.19,1.94-.26.84-.04,2.06-.07,2.8-.07.98.01,1.97.03,2.95.15,1.51.15,3.01.15,4.51.4l1.5.24h.03c.29.06,1.22.03,1.81.03l1.36.38h.03c.15.05.31.08.46.09l1.5.15.22.07c-.07.16-.13.33-.2.49h.04Z"/>
  </g>
  <g>
    <g>
      <path class="st1" d="M19.82,290.47v11.9h7.12v2.7h-10.33v-14.6h3.21Z"/>
      <path class="st1" d="M28.34,297.75c.04-.68.21-1.25.51-1.7.3-.45.68-.81,1.15-1.08.46-.27.99-.47,1.56-.58.58-.12,1.16-.18,1.75-.18.53,0,1.07.04,1.62.11.55.08,1.04.22,1.49.44s.82.52,1.1.91c.29.39.43.9.43,1.54v5.5c0,.48.03.93.08,1.37.05.44.15.76.29.98h-2.94c-.05-.16-.1-.33-.13-.5-.03-.17-.06-.34-.07-.52-.46.48-1.01.81-1.64,1s-1.27.29-1.92.29c-.51,0-.98-.06-1.41-.18-.44-.12-.82-.31-1.15-.57s-.58-.59-.77-.98-.28-.87-.28-1.41c0-.6.11-1.09.32-1.48s.48-.7.82-.93c.33-.23.72-.41,1.15-.52.43-.12.86-.21,1.3-.28s.87-.12,1.29-.16c.42-.04.8-.1,1.13-.18s.58-.2.78-.36.28-.39.27-.69c0-.31-.05-.56-.15-.75-.1-.18-.24-.33-.41-.43s-.37-.17-.59-.2c-.23-.03-.47-.05-.73-.05-.57,0-1.02.12-1.35.37-.33.24-.52.65-.57,1.23h-2.93,0ZM35.05,299.9c-.12.11-.28.19-.46.26-.18.06-.38.11-.59.15s-.43.08-.66.1c-.23.03-.46.06-.69.1-.22.04-.43.1-.64.16-.21.07-.4.16-.55.28-.16.12-.28.26-.38.44-.1.18-.14.4-.14.67s.05.48.14.66c.1.18.23.32.39.42s.35.17.57.22c.22.04.44.06.67.06.57,0,1.02-.1,1.33-.29s.54-.42.69-.68c.15-.27.24-.54.28-.81.03-.27.05-.49.05-.65v-1.08h-.01Z"/>
      <path class="st1" d="M53.07,290.47l5.46,14.6h-3.33l-1.1-3.25h-5.46l-1.15,3.25h-3.23l5.52-14.6h3.29ZM53.25,299.43l-1.84-5.36h-.04l-1.9,5.36h3.78Z"/>
      <path class="st1" d="M69.07,305.85c-.12.55-.36,1.05-.75,1.52-.38.47-.93.87-1.66,1.2-.72.33-1.69.49-2.9.49-.52,0-1.05-.07-1.59-.19-.54-.13-1.03-.33-1.47-.6-.44-.27-.81-.62-1.1-1.05-.29-.43-.46-.95-.5-1.54h2.88c.14.55.4.92.8,1.13.4.21.85.32,1.37.32.82,0,1.41-.25,1.79-.74.37-.49.55-1.11.54-1.86v-1.39h-.04c-.31.56-.76.97-1.34,1.24-.58.27-1.19.4-1.83.4-.79,0-1.47-.14-2.05-.42-.57-.28-1.04-.66-1.41-1.15-.37-.48-.64-1.05-.81-1.7-.17-.65-.25-1.33-.25-2.06,0-.68.1-1.34.3-1.97s.49-1.19.87-1.68c.38-.48.86-.87,1.42-1.16.57-.29,1.22-.43,1.95-.43s1.31.13,1.83.39c.52.26.96.69,1.32,1.31h.04v-1.41h2.76v9.9c0,.42-.06.91-.17,1.45ZM65.09,302.33c.31-.16.57-.38.78-.65s.36-.58.46-.93.15-.71.15-1.09c0-.44-.04-.85-.12-1.24-.08-.39-.22-.73-.41-1.03s-.44-.54-.76-.72c-.31-.18-.71-.27-1.19-.27-.41,0-.76.08-1.05.25-.29.16-.54.39-.74.66-.2.28-.34.6-.43.96s-.13.74-.13,1.13.04.76.11,1.13.2.71.39,1.01c.18.3.43.55.73.74s.67.29,1.12.29c.41,0,.77-.08,1.08-.25h.01Z"/>
      <path class="st1" d="M74.57,302.54c.44.42,1.06.63,1.88.63.59,0,1.09-.15,1.51-.44.42-.29.68-.6.78-.93h2.56c-.41,1.27-1.04,2.17-1.88,2.72-.85.55-1.87.82-3.07.82-.83,0-1.58-.13-2.25-.4-.67-.26-1.23-.64-1.7-1.13-.46-.49-.82-1.08-1.07-1.76-.25-.68-.38-1.43-.38-2.25s.13-1.53.39-2.21.63-1.27,1.1-1.77c.48-.5,1.05-.89,1.71-1.18.66-.29,1.39-.43,2.2-.43.9,0,1.68.18,2.35.52.67.35,1.22.81,1.65,1.4s.74,1.25.93,2,.26,1.53.2,2.35h-7.63c.04.94.28,1.62.72,2.04v.02h0ZM77.85,296.98c-.35-.38-.88-.57-1.58-.57-.46,0-.85.08-1.16.24-.31.16-.55.35-.74.58-.18.23-.31.48-.39.74-.08.26-.12.49-.13.69h4.72c-.14-.74-.38-1.3-.73-1.68h.01Z"/>
      <path class="st1" d="M85.89,294.5v1.47h.06c.37-.61.84-1.06,1.43-1.34.59-.28,1.19-.42,1.8-.42.78,0,1.41.11,1.91.32.5.21.89.51,1.18.88s.49.83.6,1.37c.12.54.17,1.14.17,1.79v6.5h-2.9v-5.97c0-.87-.14-1.52-.41-1.95-.27-.43-.76-.64-1.45-.64-.79,0-1.36.23-1.72.7-.35.47-.53,1.24-.53,2.32v5.54h-2.9v-10.57h2.76Z"/>
      <path class="st1" d="M100.14,296.4c-.46,0-.85.11-1.17.32-.31.21-.57.48-.77.82-.2.33-.34.7-.42,1.1s-.12.8-.12,1.2.04.77.12,1.17c.08.4.21.75.4,1.07.18.32.43.58.75.79.31.21.69.31,1.15.31.69,0,1.23-.19,1.61-.58.37-.39.61-.91.71-1.56h2.8c-.19,1.4-.74,2.47-1.64,3.21s-2.05,1.1-3.46,1.1c-.79,0-1.52-.13-2.18-.4-.66-.26-1.22-.64-1.69-1.11-.46-.48-.83-1.05-1.08-1.71-.26-.66-.39-1.39-.39-2.18s.12-1.58.36-2.28.59-1.31,1.05-1.82c.46-.51,1.03-.91,1.7-1.2s1.43-.43,2.29-.43c.63,0,1.23.08,1.81.25.58.16,1.1.41,1.55.75.46.33.83.75,1.11,1.25.29.5.45,1.09.49,1.77h-2.84c-.19-1.21-.91-1.82-2.15-1.82v-.02h0Z"/>
      <path class="st1" d="M106.81,292.86v-2.39h2.91v2.39h-2.91ZM109.71,294.5v10.57h-2.91v-10.57h2.91Z"/>
      <path class="st1" d="M111.8,297.75c.04-.68.21-1.25.51-1.7s.68-.81,1.15-1.08c.46-.27.99-.47,1.56-.58.58-.12,1.16-.18,1.75-.18.53,0,1.07.04,1.62.11.55.08,1.04.22,1.49.44s.82.52,1.1.91c.29.39.43.9.43,1.54v5.5c0,.48.03.93.08,1.37s.15.76.29.98h-2.94c-.05-.16-.1-.33-.13-.5s-.06-.34-.07-.52c-.46.48-1.01.81-1.64,1s-1.27.29-1.92.29c-.51,0-.98-.06-1.41-.18-.44-.12-.82-.31-1.15-.57s-.58-.59-.77-.98c-.18-.4-.28-.87-.28-1.41,0-.6.11-1.09.32-1.48s.48-.7.82-.93c.33-.23.72-.41,1.14-.52.43-.12.86-.21,1.3-.28s.87-.12,1.29-.16.8-.1,1.13-.18c.33-.08.58-.2.78-.36s.28-.39.27-.69c0-.31-.05-.56-.15-.75-.1-.18-.24-.33-.41-.43-.17-.1-.37-.17-.59-.2-.23-.03-.47-.05-.73-.05-.57,0-1.02.12-1.35.37-.33.24-.52.65-.57,1.23h-2.92ZM118.51,299.9c-.12.11-.28.19-.46.26-.18.06-.38.11-.59.15s-.43.08-.66.1c-.23.03-.46.06-.69.1-.22.04-.43.1-.64.16-.21.07-.4.16-.55.28-.16.12-.28.26-.38.44s-.14.4-.14.67.05.48.14.66c.1.18.23.32.39.42.16.1.35.17.57.22.22.04.44.06.67.06.57,0,1.02-.1,1.33-.29.31-.19.54-.42.69-.68.15-.27.24-.54.28-.81.03-.27.05-.49.05-.65v-1.08h-.01Z"/>
      <path class="st1" d="M136.45,303.72c-.34.57-.79.98-1.34,1.24-.55.25-1.18.38-1.87.38-.79,0-1.49-.15-2.09-.46-.6-.31-1.09-.72-1.48-1.25-.39-.52-.68-1.13-.88-1.81-.2-.68-.3-1.39-.3-2.13s.1-1.39.3-2.06c.2-.66.49-1.24.88-1.75.39-.5.88-.91,1.46-1.22s1.27-.46,2.04-.46c.63,0,1.22.13,1.79.4.56.27,1.01.66,1.34,1.18h.04v-5.32h2.9v14.6h-2.76v-1.35h-.04,0ZM136.32,298.5c-.08-.4-.22-.76-.42-1.06-.2-.31-.45-.56-.77-.75-.31-.19-.71-.29-1.19-.29s-.88.1-1.21.29-.59.44-.79.76c-.2.31-.34.67-.43,1.07s-.13.82-.13,1.26c0,.41.05.82.14,1.23.1.41.25.77.46,1.09s.48.58.8.78.7.3,1.16.3.88-.09,1.2-.29c.32-.19.57-.45.77-.77.19-.32.33-.68.41-1.09s.12-.83.12-1.27-.04-.86-.12-1.26h0Z"/>
      <path class="st1" d="M144.5,302.54c.44.42,1.06.63,1.88.63.59,0,1.09-.15,1.51-.44s.68-.6.78-.93h2.56c-.41,1.27-1.04,2.17-1.88,2.72-.85.55-1.87.82-3.07.82-.83,0-1.58-.13-2.25-.4-.67-.26-1.23-.64-1.7-1.13-.46-.49-.82-1.08-1.07-1.76-.25-.68-.38-1.43-.38-2.25s.13-1.53.39-2.21.63-1.27,1.1-1.77c.48-.5,1.05-.89,1.71-1.18.66-.29,1.39-.43,2.2-.43.9,0,1.68.18,2.35.52.67.35,1.22.81,1.65,1.4s.74,1.25.93,2c.19.75.26,1.53.2,2.35h-7.63c.04.94.28,1.62.72,2.04v.02h0ZM147.78,296.98c-.35-.38-.88-.57-1.58-.57-.46,0-.85.08-1.16.24s-.55.35-.74.58c-.18.23-.31.48-.39.74-.08.26-.12.49-.13.69h4.72c-.14-.74-.38-1.3-.73-1.68h.01Z"/>
      <path class="st1" d="M161.39,290.47v14.6h-2.9v-14.6h2.9Z"/>
      <path class="st1" d="M163.48,297.75c.04-.68.21-1.25.51-1.7.3-.45.68-.81,1.15-1.08.46-.27.99-.47,1.56-.58.58-.12,1.16-.18,1.75-.18.53,0,1.07.04,1.62.11.55.08,1.04.22,1.49.44.45.22.82.52,1.1.91.29.39.43.9.43,1.54v5.5c0,.48.03.93.08,1.37s.15.76.29.98h-2.94c-.05-.16-.1-.33-.13-.5s-.06-.34-.07-.52c-.46.48-1.01.81-1.64,1s-1.27.29-1.92.29c-.51,0-.98-.06-1.41-.18-.44-.12-.82-.31-1.14-.57-.33-.26-.58-.59-.77-.98s-.28-.87-.28-1.41c0-.6.11-1.09.32-1.48s.48-.7.82-.93c.33-.23.72-.41,1.15-.52.43-.12.86-.21,1.3-.28s.87-.12,1.29-.16.8-.1,1.13-.18.58-.2.78-.36c.19-.16.28-.39.27-.69,0-.31-.05-.56-.15-.75-.1-.18-.24-.33-.41-.43s-.37-.17-.59-.2c-.23-.03-.47-.05-.73-.05-.57,0-1.02.12-1.35.37-.33.24-.52.65-.57,1.23h-2.94,0ZM170.19,299.9c-.12.11-.28.19-.46.26-.18.06-.38.11-.59.15-.21.04-.43.08-.66.1-.23.03-.46.06-.69.1-.22.04-.43.1-.64.16-.21.07-.4.16-.55.28-.16.12-.28.26-.38.44s-.14.4-.14.67.05.48.14.66c.1.18.23.32.39.42s.35.17.57.22c.22.04.44.06.67.06.57,0,1.02-.1,1.33-.29s.54-.42.69-.68c.15-.27.24-.54.28-.81.03-.27.05-.49.05-.65v-1.08h0Z"/>
      <path class="st1" d="M180.78,294.8c.33-.93.8-1.75,1.41-2.44.61-.7,1.37-1.24,2.26-1.64.89-.4,1.9-.59,3.02-.59s2.14.2,3.03.59c.89.4,1.64.94,2.25,1.64.61.69,1.08,1.51,1.41,2.44s.49,1.95.49,3.04-.16,2.06-.49,2.98-.8,1.72-1.41,2.4-1.36,1.22-2.25,1.61c-.89.39-1.9.58-3.03.58s-2.12-.19-3.02-.58c-.89-.39-1.65-.92-2.26-1.61-.61-.68-1.08-1.48-1.41-2.4-.33-.92-.49-1.91-.49-2.98s.16-2.1.49-3.04ZM183.71,299.62c.14.58.37,1.1.69,1.56.31.46.72.84,1.23,1.11.51.28,1.12.42,1.84.42s1.34-.14,1.84-.42c.51-.28.91-.65,1.23-1.11.31-.46.54-.98.68-1.56s.21-1.18.21-1.79-.07-1.26-.21-1.86c-.14-.6-.37-1.13-.68-1.61-.31-.47-.72-.84-1.23-1.12-.5-.28-1.12-.42-1.84-.42s-1.34.14-1.84.42-.91.65-1.23,1.12c-.31.47-.54,1.01-.69,1.61-.14.6-.21,1.22-.21,1.86s.07,1.21.21,1.79Z"/>
      <path class="st1" d="M199.82,290.47l6.09,9.79h.04v-9.79h3.01v14.6h-3.21l-6.07-9.77h-.04v9.77h-3.01v-14.6h3.19Z"/>
      <path class="st1" d="M222.36,303.96c-1.1.96-2.63,1.44-4.58,1.44s-3.51-.48-4.59-1.43c-1.08-.95-1.63-2.43-1.63-4.42v-9.08h3.21v9.08c0,.4.03.78.1,1.17.07.38.21.72.43,1.01.22.29.52.53.91.72.39.18.91.28,1.56.28,1.15,0,1.94-.26,2.37-.77.44-.51.65-1.31.65-2.4v-9.08h3.21v9.08c0,1.98-.55,3.44-1.66,4.41h.02Z"/>
      <path class="st1" d="M27.98,319.04v1.35h.04c.35-.57.8-.99,1.35-1.25.54-.26,1.14-.39,1.8-.39.83,0,1.55.16,2.15.47s1.1.73,1.49,1.25c.4.52.69,1.12.88,1.81.19.69.29,1.41.29,2.16,0,.71-.1,1.39-.29,2.05-.19.65-.48,1.23-.87,1.74-.39.51-.87.91-1.45,1.21s-1.26.45-2.04.45c-.65,0-1.26-.13-1.81-.4s-1.01-.66-1.36-1.18h-.04v5.01h-2.9v-14.27h2.76,0ZM31.75,327.42c.32-.19.58-.44.78-.75.2-.31.34-.66.42-1.07.08-.41.12-.83.12-1.25s-.04-.84-.13-1.25-.23-.77-.44-1.09c-.2-.32-.47-.58-.79-.78s-.71-.3-1.18-.3-.88.1-1.2.3c-.32.2-.58.45-.78.77-.2.31-.34.67-.42,1.08-.08.41-.12.83-.12,1.27s.04.84.13,1.25c.09.41.23.77.43,1.07.2.31.46.56.79.75.33.19.72.29,1.19.29s.88-.1,1.2-.29h0Z"/>
      <path class="st1" d="M37.47,322.29c.04-.68.21-1.25.51-1.7s.68-.81,1.15-1.08c.46-.27.99-.47,1.56-.58.58-.12,1.16-.17,1.75-.17.53,0,1.07.04,1.62.11.55.07,1.04.22,1.49.44s.82.52,1.1.91c.29.39.43.9.43,1.54v5.5c0,.48.03.93.08,1.37.05.44.15.76.29.98h-2.94c-.05-.16-.1-.33-.13-.5-.03-.17-.06-.34-.07-.52-.46.48-1.01.81-1.64,1s-1.27.29-1.92.29c-.51,0-.98-.06-1.41-.18-.44-.12-.82-.31-1.14-.57-.33-.26-.58-.59-.77-.98-.18-.4-.28-.87-.28-1.41,0-.6.11-1.09.32-1.48s.48-.7.82-.93c.33-.23.72-.41,1.15-.52.43-.12.86-.21,1.3-.28s.87-.12,1.29-.16c.42-.04.8-.1,1.13-.18s.58-.2.78-.36c.19-.16.28-.39.27-.68,0-.31-.05-.56-.15-.75-.1-.18-.24-.33-.41-.43s-.37-.17-.59-.21c-.23-.03-.47-.05-.73-.05-.57,0-1.02.12-1.35.37-.33.25-.52.65-.57,1.23h-2.9l-.04-.02h0ZM44.18,324.44c-.12.11-.28.2-.46.26s-.38.11-.59.15-.43.08-.66.1c-.23.03-.46.06-.69.1-.22.04-.43.1-.64.16-.21.07-.4.16-.55.28-.16.12-.28.26-.38.44-.1.18-.14.4-.14.67s.05.48.14.65c.1.18.23.32.39.42s.35.17.57.21c.22.04.44.06.67.06.57,0,1.02-.09,1.33-.29.31-.19.54-.42.69-.69.15-.26.24-.53.28-.81.03-.27.05-.49.05-.65v-1.08.02h0Z"/>
      <path class="st1" d="M52.04,319.04v1.96h.04c.14-.33.32-.63.55-.91s.5-.52.8-.72.62-.35.96-.46.69-.16,1.06-.16c.19,0,.4.03.63.1v2.7c-.14-.03-.3-.05-.49-.07-.19-.02-.37-.03-.55-.03-.53,0-.98.09-1.35.26-.37.18-.66.42-.89.73-.22.31-.38.66-.48,1.07s-.14.85-.14,1.33v4.77h-2.9v-10.57h2.76Z"/>
      <path class="st1" d="M57.15,322.29c.04-.68.21-1.25.51-1.7s.68-.81,1.15-1.08c.46-.27.99-.47,1.56-.58s1.16-.17,1.75-.17c.53,0,1.07.04,1.62.11.55.07,1.04.22,1.49.44.45.22.82.52,1.1.91.29.39.43.9.43,1.54v5.5c0,.48.03.93.08,1.37s.15.76.29.98h-2.94c-.05-.16-.1-.33-.13-.5s-.06-.34-.07-.52c-.46.48-1.01.81-1.64,1s-1.27.29-1.92.29c-.51,0-.98-.06-1.41-.18-.44-.12-.82-.31-1.14-.57-.33-.26-.58-.59-.77-.98-.18-.4-.28-.87-.28-1.41,0-.6.11-1.09.32-1.48s.48-.7.82-.93c.33-.23.72-.41,1.14-.52.43-.12.86-.21,1.3-.28s.87-.12,1.29-.16c.42-.04.8-.1,1.13-.18s.58-.2.78-.36c.19-.16.28-.39.27-.68,0-.31-.05-.56-.15-.75-.1-.18-.24-.33-.41-.43s-.37-.17-.59-.21c-.23-.03-.47-.05-.73-.05-.57,0-1.02.12-1.35.37-.33.25-.52.65-.57,1.23h-2.9l-.03-.02h0ZM63.86,324.44c-.12.11-.28.2-.46.26s-.38.11-.59.15-.43.08-.66.1c-.23.03-.46.06-.69.1-.22.04-.43.1-.64.16-.21.07-.4.16-.55.28-.16.12-.28.26-.38.44-.1.18-.14.4-.14.67s.05.48.14.65c.1.18.23.32.39.42s.35.17.57.21c.22.04.44.06.67.06.57,0,1.02-.09,1.33-.29.31-.19.54-.42.69-.69.15-.26.24-.53.28-.81.03-.27.05-.49.05-.65v-1.08.02h0Z"/>
      <path class="st1" d="M77.27,315.01v14.6h-2.9v-14.6h2.9Z"/>
      <path class="st1" d="M79.46,322.04c.26-.69.63-1.27,1.1-1.76.48-.48,1.05-.86,1.72-1.12s1.42-.4,2.25-.4,1.59.13,2.26.4c.67.27,1.25.64,1.73,1.12.48.48.85,1.07,1.1,1.76.26.69.39,1.46.39,2.3s-.13,1.61-.39,2.29c-.26.68-.63,1.27-1.1,1.75-.48.48-1.05.86-1.73,1.11-.67.26-1.43.39-2.26.39s-1.58-.13-2.25-.39-1.24-.63-1.72-1.11c-.48-.48-.85-1.07-1.1-1.75-.26-.68-.39-1.44-.39-2.29s.13-1.61.39-2.3ZM82.1,325.57c.08.4.22.76.42,1.08.2.32.46.58.79.77s.74.29,1.23.29.9-.1,1.24-.29c.33-.19.6-.45.8-.77.2-.32.34-.68.42-1.08s.12-.82.12-1.24-.04-.84-.12-1.25-.22-.77-.42-1.08-.46-.57-.8-.77c-.33-.2-.75-.3-1.24-.3s-.9.1-1.23.3c-.33.2-.59.45-.79.77-.2.31-.34.67-.42,1.08-.08.41-.12.82-.12,1.25s.04.84.12,1.24Z"/>
      <path class="st1" d="M94.13,326.98c.13.23.3.41.5.55.21.14.44.25.71.32s.54.1.83.1c.2,0,.42-.02.64-.07.22-.05.43-.12.61-.22s.34-.24.46-.41.18-.39.18-.64c0-.44-.29-.76-.87-.98s-1.39-.44-2.42-.65c-.42-.1-.84-.21-1.24-.34s-.76-.3-1.07-.51c-.31-.21-.57-.48-.76-.8-.19-.32-.29-.71-.29-1.18,0-.68.13-1.24.4-1.68.26-.44.62-.78,1.05-1.03.44-.25.93-.43,1.47-.53s1.1-.15,1.68-.15,1.13.05,1.67.16c.54.11,1.02.29,1.44.55.42.26.77.6,1.05,1.03.28.43.45.97.5,1.63h-2.76c-.04-.56-.25-.94-.63-1.13-.38-.2-.83-.3-1.35-.3-.16,0-.34.01-.53.03s-.36.07-.52.13c-.16.07-.29.17-.4.3-.11.13-.16.3-.16.52,0,.26.1.47.29.63s.44.3.75.4.66.19,1.05.28c.4.08.8.17,1.21.27.42.1.84.21,1.24.35s.76.32,1.07.54.57.5.76.84c.19.33.29.75.29,1.24,0,.69-.14,1.28-.42,1.75s-.64.85-1.09,1.14-.96.49-1.54.6c-.58.12-1.17.17-1.77.17s-1.21-.06-1.8-.18c-.59-.12-1.11-.33-1.56-.61-.46-.29-.83-.66-1.12-1.13s-.45-1.06-.48-1.77h2.76c0,.31.07.58.19.81l-.02-.03h0Z"/>
      <path class="st1" d="M116.12,315.01c.65,0,1.24.11,1.77.32.53.21.97.5,1.35.87.37.37.66.79.86,1.28.2.48.3,1.01.3,1.56,0,.86-.18,1.6-.54,2.23s-.95,1.1-1.77,1.43v.04c.4.11.72.28.98.5s.47.49.63.8c.16.31.28.64.36,1.01.07.37.13.74.15,1.1.01.23.03.51.04.82s.04.63.07.96.09.64.16.93c.08.29.19.54.34.75h-3.21c-.18-.46-.29-1.02-.33-1.66s-.1-1.25-.18-1.84c-.11-.76-.34-1.32-.69-1.68-.35-.35-.93-.53-1.74-.53h-3.21v5.71h-3.21v-14.6s7.87,0,7.87,0ZM114.98,321.62c.74,0,1.29-.16,1.66-.49s.55-.86.55-1.6-.19-1.22-.55-1.54c-.37-.32-.92-.48-1.66-.48h-3.52v4.11h3.52Z"/>
      <path class="st1" d="M125.54,327.08c.44.42,1.06.63,1.88.63.59,0,1.09-.15,1.51-.44s.68-.6.78-.93h2.56c-.41,1.27-1.04,2.18-1.88,2.72-.85.55-1.87.82-3.07.82-.83,0-1.58-.13-2.25-.4s-1.23-.64-1.7-1.13c-.46-.49-.82-1.08-1.07-1.76-.25-.68-.38-1.43-.38-2.25s.13-1.53.39-2.21.63-1.27,1.1-1.77c.48-.5,1.05-.89,1.71-1.18.66-.29,1.39-.43,2.2-.43.9,0,1.68.17,2.35.52.67.35,1.22.81,1.65,1.4s.74,1.25.93,2c.19.75.26,1.53.2,2.35h-7.63c.04.94.28,1.62.72,2.05h0ZM128.82,321.51c-.35-.38-.88-.57-1.59-.57-.46,0-.85.08-1.16.23-.31.16-.55.35-.74.58-.18.23-.31.48-.39.74-.08.26-.12.49-.13.7h4.72c-.14-.74-.38-1.3-.73-1.68h.02,0Z"/>
      <path class="st1" d="M132.93,320.98v-1.94h1.74v-.82c0-.94.29-1.71.88-2.31.59-.6,1.47-.9,2.66-.9.26,0,.52.01.78.03s.51.04.76.05v2.17c-.34-.04-.7-.06-1.06-.06-.4,0-.68.09-.85.28-.17.18-.26.49-.26.93v.63h2v1.94h-2v8.63h-2.9v-8.63h-1.75Z"/>
      <path class="st1" d="M147.94,329.61v-1.47h-.06c-.37.61-.85,1.06-1.43,1.33-.59.27-1.19.41-1.8.41-.78,0-1.41-.1-1.91-.31-.5-.2-.89-.49-1.18-.87-.29-.37-.49-.83-.6-1.37-.12-.54-.17-1.14-.17-1.79v-6.5h2.9v5.97c0,.87.14,1.52.41,1.95.27.43.76.64,1.45.64.79,0,1.36-.23,1.72-.7.35-.47.53-1.24.53-2.32v-5.54h2.9v10.57h-2.76Z"/>
      <path class="st1" d="M162.79,330.39c-.12.54-.36,1.05-.75,1.52-.38.47-.94.87-1.66,1.2-.72.33-1.69.49-2.9.49-.52,0-1.05-.07-1.58-.2-.54-.13-1.03-.33-1.47-.6-.44-.27-.81-.62-1.1-1.05-.29-.43-.46-.94-.5-1.54h2.88c.14.55.4.92.8,1.14.4.21.85.32,1.37.32.82,0,1.41-.25,1.79-.74.37-.49.55-1.11.54-1.86v-1.39h-.04c-.31.56-.76.97-1.34,1.24s-1.19.4-1.83.4c-.79,0-1.47-.14-2.05-.42-.57-.28-1.04-.66-1.41-1.14-.37-.48-.64-1.05-.81-1.7-.17-.65-.25-1.33-.25-2.05,0-.68.1-1.34.3-1.97s.49-1.19.87-1.68c.38-.48.86-.87,1.42-1.16.57-.29,1.22-.43,1.95-.43s1.31.13,1.83.39.96.7,1.32,1.31h.04v-1.41h2.76v9.9c0,.42-.06.91-.17,1.45v-.02h0ZM158.82,326.87c.31-.16.57-.38.78-.65.21-.27.36-.58.46-.93s.15-.71.15-1.09c0-.44-.04-.85-.12-1.24-.08-.39-.22-.73-.41-1.03s-.44-.54-.76-.72c-.31-.18-.71-.26-1.19-.26-.41,0-.76.08-1.05.24-.29.16-.54.39-.74.66-.2.28-.34.6-.43.96s-.13.74-.13,1.13.04.76.11,1.13c.07.38.2.71.39,1.01.18.3.43.55.73.74s.67.29,1.12.29c.41,0,.77-.08,1.08-.24h.01Z"/>
      <path class="st1" d="M165.22,317.4v-2.39h2.91v2.39h-2.91ZM168.13,319.04v10.57h-2.91v-10.57h2.91Z"/>
      <path class="st1" d="M170.22,322.29c.04-.68.21-1.25.51-1.7.3-.45.68-.81,1.14-1.08s.99-.47,1.56-.58c.58-.12,1.16-.17,1.75-.17.53,0,1.07.04,1.62.11.55.07,1.04.22,1.49.44.45.22.82.52,1.1.91.29.39.43.9.43,1.54v5.5c0,.48.03.93.08,1.37s.15.76.29.98h-2.94c-.05-.16-.1-.33-.13-.5s-.06-.34-.07-.52c-.46.48-1.01.81-1.64,1s-1.27.29-1.92.29c-.51,0-.98-.06-1.41-.18-.44-.12-.82-.31-1.15-.57-.33-.26-.58-.59-.77-.98-.18-.4-.28-.87-.28-1.41,0-.6.11-1.09.32-1.48s.48-.7.82-.93c.33-.23.72-.41,1.14-.52.43-.12.86-.21,1.3-.28s.87-.12,1.29-.16.8-.1,1.13-.18.58-.2.78-.36c.19-.16.28-.39.27-.68,0-.31-.05-.56-.15-.75-.1-.18-.24-.33-.41-.43s-.37-.17-.59-.21c-.23-.03-.47-.05-.73-.05-.57,0-1.02.12-1.35.37s-.52.65-.57,1.23h-2.9v-.02h0ZM176.93,324.44c-.12.11-.28.2-.46.26-.18.06-.38.11-.59.15-.21.04-.43.08-.66.1-.23.03-.46.06-.69.1-.22.04-.43.1-.64.16-.21.07-.4.16-.55.28-.16.12-.28.26-.38.44s-.14.4-.14.67.05.48.14.65c.1.18.23.32.39.42s.35.17.57.21c.22.04.44.06.67.06.57,0,1.02-.09,1.33-.29.31-.19.54-.42.69-.69.15-.26.24-.53.28-.81.03-.27.05-.49.05-.65v-1.08.02h0Z"/>
      <path class="st1" d="M189.43,328.26c-.34.57-.79.99-1.34,1.24s-1.18.38-1.87.38c-.79,0-1.49-.15-2.09-.46-.6-.31-1.09-.72-1.48-1.25s-.68-1.13-.88-1.81c-.2-.68-.3-1.39-.3-2.13s.1-1.39.3-2.06c.2-.66.49-1.24.88-1.75.39-.5.88-.91,1.46-1.22s1.27-.46,2.04-.46c.63,0,1.22.13,1.79.4.56.27,1.01.66,1.34,1.18h.04v-5.32h2.9v14.6h-2.76v-1.35h-.04,0ZM189.31,323.04c-.08-.4-.22-.76-.42-1.06-.2-.31-.45-.56-.77-.75-.31-.19-.71-.29-1.19-.29s-.88.1-1.21.29-.59.44-.79.76c-.2.31-.34.67-.43,1.07s-.13.82-.13,1.26c0,.41.05.82.14,1.23.1.41.25.77.46,1.09s.48.58.8.78.7.3,1.16.3.88-.1,1.2-.29c.32-.19.57-.45.77-.77.19-.32.33-.68.41-1.09s.12-.83.12-1.27-.04-.86-.12-1.26h0Z"/>
      <path class="st1" d="M194.34,322.04c.26-.69.63-1.27,1.1-1.76.48-.48,1.05-.86,1.72-1.12s1.42-.4,2.25-.4,1.58.13,2.26.4c.67.27,1.25.64,1.73,1.12.48.48.85,1.07,1.1,1.76.26.69.39,1.46.39,2.3s-.13,1.61-.39,2.29c-.26.68-.63,1.27-1.1,1.75-.48.48-1.05.86-1.73,1.11-.67.26-1.43.39-2.26.39s-1.58-.13-2.25-.39-1.24-.63-1.72-1.11c-.48-.48-.85-1.07-1.1-1.75-.26-.68-.39-1.44-.39-2.29s.13-1.61.39-2.3ZM196.98,325.57c.08.4.22.76.42,1.08.2.32.46.58.79.77.33.19.74.29,1.23.29s.9-.1,1.24-.29c.33-.19.6-.45.8-.77.2-.32.34-.68.42-1.08s.12-.82.12-1.24-.04-.84-.12-1.25-.22-.77-.42-1.08-.46-.57-.8-.77c-.33-.2-.75-.3-1.24-.3s-.9.1-1.23.3c-.33.2-.59.45-.79.77-.2.31-.34.67-.42,1.08-.08.41-.12.82-.12,1.25s.04.84.12,1.24Z"/>
      <path class="st1" d="M209.02,326.98c.13.23.3.41.5.55.21.14.44.25.71.32.26.07.54.1.83.1.2,0,.42-.02.64-.07.22-.05.43-.12.61-.22.18-.1.34-.24.46-.41.12-.17.18-.39.18-.64,0-.44-.29-.76-.87-.98s-1.39-.44-2.42-.65c-.42-.1-.84-.21-1.24-.34-.4-.13-.76-.3-1.07-.51-.31-.21-.57-.48-.76-.8-.19-.32-.29-.71-.29-1.18,0-.68.13-1.24.4-1.68.27-.44.62-.78,1.05-1.03.44-.25.93-.43,1.47-.53.54-.1,1.1-.15,1.68-.15s1.13.05,1.67.16c.54.11,1.02.29,1.44.55.42.26.77.6,1.05,1.03s.45.97.5,1.63h-2.76c-.04-.56-.25-.94-.63-1.13-.38-.2-.83-.3-1.35-.3-.16,0-.34.01-.53.03s-.36.07-.52.13c-.16.07-.29.17-.4.3-.11.13-.16.3-.16.52,0,.26.1.47.29.63.19.16.44.3.75.4s.66.19,1.05.28c.4.08.8.17,1.21.27.42.1.84.21,1.24.35.4.14.76.32,1.07.54.31.22.57.5.76.84.19.33.29.75.29,1.24,0,.69-.14,1.28-.42,1.75s-.64.85-1.09,1.14-.96.49-1.54.6c-.58.12-1.17.17-1.77.17s-1.21-.06-1.8-.18-1.11-.33-1.56-.61c-.46-.29-.83-.66-1.12-1.13s-.45-1.06-.48-1.77h2.76c0,.31.07.58.19.81l-.02-.03h0Z"/>
    </g>
    <g>
      <g>
        <path class="st1" d="M126.19,125.89c2.08,0,1.81-1.18,1.81-3.37v-10.65c0-2.2-.22-2.9,1.05-2.9,4.4,0,5.6-.4,5.6-4.31v-39.56c0-10.78-7.64-9-9.8-12.93-3.06-5.32,5.72-5.32,2.53-16.86-.81-2.61-2.86-4.23-6.83-4.23s-6.03,1.62-6.84,4.23c-3.18,11.54,5.6,11.54,2.54,16.86-2.16,3.93-9.8,2.16-9.8,12.93v39.56c0,3.91,1.19,4.31,5.6,4.31,1.25,0,1.04.7,1.04,2.9v10.65c0,2.19-.26,3.37,1.83,3.37h11.27"/>
        <path class="st1" d="M91.41,40.04c-3.91,4.14-10.09,13.81-6.06,21.85,8.2,3.14,7.57-25.86,17.78-25.36,5.04,4.65-1.51,18.33-3.53,24.36-2.53,7.41-4.53,22.97-9.33,30.5-4.03,6.28-1.01,25.99-2.27,32.77-3.4,3.38-12.61,1-16.52.37,0-7.78-1.01-13.93-2.27-26.36-.12-2.51-2.77-40.93-.63-45.57,4.41-9.67,28.49-28.12,31.77-31.64,2.9-3.14,13.11-13.56,17.02-13.56,2.77,1.88,1.13,6.28.5,8.04-3.9,9.67-20.8,19.21-26.47,24.61"/>
        <path class="st1" d="M150.15,40.04c3.78,4.14,9.96,13.81,6.05,21.85-8.32,3.14-7.68-25.86-17.9-25.36-4.91,4.65,1.64,18.33,3.66,24.36,2.52,7.41,4.54,22.97,9.33,30.5,3.91,6.28,1,25.99,2.14,32.77,3.52,3.38,12.61,1,16.63.37,0-7.78.89-13.93,2.15-26.36.26-2.51,2.9-40.93.76-45.57-4.41-9.67-28.49-28.12-31.76-31.64-3.03-3.14-13.12-13.56-17.03-13.56-2.9,1.88-1.13,6.28-.51,8.04,3.91,9.67,20.81,19.21,26.48,24.61"/>
        <path class="st1" d="M56.38,27.03c-2.15,2.01-6.95,3.4-10.23,7.79-1.26-2.39,2.02-8.17,5.93-11.57,2.91-2.39,8.6-6.29,10.23-6.67,1.27,2.9-3.28,7.3-5.93,10.44"/>
        <path class="st1" d="M49.69,42.74c-3.66,3.4-7.58,4.79-12.64,10.95-2.14-7.42-1.63-13.97-.63-18.37,1.77-5.78,4.68-12.2,9.61-14.21-1.01,3.27-2.66,7.8-3.04,13.96-2.14,8.43-3.41,8.68-2.9,9.81.5,0,3.28-4.4,6.69-7.79,4.05-4.02,9.09-4.91,12.38-7.29-.51,1.64-3.41,6.79-9.47,12.95"/>
        <path class="st1" d="M31.87,77.59c-4.92-8.81-5.43-15.22-5.81-22.65.26-5.15,2.78-17.11,6.57-18.86-1.13,10.81,1.77,11.82.64,20.75,0,.5-1.27,9.81-1.27,10.31,1.52-.25.14-8.56,17.43-20.5-3.79,6.54-2.02,8.55-8.84,17.23-7.96,7.8-9.09,15.48-8.72,13.71"/>
        <path class="st1" d="M38.82,85.89c-3.67,5.28-3.04,7.93-3.92,10.44-8.72-5.03-18.57-25.03-14.91-34.97,2.27,7.55,5.43,9.18,7.7,15.47,3.92,9.44,3.29,12.33,5.81,14.46-.51-4.9,1.14-10.69,2.78-14.97,2.4-3.64,4.3-8.43,6.07-10.06,1.89,6.92.5,12.58-3.54,19.63"/>
        <path class="st1" d="M46.65,103c0,7.68-1.39,11.07-2.02,16.73-15.03-4.9-22.87-22.01-22.87-30.44,4.56,10.31,11.25,10.19,19.97,24.78.76-5.53-1.52-1.38-1.77-11.82.25-10.95,2.53-11.32,2.9-18.11,2.78,3.01,3.79,15.09,3.79,18.86"/>
        <path class="st1" d="M59.16,124.77c1.14,5.66,1.64,12.33,2.52,17.24-8.58-3.15-10.74-.76-20.96-7.17-4.67-2.52-13.01-13.09-12.5-20.64,10.1,11.2,11.87,9.94,16.8,14.09,4.54,3.65,8.2,9.06,11.5,8.31.24-3.02-7.46-9.56-6.45-28.43,2.01,2.14,7.57,10.69,9.09,16.6"/>
        <path class="st1" d="M76.21,138.86c2.66,3.77,2.03,5.4,8.85,13.21-1.64.75-11.36,3.27-17.82,3.52-4.28,0-19.45-4.02-24.5-14.35,8.71,4.66,8.84,3.53,20.46,6.05,8.34,1.88,14.28,4.52,16.55,4.28-.5-1.13-6.95-3.78-11.36-9.31-4.43-5.91-3.42-12.58-7.34-17.49,2.66-.76,13.01,11.32,15.16,14.09"/>
        <path class="st1" d="M184.46,27.03c2.03,2.01,6.95,3.4,10.11,7.79,1.39-2.39-2.02-8.17-5.93-11.57-2.77-2.39-8.46-6.29-10.24-6.67-1.27,2.9,3.28,7.3,6.06,10.44"/>
        <path class="st1" d="M191.16,42.74c3.54,3.4,7.45,4.79,12.51,10.95,2.15-7.42,1.64-13.97.63-18.37-1.64-5.78-4.68-12.2-9.6-14.21,1.14,3.27,2.65,7.8,3.03,13.96,2.15,8.43,3.41,8.68,2.9,9.81-.5,0-3.28-4.4-6.7-7.79-3.91-4.02-8.97-4.91-12.38-7.29.51,1.64,3.54,6.79,9.6,12.95"/>
        <path class="st1" d="M208.86,77.59c5.04-8.81,5.42-15.22,5.8-22.65-.26-5.15-2.78-17.11-6.44-18.86,1.01,10.81-1.9,11.82-.64,20.75,0,.5,1.14,9.81,1.14,10.31-1.39-.25-.13-8.56-17.31-20.5,3.66,6.54,1.89,8.55,8.72,17.23,8.09,7.8,9.09,15.48,8.72,13.71"/>
        <path class="st1" d="M202.03,85.89c3.54,5.28,2.9,7.93,3.79,10.44,8.72-5.03,18.7-25.03,14.91-34.97-2.15,7.55-5.44,9.18-7.58,15.47-4.04,9.44-3.41,12.33-5.81,14.46.5-4.9-1.26-10.69-2.9-14.97-2.28-3.64-4.3-8.43-6.07-10.06-1.77,6.92-.5,12.58,3.66,19.63"/>
        <path class="st1" d="M194.07,103c0,7.68,1.52,11.07,2.15,16.73,14.91-4.9,22.87-22.01,22.87-30.44-4.68,10.31-11.25,10.19-20.09,24.78-.76-5.53,1.51-1.38,1.77-11.82-.26-10.95-2.53-11.32-2.91-18.11-2.78,3.01-3.8,15.09-3.8,18.86"/>
        <path class="st1" d="M181.56,124.77c-1.14,5.66-1.51,12.33-2.4,17.24,8.47-3.15,10.61-.76,20.85-7.17,4.67-2.52,13.13-13.09,12.63-20.64-10.11,11.2-12,9.94-16.8,14.09-4.55,3.65-8.34,9.06-11.63,8.31-.25-3.02,7.46-9.56,6.58-28.43-2.15,2.14-7.71,10.69-9.23,16.6"/>
        <path class="st1" d="M164.51,138.86c-2.52,3.77-1.9,5.4-8.84,13.21,1.77.75,11.37,3.27,17.94,3.52,4.17,0,19.33-4.02,24.38-14.35-8.71,4.66-8.84,3.53-20.46,6.05-8.34,1.88-14.15,4.52-16.54,4.28.5-1.13,7.07-3.78,11.36-9.31,4.42-5.91,3.41-12.58,7.46-17.49-2.78-.76-13.14,11.32-15.29,14.09"/>
        <path class="st1" d="M98.82,174.33l-2.52-1.26s16.04-19.5,43.58-17.99c27.53,1.51,25.64,7.93,40.41,6.92,1.64-.13-1.26,2.01-1.26,2.01,0,0-14.4,5.53-32.21-.5-17.69-6.04-29.19-9.69-48.01,10.82"/>
        <path class="st1" d="M142.4,174.33l2.54-1.26s-15.92-19.5-43.46-17.99c-27.66,1.51-25.76,7.93-40.55,6.92-1.64-.13,1.27,2.01,1.27,2.01,0,0,14.4,5.53,32.22-.5,17.8-6.04,29.3-9.69,47.98,10.82"/>
      </g>
      <g>
        <path class="st1" d="M45.54,214.32c0,12.08-6.52,17.87-19.82,17.87s-19.89-5.8-19.89-17.87v-26.71h13.42v23.72c0,4.45,0,10,6.53,10s6.34-5.56,6.34-10v-23.72h13.42v26.71"/>
        <polygon class="st1" points="53.59 187.61 67.31 187.61 80 210.91 80.12 210.91 80.12 187.61 92.8 187.61 92.8 231.15 79.75 231.15 66.4 207.37 66.27 207.37 66.27 231.15 53.59 231.15 53.59 187.61"/>
        <polygon class="st1" points="101.04 187.61 114.46 187.61 114.46 202.74 127.02 202.74 127.02 187.61 140.44 187.61 140.44 231.15 127.02 231.15 127.02 213.9 114.46 213.9 114.46 231.15 101.04 231.15 101.04 187.61"/>
        <path class="st1" d="M174.78,203.83c-.24-1.59-1.46-6.4-7.02-6.4-6.28,0-8.29,6.09-8.29,11.95s2.01,11.96,8.29,11.96c4.52,0,6.29-3.17,7.08-7.26h13.17c0,8.78-7.14,18.11-19.88,18.11-14.09,0-22.08-9.94-22.08-22.81,0-13.72,8.66-22.81,22.08-22.81,11.95.06,18.54,6.34,19.7,17.26h-13.05"/>
        <path class="st1" d="M207.04,197.98h6.28c5.13,0,6.65,1.59,6.65,4.33,0,3.9-3.42,4.33-5.92,4.33h-7.02v-8.66h.01ZM193.62,231.16h13.42v-15.18h7.14c5.3,0,5.67,4.33,6.03,8.48.18,2.26.42,4.51,1.1,6.7h13.42c-1.22-2.01-1.28-7.19-1.47-9.33-.49-5.43-2.74-9.45-6.4-10.86,4.45-1.65,6.53-6.4,6.53-10.92,0-8.24-6.59-12.44-14.21-12.44h-25.56v43.54"/>
      </g>
      <g>
        <path class="st1" d="M28.88,253.55h.12l4.02,13.72h-8.43l4.29-13.72h0ZM22.21,238.66l-16.38,44.5h13.76l2.01-6.36h14.16l1.86,6.36h14.22l-16.19-44.5h-13.44Z"/>
        <path class="st1" d="M93.87,255.24h-13.36c-.22-1.48-.85-2.94-1.89-4.38s-2.79-2.16-5.27-2.16c-2.94,0-5.09,1.18-6.45,3.55-1.36,2.36-2.04,5.26-2.04,8.69s.68,6.29,2.04,8.66c1.36,2.36,3.51,3.55,6.45,3.55,2.13,0,3.75-.65,4.87-1.95,1.12-1.3,1.9-3.11,2.34-5.45h13.48c0,2.25-.45,4.48-1.36,6.67-.9,2.2-2.24,4.2-4.02,5.99-1.78,1.79-3.94,3.21-6.49,4.26-2.55,1.05-5.37,1.57-8.48,1.57-4.67,0-8.71-1.01-12.12-3.04s-6-4.82-7.78-8.38-2.67-7.52-2.67-11.88c0-3.51.52-6.68,1.57-9.51s2.58-5.3,4.61-7.41,4.42-3.7,7.16-4.78c2.74-1.08,5.81-1.61,9.22-1.61,3.01,0,5.7.39,8.08,1.17,2.39.78,4.43,1.93,6.14,3.44,1.71,1.51,3.06,3.37,4.05,5.56.99,2.19,1.62,4.68,1.89,7.46"/>
        <polygon class="st1" points="126.39 238.66 126.39 262.47 126.27 262.47 113.31 238.66 99.28 238.66 99.28 283.17 112.24 283.17 112.24 258.85 112.37 258.85 126 283.17 139.36 283.17 139.36 238.66 126.39 238.66"/>
        <path class="st1" d="M186.36,238.66v27.3c0,6.13-1.68,10.7-5.04,13.73-3.36,3.02-8.44,4.53-15.23,4.53-3.43,0-6.4-.37-8.91-1.13-2.51-.75-4.61-1.88-6.32-3.39-1.7-1.51-2.98-3.42-3.82-5.72-.84-2.3-1.26-4.98-1.26-8.02v-27.3h13.71v24.24c0,2.11.11,3.85.33,5.21s.83,2.54,1.83,3.53,2.5,1.49,4.51,1.49,3.43-.5,4.4-1.49c.96-.99,1.55-2.17,1.77-3.53.21-1.36.32-3.1.32-5.21v-24.24h13.71,0Z"/>
        <path class="st1" d="M206.44,249.26v8.85h7.18c1.71,0,3.14-.29,4.29-.88,1.16-.59,1.74-1.78,1.74-3.56,0-1.46-.5-2.56-1.51-3.3s-2.77-1.11-5.28-1.11h-6.42ZM192.73,283.17v-44.5h26.12c1.95,0,3.81.27,5.6.82,1.78.55,3.35,1.36,4.69,2.45s2.38,2.42,3.12,4c.74,1.58,1.11,3.4,1.11,5.45,0,2.5-.57,4.77-1.7,6.83-1.14,2.06-2.79,3.5-4.96,4.31,1.82.67,3.31,1.99,4.45,3.96,1.15,1.97,1.84,4.35,2.08,7.16.04.59.11,1.64.21,3.15.1,1.51.25,2.81.44,3.88s.47,1.91.84,2.5h-13.68c-.53-1.66-.9-3.95-1.13-6.85-.16-1.8-.39-3.31-.67-4.5-.28-1.2-.86-2.19-1.72-2.98s-2.13-1.19-3.79-1.19h-7.31v15.52h-13.71.01Z"/>
      </g>
    </g>
  </g>
  <line class="st3" x1="293" y1="7.4" x2="293" y2="333.31"/>
</svg>