<?xml version="1.0" encoding="UTF-8"?>
<svg id="Layer_1" xmlns="http://www.w3.org/2000/svg" version="1.1" viewBox="0 0 577.99 263.67">
  <!-- Generator: Adobe Illustrator 30.0.0, SVG Export Plug-In . SVG Version: 2.1.1 Build 123)  -->
  <defs>
    <style>
      .st0 {
        stroke: #fff;
        stroke-miterlimit: 10;
      }

      .st0, .st1 {
        fill: #fff;
      }

      .st2 {
        fill: none;
      }

      .st3 {
        fill: #9ac7e3;
      }

      .st4 {
        fill: #f7e904;
      }
    </style>
  </defs>
  <path class="st2" d="M2.3,138.75v-.27c-.14.23-.18.36-.18.41.05,0,.09-.05.18-.14Z"/>
  <path class="st2" d="M2.03,144.47v.05c.09,0,.18.14.27.14v-.23s-.09-.09-.14-.09c-.09,0-.14.05-.14.14h.01Z"/>
  <path class="st2" d="M42.62,149.83s0,.04.05.09v-.09h-.05Z"/>
  <path class="st2" d="M2.16,144.06v-.14c-.14-.04-.14-.14-.14-.18v-.09s0-.05.04-.09v-.04h-.04c-.14,0-.14-.14-.14-.27.05-.05.09-.09.09-.14h-.09c-.09,0-.14.04-.14.09v.32c.09.41.18.59.32.59.09,0,.12,0,.09-.04h.01Z"/>
  <path class="st2" d="M440.84,225.25c0,2.5,1.56,4.47,5.1,4.47,4.68,0,8.84-5.1,8.84-9.46v-.83h-1.66c-5.72,0-12.27,1.56-12.27,5.82h-.01Z"/>
  <path class="st2" d="M52.61,104.97c-.14,0-.5.27-1.14.77-.32.23-.63.5-1,.77-.41.23-2.27,2.27-3.04,3.18-.91,1.23-2.36,3.36-3.77,5.58-.95,1.45-1.77,2.77-3.22,5.31-.23.41-.54,1.09-1.04,2-1.04,1.82-2.13,3.86-2.45,4.72l-.68,1.13,1.23-1.13c.41-.5.91-1.09,1.59-1.86.41-.41.77-.82,1.09-1.23,3.22-3.54,5.95-7.04,8.08-10.45,1.5-2.32,2.45-4,2.95-5.04.09-.5.41-.73.41-.73.04,0,.09,0,.09-.05h.05l-.05-.04s-.05-.04-.09-.04c0-.23.04-.23.04-.23l.09.09h.09s.05-.04.05-.14c-.05,0-.05-.04-.05-.09v-.14c.05-.18.14-.36.18-.59.41-1.04.64-1.59.64-1.77,0-.12-.02-.13-.05-.04v.02h0Z"/>
  <path class="st2" d="M1.89,142.84v-.45l-.09-.05s-.05,0-.05.05v.14c0,.14,0,.23.05.27v.09s.04,0,.09-.05Z"/>
  <path class="st2" d="M240.43,202.37c-6.55,0-12.17,5.1-12.17,13.21s5.62,12.9,12.17,12.9,12.17-4.89,12.17-12.9-5.62-13.21-12.17-13.21Z"/>
  <path class="st2" d="M175.5,149.83c6.55,0,12.17-4.89,12.17-12.9s-5.62-13.21-12.17-13.21-12.17,5.1-12.17,13.21,5.62,12.9,12.17,12.9Z"/>
  <path class="st2" d="M312.57,149.93c5.62,0,10.5-4.58,10.5-12.79s-4.26-13.21-10.5-13.21c-5.41,0-10.5,3.95-10.5,13.21,0,6.45,3.43,12.79,10.5,12.79Z"/>
  <path class="st2" d="M15.24,201.65h-.14s.09.05.14.05v-.05Z"/>
  <path class="st2" d="M34.08,210.78c.09,0,.27-.05.5-.14.32-.14.77-.32,1.27-.64,2.45-1.45,4.13-3,5.04-4.59.36-.59.68-1.23.86-1.63l.09-.32h-.04s-.27.09-.59.32c-.77.5-1.82,1.27-2.41,1.77-1.23,1.04-2.86,2.77-3.77,3.9-.18.18-.41.54-.59.86l-.41.41s0,.05.05.05h0Z"/>
  <path class="st2" d="M36.63,116h-.09s.04.05.09.05v-.05Z"/>
  <path class="st2" d="M2.03,139.34c-.14.14-.14.41-.14.54v.27l.14-.27v-.54Z"/>
  <path class="st2" d="M9.74,136.03c.09,0,.27-.05.5-.14.32-.14.77-.32,1.27-.64,2.45-1.45,4.13-3,5.04-4.59.36-.59.68-1.23.86-1.63l.09-.32h-.04s-.27.09-.59.32c-.77.5-1.82,1.27-2.41,1.77-1.23,1.04-2.86,2.77-3.77,3.91-.18.18-.41.54-.59.86l-.41.41s0,.05.05.05h0Z"/>
  <path class="st2" d="M1.84,140.66c.04-.09.04-.18.04-.23,0-.14,0-.18-.04-.18l-.09.18s-.05.23-.09.36c0,.14-.04.23-.04.36v.54l.14-.54c0-.18.05-.36.09-.5h0Z"/>
  <path class="st2" d="M471.05,78.31s0,.02,0,.01h0Z"/>
  <path class="st2" d="M490.14,177.3l-.22-.5c-.08,0-.16.03-.24.04l.52,1.08c.03.06.05.12.07.18l.02.08.17.57v-.12l-.34-1.34h.02Z"/>
  <path class="st2" d="M500.81,158.51s.03.03.04.05c-.03-.04-.05-.06-.04-.05Z"/>
  <path class="st2" d="M463.84,141.07l.08.04-.08-.04Z"/>
  <path class="st2" d="M551.41,92.94l.03-.02s-.04.02-.03.02Z"/>
  <path class="st2" d="M511.74,152.29h.01s-.02,0-.01,0Z"/>
  <polygon class="st2" points="464.08 141.21 464.08 141.21 464.08 141.2 464.08 141.21 464.08 141.21"/>
  <path class="st2" d="M479.4,158.07l-2.02-2.32c.5.63.98,1.28,1.49,1.9l.88.79v-.03c-.18-.15-.32-.28-.35-.33h0Z"/>
  <path class="st2" d="M566.03,72.37h-.03l-1.18-.39-1.37-.14c-.14-.01-.28-.04-.42-.08h-.03l-1.25-.36c-.55,0-1.39.03-1.66-.02h-.03l-1.38-.22c-1.36-.23-2.74-.23-4.12-.37-.9-.11-1.8-.12-2.7-.14-.67,0-1.79.02-2.55.06-.38.06-1.57.22-1.78.24-.81.05-2.29.07-3.2.07-.46.08-1.45.26-1.58.26h-.05l-1.23.1-1.23.46c-.2.08-.41.13-.61.15h-.06l-1.47.17c-.33.07-1.54.32-1.49.32-.1.02-.21.04-.31.05h-.06l-1.14.09-1.1.49c-.31.14-.62.21-.94.23h-.06l-1.38.07-1.12.26c-.51.22-1.37.62-1.69.69h-.06l-1.42.36-1.42.51s-.11.04-.16.05h-.05l-1.17.34-1.09.67c-.19.12-.39.21-.59.27-1.41.47-2.75.97-4.13,1.51-.44.33-1.11.84-1.32.95l-.05.03-1.43.79c-.15.1-1.3.51-1.78.69l-.93.48-.93.86c-.11.1-.23.19-.35.28-.27.19-1.38.95-1.61,1.08l-1.16.63c-.38.34-1.05.93-1.13.98-.64.49-1.85,1.39-2.58,1.9-.73.67-1.46,1.34-2.19,2-.55.58-1.46,1.59-1.98,2.19-.22.29-.9,1.2-.91,1.21-.17.25-.76.74-1.23,1.12l-.38.84v.03c-.17.44-.85,1.15-1.32,1.64-.22.48-.53,1.16-.61,1.3-.39.62-1.07,1.84-1.44,2.57l-.56,1.43-.53,1.15c1.3-.01,2.6-.02,3.89-.05.31-.02,1.26.14,1.85.23.51-.06,1.37-.17,1.37-.17.3-.04,1.14,0,1.71,0,.51-.15,1.29-.39,1.29-.39.56-.19,1.64-.11,2.33-.11l1.55-.24c.19-.03.39-.04.58-.03l1.44.07c1.43-.28,3.41-.68,4.8-.86l1.49-.43c.13-.04.28-.07.41-.09l1.51-.2c.46-.15,1.45-.46,1.45-.46.68-.18,1.41-.2,2.05-.28l1.37-.39,1.65-.59,1.69-.48s1.57-.56,1.58-.56c.89-.24,1.33-.26,2.03-.39l1.31-.4,1.4-.68c.86-.34,1.33-.38,2.05-.56.91-.4,1.83-.79,2.75-1.18l1.22-.86c.19-.14.42-.25.63-.33l1.72-.65,1.29-.42,1.04-.79c.25-.19.52-.33.8-.43l1.33-.45c.74-.51,1.94-1.36,2.49-1.77.08-.06.17-.11.25-.16l1.52-.88c.06-.04.14-.07.2-.11l1.2-.57.96-.91c.14-.13.3-.26.46-.36l1.44-.89,1.28-.88,1.18-1.01,1.12-1.05c.27-.32,1.04-1.23,1.04-1.23.08-.09.17-.19.26-.27l1.2-1.08,1.04-1.15,1.09-1.31c.1-.12.22-.24.33-.34l1.1-.94.87-1.2.95-1.21.18-.36h-.01Z"/>
  <path class="st2" d="M395.94,65.15l-.31-.13-1.24-.36c.46.2.72.31.8.33.07.02.4.09.75.17h0Z"/>
  <g>
    <rect class="st3" x="75.59" y="167.84" width="15.08" height="14.56"/>
    <path class="st3" d="M92.24,224.84v-28.6c0-5.3-2.29-7.59-7.59-7.59h-16.64v15.08h3.95c1.46,0,2.29.83,2.29,2.29v28.6c0,5.3,2.29,7.59,7.59,7.59h16.64v-15.08h-3.95c-1.46,0-2.29-.83-2.29-2.29Z"/>
    <path class="st3" d="M162.54,224.84v-17.37c0-15.08-8.42-20.07-19.24-20.07-9.46,0-14.46,5.1-16.95,9.26h-.21s.1-.73.1-1.25v-.73c0-3.64-2.6-6.03-7.49-6.03h-16.02v15.08h3.95c1.46,0,2.29.83,2.29,2.29v36.19h17.99v-23.71c0-2.6.31-4.99,1.04-7.07,1.56-4.58,4.99-7.7,10.61-7.7,3.95,0,5.93,2.08,5.93,7.07v23.82c0,5.3,2.29,7.59,7.59,7.59h16.64v-15.08h-3.95c-1.46,0-2.29-.83-2.29-2.29h.01Z"/>
    <path class="st3" d="M178.76,187.39v1.25h-6.55v14.04h6.55v39.52h17.99v-39.52h9.88v-14.04h-9.88v-.73c0-4.58,5.51-5.2,9.05-5.2,1.66,0,2.91.21,2.91.21v-15.18s-2.18-.31-5.41-.31c-8.63,0-24.55,2.39-24.55,19.97h0Z"/>
    <path class="st3" d="M240.33,187.39c-16.74,0-30.16,11.34-30.16,28.18s13.42,27.87,30.26,27.87,30.26-11.13,30.26-27.87-13.42-28.18-30.37-28.18h0ZM240.43,228.47c-6.55,0-12.17-4.89-12.17-12.9s5.62-13.21,12.17-13.21,12.17,5.1,12.17,13.21-5.62,12.9-12.17,12.9Z"/>
    <path class="st3" d="M298.78,201.02h-.21s.21-1.04.21-2.7v-2.81c0-4.89-2.71-6.86-7.59-6.86h-15.91v15.08h3.95c1.46,0,2.29.83,2.29,2.29v36.19h17.99v-20.28c0-2.91.31-5.3.94-7.28,2.6-8.01,9.57-9.36,13.83-9.36,2.18,0,3.64.31,3.64.31v-17.68s-1.04-.21-2.08-.21c-8.01,0-14.77,6.03-17.06,13.31h0Z"/>
    <path class="st3" d="M411.82,224.84v-17.37c0-14.77-7.59-20.07-17.37-20.07-8.01,0-14.35,4.58-17.16,9.05h-.21c-2.81-6.03-8.22-9.05-14.98-9.05-8.42,0-13.21,5.51-15.71,9.26h-.21s.1-.73.1-1.25v-.73c0-3.64-2.6-6.03-7.49-6.03h-16.12v15.08h3.95c1.46,0,2.29.83,2.29,2.29v36.19h17.99v-22.15c0-2.29.31-4.47.73-6.45,1.25-5.72,4.26-9.88,9.57-9.88,3.43,0,4.16,2.81,4.16,6.76v31.72h17.99v-22.15c0-2.18.21-4.16.62-6.03,1.14-5.93,4.26-10.3,9.67-10.3,3.43,0,4.16,2.81,4.16,6.76v24.13c0,5.3,2.29,7.59,7.59,7.59h16.64v-15.08h-3.95c-1.46,0-2.29-.83-2.29-2.29h.03,0Z"/>
    <path class="st3" d="M474.85,227.12c-1.46,0-2.29-.83-2.29-2.29v-15.6c0-12.27-6.14-21.84-24.86-21.84-6.14,0-21.32.62-21.32,12.58v5.93h16.64v-2.39c0-2.08,2.39-2.6,4.68-2.6,4.47,0,6.86,1.87,6.86,6.97v.62h-.73c-8.32,0-31.1,1.77-31.1,17.68,0,10.61,8.22,17.26,18.2,17.26,11.23,0,14.98-7.8,14.98-7.8h.21v.94c0,2.39,1.87,5.62,7.07,5.62h15.6v-15.08h-3.95.01ZM454.77,220.26c0,4.37-4.16,9.46-8.84,9.46-3.54,0-5.1-1.98-5.1-4.47,0-4.26,6.55-5.82,12.27-5.82h1.66v.83h.01Z"/>
    <path class="st3" d="M54.84,214.23c0-.18-.09-.41-.27-.59-.14-.13-.27-.27-.27-.41s-.54-.68-.68-.68c-.32,0-.27-.04-.27-.27,0-.5-.36-.59-.73-.64-.18-.04-.36-.09-.41-.23,0-.14-.14-.14-.27-.14-.86,0-1.18.41-1.59,1-.23.32-.54.68-.95,1.09-1.23,1.27-2.82,2.68-4.72,4.27-1.95,1.59-3.91,3-5.95,4.13-2,1.13-3.77,1.68-5.36,1.68h-.14c-.32.05-.64.05-.86.05-.5,0-.91-.09-1.13-.46l-.27-.73c-.18-.77-.27-1.63-.27-2.63v-1.23c0-.68.23-1.63.73-2.86.04-.18.18-.36.23-.41l.04-.04v.04h.05l.05-.04s.04-.05.04-.09c.04-.04.09-.04.14-.04s.14,0,.27.04c.09.04.23.09.41.14.18.14.45.27.64.32l.09.09c.14.18.27.18.41.18s.27,0,.41-.18c0,.18.14.18.27.18,0-.14.27-.18.77-.18h.36c1.09,0,1.63-.14,2.77-.68,1.04-.45,2.68-1.36,2.68-1.54h.04c.14,0,1.59-1,2.72-2.22,1.36-1.32,2.32-2.77,2.91-4.36.32-.86.5-1.68.5-2.41,0-.59-.09-1.13-.32-1.63-.95-1.91-2.22-3.36-3.77-4.31-.36-.14-.86-.23-1.45-.27h-.36c-.41,0-.86.04-1.27.14-2.5.68-5.31,2.68-8.36,5.99-1.59,1.81-3,3.95-4.06,6.07-.24.12-.5.37-.75.78-.59.91-1.41,2-2.45,3.22-1.04,1.23-1.95,2.23-2.72,2.91-1.5,1.54-3.04,2.91-4.72,4.13s-3,1.95-3.95,2.18h-.54v-.73c0-.95.27-2.22.82-3.77.36-1.13,1.09-2.91,1.77-4.49.23-.59.45-1.09.64-1.5.64-1.54,3.59-7.22,4.31-8.54.82-1.5,3.54-6.27,4.18-7.4.14-.14.32-.36.45-.68.05-.04.14-.18.27-.41.14-.23.32-.54.54-.86l.68-.95h8.67c1.32,0,1.59.09,1.68.09.06,0,.09,0,.09.04h.04s.18,0,.32.05c.32,0,.73.09,1.09.09.68,0,1.13.09,1.63.14.23.04.45.09.73.14.23.04.36.09.45.09.14,0,.23-.04.27-.09,0-.05.04-.14.04-.14v-.09l.05-.04s0-.04.05-.09v-.18h.14l.09-.09s-.04-.04-.09-.04v-.04s0-.14.14-.27c.05,0,.14-.18.14-.41v-.27c0-.32,0-.54.14-.54v-.41c0-.18.14-.32.27-.32v-.13l-.14-.14c-.23-.14-.32-.23-.32-.32v-.04s.04-.14.18-.18h.04v-.04s0-.14-.18-.23c-.04-.04-.09-.13-.09-.23s.05-.18.09-.32c.04-.09.04-.18.04-.23,0-.59-.59-.91-1.72-1.04-.23-.04-.41-.13-.59-.18-1.18-.32-1.45-.36-5.27-.36h-4.36l.32-.32c0-.23.41-.96.95-1.68.54-.91.68-1.27.68-1.63v-.54h-.09s-.05,0-.05-.04c0-.14-.09-.27-.27-.41-.14-.14-.27-.27-.27-.41l-.05-.09c-.04-.14-.09-.27-.23-.5-.14-.13-.27-.41-.27-.54v-.04l-.09-.04h-.09v-.04h-.09c-.18,0-.27,0-.45-.14,0-.32-.09-.27-.27-.27-.14,0-.27,0-.41-.13-.14-.32-.32-.41-.54-.59-.05-.04-.14-.04-.23-.04-.23,0-.5.04-1.18.91-.32.41-.86,1-1.27,1.41-.14.23-.27.41-.36.54l-.18.27h.04v.05s-.14.09-.18.09c-.04.04-.09.09-.09.14h.18c0,.18-.36.86-1.04,2l-.18.27c-1.13,1.73-1.04,1.82-1.68,1.95h-9.54c-2.22,0-3.13,0-3.18.14-.03.09-.05.12-.05.09,0-.05.05.05.18.05.23,0,.36.04.41.09,0,.04-.09.09-.23.18h-.45s-.04.04-.04.09c0,.13.09.32.32.32.36,0,.73.46.73.54s-.05.14-.09.14-.14-.04-.18-.14c-.32,0-.27.09-.27.09v.09h.05l.04.05s.14.09.18.09h.14l.14.14s0,.09-.05.09l-.09-.09h-.09s-.04.04-.04.09v.05l-.09.09h-.09s-.04.04-.09.04c-.23,0-.45.18-.5.36-.03.12-.05.15-.05.09,0-.09.05.04.09.09l.09.09-.05.04h-.04c0,.18.14.41.27.59.32.14.32.23.32.41-.04.04-.09.09-.09.13,0,.09.27.82.63.82.14,0,.27.14.41.41.05.04.09.14.14.18.14.14.23.27.27.27h.45c.23.13.41.13,2.41.13h4.72l-.18.36c-.14.23-.27.54-.41.86-2.22,3.86-3.36,5.9-3.36,6.04h.14v.05s-.09,0-.14-.05c-.14,0-.82,1.45-2.77,5.31-1.63,3.04-3.32,6.67-4.04,8.81-.14.5-.32,1.04-.54,1.68-.23.77-.45,1.45-.45,1.5v.73c-.14.95-.14,1.54-.14,2.09.18.73.77,1.86,1.13,2.22.09,0,.05.09.14.09v.04l-.09.09.05.04h.04c.14,0,.68.54,1.23,1.13.91.91,1.36,1.27,2.68,1.68.41.14.82.27.95.41.04.13.09.23.14.23s.14-.09.18-.23l.09-.09s.04.09.04.23v.09s.05.04.14.04v-.36s.09.04.14.09c.18.18.63.23,1.04.23.18,0,.32-.04.36-.09v-.09l.05-.04s.09.09.09.13v.09s.05.04.14.04v-.14h-.04s.04-.04.09-.04h.14s.04,0,.09.04c.05,0,.14,0,.18-.04.09-.04.18-.09.23-.09.14-.09.27-.14.32-.14s.09.04.09.14h.14s0-.05.04-.09l.04-.04h.05l.05-.04c.09,0,.32-.09.41-.09.14-.04.23-.09.32-.14h.09s1.68-.82,2.09-1.13c.32-.14.91-.5,1.41-.82.59-.41.91-.73,1.41-1.09.27-.23.64-.5,1.09-.86.39-.35,1.37-1.25,2.41-2.25,0,.07.03.13.04.2.04.23.09.41.14.63.23.73.5,1.04.91,1.59l.23.23c.41.32.91.91,1.23,1.41.23.14.41.27.59.41.23.18.41.32.54.41.14.18.54.41.95.54.18.05.36.14.5.23.23.13.45.23.64.23l1.14.41c.41.14,1,.27,1.23.27.23.04.45.04.73.04h.59c.27,0,.73-.04,1.36-.18.18,0,.32-.09.46-.14h.32c1.32,0,3.04-.54,5.18-1.68,2.09-1.09,4.18-2.45,6.27-4.09s3.72-3.13,4.86-4.54c.68-.86,1.04-1.5,1.04-2,0-.32-.14-.54-.41-.68l-.09-.05h0ZM34.45,210.33c.18-.32.41-.68.59-.86.91-1.13,2.54-2.86,3.77-3.9.59-.5,1.63-1.27,2.41-1.77.32-.23.54-.32.59-.32h.04l-.09.32c-.18.41-.5,1.04-.86,1.63-.91,1.59-2.59,3.13-5.04,4.59-.5.32-.95.5-1.27.64-.23.09-.41.14-.5.14-.06,0-.08-.02-.05-.05l.41-.41h0Z"/>
  </g>
  <g>
    <path class="st4" d="M569.28,66.38l-1.47-.15c-.15-.02-.3-.04-.45-.08h-.03l-1.33-.38c-.59,0-1.49.03-1.77-.02h-.03l-1.47-.23c-1.46-.24-2.93-.24-4.41-.39-.96-.11-1.93-.13-2.89-.15-.73,0-1.93.03-2.74.07-.42.06-1.67.23-1.9.25-.87.05-2.45.08-3.42.08-.49.08-1.56.28-1.69.28h-.06l-1.31.11-1.31.5c-.22.08-.44.13-.66.16h-.06l-1.58.18c-.35.08-1.65.34-1.6.34-.11.02-.22.04-.34.05h-.07l-1.22.09-1.18.52c-.33.14-.67.22-1.01.24h-.06l-1.48.08-1.2.28c-.54.23-1.47.67-1.81.74l-.07.02-1.51.37-1.52.55c-.06.02-.11.04-.17.05l-.06.02-1.25.35-1.16.71c-.2.13-.41.22-.63.29-1.51.5-2.95,1.04-4.42,1.62-.47.35-1.18.9-1.4,1.01l-.05.03-1.53.84c-.16.1-1.39.55-1.91.74l-1,.51-.99.92c-.12.11-.24.21-.37.3-.29.2-1.48,1.02-1.73,1.16l-1.24.67c-.41.36-1.12.99-1.21,1.05-.68.52-1.98,1.49-2.76,2.03-.78.72-1.56,1.44-2.35,2.15-.59.62-1.56,1.71-2.12,2.34-.23.31-.97,1.28-.97,1.29-.18.27-.81.79-1.32,1.2l-.4.9v.03c-.18.47-.91,1.23-1.41,1.76-.23.52-.56,1.25-.65,1.39-.41.67-1.15,1.98-1.55,2.75l-.6,1.53-.68,1.47-.83,2.87-.04.34.31.03c.39,0,.78-.01,1.17-.02l.53-1.15.56-1.43c.37-.72,1.06-1.94,1.44-2.57.09-.14.39-.82.61-1.3.46-.5,1.15-1.2,1.3-1.64v-.03l.39-.84c.48-.38,1.07-.86,1.23-1.12,0,0,.69-.91.91-1.21.52-.59,1.43-1.6,1.98-2.19.74-.66,1.47-1.33,2.19-2,.73-.51,1.94-1.41,2.58-1.9.08-.05.75-.65,1.13-.98l1.16-.63c.23-.13,1.34-.89,1.61-1.08.12-.08.24-.17.35-.28l.93-.86.93-.48c.48-.18,1.63-.59,1.78-.69l1.43-.79.05-.03c.21-.11.88-.63,1.32-.95,1.38-.54,2.71-1.04,4.13-1.51.21-.07.4-.16.59-.27l1.09-.67,1.17-.32h.05s.11-.05.16-.07l1.42-.51,1.42-.34h.06c.32-.09,1.18-.49,1.69-.71l1.12-.26,1.38-.07h.06c.32-.02.63-.09.94-.23l1.1-.49,1.14-.08h.06c.1-.01.21-.03.31-.05-.05,0,1.16-.24,1.49-.32l1.47-.17h.06c.21-.03.41-.08.61-.16l1.23-.46,1.23-.1h.05c.13,0,1.12-.19,1.58-.27.91,0,2.39-.02,3.2-.07.22-.01,1.4-.18,1.78-.24.76-.04,1.88-.06,2.55-.06.9.01,1.8.03,2.7.14,1.38.14,2.76.14,4.12.37l1.38.21h.03c.27.06,1.11.03,1.66.03l1.25.35h.03c.14.05.28.07.42.09l1.37.14,1.18.38h.03l.49-.96c.08-.17.19-.33.3-.47l.94-1.2.73-1.38.81-1.41c.07-.16.13-.32.2-.48l-.22-.07h0Z"/>
    <path class="st4" d="M431.61,73.12l.88-.84c1.33-.89,2.71-1.91,3.98-2.9l1.33-.43c.13-.04.27-.1.4-.17l.05-.03,1.35-.7,1.52-.46c.07-.02.13-.04.2-.07l.05-.02,1.51-.61,1.47-.4c1.18-.21,2.38-.39,3.55-.65l1-.28c.59.1,1.32.15,2.15.06.44-.05.84-.13,1.18-.23,1.27.09,2.55.18,3.82.27l-.29-.3c-.72-.83-1.4-1.7-2.11-2.54l-.51-.31c-1.18-.1-2.53-.14-3.68-.2l-1.1.32c-1.14.26-2.3.44-3.44.66l-1.42.4-1.47.62-.05.02c-.06.03-.13.05-.19.07l-1.48.46-1.31.71-.05.03c-.12.07-.26.12-.39.17l-1.29.43c-1.24.99-2.57,2.01-3.87,2.91l-.96.95-.6.82-.34.96c-.08.51-.21,1.39-.22,1.44-.02.12-.06.23-.09.35h0c.12-.09.29-.26.42-.53v.02h0Z"/>
    <path class="st4" d="M446.42,88.33c.72-.63,2.04-1.68,2.8-2.25l1.12-1.09.92-1.04.63-1.21.32-.74-.38-1.34c-.11.15-.26.35-.65.8-.22.24-.59.65-1.09,1.12-.53.49-.57.46-1.38,1.15-.74.63-.74.69-1.35,1.19-.39.31-.74.6-1.25.93-.62.4-1.14.65-1.36.75-.59.27-.52.17-1.2.48-.76.34-.91.48-1.32.5-.23,0-.45-.04-.88-.14-.37-.08-.75-.2-.97-.28-.72-.28-1.02-.77-1.7-1.46-.96-.98-.97-.61-1.68-1.4-.72-.8-1.21-1.72-2.01-2.63-.13-.14-.24-.26-.24-.26-.67-.71-.75-.63-1.05-1.01-.02-.02-.27-.43-.78-1.24-.02-.04-.03-.04-.03-.05-.08-.13-.39-.59-.96-.91-.1-.05-.27-.15-.76-.29-.73-.21-1.29-.29-1.46-.31-1.24-.19-1.2-.9-2.79-1.46-.63-.22-.67-.12-2.2-.56-.8-.23-1.03-.33-1.26-.45-.36-.19-1.13-.67-1.24-.74,0,0-.06-.04-.13-.08-.06-.04-.1-.05-.11-.06-.06-.03-.1-.04-.12-.05-.45-.18-1.46-.57-1.63-.64-.06-.03-.09-.04-.15-.06-.03-.01-.06-.02-.1-.03,0,0-.05-.01-.1-.03-.21-.05-.92-.13-1.41-.32-.29-.12-.56-.3-1.09-.68-.04-.03-.15-.11-.32-.19-.16-.08-.3-.11-.35-.13-.43-.11-1.26-.29-1.55-.37-.48-.13-.25-.18-1.25-.62-.95-.42-1.83-.67-2.12-.75-.01,0-.02,0-.04-.01-.97-.27-1.1-.18-1.57-.34-.44-.15-.92-.43-1.25-.63-.03-.02-.14-.09-.3-.14-.15-.05-.27-.08-.33-.08-.59-.1-1.06-.04-1.6-.2,0,0-.29-.09-1.27-.56-.02,0-.07-.03-.18-.08,0,0-.03-.01-.06-.02-.03-.01-.05-.02-.06-.02-.12-.03-1.71-.44-1.71-.42l.12.04s-.78-.16-1.64-.54c-.4-.18-1.34-.63-1.43-.68,0,0-.07-.04-.14-.07h-.02c-.1-.04-1.22-.4-1.62-.54-.21-.07-.44-.16-.66-.25l-.44-.04h-.07c-.08-.01-.16-.04-.23-.07l-1.33-.56c-.35-.08-.68-.15-.75-.17-.08-.02-.34-.13-.8-.33l-.39-.11-1.65-.32-1.72-.05h-.03c-.08,0-.16-.02-.23-.04l-1.61-.57-1.67-.08s-.09,0-.13-.02l-1.69-.36-.5-.02c1.84.76,3.8,1.42,5.14,1.9l1.72.39s.11.03.15.05l.08.04c.75.38,2.15,1.03,2.99,1.4l1.66.42s.06.02.08.03l.13.06,1.57.68,1.61.59h.02l.14.08,1.41.72,1.63.59-.12-.05,1.7.47s.08.03.12.04l.17.08,1.25.59,1.59.25c.23.03.43.14.63.25l1.23.66,1.56.39s.03,0,.04.01c.34.14,1.79.63,2.09.82l1.23.66,1.54.42c.24.06.47.2.67.33l1.07.71,1.4.36c.07.02.13.04.2.07l.15.07,1.61.69c.08.03.16.07.23.12l.13.08,1.21.77,1.24.48c.63.16,1.73.36,2.18.62.69.41,1.9,1.09,2.74,1.54l1.45.36c.73.18,1.33.65,1.68,1.25l.03.05.74,1.26,1.02,1.04c.08.09.16.18.23.27.49.66,1.38,1.88,1.93,2.69,1,.85,2.27,2.03,3.29,2.96l.96.31.88.16c.83-.28,1.88-.65,2.55-.9l1.38-.71,1.28-.89h.02Z"/>
    <path class="st4" d="M481.51,84.21l-.07,1.51.17,1.3c.14.51.46,1.59.49,1.83l.23,1.44c.18.47.51,1.36.51,1.37.07.18.32,1.19.46,1.72.21.45.63,1.32.63,1.33.04.08.07.16.1.23l.42,1.12c.35.38.82.88.82.88.29.27.71,1.13,1.02,1.74l.82.71c.29-1.09.7-2.62.77-2.72l.03-.06.15-.35c-.13-.28-.24-.52-.33-.7-.08-.37-.27-1.05-.48-1.72-.16-.5-.35-1.03-.48-1.35-.04-.32-.13-.89-.26-1.45-.05-.22-.12-.48-.26-1-.07-.25-.15-.58-.22-.8-.03-.3-.11-.95-.17-1.32.02-.32.05-.92.04-1.51v-.3c-.02-1.47-.14-3.56-.15-5.3-.01-1.35.03-2.52.05-3.02.04-.21.15-1.07.19-2.04.02-.54.01-1,0-1.41.06-.23.14-.55.2-.87.12-.56.18-.83.19-1.21,0-.17,0-.12-.01-.89v-.63c.03-.23.09-.68.16-1.29.09-.09.41-.62.77-3.46.1-.76.18-1.59.21-1.94.08-.34.25-1.17.3-1.46.04-.14.11-.35.2-.64.21-.65.21-.63.27-.84s.07-.28.22-.99c.06-.29.11-.49.14-.65.2-.41.52-1.11.62-1.3v-.02c.08-.13.12-.24.14-.32.06-.19.09-.34.09-.34.15-.69.29-1.27.34-1.55.11-.29.29-.8.52-1.39v-.03c.18-.46.21-.83.25-1.07.05-.37.11-.66.15-.85.1-.27.27-.73.52-1.27.35-.76.46-.82.72-1.49.07-.19.17-.47.35-1.03.07-.2.12-.37.17-.52.28-.36.64-.84.77-.98,0,0,.01,0,.02-.02.04-.05.12-.15.2-.29.13-.21.21-.41.21-.41.65-1.57.65-1.56.7-1.7.23-.64.43-1.17.53-1.47.16-.26.42-.72.59-1.04.23-.23.61-.67.97-1.18.28-.41.46-.74.63-1.07.2-.37.39-.77.49-1,.25-.35.71-1,1.32-1.78.72-.92.8-.91,1.64-1.99.44-.56.93-1.22,1.07-1.41.17-.2.56-.64,1.05-1.19.03-.03.05-.06.08-.09-.03-.17-.06-.33-.1-.5l-.49-1.57c-.03-.1-.05-.19-.07-.29v-.07l-.25-1.42-.38-.98c-.11.08-.22.17-.33.25-.48.35-1.3.97-1.89,1.4-.69.76-1.38,1.53-2.06,2.31l-1.04,1.38c-.98,1.08-2.13,2.62-3.02,3.84-.3.65-.68,1.58-1.06,2l-.97,1.12-.59,1.06-.53,1.51-.7,1.7c-.11.26-.25.49-.41.7l-.02.02-.78.95c-.16.57-.37,1.3-.51,1.57l-.72,1.49-.52,1.28c-.11.6-.26,1.57-.4,1.92v.03l-.55,1.43-.32,1.51c-.05.23-.12.45-.22.65v.02l-.64,1.27c-.11.55-.29,1.45-.36,1.65,0,0-.36,1.13-.49,1.53l-.3,1.42c-.05.53-.13,1.66-.2,1.93-.18.83-.53,2.43-.76,3.34l-.18,1.37c0,.46.02,1.56.02,1.56.03.36-.25,1.45-.41,2.09,0,.51.02,1.4.02,1.4.02.18-.13,1.43-.19,1.92,0,1.01-.01,2.16-.05,3.14.06,1.75.02,3.56.15,5.3v.3h.05Z"/>
    <path class="st4" d="M497.59,191.57c-.02-.06-.04-.11-.05-.13-.1-.25-.53-1.34-.65-1.6-.1-.38-.32-1.19-.4-1.43-.03-.32-.11-.94-.23-1.59-.1-.61-.3-1.61-.32-1.8,0,0,0-.07-.03-.14,0-.04-.02-.1-.04-.17-.02-.08-.05-.14-.06-.16-.15-.34-.56-1.34-.69-1.59-.09-.33-.29-1.01-.45-1.54-.18-.61-.38-1.26-.49-1.55-.02-.48-.08-1.31-.08-1.48v-.1s0-.1-.02-.18c-.01-.09-.03-.15-.04-.18-.06-.21-.49-1.59-.52-1.7,0,0-.01-.04-.02-.08,0-.02-.02-.05-.03-.09-.02-.05-.03-.08-.04-.09-.08-.16-.52-1.14-.7-1.49-.1-.43-.34-1.32-.38-1.5,0,0-.01-.07-.04-.13-.02-.07-.04-.11-.05-.13-.29-.72-.57-1.41-.66-1.59-.11-.36-.47-1.52-.48-1.59v-.03s0-.03-.02-.05c0-.02-.02-.04-.02-.05,0-.02-.59-1.52-.64-1.65,0,0-.02-.05-.04-.1-.02-.05-.04-.09-.05-.1-.53-.98-.48-.93-.87-1.59-.33-.57-.73-1.23-.88-1.46-.09-.22-.4-.88-.7-1.53-.02-.04-.06-.12-.12-.22-.07-.11-.13-.18-.15-.2-.27-.31-.79-.93-1.04-1.21-.16-.32-.61-1.06-.79-1.39-.01-.02-.04-.07-.09-.14-.04-.06-.09-.12-.1-.13-.01-.02-.03-.03-.03-.03-.1-.11-.82-.95-1.07-1.23-.09-.15-.42-.6-.97-1.39-.02-.03-.05-.08-.11-.14-.01,0-.06-.06-.13-.13-.03-.02-.05-.04-.05-.05-.13-.11-.9-.82-1.2-1.08-.19-.22-.62-.7-1.07-1.37,0,0-.66-1-1.19-1.48h0l-.07-.06s-.37-.32-1.34-1.13c0,0-.02-.02-.04-.03-.02-.02-.04-.03-.05-.03-.05-.03-.07-.05-.1-.06-.09-.05-.75-.52-1.16-.79-.26-.32-.93-1.04-1.05-1.19l-.06-.06s-.04-.04-.07-.06c-.04-.04-.06-.06-.11-.09-.14-.11-.77-.71-1.34-1.14-.06-.05-.32-.21-.84-.55-.24-.15-.58-.37-.75-.48-.03-.03-.64-.43-1.38-1.02,0,0-.41-.33-1.36-1.06-.01,0-.04-.03-.08-.06-.03-.02-.06-.04-.09-.05-.06-.03-.09-.05-.15-.08-.13-.07-.79-.45-1.2-.68-.26-.25-.98-.84-1.22-1.05-.02,0-.05-.05-.11-.09-.05-.04-.09-.06-.12-.08-.06-.04-.13-.08-.13-.08h0s-.71-.44-1.55-.92c-.42-.24-.77-.43-1.04-.58-.17-.09-.28-.15-.36-.2-.2-.14-.87-.61-1.19-.83-.16-.15-.91-.79-1.19-1.02-.06-.07-.2-.2-.42-.42-.23-.23-.48-.48-.48-.48,0,0-.71-.66-1.54-1.45-.49-.47-.96-.91-1.61-1.38-.43-.31-.45-.33-.06-.04-.42-.31-.73-.53-.94-.69-.11-.16-.25-.37-.42-.6-.33-.46-.49-.69-.67-.92-.33-.4-.48-.51-1.31-1.29-.57-.54-.95-.92-1.16-1.11-.18-.23-.5-.63-.86-1.15-.36-.51-.64-.98-.79-1.23-.08-.17-.66-1.28-.79-1.51-.08-.17-.23-.49-.38-.89-.11-.28-.22-.59-.47-.98,0,0,0-.01-.02-.03-.33-.51-.58-.91-.74-1.17-.05-.16-.1-.36-.15-.6-.05-.23-.12-.58-.31-1.04,0,0,0-.01-.01-.03-.26-.61-.44-1.05-.56-1.32-.06-.37-.23-1.11-.31-1.4-.03-.3-.07-.8-.09-1.42-.02-.5,0-.59-.03-1.12-.01-.3-.03-.67-.08-1.1-.06-.51-.15-1.03-.22-1.37.03-.3.06-.71.07-1.02.12-.31.29-.87.4-1.48.08-.46.1-.82.13-1.32.02-.28.03-.63.03-.89.1-.33.23-.82.3-1.12.19-.35.65-1.26,1.05-2.37.45-1.23.49-1.77.96-2.39l-.48.13-1.09.51-.98.82-.76.84c-.56,1.38-1.35,3.1-1.94,4.4l-.33,1.15c0,.71.07,1.75-.11,2.2l-.44,1.43-.08,1.06.27,1.36c.09.36.08,1.83.1,2.22l.09,1.53.27,1.25.6,1.36v.03c.1.19.35,1.12.5,1.7l.72,1.1.02.03c.15.19.68,1.5.87,1.92l.73,1.4.84,1.3.87,1.17c.71.67,1.85,1.77,2.45,2.39.21.17.7.97,1.04,1.49l.99.72.06.04c1.07.86,2.17,1.88,3.15,2.83,0,0,.79.79.93.93l1.14.98c.3.21.99.69,1.21.84.83.45,2.24,1.26,2.96,1.71l.13.08c.08.05.16.11.23.17l1.19,1.04,1.24.68.15.08c.06.03.12.07.17.11l1.36,1.06,1.38,1.03-.13-.08c.19.14,1.58.98,1.72,1.11l1.34,1.14.11.09s.09.08.13.13l1.02,1.19,1.19.79.1.06s.06.04.09.07l1.34,1.13.08.07c.28.32.54.66.8.99l2.02,2.32c.04.05.18.18.35.33v.03l.28.25.05.05c.09.08.17.17.23.26l.96,1.38,1.08,1.23.03.03c.07.08.14.18.19.27l.78,1.4,1.05,1.2c.11.13.21.27.27.42l.69,1.53.89,1.46.87,1.59c.04.07.07.13.09.2l.64,1.65s.02.07.03.1v.03l.49,1.6.66,1.58c.04.09.06.17.08.27l.37,1.52.19.39c.08,0,.16-.03.24-.04l.22.5.34,1.34v.12l.34,1.12c.04.12.06.24.06.36v.1l.07,1.51.51,1.52.44,1.55.69,1.57c.05.11.08.22.1.33l.03.14.32,1.8.21,1.59.4,1.43.66,1.6c.04.08.06.17.08.26l.03.17.31,1.52.41,1.22c.59-.11,1.53-.3,1.72-.28l.65-.03c.03-.24.05-.43.06-.55,0,0,.27-2.51.08-3.83-.02-.15-.07-.3-.07-.3h0ZM463.84,141.07l.08.04c-.07-.04-.08-.04-.08-.04ZM464.08,141.2h0Z"/>
  </g>
  <g>
    <path class="st1" d="M109.57,147.65c-10.92,0-19.97-9.88-19.97-22.05,0-13.52,8.74-20.49,19.55-20.49,4.78,0,11.44,1.66,11.44,5.93v4.06h16.64v-9.78c0-13.94-19.66-17.37-28.5-17.37-22.15,0-38.48,16.33-38.48,37.65s15.5,39.21,39,39.21c19.76,0,30.99-13.31,30.99-13.31l-9.46-13.31s-8.22,9.46-21.22,9.46h.01Z"/>
    <path class="st1" d="M175.4,108.75c-16.74,0-30.16,11.34-30.16,28.19s13.42,27.87,30.26,27.87,30.26-11.13,30.26-27.87-13.42-28.19-30.37-28.19h.01ZM175.5,149.83c-6.55,0-12.17-4.89-12.17-12.9s5.62-13.21,12.17-13.21,12.17,5.1,12.17,13.21-5.62,12.9-12.17,12.9Z"/>
    <path class="st1" d="M233.43,146.19v-49.4c0-5.3-2.29-7.59-7.59-7.59h-16.64v15.08h3.95c1.46,0,2.29.83,2.29,2.29v49.4c0,5.3,2.29,7.59,7.59,7.59h16.64v-15.08h-3.95c-1.46,0-2.29-.83-2.29-2.29h0Z"/>
    <path class="st1" d="M268.27,146.19v-28.6c0-5.3-2.29-7.59-7.59-7.59h-16.64v15.08h3.95c1.46,0,2.29.83,2.29,2.29v28.6c0,5.3,2.29,7.59,7.59,7.59h16.64v-15.08h-3.95c-1.46,0-2.29-.83-2.29-2.29Z"/>
    <rect class="st1" x="251.63" y="89.19" width="15.08" height="14.56"/>
    <path class="st1" d="M317.05,108.75c-9.46,0-14.46,5.2-14.46,5.2h-.21s.21-1.87.21-4.58v-12.58c0-5.3-2.29-7.59-7.59-7.59h-16.64v15.08h3.95c1.46,0,2.29.83,2.29,2.29v56.99h16.85v-1.25c0-1.66-.1-3.02-.1-3.02h.21s4.78,5.51,14.67,5.51c14.25,0,24.96-11.02,24.96-27.98s-9.57-28.08-24.13-28.08h-.01ZM312.57,149.93c-7.07,0-10.5-6.34-10.5-12.79,0-9.26,5.1-13.21,10.5-13.21,6.24,0,10.5,5.2,10.5,13.21s-4.89,12.79-10.5,12.79Z"/>
    <path class="st1" d="M369.25,122.37h-.21s.21-1.04.21-2.7v-2.81c0-4.89-2.71-6.87-7.59-6.87h-15.91v15.08h3.95c1.46,0,2.29.83,2.29,2.29v36.19h17.99v-20.28c0-2.91.31-5.3.94-7.28,2.6-8.01,9.57-9.36,13.83-9.36,2.18,0,3.64.31,3.64.31v-17.68s-1.04-.21-2.08-.21c-8.01,0-14.77,6.03-17.06,13.31h0Z"/>
    <polygon class="st1" points="419.72 96.82 408.62 90.64 400.97 104.8 413.45 104.8 419.72 96.82"/>
    <path class="st1" d="M417.4,146.19v-28.6c0-5.3-2.29-7.59-7.59-7.59h-16.64v15.08h3.95c1.46,0,2.29.83,2.29,2.29v28.6c0,5.3,2.29,7.59,7.59,7.59h16.64v-15.08h-3.95c-1.46,0-2.29-.83-2.29-2.29Z"/>
    <path class="st1" d="M53.84,99.79c-.45-.23-.95-.32-1.5-.32-.91,0-1.95.27-3.09.86-2.5,1.32-5.68,4.5-8.26,8.27-.18.32-.41.59-.45.77l-.09.18v.14c-.32,0-1.36,1.86-2,3-.14.32-.23.54-.23.59v.09l-.04.04s-.09-.04-.09-.09l-.09.09c-.04.09-.14.23-.23.36-.14.14-.5.68-.82,1.23-.32.41-.41.86-.41,1h.09v.05s-.05,0-.09-.05c-.23,0-1.09,1.68-1.63,2.72-.14.32-.18.5-.18.59v.04c0,.09-.05.14-.14.14h-.04c-.14,0-.27.27-.45.68-.12.27-.14.29-.05.05v.04h-.04v.09s-.04,0-.04.05c-.05.04-.05.09-.09.14v.09h-.04v.09h-.04v.05c-.05.14-.05.23-.05.32v.09l-.05-.04s-.36.18-.36.41v.32s-.04-.05-.09-.05-.05,0-.09.05l-.14.14s-.05.09-.09.14c-.04.09-.09.18-.14.32-.18.36-.41.82-.73,1.36-.14.32-.23.54-.27.77l-.14.36v.14s-.09-.09-.14-.09h-.04v.04s0,.09.04.18v.14l-.09-.04-.05.09s-.05.09-.05.18v.05s0,.09.05.14v.05h-.09s-.04,0-.04-.05c-.09,0-.14.05-.18.18v.14s0,.14.04.23h-.18s-.14.09-.14.23v.09s0,.09.05.14h-.14s-.09,0-.09.04l.05.09v.14s-.09.05-.14.18c-.05.05-.05.09-.05.14s0,.14.05.23h-.14c-.09,0-.59.91-.77,1.63-.05.14-.05.27-.05.36v.14s0,.04-.05.04-.09-.04-.09-.09c-.14,0-.54,1.09-.82,1.82-.04.14-.04.27-.04.36v.18s-.04.04-.14.04-.27.82-.27.95c-.14,0-.32.54-.54,1.68-.09.32-.18.59-.32.91-.11.48-.22.8-.33,1.03-.41.16-.66.47-.94.88-.23.32-.54.68-.95,1.09-1.23,1.27-2.82,2.68-4.72,4.27-1.95,1.59-3.91,3-5.95,4.13-2,1.14-3.77,1.68-5.36,1.68h-.14c-.32.05-.64.05-.86.05-.5,0-.91-.09-1.13-.46l-.27-.73c-.18-.77-.27-1.63-.27-2.63v-1.23c0-.68.23-1.63.73-2.86.04-.18.18-.36.23-.41l.04-.04v.04h.05l.05-.04s.04-.05.04-.09c.04-.04.09-.04.14-.04s.14,0,.27.04c.09.05.23.09.41.14.18.14.45.27.64.32l.09.09c.14.18.27.18.41.18s.27,0,.41-.18c0,.18.14.18.27.18,0-.14.27-.18.77-.18h.36c1.09,0,1.63-.14,2.77-.68,1.04-.45,2.68-1.36,2.68-1.54h.04c.14,0,1.59-1,2.72-2.22,1.36-1.32,2.32-2.77,2.91-4.36.32-.86.5-1.68.5-2.41,0-.59-.09-1.14-.32-1.63-.95-1.91-2.22-3.36-3.77-4.31-.36-.14-.86-.23-1.45-.27h-.36c-.41,0-.86.05-1.27.14-2.5.68-5.31,2.68-8.36,5.99-2.91,3.31-5.27,7.72-5.86,11.17-.04.32-.09.68-.09,1.14v.77c0,.41.09.86.23,1.32v.73s.04.09.09.14c.05.04.05.14.18.14l.05.04v.04s0,.05-.05.05c0,.14,0,.36.14.68h-.14c.05.23.09.41.14.64.04.23.09.41.14.63.23.73.5,1.04.91,1.59l.23.23c.41.32.91.91,1.23,1.41.23.14.41.27.59.41.23.18.41.32.54.41.14.18.54.41.95.54.18.05.36.14.5.23.23.14.45.23.64.23l1.14.41c.41.14,1,.27,1.23.27.23.04.45.04.73.04h.59c.27,0,.73-.04,1.36-.18.18,0,.32-.09.46-.14h.32c1.32,0,3.04-.54,5.18-1.68,2.09-1.09,4.18-2.45,6.27-4.09.46-.36.89-.71,1.31-1.06v.11c.18.5.54,1.63.86,2.23.27.45.95,1.27,1.09,1.27.09,0,.23.05.36.18.09.09.23.18.36.23.77,1,1.73,1.68,2.77,2.09.14,0,.27,0,.27.18.5.14,1.82.54,2.54.54.95,0,2.27-.14,2.63-.27h.68c.14,0,.27,0,.32-.05.03-.03.05-.05.05-.05l-.05-.04h.68c.09-.09.23-.14.36-.18.09-.04.18-.09.32-.14h.14c0-.14.14-.14.32-.14.23,0,.36-.05.46-.14.09-.09.14-.18.14-.27,0-.04,0-.09-.05-.14v-.09s.09.04.14.09.09.09.14.09.09-.04.14-.09l.09-.09s.14-.04.18-.04c.32-.09,1.04-.5,1.32-.77.05-.05.09-.14.09-.18v-.05s-.05-.04-.05-.09h.05v.09h.18s.09-.04.09-.14.05-.05.14-.14c.14,0,.18-.09.77-.46.14-.14.36-.32.64-.5.32-.41.54-.59.68-.59,0-.14.23-.41.73-.82,1.27-1.14,2.77-2.63,3.91-3.77.91-1.09,1.73-2.04,2.5-2.82.36-.41.73-.82,1.13-1.23.59-.54.95-.91,1.09-1.14.04-.05.04-.14.04-.18,0-.14-.09-.18-.32-.23l-.09-.09s-.09-.05-.09-.09,0-.04.05-.09l-.09-.09c-.27-.18-.68-.5-.86-.5l-.14-.14c0-.09-.05-.14-.14-.14v.04h-.04s-.09-.04-.09-.18c-.04,0-.09,0-.09-.04h-.05l-.05-.04s0-.05-.14-.05c-.05,0-.14,0-.18-.05-.05-.04-.14-.09-.23-.09,0-.14-.09-.18-.23-.18h-.04s-.09,0-.14.04c-.14,0-.27,0-.27-.14h-.41c-.09.05-.18.05-.27.05h-.14s-.18-.05-.32-.18c-.04-.05-.04-.09-.09-.09l-.05-.04s-.18,0-.41.14c-.41.18-1.41,1.18-2.95,3.04-.41.5-1.23,1.36-1.95,2.27-.41.41-.82.86-1.23,1.27-.32.32-.54.59-.73.82-.73.95-2.04,2.04-3,2.82-.18.14-.36.27-.5.41-.59.41-1.41.77-2.36,1.04-1,.32-1.72.45-2.22.45-1.13-.04-2.32-.59-2.82-2.09-.27-.86-.45-1.59-.5-2.27v-.45c0-1.09.27-2.5,1.23-5.63,0-.09,0-.18.05-.23.18-.77.27-.91.63-.91.14-.05.23-.09.27-.09s.14.04.14.09h.09v-.05s.04,0,.04-.04v-.09l.09-.09h.27c.5,0,1.91-.36,2.32-.68.09,0,.27-.14.5-.36.14-.09.27-.23.45-.36.59-.36,1.09-.77,1.5-1.18.18-.14.36-.32.59-.5l.59-.54c.09,0,4.09-4.04,5-5.18.18-.23.41-.5.73-.82.23-.32.45-.59.68-.86.23-.27.46-.5.64-.73.23-.18.36-.32.36-.36.5-.59,2.36-2.95,3.04-4.09.23-.27.45-.5.59-.73.27-.32.45-.54.54-.64.27-.5,2.81-4.36,2.81-4.5v-.14h.14l.14-.14c0-.14.09-.5.41-1,.5-.86,1.04-1.95,1.54-3.27.5-1.27.86-2.32,1.09-3.13.05-.5.09-.91.09-1.27,0-.59-.09-1.04-.23-1.41-.73-1.82-2.32-3.68-3.91-4.59h-.02ZM10.11,135.57c.18-.32.41-.68.59-.86.91-1.14,2.54-2.86,3.77-3.91.59-.5,1.63-1.27,2.41-1.77.32-.23.54-.32.59-.32h.04l-.09.32c-.18.41-.5,1.04-.86,1.63-.91,1.59-2.59,3.13-5.04,4.59-.5.32-.95.5-1.27.64-.23.09-.41.14-.5.14-.06,0-.08-.02-.05-.05l.41-.41h0ZM1.89,139.89c0-.14,0-.41.14-.54v.54l-.14.27v-.27ZM1.62,141.7v-.54c0-.14.04-.23.04-.36.04-.14.09-.32.09-.36l.09-.18s.04.04.04.18c0,.04,0,.14-.04.23-.04.14-.09.32-.09.5l-.14.54h0ZM1.75,142.52v-.14s0-.05.05-.05l.09.05v.45s-.04.05-.09.05v-.09s-.05-.14-.05-.27ZM1.75,143.52v-.32s.05-.09.14-.09h.09s-.05.09-.09.14c0,.14,0,.27.14.27h.04v.04s-.04.05-.04.09v.09s0,.14.14.18v.14s-.05.04-.09.04c-.14,0-.23-.18-.32-.59h-.01ZM2.3,144.65c-.09,0-.18-.14-.27-.14v-.05c0-.09.05-.14.14-.14.14,0,.09.05.14.09v.23h-.01ZM2.3,138.75c-.09.09-.14.14-.18.14,0-.05.05-.18.18-.41v.27ZM52.02,106.78c-.04.23-.14.41-.18.59v.14s0,.09.05.09c0,.09,0,.14-.05.14h-.09l-.09-.09s-.04,0-.04.23c.04,0,.09,0,.09.04l.05.04h-.05s-.05.05-.09.05c0,0-.32.23-.41.73-.5,1.04-1.45,2.72-2.95,5.04-2.13,3.41-4.86,6.9-8.08,10.45-.32.41-.68.82-1.09,1.23-.68.77-1.18,1.36-1.59,1.86l-1.23,1.13.68-1.13c.32-.86,1.41-2.91,2.45-4.72.5-.91.82-1.59,1.04-2,1.45-2.54,2.27-3.86,3.22-5.31,1.41-2.23,2.86-4.36,3.77-5.58.77-.91,2.63-2.95,3.04-3.18.36-.27.68-.54,1-.77.64-.5,1-.77,1.14-.77.09,0,.11.01.05.04,0,.18-.23.73-.64,1.77v-.02h0Z"/>
    <polygon class="st1" points="453.48 52.92 453.33 52.72 454.05 53.79 453.48 52.92"/>
    <path class="st0" d="M574.29,62.35l-1.62-.72c-.08-.04-.17-.07-.26-.1l-1.67-.56c-.18-.06-.39-.11-.59-.13l-1.51-.16-1.46-.42c-.23-.07-.49-.1-.74-.11h-1.57l-1.36-.22c-1.83-.29-3.7-.33-5.53-.56-1.92-.16-4.01-.15-5.93-.06h-.04l-1.59.2-1.58.04-1.7-.02c-.14,0-.29,0-.43.03h-.05l-1.59.25-1.65.11c-.25.02-.51.07-.76.16l-.05.02-1.31.47-1.4.13c-.08,0-.16.02-.23.03h-.05l-1.5.3-1.59.09c-.31.02-.64.09-.95.22l-.05.02-1.11.46-1.25.04c-.16,0-.33.03-.49.06h-.05l-1.72.38c-.17.04-.35.09-.51.16l-1.37.56-1.49.33c-.09.02-.19.05-.28.08l-.05.02-1.52.52-1.62.42c-.26.07-.53.18-.77.32l-.04.02-1.23.73c-1.6.51-3.23,1.09-4.78,1.69-.25.09-.51.23-.73.4l-1.26.9-1.15.61-1.47.52c-.12.04-.25.1-.36.16l-1.57.79c-.25.13-.5.3-.72.5l-1.14,1.04c-.31.21-.9.6-1.13.76-.64.36-1.34.63-1.98,1.15l-1.24,1.07c-.7.53-2.03,1.5-2.69,1.96-1.05.91-2.06,1.88-3.08,2.82-.61.65-1.82,2.01-2.41,2.68-.05.06-.1.12-.14.18l-.8,1.08-1.06.87-.02.02c-.59.39-1.06,1.53-1.39,2.33l-.82.92-.04.05c-.36.32-.86,1.63-1.12,2.2-.47.8-1.27,2.29-1.64,3.06-.05.1-.1.21-.15.32l-.57,1.54-.51,1.16-.15.35-.03.06c-.07.1-.48,1.63-.77,2.72l-.82-.71c-.31-.61-.73-1.47-1.02-1.74,0,0-.46-.5-.82-.88l-.42-1.12c-.03-.08-.06-.16-.1-.23,0,0-.42-.88-.63-1.33-.13-.52-.38-1.54-.46-1.72,0,0-.34-.9-.51-1.37l-.23-1.44c-.03-.24-.35-1.31-.49-1.83l-.17-1.3.07-1.51v-.3c-.14-1.74-.09-3.56-.15-5.3.04-.98.06-2.13.05-3.14.05-.49.2-1.73.19-1.92,0,0,0-.89-.02-1.4.16-.64.44-1.73.41-2.09,0,0-.02-1.1-.02-1.56l.18-1.37c.22-.9.58-2.5.76-3.34.07-.27.15-1.4.2-1.93l.3-1.42c.13-.4.49-1.53.49-1.53.07-.2.25-1.1.36-1.65l.62-1.27v-.02c.11-.2.19-.42.23-.65l.32-1.51.54-1.43v-.03c.14-.34.3-1.32.41-1.92l.52-1.28.72-1.49c.14-.27.34-1.01.51-1.57l.78-.95.02-.02c.17-.21.31-.44.41-.7l.7-1.7.53-1.51.59-1.06.97-1.12c.38-.42.76-1.35,1.06-2,.89-1.22,2.04-2.75,3.02-3.84l1.04-1.38c.68-.77,1.37-1.54,2.06-2.31.6-.43,1.41-1.05,1.89-1.4.1-.08.22-.17.33-.25l.38.98.24,1.42v.07c.03.1.05.19.08.29l.49,1.57c.03.17.06.33.1.5.17.84.34,1.68.5,2.52v1.46l-.02.1c0,.17.02.34.06.51l.76,3.34.21,1.49.12,1.48-.18,1.45c-.04.25-.05.5,0,.76l.34,1.71.17,1.41-.12,1.39-.21,1.71-.02.16c0,.07-.01.15,0,.23l.1,1.74v-.16l-.02,1.69-.1,1.69v.18h-.01l.05,1.57-.36,1.34-.05.18c-.02.08-.03.15-.03.24l-.05,1.53-.52,1.27-.07.18c-.14.39-.07.65-.11,1.42-.01.39-.02.73-.02.73-.03,1.93,2.78,2.25,3.13.29l.21-1.36c.26-.48.96-1.72.9-1.83.02-.11.14-1.1.22-1.62l.58-1.55c.05-.12.08-.26.08-.4v-.17l.09-1.58.26-1.77.16-1.79h0v-.16l.02-1.48c.19-1.05.56-2.76.61-3.77-.02-.21-.1-1.87-.14-2.07l-.18-1.3.25-1.44c.02-.13.03-.27.03-.4v-.12l-.07-1.82-.17-1.81c-.19-1.11-.41-2.22-.62-3.32.03-.59.1-1.88.03-2.03-.16-.99-.42-2.78-.66-3.75l-.42-1.48c-.06-.41-.23-1.58-.23-1.58-.08-.48-.4-1.23-.58-1.73-.42-1.17-.7-2.33-.96-3.57-.42-2.07-3.11-2.87-4.61-1.4l-.02.02-1.19,1.13c-1.38.94-2.8,2.04-4.15,2.99-1.03.91-1.88,2.01-2.82,3.01-.05.06-.1.11-.14.18l-1.01,1.33c-1.07,1.17-2.41,2.94-3.35,4.21-.1.14-.2.3-.28.47l-.59,1.23-.92,1.05c-.12.14-.24.31-.34.48l-.87,1.53c-.08.14-.15.3-.21.46l-.57,1.59-.49,1.15-.88,1.07c-.23.28-.42.62-.53.99,0,0-.31,1.01-.45,1.47l-.71,1.47-.7,1.72c-.07.17-.13.36-.16.55l-.28,1.49-.53,1.4c-.05.13-.09.27-.12.41,0,0-.19.86-.3,1.37l-.63,1.28c-.1.21-.19.44-.24.68,0,0-.24,1.15-.33,1.57l-.5,1.54c-.03.09-.06.19-.08.29,0,0-.36,1.72-.37,1.73-.02.1-.04.21-.05.32,0,0-.11,1.12-.15,1.57l-.34,1.53-.4,1.68c-.02.1-.04.21-.06.31l-.22,1.74c-.02.14-.02.27-.02.41l.02,1.4-.32,1.36v.02c-.06.22-.08.46-.08.7l.02,1.59c-.05.43-.17,1.58-.17,1.58-.03.79,0,1.66-.03,2.46-.02.73-.06,1.51,0,2.25.07,1.14-.02,2.24.07,3.38l.06,1-.07,1.61v.02c0,.16,0,.32.02.49l.24,1.74c.02.13.05.27.08.4l.43,1.55.25,1.56v.02c.03.18.08.37.15.55l.58,1.53c.15.58.35,1.57.58,2.04l.7,1.46.57,1.53c.15.58,1.01,1.42,1.55,1.98.35.69.77,1.66,1.29,2.07.11.08,2.88,2.54,2.92,2.52l.96.66c-.11.75-.23,1.5-.29,2.25.14,1.67.32,3.85.49,5.51l.42,1.69-.02-.31.19,1.73c-.04.16.41,1.81.45,2.01l.48,1.71c.18.62.49,1.19.72,1.79.21.59.42,1.2.62,1.8.3.56.75,1.04,1.12,1.56.22.63.35,1.3.71,1.87l1.12,1.35.03.04s1,.94,1.29,1.21l1.01,1.29c.14.23,2.92,2.22,3.17,2.42,1.09.69,2.4,1.36,3.5,1.99l1.12.67c.07.05.16.08.24.11l1.53.57,1.47.86s.12.06.18.08l.07.02,1.67.61c.14.06,1.23.21,1.78.29l1.44.72c.17.09.35.12.55.14l1.59.19c.68.2,1.35.38,2.04.61,2.12.73,4.38,1.19,6.53,1.76.32.04,1.91.31,2.22.31l1.47.04,1.6.39c.23.04,1.36.12,1.91.16l1.7.34c.24.04,1.27.07,1.85.08l1.6.37c.2.05.41.06.63.04l.17-.02,1.38-.12,1.5.26c.08,0,.17.02.26.02h.15l1.44.02,1.57.34c.11.02.23.04.35.04h.14l2.42.08v.36l-.36,1.5-.03.13c-.05.12-.2,1.88-.24,2.03l-.21,1.53-1.05.26-1.12-.22c-.3-.07-.59-.1-.91-.04l-1.65.29h-1.37l-1.47-.25-.2-.03h-1.87l-1.65-.1-1.49-.32-.17-.04h-.03l-1.82-.21-1.68-.08-1.42-.42-.15-.04c-.1-.03-.2-.05-.31-.05l-1.64-.05-1.43-.42-.13-.04h-.05l-2.61-.47c-2.44-.37-5.07-1.15-7.44-1.89l-1.36-.86-.05-.03c-.08-.05-.17-.09-.27-.12l-1.66-.51c-.81-.3-2.48-.93-3.3-1.2l-1.46-.6c-.35-.28-1.27-1.02-1.28-1.03-.11-.09-.25-.16-.39-.21l-1.55-.47-1.26-.89c-1.17-.82-2.56.77-1.54,1.82.09.07,1.44,1.52,1.53,1.46l1.53.81,2.79,1.89,1.18,1.21s.1.1.16.14l1.44,1.05s.05.04.08.05l1.55.97,1.51.82,1.39,1.01c.06.04.13.09.2.12l.04.02c-.08-.04,1.27.58,1.56.7.27.17,1.04.66,1.31.82l1.29,1.13s.1.08.15.11l.06.03,1.52.93s.11.06.17.08l1.42.64c.42.35,1.53,1.32,1.74,1.3l.07.02,1.5.45,1.36.85s.06.04.1.05l.07.03,1.44.69,1.42,1,1.56.97s.06.03.09.05l.07.04,2.38,1.16c.79.36,1.7.91,2.49,1.29l.07.02,1.52.56,1.47.8c.09.05.19.09.29.12l.06.02,1.39.44,1.25.88c.08.06.17.11.27.15l.05.02.36.17c-.2.63-.4,1.31-.56,1.81l-.76,1.25c-.08.14-.16.3-.21.47l-.37,1.18-.86.93c-.06.07-.13.16-.19.24.03-.04-.7,1.02-.88,1.3l-.33.41-.27-.17h-.02s-.1-.07-.16-.1l-1.47-.73-1.36-.95-1.56-.97-.04-.03c-.08-.05-.16-.09-.25-.13l-1.43-.59c-.85-.68-1.71-1.36-2.57-2.03-.12-.1-.26-.18-.41-.25l-1.48-.65-1.24-.92c-.71-.5-2.19-1.55-2.91-2.04l-1.38-1.05-.06-.05s-.08-.06-.13-.08l-1.5-.86-1.28-.92-1.2-1.12c-.09-.09-.18-.16-.29-.23-.69-.39-2.05-1.23-2.83-1.71l-1-1.17-.03-.04c-.04-.05-.09-.1-.14-.14l-1.35-1.16c-.07-.06-.13-.11-.21-.16l-1.47-.89-1.27-.97-1.21-1.17c-.08-.08-.17-.15-.27-.21l-1.36-.82c-.32-.34-1.08-1.15-1.09-1.16-.07-.07-.14-.13-.22-.19l-1.33-.94-1.12-1.2c-1.03-.87-2.12-1.66-3.19-2.47-1.47-1.08-3.32.8-2.14,2.26,0,0,.9,1.07,1.17,1.4l.84,1.4c.14.25,1.19,1.27,1.43,1.52l1.04,1.13.83,1.38.92,1.49c.05.08.1.14.17.22-.07-.09,1.04,1.22,1.12,1.29.19.25.79,1.06.93,1.26l.88,1.41c.08.12.17.24.29.34l.06.05,1.12.99.82,1.23.85,1.45c.2.34.92.95,1.39,1.37.28.53.83,1.63,1.05,1.76l.94.93.55,1.31c.06.15.15.3.25.43,1.06,1.33,2.15,2.68,3.28,3.96l.84,1.36c.04.07.1.14.15.21l.03.03,1.15,1.4,1.05,1.11.72,1.3c.08.15.19.3.31.42,0,0,.81.87,1.1,1.17l.84,1.18.75,1.42v.02c.2.36.91,1.11,1.29,1.55l.83,1.34.02.03c.04.06.1.13.17.22-.25.17-.88.8-1.24,1.14-.9.47-1.81.93-2.71,1.38-.08.03-.15.09-.23.13l-1.35.92-1.18.73-.28.08-.17-.38-.03-.07c-.07-.17-.18-.33-.31-.47l-1.06-1.14-.63-1.29-.03-.07s-.04-.08-.06-.11l-.91-1.43-.7-1.46-.04-.08c-.03-.07-.08-.14-.12-.21l-1-1.36-.76-1.39-.79-1.55c-.05-.11-.11-.19-.18-.29l-1.08-1.33-.92-1.28-.62-1.45-.02-.05s-.05-.1-.07-.14l-.91-1.5-.03-.05s-.05-.07-.07-.1l-1.01-1.29c-.19-.4-.7-1.43-.7-1.43-.69-1-1.56-1.89-2.32-2.86l-.59-1.45c-.04-.11-.1-.21-.16-.3l-1-1.38-.88-1.48-.98-1.5s-.05-.07-.08-.11l-1.04-1.28-.79-1.45-.88-1.54c-.06-.1-.13-.2-.21-.28,0,0-.76-.77-1.1-1.12-.45-.93-1.18-2.38-1.68-3.17l-.02-.03-.75-.94c-.07-.1-.13-.2-.19-.28l-.05-.07s-.07-.1-.11-.14l-1.18-1.27h0l-.02-.02c-.54-.6-1.46-.67-2.08-.15-.63.53-.71,1.47-.18,2.1l.04.05,1.01,1.19.82,1.4c-.03-.07.55,1.02.74,1.37l.58,1.56s.02.05.03.08l.06.11.73,1.42.57,1.4.38,1.64c.01.05.03.11.05.16l.06.15c-.02-.06.41.98.59,1.4l.43,1.62c.02.09.06.18.1.26l.08.16.6,1.14c.07.6.2,1.79.36,2,.04.08.39.74.64,1.23.04.62.09,1.72.21,1.9.04.12.41,1.03.6,1.52l.34,1.6c.02.08.04.17.07.24l.07.16.57,1.41c.41,1.51.93,3.09,1.34,4.61.04.5.13,1.74.17,1.83l.02.08.36,1.56.26,1.65c.03.18.08.37.15.54l.02.04.62,1.53.46,1.39c.22,1.17.48,2.47.76,3.71l-.65.09h-.1s-.1.03-.16.04l-1.6.39-.87.03-.65.03c-.19-.02-1.12.17-1.72.28l-.41-1.22-.31-1.52-.03-.17c-.02-.09-.04-.17-.08-.26l-.66-1.6-.4-1.43-.21-1.59-.32-1.8-.03-.14c-.02-.11-.05-.22-.1-.33l-.69-1.57-.44-1.55-.51-1.52-.06-1.51v-.1c0-.12-.03-.24-.07-.36l-.34-1.12-.17-.57-.02-.08c-.02-.06-.04-.12-.07-.18l-.52-1.08-.19-.39-.37-1.52c-.02-.1-.05-.17-.08-.27l-.66-1.58-.48-1.6v-.03s-.03-.07-.04-.1l-.64-1.65c-.03-.07-.06-.13-.09-.2l-.87-1.59-.89-1.46-.69-1.53c-.07-.15-.16-.29-.27-.42l-1.05-1.2-.78-1.4c-.05-.09-.12-.18-.19-.27l-.03-.03-1.08-1.23-.96-1.38c-.07-.09-.15-.19-.23-.26l-.05-.05-.28-.25-.88-.79c-.51-.62-1-1.26-1.49-1.9-.26-.34-.52-.67-.8-.99l-.08-.07-1.34-1.13s-.06-.05-.09-.07l-.1-.06-1.19-.79-1.02-1.19s-.08-.09-.13-.13l-.11-.09-1.34-1.14c-.14-.13-1.53-.96-1.72-1.11l.13.08-1.38-1.03-1.36-1.06s-.11-.08-.17-.11l-.15-.08-1.24-.68-1.19-1.04c-.07-.06-.15-.12-.23-.17l-.13-.08c-.72-.45-2.12-1.26-2.96-1.71-.22-.15-.91-.63-1.21-.84l-1.14-.98c-.14-.14-.93-.93-.93-.93-.98-.95-2.09-1.97-3.15-2.83l-.06-.04-.99-.72c-.33-.53-.82-1.32-1.04-1.49-.6-.61-1.74-1.71-2.45-2.39l-.87-1.17-.84-1.3-.73-1.4c-.19-.42-.72-1.73-.87-1.92l-.02-.03-.72-1.1c-.15-.58-.39-1.51-.48-1.7v-.03l-.61-1.36-.27-1.25-.09-1.53c-.02-.39-.01-1.86-.1-2.22l-.27-1.36.08-1.06.44-1.43c.18-.45.12-1.48.11-2.2l.33-1.15c.59-1.3,1.38-3.02,1.94-4.4l.76-.84.98-.82,1.09-.51.48-.13,1.07-.28c.24-.06.49-.17.72-.29l1.34-.76c1.15-.35,2.35-.83,3.45-1.19.56-.18,1.38-.36,1.9-.69l1.26-.78,1.43-.63c.65-.35,1.92-.84,2.43-1.4h.01l.9-.95c.56-.32,1.37-.79,1.69-1.11h.01l1.03-1.03c.5-.36,1.41-1,1.69-1.32.19-.24,1.26-1.38,1.39-1.63.22-.34,1.08-1.6,1.22-1.95l.76-1.83c.35-.74.21-2.11.21-3.01l.18-1.81c.13-.86-.48-2.24-.7-3.09-.14-.52-.8-1.48-1.15-2.06-.16-.34-.51-1.12-.62-1.35l-.57-1.54v-.04c-.09-.2-.19-.39-.31-.58l-.93-1.42c-.78-1.33-1.86-3.11-2.6-4.47-.17-.31-.72-1.01-.96-1.33-.74-1.03-1.46-2.22-2.23-3.27-.13-.2-1.1-1.33-1.29-1.57l-.03-.04c-.13-.17-1.01-1.01-1.34-1.34-.73-.88-1.46-1.75-2.21-2.61-.21-.25-.46-.47-.76-.64-.72-.38-1.99-1.32-2.83-1.3l-1.29-.09c-.93-.05-2.81-.11-3.79-.13-.33-.02-.65.02-.98.13l-1.48.47c-1.11.24-2.22.44-3.33.69l-1.71.52-.07.02c-.09.03-.17.06-.26.1l-1.55.68-1.54.52-.07.02c-.29.08-1.28.68-1.77.96l-1.49.53c-.3.1-.58.26-.84.47-1.16.95-2.89,2.43-4.1,3.28-.12.1-.26.19-.36.31l-1.22,1.32-.09.1c-.07.08-.13.16-.19.25l-.88,1.36c-.21.27-.4.85-.55,1.38-.39-.04-.76-.08-.99-.11l-1.54-.41-1.69-.34-1.35-.58-.2-.09c-.36-.16-1.47-.18-2.07-.22l-1.3-.51c-.21-.09-.48-.19-.72-.17h-1.6l-1.3-.46-1.72-.59-.17-.06s-.04-.01-.06-.02l-1.76-.33-.17-.03h-.07l-1.8-.06-1.55-.26-1.54-.52-.13-.04c-.06-.02-.13-.03-.2-.04l-1.72-.12-1.55-.45-.1-.03h-.02l-1.76-.32-.09-.02h-.09l-1.68-.03-1.53-.53s-.08-.03-.1-.03l-1.75-.4h-.05l-.02-.02-1.77-.26h-.14l-1.69.02-1.58-.51c-.07-.03-.15-.04-.23-.04l-1.74-.04c-.33-.07-1.69-.35-1.69-.34h-.12l-1.68-.05-1.62-.56c-.08-.03-.17-.04-.25-.04h-1.76l-1.59-.15c-.32-.03-.64.14-.78.44-.19.39-.02.87.38,1.05l1.43.69c.06.03.14.05.2.06l1.61.29c1.88,1.09,3.89,2.03,5.9,2.84.72.29,1.41.63,2.12.91l1.52.47,1.45.85,1.55.86s.06.03.1.04l.11.04,1.49.52,1.52.85,1.46.71,1.47.95s.02.01.03.02l.15.07,1.58.76.12.05,1.4.55.66.4.79.48c.1.06.21.11.33.14l.19.05,1.3.34,1.26.86c.09.06.19.11.29.15l.19.07,1.45.51,1.33.65,1.44.94c.09.06.19.11.3.15l.18.07,1.21.44,1.19.92c.16.12.36.23.56.3l.17.06,1.42.48,1.23.61,1.33.96c.1.07.22.14.34.2l.12.05,1.6.71c.07.03.16.06.23.08l.11.03,1.29.37,1.25.78,1.56.89c.14.08.3.13.46.19.05.02.09.05.14.06h.06l.61.18.34.59c.11.18.24.37.4.53l.02.02,1.1,1.14c.53.73,1.47,2.04,1.89,2.69.69.86,1.63,1.47,2.41,2.26l1.97,1.79c.29.26.64.47,1.03.59l1.71.54c.11.04.22.06.34.09l1.77.33h.02c.45.09.93.06,1.39-.1l1.79-.61,1.77-.67h.04c.12-.04,1.82-.97,1.94-1.01.11-.06.22-.12.32-.2l1.54-1.1c.07-.05.14-.1.2-.16l1.37-1.18,1.41-1.13.04-.03c.26-.22,1.4-1.38,1.64-1.64l1.18-1.39.04-.05c.31-.33.89-1.69,1.11-2.11l.03-.06s.03-.07.05-.11l.69-1.72c.24-.55.29-1.18.09-1.8l-1.11-3.52-.03-.09c-.07-.22-.17-.43-.31-.62l-1-1.43-.81-1.47-.04-.08c-.82-1.13-1.91-2.07-2.85-3.1-.27-.29-.59-.52-.98-.65l-1.75-.58c-.44-.17-.92-.2-1.41-.07l-1.67.45-1.62.25c-.4.05-.79.19-1.12.46l-1.18.94-1.14.38-.12.04c-.82.19-1.4,1.34-1.87,2.03l-.96.92-.1.1c-.22.21-.39.47-.49.78l-1,3.09c-.14.38-.18.79-.06,1.21l.46,1.57c.06.24.14.46.31.66l1,1.29c.12.15.2.27.36.39l1.33.99c.19.15.39.27.64.34l1.63.42c.29.09.6.12.91.03l1.6-.44.16-.04c.08-.02.15-.05.22-.09l1.39-.77.15-.08c.39-.16,1.11-1.43,1.38-1.78,1.06-1.63-1.15-3.36-2.47-1.9l-.79.93-.92.4-.97.17-.8-.27-.76-.67-.54-.84-.14-.63.77-1.93.88-.74c.18-.15.52-.61.83-1.02.54-.14,1.14-.29,1.54-.55l.1-.07.95-.68,1.26-.13s.12-.02.17-.03l.11-.02,1-.23.46.18c.6.67,1.19,1.35,1.79,2.02l.71,1.41c.03.05.06.11.09.16l.05.08.76,1.18.26.91.38,1.34-.32.74-.63,1.21-.92,1.04-1.12,1.09c-.76.57-2.08,1.62-2.8,2.25l-1.28.89-1.38.71c-.67.26-1.72.62-2.55.9l-.88-.16-.96-.31c-1.02-.93-2.3-2.11-3.29-2.96-.56-.81-1.44-2.03-1.93-2.69-.07-.09-.15-.19-.23-.27l-1.02-1.04-.74-1.26-.03-.05c-.36-.6-.95-1.07-1.68-1.25l-1.45-.36c-.84-.45-2.05-1.13-2.74-1.54-.45-.26-1.55-.46-2.18-.62l-1.24-.48-1.21-.77-.13-.08c-.07-.04-.15-.09-.23-.12l-1.61-.69-.15-.07c-.06-.03-.13-.05-.2-.07l-1.4-.36-1.07-.71c-.19-.14-.43-.28-.67-.33l-1.54-.42-1.23-.66c-.31-.19-1.75-.68-2.09-.82-.01,0-.03,0-.04-.01l-1.56-.39-1.23-.66c-.19-.11-.4-.22-.63-.25l-1.59-.25-1.25-.59-.17-.08s-.07-.03-.12-.04l-1.7-.47.12.05-1.63-.59-1.41-.72-.14-.07h-.02l-1.61-.6-1.57-.68-.13-.06s-.05-.02-.08-.03l-1.66-.42c-.84-.37-2.24-1.02-2.99-1.4l-.08-.04s-.1-.04-.15-.05l-1.72-.39c-1.34-.48-3.3-1.14-5.14-1.9l.5.02,1.69.36s.09,0,.13.02l1.67.08,1.61.57c.07.02.15.04.23.04h.03l1.72.05,1.65.32.39.11,1.24.36.31.13,1.33.56c.07.03.15.05.23.06h.07l.44.05,1.24.12,1.58.42,1.66.64s.09.03.14.04l.11.02,1.55.26,1.54.7s.05.02.07.03l.14.04,1.72.48h.04l.16.02,1.6.22,1.48.44,1.59.74,1.6.79c.13.07.29.11.44.13l.2.02,1.34.14,1.37.7c.12.06.26.11.4.13l.21.04,1.32.23,1.37.74c.07.04.16.08.24.1l.2.06,1.65.49,1.62.58s.1.03.15.04l.19.04,1.37.27,1.48.69c.2.09.43.17.66.2,1.23.2,2.38-.55,2.75-1.71.04-.11.07-.23.09-.35.02-.05.15-.94.22-1.44l.34-.96.6-.82.96-.95c1.3-.89,2.63-1.92,3.87-2.91l1.29-.43c.13-.04.27-.1.39-.17l.05-.03,1.31-.71,1.48-.46c.06-.02.13-.04.19-.07l.05-.02,1.47-.62,1.42-.4c1.15-.22,2.31-.39,3.44-.66l1.1-.32c1.15.06,2.5.1,3.68.2l.51.31c.71.84,1.39,1.71,2.11,2.54l.29.3.84.85.94,1.16c.17.25.66.98.67.98.65,1,1.46,2.26,2.2,3.24.44.81,1.28,2.28,1.7,2.98l.92,1.58.8,1.25.49,1.36c.02.06.05.13.08.19v.02l.73,1.61c.05.11.11.22.17.32l.73,1.21.28.91-.13,1.34c-.01.11-.02.23-.01.34l.02,1.34-.4.97-.66,1-.76.86-1.11.81c-.22.16-.89.83-1.29,1.24l-1.1.66-.03.02c-.39.21-1,.89-1.45,1.38-.77.39-1.84.88-2.45,1.15-.23.08-.98.58-1.46.89-1.55.47-3.13,1.12-4.64,1.59-.38.1-1.25.65-1.82.99l-1.43.39h-.05c-.4.1-1.73.83-2.15.99-.55.24-1.61,1.25-2.09,1.65-.24.17-1.31,1.47-1.54,1.69-.23.25-.42.55-.55.88-.29.71-.67,1.76-1,2.43l-1.08,2.46-.02.05c-.11.21-.53,1.86-.6,2.09-.16.45-.11,1.5-.09,2.2l-.38,1.3-.02.05c-.14.45-.17,1.93-.22,2.42-.05.46.25,1.65.38,2.28.05,1.13.1,2.8.26,3.83l.4,1.74v.05c.09.34.6,1.44.84,1.96l.41,1.48v.05c.12.5.87,1.52,1.25,2.08l.63,1.4.02.04s.05.1.07.15l.85,1.57.02.04c.03.06.07.12.11.18l1.04,1.56,1.14,1.49.03.04c.09.11.19.22.29.32l1.29,1.19,1.07,1.03.82,1.21.04.06c.28.52,1.48,1.19,2.02,1.58,1.33,1.05,2.69,2.22,3.91,3.38l1.38,1.08.11.08c.3.19,1.53.98,1.85,1.14.73.33,2.15,1.02,2.93,1.44l1.17.9.13.1c.09.07.2.13.31.18l1.49.69c.83.56,2.14,1.42,2.9,1.89,0,0,1.2.65,1.48.8l1.17.86,1.08,1.09.1.1c.17.21,1.44.88,1.79,1.09l1.16.87,2.15,2.46c.11.16,1.05.9,1.44,1.22l.91,1.22.03.05s.06.07.09.1l1.09,1.17.78,1.35.02.03c.08.18.85.98,1.22,1.38l.64,1.39v.02c.06.14.91,1.47,1,1.64l.76,1.42.56,1.49.46,1.65s.03.08.04.12v.03l.6,1.5.33,1.63c.02.12.07.23.12.35l.65,1.48.34,1.34-.02,1.63c0,.48.41,1.64.52,2.18l.37,1.69s.02.1.04.14l.04.12.51,1.39.17,1.54.1,1.73s0,.09.02.14l.03.16.35,1.74s.02.07.03.1l.05.15.47,1.41.21,1.62s.01.08.02.11l.04.16.37,1.48c.07.59.15,1.48.25,2.03.22,1.36,1.57,2.26,2.91,1.95l.15-.04,1.61-.37,1.53-.19,1.75.02c.37,0,1.59-.26,2.16-.38l1.56-.15h1.78c1.68.03,3-1.56,2.67-3.21v-.07l-.35-1.78-.39-1.73-.67-3.4v-.03c-.03-.11-.06-.21-.09-.32l-.59-1.74-.6-1.44-.25-1.39v-.07s-.03-.08-.04-.12l-.4-1.54-.19-1.51v-.12c-.33-1.38-.93-2.79-1.39-4.13l-.42-1.21-.05-.16s-.03-.08-.05-.12l-.71-1.46-.4-1.37-.05-.18c-.02-.07-.05-.13-.08-.2l-.65-1.33v-.09l1.12,1.42.66,1.47c.11.23.85,1.21,1.13,1.59l.77,1.37.61,1.58c.04.11.1.2.16.3l1,1.51.96,1.29c.41.9,1.11,2.41,1.55,3.22l.04.06.87,1.3.65,1.51c.03.07.06.12.1.19-.05-.1.62,1.08.82,1.42l.66,1.53c.07.17.18.32.31.47l.94,1.1.54,1.37c.21.53.66.95,1.24,1.12.53.17,1.19.44,1.76.24l1.65-.4c.18-.04.36-.13.52-.22l1.49-.86,1.32-.85c.98-.46,1.97-.93,2.94-1.4.17-.08.34-.2.48-.33l1.11-.99,1.28-.81c.42-.27.75-.68.89-1.2v-.03l.27-.94c.19-.69.02-1.46-.51-2.02l-.02-.02-1.04-1.08-.79-1.29c-.06-.09-.13-.19-.2-.28l-.97-1.13-.7-1.34c-.04-.08-.1-.17-.15-.25l-1.01-1.41c-.06-.08-.12-.16-.19-.23l-1.02-1.08-.72-1.29v-.02c-.1-.15-.2-.29-.32-.42l-1.16-1.21-1.01-1.18-.85-1.32-.03-.04c-1.13-1.32-2.29-2.58-3.41-3.92l-.61-1.33-.03-.07c-.1-.21-.24-.41-.42-.57l-1.1-1.01-.72-1.22-.04-.07c-.09-.16-.22-.3-.36-.43l-1.16-.98-.79-1.24-1.05-1.45-.05-.07c0-.09-1.05-.91-1.47-1.25l-.38-.56c.36.23.84.54,1.07.68l1.13,1.02,1.08,1.32c.1.13.23.24.37.33.7.47,2.04,1.36,2.85,1.86l1.14,1.14c.05.06.11.09.17.15l1.41,1.09s.09.06.14.09c-.07-.06,1.07.68,1.4.89,1.21,1.03,2.91,2.28,4.15,3.24l1.36,1.1c.09.07.2.14.31.2l.06.03,1.38.67c1,.79,1.98,1.82,3.04,2.45l1.47.65,1.32.86,1.39,1.02c.22.16,1.29.68,1.72.91l1.45.92c.58.36,1.34.44,2,.13.48-.26,1.26-.47,1.59-.97l1.05-1.3s.07-.09.1-.13c0,0,.64-.93.86-1.26l1.07-1.17c.21-.22.37-.5.46-.81l.42-1.41.73-1.23.02-.03c.08-.14.15-.29.19-.45l.46-1.62.49-1.61v-.04c.13-.4.13-.85-.03-1.28l-.26-.7-.02-.05c-.18-.48-.56-.89-1.07-1.11l-1.5-.64-1.33-.88-.06-.04c-.15-.1-.31-.17-.49-.22l-1.58-.44-1.4-.71-.06-.03c-.06-.03-.13-.06-.2-.08l-1.6-.53c-1.29-.64-3.48-1.61-4.75-2.14l-1.41-.79-1.47-.93-.08-.05s-.11-.06-.17-.09l-1.59-.67-1.44-.81c-.12-.08-.25-.13-.4-.17l-1.5-.37-1.16-.87c-.11-.09-.22-.15-.35-.21l-1.61-.64-1.37-.75-1.29-1.03-.05-.04s-.08-.06-.13-.09l-1.54-.89-.05-.03s-.08-.04-.12-.06l-1.43-.58.96.34c2.41.9,5.15,1.51,7.66,2.17l1.64.62c.09.03.19.06.29.07l.14.02,1.47.16,1.52.59c.14.06.29.07.44.09l1.7.23,1.49.3,1.69.52s.1.03.15.03l.17.02,1.81.26,1.55.14,1.65.42c.06.02.13.03.2.03.02,0,1.89.15,1.95.16.27,0,1.08-.08,1.68-.15l1.39.38c.35.11.74.09,1.12,0l1.29-.23,1.48.2c.07,0,.15.02.23.02,1.42.06,2.63-1.04,2.69-2.46v-.16l.08-1.65.35-1.76.27-1.67.49-1.73c.06-.2.09-.43.09-.65.04-1.23.1-2.75,0-3.98-.12-1.55-1.47-2.71-3.03-2.6l-1.63.12c-1.07,0-2.14,0-3.21.03l-1.47-.24-.15-.02c-.13-.02-.26-.03-.39-.02l-1.65.07-1.49-.16-.17-.02c-.17-.02-.34,0-.51,0l-1.47.23-1.28-.2-.19-.03c-.1,0-.2-.02-.3-.02l-1.68.06-1.49-.19-.18-.02h-1.81l-1.49-.22-.19-.03c-.09,0-.18-.02-.27,0l-1.76.09-1.57-.1c-1.08-.22-4.41-.62-6.27-1.15-.8-.19-1.65-.38-2.47-.52l-1.57-.07-1.34-.56-.1-.04c-.11-.05-.24-.08-.37-.09l-1.69-.16-1.42-.44-1.44-.76-.06-.03s-.1-.05-.16-.07l-1.58-.52c-1.08-.65-2.33-1.22-3.41-1.82l-1.07-.62c-.87-.63-1.74-1.27-2.61-1.93l-.95-1.22s-.09-.1-.13-.15l-1.18-1.13-.83-1.09c-.16-.59-.25-1.21-.49-1.78-.27-.44-.54-.89-.8-1.33-.2-1-.49-2.37-.73-3.32l.06.22c-.09-.84-.22-2.55-.24-3.4l.02.29.15-1.74c-.03-.17-.1-1.83-.11-2.05l.03.33c.11-1.36.28-3.29.35-4.75.05-.17.09-.36.15-.57.57.06,1.23.11,1.52.12,1.66-.03,3.35-.04,5.04-.09l1.53.22h.03c.48.09,1.6-.11,2.25-.19l1.58.03h.03c.52.04,1.48-.31,2.17-.52h1.37c.28,0,1.31-.18,1.87-.27.64.03,1.8.13,2.16.02,1.43-.29,3.64-.75,5.06-.93.27-.03,1.34-.37,1.86-.52l1.54-.21h.03c.32-.04,1.3-.38,1.86-.56l1.49-.17h.03c.38-.04,1.77-.49,2.21-.6l1.65-.6,1.69-.49,1.52-.55,1.5-.26h.03c.29-.05,1.66-.51,2-.61.31-.09,1.18-.54,1.7-.8l1.44-.35c1.24-.43,2.43-1.05,3.66-1.53.4-.16,1.17-.74,1.7-1.13l1.26-.48,1.62-.52c.29-.1.58-.24.84-.44l1.05-.81,1.25-.43c.61-.19,1.59-1,2.17-1.37l1.35-.99c.32-.19,1.07-.61,1.3-.75.38-.18,1.49-.71,1.49-.7.55-.25,1.25-1,1.78-1.52l1.33-.82,1.51-1.04c.25-.17,1.33-1.13,1.61-1.36l1.33-1.25c.08-.07.15-.15.22-.23l1.02-1.21,1.16-1.05c.07-.06.14-.13.21-.21.58-.62,1.61-1.82,2.22-2.56.38-.32,1.18-1,1.18-1,.42-.36,1.06-1.37,1.44-1.86l1.05-1.35c.25-.31.7-1.26.97-1.81l.91-1.17c.1-.13.19-.26.26-.41.4-.78,1.23-2.27,1.67-3.03.04-.03,1.48-3.48,1.51-3.57.58-1.39-.06-3-1.45-3.61l-.14.03v-.03h0ZM569.3,66.93l-.81,1.41-.73,1.38-.94,1.2c-.11.14-.22.31-.3.47l-.49.97-.18.36-.95,1.21-.87,1.2-1.1.94c-.11.1-.23.22-.33.34l-1.09,1.31-1.04,1.15-1.2,1.08c-.09.08-.18.18-.26.27,0,0-.77.91-1.04,1.23l-1.12,1.05-1.18,1.01-1.28.88-1.44.89c-.16.1-.32.22-.46.36l-.96.91-1.2.57c-.07.03-.14.07-.2.11l-1.52.88c-.08.05-.17.1-.25.16-.54.41-1.75,1.26-2.49,1.77l-1.33.45c-.28.1-.56.24-.8.43l-1.04.79-1.29.42-1.72.65c-.21.08-.43.2-.63.33l-1.22.86c-.92.38-1.84.78-2.75,1.18-.72.18-1.19.22-2.05.56l-1.4.68-1.31.4c-.7.13-1.14.14-2.03.39l-1.58.56-1.69.48-1.65.59-1.37.39c-.64.08-1.37.1-2.05.28,0,0-.99.31-1.45.46l-1.51.2c-.13.02-.28.05-.41.09l-1.49.43c-1.39.18-3.37.58-4.8.86l-1.44-.07c-.18,0-.39,0-.58.03l-1.55.24c-.69,0-1.76-.07-2.33.11,0,0-.78.24-1.29.39-.57-.02-1.41-.05-1.71,0,0,0-.86.11-1.37.17-.59-.09-1.54-.25-1.85-.23-1.29.03-2.59.04-3.89.05-.39,0-.78.01-1.17.02l-.31-.03.04-.34.83-2.87.68-1.47.6-1.53c.4-.77,1.13-2.08,1.55-2.75.09-.15.42-.88.65-1.39.5-.53,1.23-1.29,1.4-1.76v-.03l.42-.9c.51-.41,1.14-.92,1.32-1.2,0,0,.74-.98.97-1.29.56-.63,1.53-1.71,2.12-2.34.79-.71,1.57-1.42,2.35-2.15.78-.55,2.08-1.51,2.76-2.03.09-.06.8-.69,1.21-1.05l1.24-.67c.25-.14,1.43-.95,1.73-1.16.13-.09.25-.19.37-.3l.99-.92,1-.51c.51-.19,1.74-.63,1.91-.74l1.53-.84.05-.03c.22-.12.94-.66,1.4-1.01,1.47-.58,2.91-1.12,4.42-1.62.22-.07.43-.17.63-.29l1.16-.71,1.25-.35.06-.02c.06-.02.11-.03.17-.05l1.52-.55,1.51-.37.07-.02c.34-.08,1.27-.51,1.81-.74l1.2-.28,1.48-.07h.06c.34-.02.68-.1,1.01-.24l1.18-.52,1.22-.09h.07c.11-.01.22-.03.34-.05-.05,0,1.25-.26,1.6-.34l1.58-.18h.06c.22-.03.44-.09.66-.17l1.31-.5,1.31-.11h.06c.14,0,1.2-.2,1.69-.28.98,0,2.56-.02,3.42-.08.23-.02,1.48-.19,1.9-.25.82-.04,2.02-.07,2.74-.07.96.01,1.93.03,2.89.15,1.48.15,2.95.15,4.41.39l1.47.23h.03c.28.06,1.19.03,1.77.03l1.33.37h.03c.15.05.3.08.45.09l1.47.15.22.07c-.07.16-.13.32-.2.48h.01Z"/>
  </g>
</svg>